<svg xmlns="http://www.w3.org/2000/svg" xmlns:xlink="http://www.w3.org/1999/xlink" width="1366" zoomAndPan="magnify" viewBox="0 0 1024.5 576" height="768" preserveAspectRatio="xMidYMid meet" version="1.0"><defs><clipPath id="3b8a83b68d"><path d="M 0 0.140625 L 1024 0.140625 L 1024 575.859375 L 0 575.859375 Z M 0 0.140625 " clip-rule="nonzero"/></clipPath><clipPath id="53a1bff714"><path d="M 209 87 L 362.765625 87 L 362.765625 253 L 209 253 Z M 209 87 " clip-rule="nonzero"/></clipPath><clipPath id="5946682b9a"><path d="M 129 249.617188 L 901.394531 249.617188 L 901.394531 444.378906 L 129 444.378906 Z M 129 249.617188 " clip-rule="nonzero"/></clipPath><clipPath id="2313d86d5a"><path d="M 896.730469 444.089844 L 133.582031 444.089844 C 131.191406 444.089844 129.21875 442.117188 129.21875 439.726562 L 129.21875 254.28125 C 129.21875 251.886719 131.191406 249.914062 133.582031 249.914062 L 896.671875 249.914062 C 899.0625 249.914062 901.035156 251.886719 901.035156 254.28125 L 901.035156 439.667969 C 901.09375 442.117188 899.121094 444.089844 896.730469 444.089844 Z M 896.730469 444.089844 " clip-rule="nonzero"/></clipPath><clipPath id="105ee53d07"><path d="M 127.722656 248.421875 L 902.589844 248.421875 L 902.589844 446 L 127.722656 446 Z M 127.722656 248.421875 " clip-rule="nonzero"/></clipPath><clipPath id="f661ef4230"><path d="M 896.730469 251.230469 C 898.40625 251.230469 899.78125 252.605469 899.78125 254.28125 L 899.78125 439.726562 C 899.78125 441.402344 898.40625 442.777344 896.730469 442.777344 L 133.582031 442.777344 C 131.910156 442.777344 130.535156 441.402344 130.535156 439.726562 L 130.535156 254.28125 C 130.535156 252.605469 131.910156 251.230469 133.582031 251.230469 L 896.730469 251.230469 M 896.730469 248.421875 L 133.582031 248.421875 C 130.355469 248.421875 127.722656 251.050781 127.722656 254.28125 L 127.722656 439.726562 C 127.722656 442.957031 130.355469 445.585938 133.582031 445.585938 L 896.730469 445.585938 C 899.960938 445.585938 902.589844 442.957031 902.589844 439.726562 L 902.589844 254.28125 C 902.589844 251.050781 899.960938 248.421875 896.730469 248.421875 Z M 896.730469 248.421875 " clip-rule="nonzero"/></clipPath><clipPath id="49cf8cacc6"><path d="M 126 249.601562 L 891.425781 249.601562 L 891.425781 434.789062 L 126 434.789062 Z M 126 249.601562 " clip-rule="nonzero"/></clipPath><clipPath id="f392f132ef"><path d="M 886.9375 434.488281 L 130.519531 434.488281 C 128.15625 434.488281 126.207031 432.539062 126.207031 430.179688 L 126.207031 254.210938 C 126.207031 251.847656 128.15625 249.898438 130.519531 249.898438 L 886.878906 249.898438 C 889.238281 249.898438 891.1875 251.847656 891.1875 254.210938 L 891.1875 430.117188 C 891.25 432.539062 889.300781 434.488281 886.9375 434.488281 Z M 886.9375 434.488281 " clip-rule="nonzero"/></clipPath><clipPath id="746146b380"><path d="M 124.730469 248.421875 L 893 248.421875 L 893 435.964844 L 124.730469 435.964844 Z M 124.730469 248.421875 " clip-rule="nonzero"/></clipPath><clipPath id="6cabf99f8e"><path d="M 886.9375 251.195312 C 888.589844 251.195312 889.949219 252.554688 889.949219 254.210938 L 889.949219 430.179688 C 889.949219 431.832031 888.589844 433.191406 886.9375 433.191406 L 130.519531 433.191406 C 128.863281 433.191406 127.503906 431.832031 127.503906 430.179688 L 127.503906 254.210938 C 127.503906 252.554688 128.863281 251.195312 130.519531 251.195312 L 886.9375 251.195312 M 886.9375 248.421875 L 130.519531 248.421875 C 127.328125 248.421875 124.730469 251.019531 124.730469 254.210938 L 124.730469 430.179688 C 124.730469 433.367188 127.328125 435.964844 130.519531 435.964844 L 886.9375 435.964844 C 890.125 435.964844 892.726562 433.367188 892.726562 430.179688 L 892.726562 254.210938 C 892.726562 251.019531 890.125 248.421875 886.9375 248.421875 Z M 886.9375 248.421875 " clip-rule="nonzero"/></clipPath></defs><g clip-path="url(#3b8a83b68d)"><path fill="#ffffff" d="M 0 0.140625 L 1024 0.140625 L 1024 575.859375 L 0 575.859375 Z M 0 0.140625 " fill-opacity="1" fill-rule="nonzero"/><path fill="#ffefcd" d="M 0 0.140625 L 1024 0.140625 L 1024 575.859375 L 0 575.859375 Z M 0 0.140625 " fill-opacity="1" fill-rule="nonzero"/></g><g clip-path="url(#53a1bff714)"><path fill="#101011" d="M 293.734375 93.71875 C 287.894531 88.796875 277.125 86.691406 266.292969 88.363281 C 258.289062 89.597656 252.25 92.597656 249.71875 96.597656 C 244.796875 104.375 245.78125 120.265625 246.019531 123.28125 C 236.492188 127.492188 236.492188 128.304688 236.492188 128.898438 C 236.492188 129.160156 236.613281 129.410156 236.828125 129.578125 C 237.058594 129.761719 237.570312 129.839844 238.292969 129.839844 C 240.003906 129.839844 242.902344 129.390625 246.074219 128.769531 L 246.820312 151.957031 C 246.828125 152.21875 246.988281 152.457031 247.234375 152.558594 C 247.398438 152.625 259.324219 157.46875 276.695312 157.46875 C 283.472656 157.46875 291.078125 156.730469 299.140625 154.6875 C 299.414062 154.617188 299.617188 154.382812 299.644531 154.101562 C 299.863281 152.023438 304.855469 103.09375 293.734375 93.71875 Z M 247.035156 124.304688 C 247.042969 124.300781 247.050781 124.296875 247.058594 124.292969 C 249.761719 123.101562 252.777344 121.839844 255.707031 120.667969 C 256.050781 120.53125 256.21875 120.136719 256.082031 119.792969 C 255.945312 119.445312 255.550781 119.277344 255.207031 119.417969 C 255.1875 119.425781 254.40625 119.738281 253.191406 120.234375 C 252.921875 115.761719 254.222656 111.761719 255.40625 109.128906 C 255.433594 109.945312 255.589844 110.71875 256 111.265625 C 256.390625 111.792969 256.988281 112.082031 257.675781 112.070312 C 259.382812 112.066406 260.707031 110.453125 261.609375 108.84375 C 261.722656 109.917969 262 110.964844 262.597656 111.558594 C 263 111.957031 263.511719 112.132812 264.085938 112.066406 C 265.683594 111.875 267.265625 109.898438 268.34375 108.203125 C 268.398438 110.308594 268.769531 112.417969 269.988281 112.761719 C 270.886719 112.972656 271.890625 112.757812 272.816406 112.15625 C 274.035156 111.363281 275.023438 109.964844 275.699219 108.117188 C 276.4375 110.179688 277.570312 111.71875 279.078125 112.703125 C 279.8125 113.179688 280.554688 113.46875 281.25 113.644531 C 280.902344 113.835938 280.585938 114.058594 280.308594 114.316406 C 280.035156 114.574219 280.023438 115 280.277344 115.269531 C 280.535156 115.542969 280.960938 115.554688 281.230469 115.300781 C 282.238281 114.351562 284.40625 113.882812 286.292969 114.734375 C 288.097656 115.550781 289.042969 117.371094 288.960938 119.859375 C 288.894531 121.757812 288.304688 123.132812 287.207031 123.953125 C 285.101562 125.511719 281.75 124.648438 281.71875 124.640625 C 281.359375 124.542969 280.988281 124.757812 280.890625 125.117188 C 280.796875 125.476562 281.007812 125.84375 281.367188 125.941406 C 281.453125 125.964844 282.5 126.238281 283.855469 126.238281 C 284.039062 126.238281 284.226562 126.230469 284.421875 126.21875 C 284.183594 128.496094 284.085938 134.757812 284.398438 146.890625 C 267.695312 153.839844 256.898438 148.035156 255.109375 146.949219 L 254.199219 133.066406 C 255.144531 133.402344 256.632812 133.816406 258.304688 133.816406 C 259.242188 133.816406 260.234375 133.683594 261.21875 133.339844 C 263.371094 132.585938 265.035156 130.957031 266.164062 128.503906 C 266.320312 128.164062 266.171875 127.765625 265.835938 127.609375 C 265.496094 127.453125 265.097656 127.601562 264.941406 127.941406 C 263.972656 130.046875 262.570312 131.433594 260.78125 132.066406 C 258.042969 133.027344 255.089844 131.988281 254.105469 131.582031 L 253.820312 127.253906 C 253.816406 127.199219 253.792969 127.148438 253.777344 127.097656 C 254.726562 126.875 255.628906 126.660156 256.460938 126.457031 C 256.820312 126.371094 257.042969 126.007812 256.957031 125.644531 C 256.867188 125.28125 256.503906 125.0625 256.140625 125.148438 C 248.960938 126.890625 241.0625 128.476562 238.417969 128.554688 C 239.765625 127.648438 243.058594 126.054688 247.035156 124.304688 Z M 362.003906 252.492188 C 361.964844 252.492188 361.929688 252.488281 361.890625 252.480469 L 210.5 227.4375 C 210.132812 227.375 209.886719 227.03125 209.945312 226.664062 C 210.007812 226.292969 210.351562 226.042969 210.722656 226.105469 L 362.109375 251.152344 C 362.476562 251.210938 362.726562 251.558594 362.667969 251.925781 C 362.613281 252.257812 362.328125 252.492188 362.003906 252.492188 Z M 262.964844 120.964844 C 263.109375 120.988281 263.253906 121 263.402344 121 C 264.265625 121 265.144531 120.574219 266.019531 119.730469 C 266.289062 119.472656 266.296875 119.046875 266.039062 118.777344 C 265.78125 118.507812 265.355469 118.5 265.085938 118.757812 C 264.386719 119.429688 263.753906 119.726562 263.195312 119.632812 C 262.371094 119.5 261.867188 118.558594 261.859375 118.546875 C 261.691406 118.21875 261.285156 118.085938 260.953125 118.257812 C 260.625 118.425781 260.492188 118.832031 260.660156 119.164062 C 260.695312 119.226562 261.46875 120.710938 262.964844 120.964844 Z M 280.882812 122.011719 C 280.960938 122.042969 281.042969 122.058594 281.125 122.058594 C 281.394531 122.058594 281.652344 121.894531 281.753906 121.625 C 282.03125 120.898438 282.371094 120.335938 282.726562 119.890625 C 282.882812 120.070312 283.558594 120.910156 283.335938 121.984375 C 283.261719 122.347656 283.496094 122.703125 283.859375 122.78125 C 283.90625 122.789062 283.953125 122.792969 283.996094 122.792969 C 284.308594 122.792969 284.589844 122.574219 284.65625 122.257812 C 285.007812 120.558594 284 119.292969 283.710938 118.972656 C 284.785156 118.246094 285.78125 118.316406 285.855469 118.320312 C 286.21875 118.359375 286.554688 118.089844 286.59375 117.722656 C 286.632812 117.351562 286.363281 117.019531 285.992188 116.980469 C 284.703125 116.847656 281.878906 117.535156 280.496094 121.140625 C 280.363281 121.488281 280.535156 121.878906 280.882812 122.011719 Z M 280.882812 122.011719 " fill-opacity="1" fill-rule="nonzero"/></g><path fill="#399be6" d="M 325.527344 253.222656 C 297.933594 276.6875 267.242188 242.390625 260.382812 228.882812 C 264.179688 226.5625 286.304688 205.773438 286.304688 205.773438 L 285.136719 205.867188 C 285.136719 205.867188 268.667969 189.46875 262.886719 186.621094 C 257.105469 183.777344 257.851562 188.308594 258.835938 191.136719 C 254.175781 188.792969 252.996094 190.683594 253.730469 195.101562 C 247.292969 191.5 247.191406 197.542969 248.832031 202.078125 C 250.472656 206.617188 258.367188 219.84375 258.367188 219.84375 L 244.003906 230.882812 C 241.988281 244.359375 209.765625 265.464844 202.339844 231.554688 C 198.347656 213.34375 203.527344 194.25 213.640625 178.726562 L 214.480469 184.5625 L 258.519531 166.273438 C 258.519531 166.273438 258.238281 161.417969 257.042969 157.746094 C 242.269531 160.339844 220.390625 173.027344 220.390625 173.027344 L 218.953125 171.449219 C 228.308594 159.964844 240.429688 151.273438 253.101562 147.699219 C 284.054688 138.976562 304.464844 154.246094 317.257812 172.746094 C 332.132812 194.246094 341.742188 239.433594 325.527344 253.222656 Z M 325.527344 253.222656 C 297.933594 276.6875 267.242188 242.390625 260.382812 228.882812 C 264.179688 226.5625 286.304688 205.773438 286.304688 205.773438 L 285.136719 205.867188 C 285.136719 205.867188 268.667969 189.46875 262.886719 186.621094 C 257.105469 183.777344 257.851562 188.308594 258.835938 191.136719 C 254.175781 188.792969 252.996094 190.683594 253.730469 195.101562 C 247.292969 191.5 247.191406 197.542969 248.832031 202.078125 C 250.472656 206.617188 258.367188 219.84375 258.367188 219.84375 L 244.003906 230.882812 C 241.988281 244.359375 209.765625 265.464844 202.339844 231.554688 C 198.347656 213.34375 203.527344 194.25 213.640625 178.726562 L 214.480469 184.5625 L 258.519531 166.273438 C 258.519531 166.273438 258.238281 161.417969 257.042969 157.746094 C 242.269531 160.339844 220.390625 173.027344 220.390625 173.027344 L 218.953125 171.449219 C 228.308594 159.964844 240.429688 151.273438 253.101562 147.699219 C 284.054688 138.976562 304.464844 154.246094 317.257812 172.746094 C 332.132812 194.246094 341.742188 239.433594 325.527344 253.222656 Z M 325.527344 253.222656 " fill-opacity="1" fill-rule="nonzero"/><path fill="#2e3192" d="M 229.207031 168.378906 L 231.984375 152.128906 C 232.414062 152.0625 233.050781 152.082031 233.804688 152.457031 L 231.261719 167.339844 L 232.730469 166.601562 L 236.128906 146.691406 C 236.371094 145.269531 235.574219 143.941406 234.351562 143.730469 C 233.128906 143.523438 231.9375 144.507812 231.695312 145.929688 L 227.738281 169.121094 Z M 232.523438 148.933594 C 233.574219 148.660156 234.121094 149.011719 234.351562 149.238281 L 234.042969 151.058594 C 233.667969 150.882812 233.054688 150.71875 232.195312 150.871094 Z M 336.667969 246.941406 C 337.003906 244.980469 340.265625 225.074219 339.410156 201.359375 C 339.082031 192.164062 336.378906 185.429688 331.375 181.351562 C 327.625 178.292969 323.238281 177.316406 319.996094 177.066406 C 319.859375 176.9375 319.265625 175.988281 319.136719 175.644531 C 322.625 175.777344 327.769531 176.679688 332.214844 180.296875 C 337.539062 184.632812 340.414062 191.703125 340.757812 201.3125 C 341.613281 225.105469 338.347656 245.097656 338 247.164062 C 337.8125 247.164062 336.726562 246.980469 336.667969 246.941406 Z M 336.667969 246.941406 " fill-opacity="1" fill-rule="nonzero"/><path fill="#fbbe28" d="M 248.101562 198.496094 C 248.339844 203.363281 257.316406 218.65625 262.644531 226.425781 C 250.515625 229.308594 232.214844 233.738281 231.785156 233.738281 C 231.460938 233.738281 226.820312 228.863281 222.339844 223.9375 C 221.433594 216.421875 219.460938 200.875 218.65625 200.121094 C 217.859375 199.375 212.464844 198.890625 209.820312 198.695312 C 205.519531 182.277344 199.390625 158.382812 199.917969 157.761719 C 200.359375 157.242188 219.335938 172.957031 220.179688 173.589844 C 221.023438 174.222656 263.019531 160.925781 263.652344 161.980469 C 263.949219 162.476562 266.25 176.136719 268.523438 190.511719 C 267.0625 189.277344 264.34375 187.128906 262.335938 186.410156 C 259.460938 185.382812 257.742188 186.222656 258.996094 191.222656 C 257.640625 190.183594 251.886719 187.980469 254.367188 195.742188 C 250.699219 193.191406 247.828125 192.800781 248.101562 198.496094 Z M 248.101562 198.496094 C 248.339844 203.363281 257.316406 218.65625 262.644531 226.425781 C 250.515625 229.308594 232.214844 233.738281 231.785156 233.738281 C 231.460938 233.738281 226.820312 228.863281 222.339844 223.9375 C 221.433594 216.421875 219.460938 200.875 218.65625 200.121094 C 217.859375 199.375 212.464844 198.890625 209.820312 198.695312 C 205.519531 182.277344 199.390625 158.382812 199.917969 157.761719 C 200.359375 157.242188 219.335938 172.957031 220.179688 173.589844 C 221.023438 174.222656 263.019531 160.925781 263.652344 161.980469 C 263.949219 162.476562 266.25 176.136719 268.523438 190.511719 C 267.0625 189.277344 264.34375 187.128906 262.335938 186.410156 C 259.460938 185.382812 257.742188 186.222656 258.996094 191.222656 C 257.640625 190.183594 251.886719 187.980469 254.367188 195.742188 C 250.699219 193.191406 247.828125 192.800781 248.101562 198.496094 Z M 248.101562 198.496094 " fill-opacity="1" fill-rule="nonzero"/><path fill="#ff5757" d="M 128.5625 225.902344 C 132.457031 259.972656 133.058594 260.273438 133.539062 260.511719 C 135.042969 261.265625 227.699219 273.527344 228.386719 273.527344 C 228.386719 273.527344 228.390625 273.527344 228.390625 273.527344 C 228.433594 273.527344 228.480469 273.523438 228.527344 273.511719 C 228.546875 273.507812 228.566406 273.5 228.582031 273.496094 C 228.609375 273.488281 228.632812 273.480469 228.65625 273.472656 L 255.109375 261.933594 C 255.429688 261.792969 255.589844 261.433594 255.480469 261.101562 C 255.273438 260.488281 254.992188 259.648438 240.648438 257.765625 C 234.546875 256.960938 228.433594 256.316406 227.058594 256.171875 C 224.40625 234.398438 220.242188 201.171875 219.382812 199.878906 C 219.101562 199.457031 218.4375 198.464844 173.351562 194.394531 C 152.007812 192.464844 127.726562 190.550781 125.710938 190.824219 C 125.273438 190.878906 125.105469 191.125 125.039062 191.316406 C 124.730469 192.242188 128.523438 225.566406 128.5625 225.902344 Z M 126.367188 192.136719 C 126.386719 192.136719 126.410156 192.136719 126.433594 192.136719 C 130.160156 192.136719 150.027344 193.652344 172.066406 195.632812 C 197.84375 197.949219 216.222656 199.976562 218.296875 200.730469 C 219.242188 203.6875 224.328125 244.472656 227.617188 272.085938 C 218.875 270.96875 139.800781 260.449219 134.316406 259.335938 C 133.839844 257.683594 132.449219 248.050781 129.863281 225.398438 C 128.019531 209.265625 126.558594 195.085938 126.367188 192.136719 Z M 167.378906 231.347656 C 167.800781 233.414062 169.382812 234.84375 170.90625 234.53125 C 172.429688 234.222656 173.324219 232.289062 172.902344 230.222656 C 172.480469 228.15625 170.898438 226.726562 169.375 227.039062 C 167.851562 227.347656 166.957031 229.28125 167.378906 231.347656 Z M 169.695312 228.601562 C 170.488281 228.4375 171.335938 229.285156 171.582031 230.492188 C 171.828125 231.695312 171.378906 232.808594 170.585938 232.96875 C 169.792969 233.132812 168.945312 232.285156 168.699219 231.078125 C 168.453125 229.875 168.898438 228.761719 169.695312 228.601562 Z M 169.695312 228.601562 " fill-opacity="1" fill-rule="nonzero"/><path fill="#101011" d="M 168.5625 179.515625 C 160.339844 178.957031 155.875 178.820312 155.289062 179.113281 C 154.878906 179.316406 154.796875 179.640625 154.683594 181.441406 C 154.570312 183.257812 154.511719 186.015625 154.535156 188.296875 C 154.582031 192.867188 154.890625 193.074219 155.214844 193.289062 C 155.792969 193.675781 163.628906 194.339844 168.25 194.699219 C 174.652344 195.199219 177.875 195.363281 179.53125 195.363281 C 181.132812 195.363281 181.273438 195.210938 181.410156 195.058594 C 182.199219 194.195312 181.882812 181.734375 181.5 181.070312 C 181.296875 180.710938 181.101562 180.375 168.5625 179.515625 Z M 156.085938 192.167969 C 155.738281 190.519531 155.859375 182.226562 156.125 180.3125 C 158.394531 180.175781 170.101562 180.890625 176.503906 181.480469 C 176.535156 183.34375 176.539062 191.964844 176.539062 193.902344 C 170.074219 193.5625 158.210938 192.605469 156.085938 192.167969 Z M 180.382812 194.015625 C 179.925781 194.035156 179.042969 194.015625 177.886719 193.96875 C 177.886719 192.179688 177.882812 183.800781 177.855469 181.609375 C 178.996094 181.726562 179.867188 181.835938 180.328125 181.925781 C 180.542969 183.796875 180.644531 192.175781 180.382812 194.015625 Z M 253.804688 147.148438 C 253.898438 147.207031 260.253906 151.027344 269.742188 151.027344 C 274.34375 151.027344 279.679688 150.128906 285.394531 147.46875 C 285.730469 147.308594 285.878906 146.910156 285.722656 146.570312 C 285.5625 146.234375 285.160156 146.085938 284.824219 146.246094 C 268.003906 154.078125 254.644531 146.082031 254.511719 146 C 254.191406 145.804688 253.777344 145.90625 253.582031 146.222656 C 253.386719 146.539062 253.488281 146.953125 253.804688 147.148438 Z M 313.191406 229.453125 C 308.160156 224.558594 302.464844 219.476562 297.609375 215.277344 C 297.722656 215.148438 297.785156 214.976562 297.773438 214.789062 C 297.761719 214.621094 296.609375 197.722656 295.984375 185.082031 C 295.964844 184.710938 295.648438 184.425781 295.277344 184.441406 C 294.90625 184.460938 294.617188 184.777344 294.636719 185.148438 C 295.191406 196.386719 296.164062 210.980469 296.382812 214.21875 C 290.894531 209.496094 286.730469 206.109375 286.304688 205.773438 C 285.359375 204.804688 270.894531 190.429688 263.566406 186.230469 C 261.421875 185 259.894531 184.789062 258.90625 185.589844 C 257.734375 186.539062 257.882812 188.636719 258.160156 190.074219 C 256.960938 189.589844 255.25 189.167969 254.121094 190.042969 C 253.230469 190.738281 252.9375 192.011719 253.246094 193.910156 C 251.941406 193.136719 250.558594 193.023438 249.417969 193.675781 C 247.761719 194.621094 246.566406 197.382812 248.191406 202.292969 C 250.574219 209.488281 261.902344 226.664062 262.382812 227.390625 C 262.566406 227.28125 263.292969 226.691406 263.425781 226.53125 C 263.308594 226.355469 251.796875 208.894531 249.472656 201.867188 C 248.101562 197.726562 248.949219 195.496094 250.089844 194.84375 C 251.132812 194.25 252.601562 194.765625 253.832031 196.15625 C 254.277344 196.867188 258.308594 203.238281 260.261719 204.914062 C 260.386719 205.023438 260.542969 205.074219 260.699219 205.074219 C 260.890625 205.074219 261.078125 204.996094 261.210938 204.839844 C 261.453125 204.558594 261.421875 204.132812 261.136719 203.890625 C 259.378906 202.382812 255.484375 196.25 254.992188 195.46875 C 254.328125 193.195312 254.308594 191.609375 254.949219 191.109375 C 255.714844 190.511719 257.585938 191.226562 258.582031 191.761719 C 259.242188 192.441406 264.570312 197.941406 265.914062 199.863281 C 266.046875 200.050781 266.257812 200.152344 266.46875 200.152344 C 266.601562 200.152344 266.738281 200.113281 266.855469 200.03125 C 267.160156 199.816406 267.234375 199.394531 267.019531 199.089844 C 265.707031 197.214844 261.066406 192.386719 259.796875 191.078125 C 259.324219 189.585938 259.003906 187.246094 259.753906 186.636719 C 260.234375 186.25 261.378906 186.527344 262.898438 187.398438 C 270.15625 191.558594 285.0625 206.617188 285.210938 206.769531 C 285.230469 206.789062 285.25 206.808594 285.273438 206.828125 C 285.425781 206.949219 300.699219 219.179688 312.25 230.421875 C 312.382812 230.546875 312.550781 230.613281 312.722656 230.613281 C 312.898438 230.613281 313.074219 230.542969 313.207031 230.410156 C 313.464844 230.140625 313.460938 229.714844 313.191406 229.453125 Z M 257.835938 163.140625 C 258.261719 163.050781 258.753906 162.9375 259.140625 162.800781 C 259.136719 162.796875 259.140625 162.789062 259.136719 162.785156 C 259.136719 162.785156 258.5 160.53125 257.652344 157.574219 C 257.554688 157.226562 257.195312 157.019531 256.84375 157.105469 C 247.503906 159.414062 229.1875 166.921875 220.410156 172.625 C 216.101562 165.195312 206.867188 157.570312 206.464844 157.238281 C 206.1875 157.007812 205.777344 157.039062 205.535156 157.308594 L 203.175781 159.945312 C 203.46875 160.195312 203.890625 160.519531 204.25 160.769531 L 206.105469 158.699219 C 207.996094 160.316406 214.875 166.394531 218.675781 172.375 C 219.449219 173.113281 220.039062 173.644531 220.195312 173.660156 C 220.414062 173.679688 220.890625 173.613281 221.8125 173.335938 C 230.40625 167.964844 247.527344 160.933594 256.539062 158.574219 C 257.265625 161.117188 257.796875 163.007812 257.835938 163.140625 Z M 257.835938 163.140625 " fill-opacity="1" fill-rule="nonzero"/><path fill="#ff5757" d="M 437.148438 233.308594 C 437.148438 233.308594 417.496094 261.3125 403.75 268.609375 C 362.792969 286.28125 348.972656 241.105469 361.390625 195.707031 C 373.734375 150.574219 413.730469 147.351562 422.335938 146.789062 C 456.257812 144.570312 481.492188 168.835938 482.328125 172.695312 C 478.125 170.273438 469.054688 166.144531 453.054688 163.726562 C 444.847656 162.671875 423.808594 161.9375 423.808594 161.9375 L 423.574219 168.773438 C 419.65625 169.046875 417.285156 169.300781 417.285156 169.300781 C 417.285156 169.300781 416.808594 204.089844 416.699219 212.011719 C 431.921875 223.304688 437.148438 233.308594 437.148438 233.308594 Z M 447.792969 243.640625 C 452.027344 254.089844 473.910156 270.777344 493.238281 257.035156 C 510.703125 244.621094 494.371094 196.441406 494.371094 196.441406 C 494.371094 196.441406 441.261719 227.511719 447.792969 243.640625 Z M 447.792969 243.640625 " fill-opacity="1" fill-rule="nonzero"/><path fill="#101011" d="M 455.894531 129.835938 C 455.441406 128.566406 447.351562 124.734375 440.753906 121.789062 L 440.753906 112.175781 C 443.25 111.480469 453.554688 107.863281 453.9375 95.367188 C 453.9375 95.339844 453.9375 95.3125 453.933594 95.285156 C 453.820312 94.046875 453.027344 93.195312 451.855469 93.070312 C 451.269531 93.007812 450.582031 93.15625 449.992188 93.519531 C 449.777344 91.109375 448.945312 89.652344 447.515625 89.179688 C 445.476562 88.507812 442.878906 90.21875 441.21875 92.363281 C 438.054688 91.464844 419.996094 86.722656 406.765625 91.132812 C 393.097656 95.6875 398.195312 114.957031 399.011719 117.742188 C 397.601562 119.742188 397.296875 122.464844 397.988281 124.707031 C 398.84375 127.472656 401.351562 130.101562 405.867188 129.554688 C 405.757812 135.882812 405.882812 151.332031 405.882812 151.492188 C 405.886719 151.683594 405.96875 151.867188 406.113281 151.992188 C 406.316406 152.171875 411.222656 156.367188 424.230469 156.367188 C 437.390625 156.367188 440.546875 150.640625 440.675781 150.398438 C 440.726562 150.300781 440.753906 150.195312 440.753906 150.085938 L 440.753906 130.421875 C 442.210938 130.566406 443.921875 130.730469 445.648438 130.871094 C 448.917969 131.140625 451.097656 131.238281 452.566406 131.238281 C 455.285156 131.238281 455.558594 130.894531 455.761719 130.636719 C 455.945312 130.410156 455.996094 130.109375 455.894531 129.835938 Z M 440.089844 129.007812 C 440.085938 129.007812 440.082031 129.003906 440.078125 129.003906 C 439.027344 128.894531 437.972656 128.78125 436.929688 128.660156 C 436.566406 128.617188 436.230469 128.878906 436.1875 129.246094 C 436.144531 129.617188 436.40625 129.949219 436.777344 129.992188 C 436.796875 129.996094 437.839844 130.117188 439.40625 130.28125 L 439.40625 134.765625 C 437.457031 135.519531 428.640625 138.414062 424.101562 131.074219 C 423.90625 130.761719 423.492188 130.664062 423.175781 130.859375 C 422.859375 131.054688 422.761719 131.46875 422.957031 131.785156 C 425.65625 136.144531 429.660156 137.300781 433.148438 137.300781 C 435.804688 137.300781 438.15625 136.628906 439.40625 136.195312 L 439.40625 149.898438 C 438.882812 150.695312 435.503906 155.023438 424.230469 155.023438 C 413.292969 155.023438 408.296875 151.925781 407.226562 151.15625 C 407.207031 148.769531 407.101562 134.015625 407.230469 128.78125 C 407.234375 128.578125 407.144531 128.382812 406.988281 128.25 C 406.835938 128.121094 406.628906 128.066406 406.425781 128.105469 C 402.898438 128.800781 400.222656 127.378906 399.273438 124.308594 C 398.433594 121.589844 399.320312 118.019531 402.261719 116.757812 C 403.878906 116.066406 405.226562 115.964844 406.269531 116.453125 C 407.585938 117.074219 408.011719 118.484375 408.015625 118.496094 C 408.035156 118.574219 408.074219 118.648438 408.121094 118.714844 C 408.226562 118.855469 410.730469 122.179688 413.863281 121.460938 C 417.957031 120.515625 418.148438 114.332031 418.0625 111.917969 C 420.535156 112.5 427.855469 113.804688 439.40625 112.40625 L 439.40625 121.191406 C 438.605469 120.835938 437.835938 120.5 437.121094 120.1875 C 436.78125 120.039062 436.386719 120.195312 436.238281 120.535156 C 436.089844 120.878906 436.246094 121.273438 436.585938 121.421875 C 437.652344 121.882812 438.726562 122.359375 439.796875 122.835938 C 439.808594 122.84375 439.824219 122.851562 439.839844 122.855469 C 446.117188 125.664062 452.125 128.570312 454.058594 129.859375 C 451.929688 130.039062 446.082031 129.632812 440.089844 129.007812 Z M 429.039062 121.007812 C 428.359375 120.773438 427.621094 121.132812 427.386719 121.808594 C 427.152344 122.484375 427.507812 123.222656 428.1875 123.460938 C 428.863281 123.695312 429.601562 123.335938 429.835938 122.660156 C 430.074219 121.984375 429.714844 121.242188 429.039062 121.007812 Z M 451.351562 202.769531 C 450.6875 201.953125 449.605469 201.574219 448.050781 201.609375 C 448.121094 200.226562 447.761719 199.226562 446.972656 198.628906 C 445.875 197.800781 444.292969 198.054688 443.28125 198.355469 C 443.210938 197.710938 442.976562 196.894531 442.308594 196.25 C 441.285156 195.269531 439.617188 195.019531 437.34375 195.503906 C 431.417969 196.773438 416.632812 210.75 415.628906 211.703125 C 414.96875 212.183594 405.9375 218.753906 395.210938 227.628906 C 395.289062 223.324219 395.53125 210.320312 395.746094 200.207031 C 395.753906 199.835938 395.457031 199.53125 395.085938 199.523438 C 394.722656 199.53125 394.410156 199.808594 394.402344 200.179688 C 394.160156 211.519531 393.886719 226.492188 393.84375 228.761719 C 389.128906 232.695312 384.148438 237.035156 379.445312 241.46875 C 379.175781 241.722656 379.164062 242.148438 379.417969 242.417969 C 379.550781 242.558594 379.726562 242.628906 379.90625 242.628906 C 380.070312 242.628906 380.238281 242.570312 380.367188 242.445312 C 396.632812 227.109375 416.257812 212.910156 416.453125 212.765625 C 416.476562 212.75 416.5 212.730469 416.523438 212.707031 C 416.675781 212.5625 431.988281 198.027344 437.625 196.820312 C 439.402344 196.4375 440.699219 196.574219 441.367188 197.214844 C 441.90625 197.726562 441.972656 198.484375 441.960938 198.898438 C 440.859375 199.511719 437.277344 201.695312 434.414062 205.65625 C 434.199219 205.957031 434.265625 206.378906 434.566406 206.59375 C 434.6875 206.679688 434.824219 206.722656 434.960938 206.722656 C 435.167969 206.722656 435.375 206.625 435.503906 206.445312 C 438.59375 202.175781 442.675781 200.035156 442.886719 199.929688 C 443.472656 199.664062 445.316406 199.0625 446.164062 199.703125 C 446.757812 200.152344 446.769531 201.191406 446.65625 202.050781 C 446.019531 202.8125 442.871094 206.53125 440.085938 209.441406 C 439.828125 209.710938 439.835938 210.136719 440.105469 210.394531 C 440.238281 210.515625 440.402344 210.578125 440.570312 210.578125 C 440.746094 210.578125 440.925781 210.511719 441.054688 210.371094 C 443.789062 207.519531 446.863281 203.894531 447.632812 202.980469 C 448.972656 202.878906 449.875 203.089844 450.308594 203.621094 C 450.84375 204.273438 450.796875 205.554688 450.167969 207.53125 C 449.164062 210.691406 439.71875 227.730469 436.4375 232.054688 C 436.519531 232.351562 436.90625 232.945312 437.148438 233.308594 C 440.394531 229.339844 450.296875 211.574219 451.449219 207.9375 C 451.988281 206.246094 452.460938 204.132812 451.351562 202.769531 Z M 451.351562 202.769531 " fill-opacity="1" fill-rule="nonzero"/><path fill="#2e3192" d="M 468.425781 167.078125 L 462.296875 142.792969 C 462.648438 142.566406 463.207031 142.34375 464.011719 142.375 L 470.332031 167.417969 L 471.691406 167.660156 L 463.820312 136.457031 C 463.488281 135.125 462.28125 134.269531 461.136719 134.558594 C 459.988281 134.847656 459.328125 136.164062 459.660156 137.5 L 467.058594 166.832031 Z M 461.539062 139.800781 C 462.351562 139.15625 462.964844 139.253906 463.25 139.363281 L 463.679688 141.070312 C 463.285156 141.058594 462.6875 141.152344 461.996094 141.613281 Z M 461.539062 139.800781 " fill-opacity="1" fill-rule="nonzero"/><path fill="#101011" d="M 500.683594 149.96875 C 500.421875 149.84375 500.109375 149.902344 499.910156 150.109375 C 499.867188 150.152344 498.101562 152 495.488281 154.992188 L 495.871094 151.0625 C 495.898438 150.796875 495.765625 150.539062 495.53125 150.410156 C 495.296875 150.28125 495.011719 150.300781 494.796875 150.460938 C 494.386719 150.773438 484.921875 158.066406 481.855469 171.910156 C 478.210938 169.375 462.851562 160.738281 423.589844 161.371094 C 423.410156 161.375 423.238281 161.449219 423.113281 161.578125 C 422.988281 161.707031 422.921875 161.882812 422.925781 162.0625 C 422.976562 163.898438 422.972656 166.0625 422.957031 167.621094 C 420.664062 167.890625 418.683594 168.234375 417.113281 168.652344 C 416.824219 168.730469 416.617188 168.992188 416.613281 169.292969 L 416.058594 212.21875 C 417.742188 210.566406 424.007812 204.484375 427.386719 202.191406 C 431.3125 199.527344 439.871094 192.484375 442.816406 198.828125 C 444.417969 198.117188 448.347656 197.773438 447.296875 202.613281 C 448.636719 202.050781 452.472656 202.535156 451.230469 205.277344 C 449.988281 208.023438 449.96875 210.046875 447.933594 213.765625 C 446.050781 217.207031 440.558594 228.230469 436.859375 232.789062 C 437.226562 233.445312 437.148438 233.308594 437.148438 233.308594 L 427.609375 246.277344 C 440.472656 246.421875 455.945312 248.832031 474.09375 251.574219 C 474.125 251.578125 474.15625 251.582031 474.1875 251.589844 C 474.203125 251.589844 474.21875 251.601562 474.234375 251.601562 C 474.257812 251.605469 474.28125 251.605469 474.304688 251.605469 C 474.304688 251.605469 474.308594 251.605469 474.308594 251.605469 C 474.382812 251.605469 474.453125 251.589844 474.519531 251.566406 C 474.542969 251.558594 474.558594 251.550781 474.578125 251.542969 C 474.628906 251.519531 474.675781 251.488281 474.722656 251.453125 C 474.734375 251.445312 474.75 251.433594 474.761719 251.421875 C 474.8125 251.378906 474.855469 251.324219 474.890625 251.265625 C 484.011719 235.097656 491.8125 225.316406 491.890625 225.21875 C 491.96875 225.121094 492.019531 225.003906 492.035156 224.878906 L 501.0625 150.65625 C 501.09375 150.371094 500.941406 150.09375 500.683594 149.96875 Z M 424.300781 167.476562 C 424.316406 166.113281 424.320312 164.332031 424.289062 162.703125 C 452.640625 162.324219 468.347656 166.945312 475.9375 170.289062 C 462.632812 167.148438 438.449219 166.054688 424.300781 167.476562 Z M 493.964844 156.753906 C 491 160.21875 487.316406 164.753906 483.835938 169.671875 C 486.511719 160.695312 491.929688 154.875 494.371094 152.605469 Z M 493.964844 156.753906 " fill-opacity="1" fill-rule="nonzero"/><path fill="#f2f2f2" d="M 450.503906 176.835938 C 449.066406 176.761719 447.859375 178.308594 447.753906 180.355469 C 447.648438 182.40625 448.691406 184.066406 450.128906 184.140625 C 451.566406 184.214844 452.773438 182.667969 452.878906 180.621094 C 452.984375 178.570312 451.941406 176.910156 450.503906 176.835938 Z M 450.195312 182.800781 C 449.621094 182.769531 449.027344 181.75 449.097656 180.425781 C 449.164062 179.101562 449.859375 178.148438 450.433594 178.179688 C 451.011719 178.207031 451.605469 179.230469 451.535156 180.550781 C 451.46875 181.875 450.773438 182.828125 450.195312 182.800781 Z M 428.222656 182.519531 L 426.015625 182.445312 L 426.324219 177.398438 C 426.34375 177.027344 426.0625 176.707031 425.691406 176.6875 C 425.6875 176.6875 425.683594 176.683594 425.675781 176.683594 C 425.3125 176.671875 425.003906 176.949219 424.980469 177.316406 L 424.632812 183.054688 C 424.621094 183.234375 424.683594 183.414062 424.808594 183.546875 C 424.929688 183.679688 425.097656 183.761719 425.28125 183.765625 L 428.175781 183.863281 C 428.546875 183.875 428.859375 183.582031 428.871094 183.210938 C 428.882812 182.84375 428.59375 182.53125 428.222656 182.519531 Z M 434.1875 181.914062 L 431.980469 181.929688 L 432.019531 180 L 433.550781 179.976562 C 433.921875 179.972656 434.21875 179.667969 434.210938 179.296875 C 434.207031 178.925781 433.90625 178.632812 433.539062 178.632812 C 433.535156 178.632812 433.53125 178.632812 433.53125 178.632812 L 432.046875 178.652344 L 432.066406 177.769531 L 434.042969 177.761719 C 434.414062 177.757812 434.710938 177.457031 434.710938 177.085938 C 434.707031 176.714844 434.40625 176.414062 434.035156 176.414062 L 431.402344 176.429688 C 431.039062 176.429688 430.742188 176.722656 430.734375 177.085938 L 430.621094 182.59375 C 430.621094 182.777344 430.6875 182.953125 430.816406 183.082031 C 430.945312 183.210938 431.117188 183.28125 431.296875 183.28125 C 431.300781 183.28125 431.300781 183.28125 431.300781 183.28125 L 434.199219 183.257812 C 434.570312 183.253906 434.867188 182.949219 434.863281 182.578125 C 434.863281 182.207031 434.558594 181.910156 434.1875 181.914062 Z M 438.683594 177.265625 C 439.265625 177.261719 439.277344 178.386719 439.277344 178.398438 C 439.28125 178.769531 439.582031 179.066406 439.953125 179.066406 C 440.324219 179.066406 440.625 178.761719 440.621094 178.390625 C 440.617188 177.15625 440.011719 175.914062 438.675781 175.917969 C 437.382812 175.925781 436.484375 176.933594 436.492188 178.371094 C 436.496094 179.621094 437.492188 180.09375 438.222656 180.441406 C 438.96875 180.800781 439.1875 180.957031 439.1875 181.308594 C 439.191406 181.910156 438.515625 181.921875 438.488281 181.921875 C 438.304688 181.921875 438.136719 181.867188 438.027344 181.773438 C 437.910156 181.671875 437.851562 181.523438 437.851562 181.3125 C 437.847656 180.941406 437.546875 180.644531 437.175781 180.644531 C 436.804688 180.648438 436.503906 180.949219 436.503906 181.320312 C 436.507812 181.914062 436.738281 182.4375 437.152344 182.792969 C 437.507812 183.101562 437.984375 183.269531 438.496094 183.265625 C 439.488281 183.261719 440.539062 182.570312 440.53125 181.300781 C 440.527344 180.054688 439.53125 179.578125 438.800781 179.230469 C 438.054688 178.875 437.835938 178.714844 437.835938 178.367188 C 437.832031 178.035156 437.914062 177.269531 438.683594 177.265625 Z M 444.488281 177.476562 C 445.074219 177.5 445.035156 178.625 445.035156 178.636719 C 445.019531 179.007812 445.308594 179.320312 445.679688 179.335938 C 446.050781 179.351562 446.363281 179.0625 446.378906 178.691406 C 446.425781 177.457031 445.878906 176.1875 444.542969 176.132812 C 443.25 176.082031 442.308594 177.050781 442.25 178.488281 C 442.199219 179.734375 443.175781 180.253906 443.886719 180.632812 C 444.617188 181.023438 444.828125 181.1875 444.8125 181.539062 C 444.789062 182.144531 444.113281 182.125 444.085938 182.121094 C 443.902344 182.113281 443.738281 182.054688 443.632812 181.953125 C 443.519531 181.847656 443.46875 181.695312 443.476562 181.488281 C 443.492188 181.117188 443.203125 180.804688 442.832031 180.789062 C 442.460938 180.773438 442.148438 181.0625 442.132812 181.433594 C 442.109375 182.027344 442.316406 182.558594 442.710938 182.933594 C 443.054688 183.257812 443.523438 183.445312 444.03125 183.464844 C 445.023438 183.503906 446.105469 182.863281 446.15625 181.59375 C 446.207031 180.347656 445.230469 179.828125 444.519531 179.445312 C 443.789062 179.058594 443.578125 178.890625 443.59375 178.539062 C 443.605469 178.210938 443.71875 177.445312 444.488281 177.476562 Z M 459.480469 177.777344 C 459.125 177.742188 458.777344 177.996094 458.734375 178.367188 L 458.269531 182.222656 L 456.054688 178.03125 C 455.917969 177.773438 455.632812 177.632812 455.34375 177.6875 C 455.054688 177.738281 454.832031 177.972656 454.796875 178.261719 L 454.082031 183.878906 C 454.035156 184.246094 454.292969 184.582031 454.660156 184.628906 C 455.023438 184.679688 455.367188 184.414062 455.414062 184.046875 L 455.859375 180.539062 L 458.085938 184.753906 C 458.195312 184.957031 458.394531 185.085938 458.613281 185.109375 C 458.675781 185.113281 458.738281 185.113281 458.804688 185.101562 C 459.09375 185.046875 459.3125 184.8125 459.347656 184.519531 L 460.066406 178.527344 C 460.113281 178.15625 459.847656 177.824219 459.480469 177.777344 Z M 459.480469 177.777344 " fill-opacity="1" fill-rule="nonzero"/><path fill="#43c466" d="M 879.210938 233.648438 C 861.808594 245.375 838.402344 225.449219 838.402344 225.449219 L 841.332031 270.742188 C 841.332031 270.742188 775.144531 286.167969 737.074219 270.742188 C 737.074219 263.734375 737.296875 258.671875 737.351562 257.519531 C 737.308594 257.679688 737.261719 257.84375 737.21875 258 C 729.589844 260.234375 719.183594 260.273438 711.894531 253.492188 C 700 242.425781 718.308594 202.871094 720.445312 197.949219 C 727.652344 202.632812 746.054688 205.527344 749.613281 202.316406 C 749.734375 202.21875 749.855469 202.121094 749.972656 202.023438 C 749.839844 202.675781 749.691406 203.390625 749.53125 204.15625 C 753.175781 203.609375 761.929688 202.285156 764.222656 201.824219 C 764.601562 200.066406 760.894531 156.324219 760.894531 156.324219 C 760.894531 156.324219 769.484375 153.453125 773.191406 152.71875 C 775.445312 152.257812 779.839844 150.839844 788.226562 150.085938 C 797.597656 149.238281 803 150.214844 806.644531 150.605469 C 806.644531 150.605469 831.179688 155.746094 849.921875 177.222656 C 852.9375 180.945312 869.902344 182.210938 878.824219 177.4375 C 881.226562 181.226562 892.679688 224.570312 879.210938 233.648438 Z M 879.210938 233.648438 C 861.808594 245.375 838.402344 225.449219 838.402344 225.449219 L 841.332031 270.742188 C 841.332031 270.742188 775.144531 286.167969 737.074219 270.742188 C 737.074219 263.734375 737.296875 258.671875 737.351562 257.519531 C 737.308594 257.679688 737.261719 257.84375 737.21875 258 C 729.589844 260.234375 719.183594 260.273438 711.894531 253.492188 C 700 242.425781 718.308594 202.871094 720.445312 197.949219 C 727.652344 202.632812 746.054688 205.527344 749.613281 202.316406 C 749.734375 202.21875 749.855469 202.121094 749.972656 202.023438 C 749.839844 202.675781 749.691406 203.390625 749.53125 204.15625 C 753.175781 203.609375 761.929688 202.285156 764.222656 201.824219 C 764.601562 200.066406 760.894531 156.324219 760.894531 156.324219 C 760.894531 156.324219 769.484375 153.453125 773.191406 152.71875 C 775.445312 152.257812 779.839844 150.839844 788.226562 150.085938 C 797.597656 149.238281 803 150.214844 806.644531 150.605469 C 806.644531 150.605469 831.179688 155.746094 849.921875 177.222656 C 852.9375 180.945312 869.902344 182.210938 878.824219 177.4375 C 881.226562 181.226562 892.679688 224.570312 879.210938 233.648438 Z M 879.210938 233.648438 " fill-opacity="1" fill-rule="nonzero"/><path fill="#f2f2f2" d="M 751.085938 202.457031 C 750.742188 202.457031 750.464844 202.175781 750.464844 201.832031 C 750.460938 201.488281 750.742188 201.210938 751.085938 201.207031 L 835.332031 201.011719 C 835.675781 201.011719 835.953125 201.289062 835.957031 201.632812 C 835.957031 201.980469 835.679688 202.257812 835.332031 202.257812 L 751.089844 202.457031 C 751.085938 202.457031 751.085938 202.457031 751.085938 202.457031 Z M 836.308594 202.148438 C 836.417969 202.074219 846.96875 194.871094 850.628906 193.511719 C 850.953125 193.394531 851.117188 193.035156 850.996094 192.710938 C 850.878906 192.390625 850.515625 192.226562 850.195312 192.34375 C 846.394531 193.753906 836.0625 200.808594 835.605469 201.121094 C 835.320312 201.3125 835.246094 201.699219 835.441406 201.984375 C 835.5625 202.164062 835.757812 202.257812 835.957031 202.257812 C 836.078125 202.257812 836.199219 202.222656 836.308594 202.148438 Z M 836.308594 202.148438 " fill-opacity="1" fill-rule="nonzero"/><path fill="#fbbe28" d="M 764.84375 201.898438 C 764.8125 202.148438 764.636719 202.355469 764.394531 202.421875 C 763.339844 202.722656 759.453125 202.710938 749.53125 204.15625 C 750.082031 199.488281 750.996094 192.246094 751.195312 189.847656 L 751.21875 189.589844 C 751.679688 184.019531 751.765625 177.097656 748.253906 176.246094 C 746.445312 175.808594 745.03125 177.417969 744.621094 178.65625 C 744.542969 177.222656 742.808594 175.417969 740.832031 175.417969 C 739.082031 175.417969 737.363281 176.589844 736.683594 178.441406 C 736.28125 177.359375 735.554688 176.441406 734.003906 176.167969 C 732.535156 175.90625 731.117188 176.636719 729.410156 179.207031 C 728.675781 180.378906 727.941406 181.785156 727.222656 183.300781 C 723.449219 190.824219 718.65625 202.0625 718.65625 202.0625 C 718.628906 201.617188 718.636719 201.230469 718.605469 200.738281 C 718.355469 196.617188 718.035156 190.9375 717.648438 183.847656 C 717.003906 172.078125 716.339844 159.207031 716.339844 158.96875 L 716.339844 136.613281 C 716.339844 136.472656 716.386719 136.339844 716.472656 136.230469 C 716.621094 136.035156 717.414062 135.082031 718.367188 135.222656 C 718.742188 135.277344 719.257812 135.523438 719.59375 136.386719 C 720.246094 138.066406 719.8125 153.203125 719.664062 157.835938 C 724.300781 157.117188 733.449219 155.898438 739.347656 155.132812 C 744.957031 154.40625 750.136719 153.765625 753.933594 153.320312 C 760.882812 152.507812 760.917969 152.558594 761.195312 152.933594 C 761.296875 153.0625 761.558594 153.414062 763.308594 176.710938 C 763.722656 182.195312 765.050781 200.21875 764.84375 201.898438 Z M 764.84375 201.898438 C 764.8125 202.148438 764.636719 202.355469 764.394531 202.421875 C 763.339844 202.722656 759.453125 202.710938 749.53125 204.15625 C 750.082031 199.488281 750.996094 192.246094 751.195312 189.847656 L 751.21875 189.589844 C 751.679688 184.019531 751.765625 177.097656 748.253906 176.246094 C 746.445312 175.808594 745.03125 177.417969 744.621094 178.65625 C 744.542969 177.222656 742.808594 175.417969 740.832031 175.417969 C 739.082031 175.417969 737.363281 176.589844 736.683594 178.441406 C 736.28125 177.359375 735.554688 176.441406 734.003906 176.167969 C 732.535156 175.90625 731.117188 176.636719 729.410156 179.207031 C 728.675781 180.378906 727.941406 181.785156 727.222656 183.300781 C 723.449219 190.824219 718.65625 202.0625 718.65625 202.0625 C 718.628906 201.617188 718.636719 201.230469 718.605469 200.738281 C 718.355469 196.617188 718.035156 190.9375 717.648438 183.847656 C 717.003906 172.078125 716.339844 159.207031 716.339844 158.96875 L 716.339844 136.613281 C 716.339844 136.472656 716.386719 136.339844 716.472656 136.230469 C 716.621094 136.035156 717.414062 135.082031 718.367188 135.222656 C 718.742188 135.277344 719.257812 135.523438 719.59375 136.386719 C 720.246094 138.066406 719.8125 153.203125 719.664062 157.835938 C 724.300781 157.117188 733.449219 155.898438 739.347656 155.132812 C 744.957031 154.40625 750.136719 153.765625 753.933594 153.320312 C 760.882812 152.507812 760.917969 152.558594 761.195312 152.933594 C 761.296875 153.0625 761.558594 153.414062 763.308594 176.710938 C 763.722656 182.195312 765.050781 200.21875 764.84375 201.898438 Z M 764.84375 201.898438 " fill-opacity="1" fill-rule="nonzero"/><path fill="#101011" d="M 814.652344 106.253906 C 814.632812 104.785156 813.996094 103.582031 812.972656 102.972656 C 814.105469 101.144531 813.632812 98.640625 812.546875 96.792969 C 811.28125 94.636719 809.347656 93.421875 807.433594 93.507812 C 807.476562 91.535156 805.628906 89.785156 803.496094 88.960938 C 801.597656 88.226562 799.363281 88.207031 798.011719 89.53125 C 797.359375 88.375 795.992188 87.492188 794.238281 87.183594 C 792.09375 86.800781 789.515625 87.382812 788.054688 89.410156 C 787.238281 88.433594 785.707031 87.742188 783.890625 87.613281 C 781.507812 87.445312 778.628906 88.269531 777.207031 90.972656 C 775.761719 89.796875 773.414062 89.855469 771.730469 90.71875 C 770.28125 91.460938 769.035156 92.972656 769.449219 95.136719 C 768.039062 95.054688 766.710938 95.621094 765.710938 96.773438 C 764.28125 98.417969 763.816406 100.929688 764.609375 102.742188 C 765.175781 104.039062 766.292969 104.863281 767.800781 105.117188 C 767.253906 107 767.375 108.546875 768.164062 109.71875 C 769.109375 111.117188 770.730469 111.5625 771.601562 111.703125 L 771.617188 112.601562 C 769.003906 112.851562 767.324219 114.683594 766.972656 117.710938 C 766.488281 121.910156 770.089844 123.707031 771.8125 124.320312 L 772.375 153.023438 C 772.378906 153.226562 772.480469 153.414062 772.644531 153.527344 C 772.742188 153.59375 778.722656 157.574219 787.648438 157.574219 C 793.148438 157.574219 799.773438 156.058594 806.824219 151.183594 C 806.996094 151.066406 807.09375 150.875 807.09375 150.671875 L 807.09375 124.527344 C 809.441406 123.90625 813.035156 121.867188 812.558594 117.710938 C 812.453125 116.800781 812.230469 116.011719 811.90625 115.332031 C 812.601562 115.007812 813.246094 114.339844 813.589844 113.511719 C 813.847656 112.894531 814.234375 111.421875 813.019531 109.878906 C 814.160156 109.101562 814.671875 107.566406 814.652344 106.253906 Z M 768.210938 117.855469 C 768.496094 115.414062 769.648438 114.074219 771.636719 113.855469 L 771.789062 122.976562 C 770.164062 122.316406 767.867188 120.847656 768.210938 117.855469 Z M 806.351562 123.417969 C 806.058594 123.476562 805.847656 123.734375 805.847656 124.03125 L 805.847656 150.339844 C 789.503906 161.453125 775.683594 153.917969 773.617188 152.664062 L 773.058594 124.09375 C 773.0625 124.082031 773.070312 124.070312 773.074219 124.058594 C 773.113281 123.921875 773.097656 123.785156 773.050781 123.664062 L 772.851562 111.855469 C 774.414062 111.992188 777.984375 111.929688 780.085938 108.929688 C 781.234375 110.125 783.246094 110.890625 785.507812 110.9375 C 787.867188 110.984375 789.949219 110.257812 791.21875 108.984375 C 792.207031 110.597656 794.113281 111.859375 796.433594 112.382812 C 798.265625 112.792969 800.019531 112.648438 801.328125 112.027344 C 800.980469 115.957031 801.367188 118.03125 802.480469 118.203125 C 803.988281 118.4375 805.226562 115.5625 805.78125 114.003906 C 806.578125 113.808594 808.25 113.5625 809.566406 114.429688 C 810.539062 115.070312 811.128906 116.222656 811.316406 117.855469 C 811.828125 122.289062 806.574219 123.375 806.351562 123.417969 Z M 719.664062 157.835938 C 721.082031 157.613281 722.929688 157.347656 724.976562 157.0625 C 733.304688 154.042969 748.386719 148.625 754.410156 146.792969 C 754.597656 148.433594 754.90625 151.816406 755.027344 153.191406 C 755.472656 153.140625 755.886719 153.09375 756.265625 153.050781 C 756.117188 151.375 755.714844 146.941406 755.554688 145.890625 C 755.527344 145.710938 755.425781 145.554688 755.273438 145.457031 C 755.121094 145.363281 754.9375 145.335938 754.765625 145.386719 C 751.132812 146.441406 742.898438 149.3125 735.226562 152.050781 C 735.121094 150.570312 734.753906 145.382812 734.101562 137.820312 C 734.078125 137.554688 733.890625 137.332031 733.632812 137.265625 C 733.375 137.203125 733.105469 137.308594 732.960938 137.53125 C 730.660156 141.042969 722.738281 152.238281 719.703125 156.519531 C 719.6875 157.015625 719.675781 157.460938 719.664062 157.835938 Z M 733.011719 139.695312 C 733.632812 147.078125 733.960938 151.824219 734.003906 152.484375 C 728.441406 154.472656 723.328125 156.332031 720.683594 157.292969 C 723.351562 153.53125 729.933594 144.226562 733.011719 139.695312 Z M 781.398438 118.226562 C 781.640625 117.980469 781.636719 117.585938 781.390625 117.34375 C 781.148438 117.101562 780.75 117.105469 780.511719 117.351562 C 779.757812 118.113281 779.0625 118.480469 778.496094 118.414062 C 777.902344 118.34375 777.558594 117.800781 777.546875 117.78125 C 777.375 117.484375 776.996094 117.386719 776.699219 117.554688 C 776.398438 117.730469 776.296875 118.109375 776.46875 118.410156 C 776.496094 118.453125 777.109375 119.492188 778.328125 119.648438 C 778.429688 119.664062 778.53125 119.667969 778.636719 119.667969 C 779.523438 119.667969 780.453125 119.183594 781.398438 118.226562 Z M 795.195312 117.5625 C 794.898438 117.386719 794.519531 117.488281 794.34375 117.78125 C 794.339844 117.785156 793.996094 118.34375 793.394531 118.414062 C 792.828125 118.480469 792.132812 118.113281 791.378906 117.351562 C 791.136719 117.105469 790.742188 117.101562 790.5 117.34375 C 790.253906 117.585938 790.25 117.980469 790.492188 118.226562 C 791.4375 119.183594 792.367188 119.667969 793.253906 119.667969 C 793.359375 119.667969 793.460938 119.664062 793.5625 119.648438 C 794.78125 119.492188 795.394531 118.453125 795.417969 118.410156 C 795.589844 118.113281 795.488281 117.738281 795.195312 117.5625 Z M 793.628906 125.371094 C 792.273438 127.242188 790.929688 128.628906 789.613281 129.539062 C 790.117188 128.269531 790.566406 126.875 790.917969 125.339844 C 790.992188 125.003906 790.785156 124.671875 790.449219 124.59375 C 790.113281 124.515625 789.777344 124.726562 789.703125 125.0625 C 789.199219 127.261719 788.492188 129.140625 787.722656 130.726562 C 787.722656 130.726562 787.722656 130.726562 787.722656 130.730469 C 785.871094 134.542969 783.636719 136.585938 782.855469 136.859375 C 782.707031 136.335938 783.085938 134.527344 783.421875 132.917969 C 783.648438 131.84375 783.902344 130.625 784.15625 129.214844 C 785.421875 122.105469 785.277344 118.179688 785.269531 118.015625 C 785.257812 117.671875 784.960938 117.394531 784.621094 117.421875 C 784.277344 117.433594 784.011719 117.722656 784.023438 118.070312 C 784.027344 118.105469 784.167969 122.035156 782.925781 128.996094 C 782.890625 129.203125 782.851562 129.398438 782.816406 129.597656 C 780.75 128.035156 779.5625 125.507812 779.546875 125.476562 C 779.40625 125.164062 779.035156 125.027344 778.722656 125.171875 C 778.410156 125.316406 778.273438 125.6875 778.414062 126 C 778.476562 126.132812 779.925781 129.226562 782.558594 130.9375 C 782.433594 131.550781 782.316406 132.125 782.203125 132.660156 C 781.574219 135.648438 781.261719 137.148438 782.078125 137.898438 C 782.1875 138 782.398438 138.136719 782.726562 138.136719 C 782.851562 138.136719 782.996094 138.113281 783.15625 138.0625 C 784.386719 137.679688 786.8125 135.40625 788.769531 131.441406 C 790.710938 130.585938 792.683594 128.796875 794.636719 126.105469 C 794.839844 125.828125 794.777344 125.4375 794.5 125.234375 C 794.222656 125.03125 793.828125 125.09375 793.628906 125.371094 Z M 720.417969 198.011719 C 722.027344 193.554688 725.542969 183.925781 727.796875 179.480469 C 729.40625 176.304688 731.765625 174.574219 734.101562 174.851562 C 735.082031 174.96875 735.929688 175.445312 736.5 176.15625 C 736.625 176.058594 736.78125 176.011719 736.945312 176.03125 C 738.199219 174.613281 739.957031 173.910156 741.738281 174.210938 C 742.976562 174.414062 743.996094 175.089844 744.625 176.050781 C 744.714844 176.019531 744.808594 176.003906 744.910156 176.019531 C 745.039062 176.039062 745.144531 176.105469 745.230469 176.1875 C 745.941406 175.507812 746.917969 174.84375 748.050781 174.972656 C 749.277344 175.113281 750.347656 176.140625 751.238281 178.03125 C 753.542969 182.914062 752.253906 193.953125 751.085938 201.832031 C 746.34375 233.808594 738.035156 257.25 737.949219 257.480469 C 737.859375 257.738281 737.617188 257.894531 737.363281 257.894531 C 737.292969 257.894531 737.222656 257.882812 737.152344 257.859375 C 736.828125 257.742188 736.660156 257.386719 736.773438 257.0625 C 736.859375 256.828125 745.128906 233.496094 749.851562 201.648438 C 750.511719 197.203125 752.519531 183.671875 750.109375 178.5625 C 749.425781 177.109375 748.667969 176.296875 747.910156 176.210938 C 746.792969 176.085938 745.675781 177.503906 745.257812 178.039062 C 745.246094 178.050781 745.242188 178.058594 745.230469 178.070312 C 744.910156 180.1875 744.285156 184.195312 743.996094 185.492188 C 743.929688 185.785156 743.671875 185.980469 743.386719 185.980469 C 743.34375 185.980469 743.296875 185.976562 743.25 185.96875 C 742.914062 185.890625 742.703125 185.558594 742.777344 185.222656 C 743.058594 183.964844 743.6875 179.921875 744.007812 177.828125 C 743.789062 176.574219 742.851562 175.660156 741.535156 175.441406 C 740.21875 175.21875 738.289062 175.738281 737.144531 177.910156 L 735.066406 184.757812 C 734.984375 185.027344 734.738281 185.199219 734.46875 185.199219 C 734.410156 185.199219 734.351562 185.191406 734.289062 185.175781 C 733.960938 185.074219 733.773438 184.726562 733.875 184.394531 L 735.914062 177.664062 C 735.652344 176.816406 734.902344 176.203125 733.953125 176.089844 C 732.160156 175.875 730.273438 177.355469 728.910156 180.042969 C 726.609375 184.578125 722.976562 194.578125 721.429688 198.871094 Z M 876.152344 156.285156 C 875.679688 154.027344 874.421875 148.039062 869.265625 148.789062 C 867.542969 149.042969 866.507812 149.890625 865.898438 151.007812 C 865.171875 150.347656 863.894531 149.566406 861.992188 149.746094 C 860.886719 149.851562 859.988281 150.230469 859.3125 150.871094 C 858.511719 145.132812 856.667969 141.886719 854.695312 141.953125 C 852.457031 142.023438 850.042969 144.035156 849.527344 146.707031 C 849.015625 149.351562 849.5625 157.179688 849.707031 158.632812 C 848.390625 159.210938 847.445312 160.070312 847.199219 161.257812 C 846.460938 164.789062 848.308594 173.160156 849.304688 177.210938 C 849.304688 177.222656 849.300781 177.230469 849.300781 177.242188 C 849.308594 177.496094 850.097656 202.753906 852.035156 219.011719 C 852.074219 219.328125 852.34375 219.5625 852.65625 219.5625 C 852.679688 219.5625 852.703125 219.5625 852.730469 219.558594 C 853.070312 219.515625 853.316406 219.207031 853.273438 218.863281 C 851.34375 202.660156 850.554688 177.457031 850.546875 177.203125 C 850.546875 177.203125 850.414062 176.441406 850.117188 175.464844 C 849.132812 171.179688 847.816406 164.386719 848.417969 161.511719 C 848.824219 159.578125 852.59375 158.765625 856.113281 158.957031 C 860.011719 159.175781 862.949219 160.503906 863.105469 162.117188 C 863.167969 162.765625 862.988281 163.289062 862.558594 163.714844 C 861.007812 165.269531 856.671875 165.234375 855.132812 165.089844 C 854.789062 165.058594 854.484375 165.308594 854.453125 165.652344 C 854.421875 165.996094 854.671875 166.300781 855.015625 166.332031 C 855.179688 166.347656 857.765625 166.570312 860.171875 166.085938 C 860.761719 166.273438 863.6875 167.433594 864.410156 172.144531 C 864.460938 172.488281 864.777344 172.71875 865.121094 172.667969 C 865.230469 172.652344 865.332031 172.605469 865.414062 172.539062 C 865.582031 172.402344 865.675781 172.183594 865.640625 171.957031 C 865.078125 168.257812 863.269531 166.433594 861.925781 165.566406 C 862.511719 165.320312 863.035156 165.003906 863.441406 164.597656 C 864.0625 163.976562 864.371094 163.214844 864.363281 162.332031 C 864.375 162.324219 864.390625 162.324219 864.398438 162.3125 C 864.40625 162.308594 864.414062 162.304688 864.417969 162.296875 C 865.054688 161.746094 865.570312 160.957031 865.96875 159.941406 C 866.710938 161.25 867.984375 162.171875 869.328125 162.226562 C 870.324219 162.269531 872.75 161.839844 873.699219 157.011719 C 873.765625 156.671875 873.546875 156.34375 873.207031 156.277344 C 872.871094 156.210938 872.542969 156.429688 872.476562 156.769531 C 871.9375 159.503906 870.808594 161.039062 869.378906 160.980469 C 868.039062 160.925781 866.75 159.488281 866.5625 157.839844 C 866.308594 155.5625 866.261719 153.703125 866.679688 152.363281 C 866.6875 152.339844 866.695312 152.320312 866.703125 152.300781 C 867.113281 151.035156 867.953125 150.242188 869.445312 150.027344 C 872.246094 149.617188 873.886719 151.566406 874.933594 156.542969 C 875.546875 159.46875 877.019531 172.78125 877.625 178.234375 C 877.875 178.132812 878.65625 177.597656 878.824219 177.4375 C 878.253906 172.253906 876.808594 159.398438 876.152344 156.285156 Z M 857.910156 157.890625 C 857.328125 157.804688 856.746094 157.746094 856.183594 157.714844 C 854.363281 157.613281 852.488281 157.761719 850.917969 158.203125 C 850.753906 156.417969 850.308594 149.242188 850.753906 146.945312 C 851.152344 144.882812 852.996094 143.097656 854.621094 143.195312 C 856.886719 143.332031 857.886719 148.027344 858.238281 152.574219 C 857.699219 154.0625 857.726562 155.957031 857.910156 157.890625 Z M 865.300781 157.761719 C 865.019531 159.128906 864.578125 160.203125 864.011719 160.917969 C 863.25 159.496094 861.324219 158.601562 859.1875 158.125 C 858.996094 156.308594 858.921875 154.527344 859.335938 153.199219 C 859.441406 153.082031 859.503906 152.929688 859.5 152.761719 C 859.617188 152.488281 859.761719 152.238281 859.9375 152.023438 C 860.425781 151.417969 861.140625 151.082031 862.109375 150.988281 C 863.957031 150.8125 865.019531 151.828125 865.398438 152.28125 C 864.921875 154.089844 865.128906 156.222656 865.300781 157.761719 Z M 838.402344 226.070312 C 838.085938 226.070312 837.816406 225.832031 837.785156 225.511719 L 834.621094 194.726562 C 834.585938 194.382812 834.835938 194.078125 835.179688 194.042969 C 835.523438 194 835.828125 194.257812 835.863281 194.597656 L 839.023438 225.382812 C 839.058594 225.726562 838.808594 226.03125 838.46875 226.066406 C 838.445312 226.070312 838.425781 226.070312 838.402344 226.070312 Z M 838.402344 226.070312 " fill-opacity="1" fill-rule="nonzero"/><path fill="#fbbe28" d="M 696.117188 218.101562 C 696.117188 218.101562 685.785156 224.589844 676.894531 224.589844 C 676.6875 224.644531 676.441406 224.761719 676.167969 224.921875 C 674.328125 220.914062 669.964844 211.296875 668.003906 205.96875 C 665.480469 199.117188 661.996094 181.457031 660.914062 177.734375 C 659.832031 174.007812 660.792969 171.003906 657.671875 170.886719 C 654.546875 170.765625 654.425781 188.785156 654.425781 188.785156 C 654.425781 188.785156 648.46875 187.136719 647.097656 187.585938 C 645.726562 188.035156 644.375 193.148438 644.375 193.148438 C 644.375 193.148438 640.25 193.59375 640.371094 197.796875 C 640.492188 202.003906 641.386719 206.675781 643.890625 206.574219 C 646.898438 206.449219 646.417969 201.441406 646.417969 201.441406 L 648.699219 201.625 C 648.699219 201.625 648.539062 214.976562 652.503906 228.191406 C 655.027344 236.597656 656.554688 240.359375 657.949219 242.570312 C 662.835938 249.859375 667.601562 254.222656 667.601562 254.222656 C 667.601562 254.222656 621.949219 258.628906 588.789062 253.582031 C 588.070312 246.855469 587.988281 184.460938 587.988281 184.460938 L 574.414062 178.574219 C 574.414062 178.574219 580.238281 165.480469 591.832031 157.070312 C 592.074219 161.632812 594.636719 167.722656 604.246094 167.402344 C 613.859375 167.082031 617.625 161.152344 616.984375 156.429688 C 616.34375 151.703125 614.300781 145.894531 614.300781 145.894531 C 614.300781 145.894531 627.996094 152.265625 645.054688 144.816406 C 643.132812 152.261719 639.527344 161.394531 646.015625 164.277344 C 652.503906 167.160156 660.792969 167.761719 663.917969 164.519531 C 667.042969 161.273438 667.121094 158.109375 667.121094 158.109375 C 667.121094 158.109375 682.179688 171.96875 689.386719 194.074219 C 696.597656 216.179688 696.117188 218.101562 696.117188 218.101562 Z M 696.117188 218.101562 C 696.117188 218.101562 685.785156 224.589844 676.894531 224.589844 C 676.6875 224.644531 676.441406 224.761719 676.167969 224.921875 C 674.328125 220.914062 669.964844 211.296875 668.003906 205.96875 C 665.480469 199.117188 661.996094 181.457031 660.914062 177.734375 C 659.832031 174.007812 660.792969 171.003906 657.671875 170.886719 C 654.546875 170.765625 654.425781 188.785156 654.425781 188.785156 C 654.425781 188.785156 648.46875 187.136719 647.097656 187.585938 C 645.726562 188.035156 644.375 193.148438 644.375 193.148438 C 644.375 193.148438 640.25 193.59375 640.371094 197.796875 C 640.492188 202.003906 641.386719 206.675781 643.890625 206.574219 C 646.898438 206.449219 646.417969 201.441406 646.417969 201.441406 L 648.699219 201.625 C 648.699219 201.625 648.539062 214.976562 652.503906 228.191406 C 655.027344 236.597656 656.554688 240.359375 657.949219 242.570312 C 662.835938 249.859375 667.601562 254.222656 667.601562 254.222656 C 667.601562 254.222656 621.949219 258.628906 588.789062 253.582031 C 588.070312 246.855469 587.988281 184.460938 587.988281 184.460938 L 574.414062 178.574219 C 574.414062 178.574219 580.238281 165.480469 591.832031 157.070312 C 592.074219 161.632812 594.636719 167.722656 604.246094 167.402344 C 613.859375 167.082031 617.625 161.152344 616.984375 156.429688 C 616.34375 151.703125 614.300781 145.894531 614.300781 145.894531 C 614.300781 145.894531 627.996094 152.265625 645.054688 144.816406 C 643.132812 152.261719 639.527344 161.394531 646.015625 164.277344 C 652.503906 167.160156 660.792969 167.761719 663.917969 164.519531 C 667.042969 161.273438 667.121094 158.109375 667.121094 158.109375 C 667.121094 158.109375 682.179688 171.96875 689.386719 194.074219 C 696.597656 216.179688 696.117188 218.101562 696.117188 218.101562 Z M 696.117188 218.101562 " fill-opacity="1" fill-rule="nonzero"/><path fill="#399be6" d="M 608.652344 232.117188 C 608.316406 232.320312 592.273438 233.082031 573.703125 233.902344 C 572.519531 232.160156 569.691406 227.933594 568.707031 225.910156 C 567.445312 223.328125 563.058594 223.148438 562.097656 226.449219 C 560.835938 225.25 555.730469 224.347656 554.949219 228.074219 C 552.90625 226.210938 548.042969 227.832031 548.460938 234.199219 C 548.480469 234.476562 548.519531 234.730469 548.558594 234.988281 C 531.441406 235.710938 517.277344 236.28125 517.023438 236.28125 C 516.382812 236.28125 514.621094 181.015625 515.261719 180.695312 C 515.902344 180.375 606.570312 177.332031 606.570312 177.972656 C 606.570312 177.972656 609.453125 231.636719 608.652344 232.117188 Z M 608.652344 232.117188 C 608.316406 232.320312 592.273438 233.082031 573.703125 233.902344 C 572.519531 232.160156 569.691406 227.933594 568.707031 225.910156 C 567.445312 223.328125 563.058594 223.148438 562.097656 226.449219 C 560.835938 225.25 555.730469 224.347656 554.949219 228.074219 C 552.90625 226.210938 548.042969 227.832031 548.460938 234.199219 C 548.480469 234.476562 548.519531 234.730469 548.558594 234.988281 C 531.441406 235.710938 517.277344 236.28125 517.023438 236.28125 C 516.382812 236.28125 514.621094 181.015625 515.261719 180.695312 C 515.902344 180.375 606.570312 177.332031 606.570312 177.972656 C 606.570312 177.972656 609.453125 231.636719 608.652344 232.117188 Z M 608.652344 232.117188 " fill-opacity="1" fill-rule="nonzero"/><path fill="#2e3192" d="M 545.371094 220.890625 C 545.390625 221.316406 545.0625 221.675781 544.640625 221.695312 L 534.195312 222.199219 C 534.183594 222.199219 534.175781 222.199219 534.167969 222.199219 C 533.753906 222.203125 533.410156 221.882812 533.390625 221.46875 C 533.371094 221.046875 533.695312 220.683594 534.121094 220.664062 L 538.359375 220.460938 L 537.160156 195.691406 L 535.023438 198.648438 C 534.777344 198.992188 534.296875 199.070312 533.953125 198.820312 C 533.609375 198.574219 533.53125 198.09375 533.78125 197.75 L 537.199219 193.015625 C 537.390625 192.753906 537.730469 192.636719 538.039062 192.730469 C 538.351562 192.824219 538.574219 193.105469 538.589844 193.429688 L 539.894531 220.386719 L 544.566406 220.164062 C 544.988281 220.121094 545.351562 220.46875 545.371094 220.890625 Z M 545.371094 220.890625 C 545.390625 221.316406 545.0625 221.675781 544.640625 221.695312 L 534.195312 222.199219 C 534.183594 222.199219 534.175781 222.199219 534.167969 222.199219 C 533.753906 222.203125 533.410156 221.882812 533.390625 221.46875 C 533.371094 221.046875 533.695312 220.683594 534.121094 220.664062 L 538.359375 220.460938 L 537.160156 195.691406 L 535.023438 198.648438 C 534.777344 198.992188 534.296875 199.070312 533.953125 198.820312 C 533.609375 198.574219 533.53125 198.09375 533.78125 197.75 L 537.199219 193.015625 C 537.390625 192.753906 537.730469 192.636719 538.039062 192.730469 C 538.351562 192.824219 538.574219 193.105469 538.589844 193.429688 L 539.894531 220.386719 L 544.566406 220.164062 C 544.988281 220.121094 545.351562 220.46875 545.371094 220.890625 Z M 545.371094 220.890625 " fill-opacity="1" fill-rule="nonzero"/><path fill="#b7303a" d="M 592.726562 219.445312 C 592.734375 219.867188 592.398438 220.21875 591.972656 220.226562 C 591.9375 220.226562 588.480469 220.292969 583.890625 220.484375 C 583.878906 220.488281 583.867188 220.488281 583.855469 220.488281 C 583.609375 220.488281 583.371094 220.367188 583.230469 220.160156 C 583.078125 219.945312 583.046875 219.671875 583.148438 219.425781 C 586.085938 212.269531 591.011719 197.621094 588.640625 193.429688 C 588.320312 192.863281 587.894531 192.558594 587.296875 192.46875 C 586.390625 192.332031 585.699219 192.507812 585.183594 193.007812 C 583.828125 194.320312 583.882812 197.585938 584.015625 198.734375 C 584.066406 199.15625 583.765625 199.535156 583.34375 199.585938 C 582.925781 199.636719 582.542969 199.335938 582.492188 198.914062 C 582.46875 198.714844 581.933594 194.015625 584.113281 191.90625 C 584.988281 191.058594 586.136719 190.738281 587.527344 190.953125 C 588.582031 191.113281 589.429688 191.707031 589.976562 192.671875 C 592.929688 197.886719 586.882812 214.160156 585.011719 218.902344 C 589.019531 218.746094 591.914062 218.691406 591.945312 218.691406 C 592.359375 218.6875 592.71875 219.019531 592.726562 219.445312 Z M 592.726562 219.445312 C 592.734375 219.867188 592.398438 220.21875 591.972656 220.226562 C 591.9375 220.226562 588.480469 220.292969 583.890625 220.484375 C 583.878906 220.488281 583.867188 220.488281 583.855469 220.488281 C 583.609375 220.488281 583.371094 220.367188 583.230469 220.160156 C 583.078125 219.945312 583.046875 219.671875 583.148438 219.425781 C 586.085938 212.269531 591.011719 197.621094 588.640625 193.429688 C 588.320312 192.863281 587.894531 192.558594 587.296875 192.46875 C 586.390625 192.332031 585.699219 192.507812 585.183594 193.007812 C 583.828125 194.320312 583.882812 197.585938 584.015625 198.734375 C 584.066406 199.15625 583.765625 199.535156 583.34375 199.585938 C 582.925781 199.636719 582.542969 199.335938 582.492188 198.914062 C 582.46875 198.714844 581.933594 194.015625 584.113281 191.90625 C 584.988281 191.058594 586.136719 190.738281 587.527344 190.953125 C 588.582031 191.113281 589.429688 191.707031 589.976562 192.671875 C 592.929688 197.886719 586.882812 214.160156 585.011719 218.902344 C 589.019531 218.746094 591.914062 218.691406 591.945312 218.691406 C 592.359375 218.6875 592.71875 219.019531 592.726562 219.445312 Z M 592.726562 219.445312 " fill-opacity="1" fill-rule="nonzero"/><path fill="#101011" d="M 667.882812 158 C 667.558594 155.777344 666.589844 154.597656 665.648438 153.457031 C 664.417969 151.960938 663.25 150.546875 663.402344 146.445312 C 663.457031 145.023438 663.828125 143.992188 664.226562 142.894531 C 665 140.753906 665.796875 138.542969 664.5 133.566406 C 663.902344 131.28125 663.273438 130.097656 662.714844 129.050781 C 661.496094 126.765625 660.441406 124.792969 660.441406 110.375 C 660.441406 103.832031 658.285156 98.257812 654.203125 94.257812 C 649.09375 89.25 641.320312 86.808594 631.0625 87.019531 C 610.410156 87.433594 605.761719 96.652344 603.9375 105.617188 C 602.886719 110.777344 603.050781 117.363281 603.195312 123.175781 C 603.304688 127.554688 603.410156 131.691406 602.933594 134.179688 C 602.472656 136.585938 601.484375 137.585938 600.4375 138.640625 C 599.050781 140.042969 597.613281 141.496094 597.472656 145.75 C 597.375 148.691406 595.984375 149.789062 594.375 151.058594 C 592.410156 152.609375 590.1875 154.367188 590.996094 159.589844 C 591.605469 163.535156 595.171875 166.542969 600.542969 167.632812 C 601.777344 167.882812 603.109375 168.019531 604.464844 168.019531 C 608.960938 168.019531 613.707031 166.519531 616.035156 162.757812 C 619.375 157.355469 617.113281 151.460938 615.292969 146.730469 C 614.367188 144.316406 613.492188 142.035156 613.503906 140.253906 C 613.574219 131.035156 614.09375 113.988281 614.203125 110.421875 C 616.65625 110.085938 624.902344 108.398438 628.925781 100.75 C 630.632812 107.84375 635.742188 111.984375 644.152344 113.066406 C 644.277344 113.082031 644.40625 113.066406 644.523438 113.019531 C 644.5625 113.007812 648.390625 111.582031 650.925781 112.9375 C 651.996094 113.503906 652.675781 114.476562 653.007812 115.898438 C 653.578125 118.351562 653.019531 120.476562 651.429688 121.886719 C 650.089844 123.074219 648.171875 123.597656 646.375 123.328125 C 646.242188 123.238281 646.082031 123.195312 645.910156 123.203125 C 645.878906 123.207031 645.847656 123.210938 645.816406 123.214844 C 645.625 123.167969 645.433594 123.109375 645.246094 123.039062 C 644.847656 122.894531 644.40625 123.101562 644.261719 123.5 C 644.117188 123.898438 644.320312 124.339844 644.71875 124.484375 C 644.886719 124.542969 645.058594 124.597656 645.226562 124.648438 C 645.359375 126.929688 645.808594 134.765625 645.910156 137.753906 C 645.976562 139.734375 645.386719 142.191406 644.488281 145.910156 C 643.871094 148.476562 643.101562 151.675781 642.339844 155.644531 C 642.082031 156.984375 641.480469 160.128906 643.488281 162.835938 C 645.425781 165.445312 649.332031 167.074219 655.105469 167.683594 C 659.558594 168.152344 663.460938 167.023438 665.804688 164.585938 C 667.503906 162.820312 668.242188 160.480469 667.882812 158 Z M 694.246094 219.152344 C 695.015625 223.207031 698.015625 241.507812 691.511719 251.445312 C 689.324219 254.789062 686.242188 256.871094 682.351562 257.636719 C 677.230469 258.644531 672.308594 257.242188 667.722656 253.472656 C 656.960938 244.621094 649.148438 223.109375 649.148438 202.324219 C 649.148438 202.023438 648.972656 201.75 648.699219 201.625 L 646.617188 200.664062 C 646.359375 200.542969 646.046875 200.582031 645.824219 200.757812 C 645.597656 200.9375 645.488281 201.226562 645.542969 201.511719 C 645.667969 202.144531 645.824219 204.019531 645.070312 205.074219 C 644.742188 205.535156 644.269531 205.800781 643.628906 205.886719 C 643.175781 205.945312 642.8125 205.792969 642.472656 205.402344 C 640.90625 203.605469 640.859375 198.339844 641.429688 196.28125 C 642.050781 194.042969 644.011719 193.273438 644.375 193.148438 C 644.902344 193.097656 648.480469 192.84375 651.214844 194.34375 C 651.332031 194.410156 651.457031 194.441406 651.582031 194.441406 C 651.855469 194.441406 652.117188 194.296875 652.257812 194.042969 C 652.460938 193.671875 652.324219 193.203125 651.953125 193 C 649.628906 191.722656 646.882812 191.542969 645.339844 191.5625 C 645.648438 190.835938 646.152344 189.851562 646.867188 189.058594 C 647.539062 188.316406 651.230469 188.738281 654.257812 189.605469 C 654.484375 189.671875 654.734375 189.625 654.925781 189.480469 C 655.117188 189.339844 655.230469 189.113281 655.234375 188.875 C 655.234375 188.828125 655.277344 184.324219 655.710938 179.882812 C 656.503906 171.761719 657.816406 171.53125 657.832031 171.53125 C 659.265625 171.53125 659.804688 174.820312 660.550781 179.375 C 661.007812 182.171875 661.574219 185.652344 662.53125 189.53125 C 671.292969 224.582031 681.53125 234.960938 681.960938 235.386719 C 682.261719 235.683594 682.746094 235.679688 683.046875 235.378906 C 683.34375 235.078125 683.339844 234.59375 683.039062 234.292969 C 682.9375 234.191406 672.65625 223.695312 664.023438 189.164062 C 663.082031 185.34375 662.515625 181.894531 662.0625 179.125 C 661.132812 173.433594 660.570312 169.996094 657.832031 169.996094 C 656.574219 169.996094 655.023438 171.105469 654.183594 179.742188 C 653.867188 182.996094 653.753906 186.277344 653.71875 187.871094 C 651.441406 187.300781 647.125 186.480469 645.726562 188.03125 C 644.535156 189.359375 643.859375 191.054688 643.597656 191.800781 C 642.722656 192.167969 640.671875 193.28125 639.953125 195.871094 C 639.285156 198.269531 639.296875 204.097656 641.316406 206.414062 C 642 207.195312 642.867188 207.539062 643.835938 207.40625 C 644.90625 207.261719 645.742188 206.777344 646.324219 205.960938 C 647.050781 204.941406 647.195312 203.609375 647.183594 202.613281 L 647.613281 202.8125 C 647.730469 220.9375 654.296875 244.421875 666.75 254.660156 C 670.65625 257.875 674.808594 259.492188 679.136719 259.492188 C 680.292969 259.492188 681.464844 259.375 682.648438 259.140625 C 686.960938 258.292969 690.375 255.984375 692.796875 252.285156 C 700.015625 241.246094 696.28125 221.382812 695.660156 218.371094 C 695.1875 218.65625 694.617188 218.972656 694.246094 219.152344 Z M 588.597656 250.082031 C 586.664062 253.875 582.96875 257.867188 575.929688 258.261719 C 559.691406 259.160156 549.695312 241.101562 549.1875 233.507812 C 549.03125 231.167969 549.746094 229.21875 551.054688 228.414062 C 551.910156 227.886719 552.929688 227.914062 554.019531 228.476562 C 554.445312 229.980469 556.359375 236.1875 559.484375 238.976562 C 559.628906 239.109375 559.8125 239.171875 559.996094 239.171875 C 560.207031 239.171875 560.417969 239.085938 560.566406 238.917969 C 560.851562 238.601562 560.824219 238.113281 560.507812 237.832031 C 557.675781 235.304688 555.832031 229.242188 555.476562 227.988281 C 555.867188 226.957031 556.816406 226.257812 558.074219 226.105469 C 559.4375 225.941406 560.703125 226.480469 561.332031 227.476562 C 561.566406 228.339844 563.007812 233.113281 566.652344 236.375 C 566.796875 236.503906 566.980469 236.570312 567.164062 236.570312 C 567.375 236.570312 567.585938 236.484375 567.734375 236.3125 C 568.019531 235.996094 567.992188 235.511719 567.675781 235.230469 C 564.460938 232.351562 563.085938 228.019531 562.832031 227.136719 C 563.132812 225.753906 563.910156 224.921875 565.046875 224.789062 C 566.234375 224.652344 567.457031 225.320312 567.902344 226.339844 C 569.105469 229.089844 576.414062 239.566406 579.929688 242.925781 C 580.234375 243.21875 580.722656 243.207031 581.015625 242.898438 C 581.308594 242.59375 581.296875 242.105469 580.988281 241.816406 C 577.449219 238.433594 570.328125 228.054688 569.308594 225.722656 C 568.59375 224.085938 566.726562 223.054688 564.871094 223.265625 C 564.695312 223.285156 564.523438 223.316406 564.359375 223.359375 L 562.324219 179.699219 C 562.304688 179.277344 561.945312 178.957031 561.523438 178.96875 C 561.097656 178.988281 560.769531 179.347656 560.789062 179.773438 L 562.855469 224.125 C 562.390625 224.511719 562 225.015625 561.71875 225.625 C 560.714844 224.804688 559.332031 224.40625 557.890625 224.582031 C 556.292969 224.773438 554.980469 225.636719 554.285156 226.898438 C 552.859375 226.300781 551.449219 226.367188 550.25 227.105469 C 548.429688 228.226562 547.460938 230.65625 547.65625 233.609375 C 548.179688 241.445312 558.277344 259.832031 574.761719 259.832031 C 575.175781 259.832031 575.59375 259.820312 576.015625 259.796875 C 582.476562 259.433594 586.378906 256.242188 588.726562 252.757812 C 588.6875 251.832031 588.628906 250.738281 588.597656 250.082031 Z M 645.65625 240.253906 C 645.550781 240.253906 645.445312 240.234375 645.34375 240.1875 C 625.414062 231.304688 613.40625 212.210938 613.285156 212.019531 C 613.0625 211.65625 613.175781 211.183594 613.535156 210.960938 C 613.894531 210.738281 614.367188 210.847656 614.589844 211.207031 C 614.707031 211.394531 626.480469 230.097656 645.96875 238.785156 C 646.355469 238.957031 646.53125 239.410156 646.355469 239.796875 C 646.230469 240.085938 645.949219 240.253906 645.65625 240.253906 Z M 619.359375 121.542969 C 618.980469 121.738281 618.828125 122.199219 619.023438 122.574219 C 619.09375 122.71875 620.792969 126 623.734375 127.9375 C 623.5625 129.152344 623.367188 130.214844 623.203125 131.097656 C 622.742188 133.585938 622.460938 135.089844 623.65625 135.753906 C 623.890625 135.882812 624.171875 135.949219 624.480469 135.949219 C 624.929688 135.949219 625.441406 135.808594 625.953125 135.539062 C 626.957031 135.003906 628.90625 133.429688 630.375 128.941406 C 632.824219 128.148438 635.261719 126.09375 637.628906 122.796875 C 637.875 122.453125 637.796875 121.972656 637.453125 121.726562 C 637.109375 121.476562 636.628906 121.554688 636.382812 121.902344 C 634.550781 124.453125 632.71875 126.175781 630.914062 127.070312 C 631.378906 125.214844 631.765625 122.972656 632.003906 120.253906 C 632.039062 119.832031 631.730469 119.457031 631.304688 119.421875 C 630.878906 119.386719 630.511719 119.695312 630.476562 120.117188 C 630.183594 123.445312 629.679688 125.996094 629.089844 127.953125 C 629.03125 128.050781 629 128.164062 628.992188 128.277344 C 627.789062 132.089844 626.269531 133.523438 625.480469 134.035156 C 624.859375 134.441406 624.457031 134.429688 624.402344 134.414062 C 624.195312 134.152344 624.480469 132.613281 624.710938 131.375 C 624.921875 130.238281 625.1875 128.820312 625.394531 127.125 C 625.996094 122.199219 625.769531 115.515625 625.757812 115.234375 C 625.742188 114.808594 625.382812 114.480469 624.964844 114.492188 C 624.542969 114.507812 624.210938 114.863281 624.226562 115.285156 C 624.226562 115.351562 624.433594 121.472656 623.949219 126.207031 C 621.730469 124.460938 620.40625 121.910156 620.390625 121.878906 C 620.199219 121.503906 619.734375 121.351562 619.359375 121.542969 Z M 619.367188 115.71875 C 620.183594 115.71875 620.847656 115.058594 620.847656 114.238281 C 620.847656 113.421875 620.183594 112.757812 619.367188 112.757812 C 618.546875 112.757812 617.882812 113.421875 617.882812 114.238281 C 617.882812 115.058594 618.546875 115.71875 619.367188 115.71875 Z M 634.664062 115.480469 C 635.480469 115.480469 636.144531 114.816406 636.144531 114 C 636.144531 113.179688 635.480469 112.515625 634.664062 112.515625 C 633.84375 112.515625 633.183594 113.179688 633.183594 114 C 633.183594 114.816406 633.84375 115.480469 634.664062 115.480469 Z M 645.222656 151.199219 C 645.035156 150.820312 644.574219 150.667969 644.191406 150.855469 C 630.195312 157.816406 614.875 151.382812 614.722656 151.316406 C 614.332031 151.152344 613.882812 151.332031 613.714844 151.71875 C 613.546875 152.109375 613.726562 152.5625 614.117188 152.726562 C 614.535156 152.910156 621.09375 155.667969 629.621094 155.667969 C 634.339844 155.667969 639.660156 154.824219 644.875 152.230469 C 645.257812 152.042969 645.410156 151.582031 645.222656 151.199219 Z M 649.945312 116.507812 C 650.367188 116.550781 650.738281 116.242188 650.78125 115.824219 C 650.824219 115.402344 650.519531 115.023438 650.097656 114.980469 C 648.722656 114.839844 645.738281 115.570312 644.273438 119.378906 C 644.121094 119.777344 644.320312 120.21875 644.714844 120.371094 C 644.804688 120.40625 644.898438 120.421875 644.988281 120.421875 C 645.296875 120.421875 645.589844 120.234375 645.707031 119.929688 C 645.984375 119.207031 646.316406 118.640625 646.667969 118.1875 C 646.890625 118.449219 647.460938 119.246094 647.25 120.273438 C 647.164062 120.6875 647.429688 121.09375 647.84375 121.179688 C 647.898438 121.191406 647.949219 121.195312 648 121.195312 C 648.355469 121.195312 648.675781 120.945312 648.75 120.585938 C 649.109375 118.859375 648.152344 117.554688 647.792969 117.140625 C 648.875 116.4375 649.867188 116.5 649.945312 116.507812 Z M 649.945312 116.507812 " fill-opacity="1" fill-rule="nonzero"/><g clip-path="url(#5946682b9a)"><g clip-path="url(#2313d86d5a)"><path fill="#000000" d="M 127.722656 248.421875 L 902.589844 248.421875 L 902.589844 445.574219 L 127.722656 445.574219 Z M 127.722656 248.421875 " fill-opacity="1" fill-rule="nonzero"/></g></g><g clip-path="url(#105ee53d07)"><g clip-path="url(#f661ef4230)"><path fill="#000000" d="M 127.722656 248.421875 L 902.589844 248.421875 L 902.589844 445.574219 L 127.722656 445.574219 Z M 127.722656 248.421875 " fill-opacity="1" fill-rule="nonzero"/></g></g><g clip-path="url(#49cf8cacc6)"><g clip-path="url(#f392f132ef)"><path fill="#d8f7ff" d="M 124.730469 248.421875 L 892.605469 248.421875 L 892.605469 435.964844 L 124.730469 435.964844 Z M 124.730469 248.421875 " fill-opacity="1" fill-rule="nonzero"/></g></g><g clip-path="url(#746146b380)"><g clip-path="url(#6cabf99f8e)"><path fill="#000000" d="M 124.730469 248.421875 L 892.605469 248.421875 L 892.605469 435.964844 L 124.730469 435.964844 Z M 124.730469 248.421875 " fill-opacity="1" fill-rule="nonzero"/></g></g></svg>