<svg xmlns="http://www.w3.org/2000/svg" xmlns:xlink="http://www.w3.org/1999/xlink" width="1366" zoomAndPan="magnify" viewBox="0 0 1024.5 576" height="768" preserveAspectRatio="xMidYMid meet" version="1.0"><defs><clipPath id="d313e747be"><path d="M 0 0.140625 L 1024 0.140625 L 1024 575.859375 L 0 575.859375 Z M 0 0.140625 " clip-rule="nonzero"/></clipPath><clipPath id="f8e3537c7e"><path d="M 99.039062 157 L 238 157 L 238 246 L 99.039062 246 Z M 99.039062 157 " clip-rule="nonzero"/></clipPath><clipPath id="e7cbaf7d63"><path d="M 513.035156 143 L 614 143 L 614 206 L 513.035156 206 Z M 513.035156 143 " clip-rule="nonzero"/></clipPath><clipPath id="659f9f76ce"><path d="M 548 47 L 707 47 L 707 230.847656 L 548 230.847656 Z M 548 47 " clip-rule="nonzero"/></clipPath><clipPath id="331eaa895c"><path d="M 103.289062 220 L 923.601562 220 L 923.601562 354 L 103.289062 354 Z M 103.289062 220 " clip-rule="nonzero"/></clipPath><clipPath id="749caa3ff7"><path d="M 918.738281 353.804688 L 108.441406 353.804688 C 105.902344 353.804688 103.808594 351.710938 103.808594 349.171875 L 103.808594 224.894531 C 103.808594 222.355469 105.902344 220.261719 108.441406 220.261719 L 918.675781 220.261719 C 921.214844 220.261719 923.308594 222.355469 923.308594 224.894531 L 923.308594 349.109375 C 923.375 351.710938 921.277344 353.804688 918.738281 353.804688 Z M 918.738281 353.804688 " clip-rule="nonzero"/></clipPath><clipPath id="dfe49b9f7d"><path d="M 102.222656 218.675781 L 925 218.675781 L 925 355.394531 L 102.222656 355.394531 Z M 102.222656 218.675781 " clip-rule="nonzero"/></clipPath><clipPath id="82f4bbde60"><path d="M 918.738281 221.65625 C 920.515625 221.65625 921.976562 223.117188 921.976562 224.894531 L 921.976562 349.171875 C 921.976562 350.949219 920.515625 352.410156 918.738281 352.410156 L 108.441406 352.410156 C 106.664062 352.410156 105.203125 350.949219 105.203125 349.171875 L 105.203125 224.894531 C 105.203125 223.117188 106.664062 221.65625 108.441406 221.65625 L 918.738281 221.65625 M 918.738281 218.675781 L 108.441406 218.675781 C 105.015625 218.675781 102.222656 221.46875 102.222656 224.894531 L 102.222656 349.171875 C 102.222656 352.601562 105.015625 355.394531 108.441406 355.394531 L 918.738281 355.394531 C 922.167969 355.394531 924.960938 352.601562 924.960938 349.171875 L 924.960938 224.894531 C 924.960938 221.46875 922.167969 218.675781 918.738281 218.675781 Z M 918.738281 218.675781 " clip-rule="nonzero"/></clipPath><clipPath id="9107ba01a8"><path d="M 100.5625 220.199219 L 912.859375 220.199219 L 912.859375 347.199219 L 100.5625 347.199219 Z M 100.5625 220.199219 " clip-rule="nonzero"/></clipPath><clipPath id="4c9c4d2a9e"><path d="M 908.339844 347.15625 L 105.1875 347.15625 C 102.679688 347.15625 100.609375 345.085938 100.609375 342.578125 L 100.609375 224.820312 C 100.609375 222.3125 102.679688 220.242188 105.1875 220.242188 L 908.277344 220.242188 C 910.785156 220.242188 912.855469 222.3125 912.855469 224.820312 L 912.855469 342.515625 C 912.917969 345.085938 910.847656 347.15625 908.339844 347.15625 Z M 908.339844 347.15625 " clip-rule="nonzero"/></clipPath><clipPath id="bae00e1eed"><path d="M 99.039062 218.675781 L 914.890625 218.675781 L 914.890625 348.722656 L 99.039062 348.722656 Z M 99.039062 218.675781 " clip-rule="nonzero"/></clipPath><clipPath id="812dc88e22"><path d="M 908.339844 221.621094 C 910.097656 221.621094 911.539062 223.066406 911.539062 224.820312 L 911.539062 342.578125 C 911.539062 344.332031 910.097656 345.773438 908.339844 345.773438 L 105.1875 345.773438 C 103.429688 345.773438 101.988281 344.332031 101.988281 342.578125 L 101.988281 224.820312 C 101.988281 223.066406 103.429688 221.621094 105.1875 221.621094 L 908.339844 221.621094 M 908.339844 218.675781 L 105.1875 218.675781 C 101.800781 218.675781 99.039062 221.433594 99.039062 224.820312 L 99.039062 342.578125 C 99.039062 345.964844 101.800781 348.722656 105.1875 348.722656 L 908.339844 348.722656 C 911.726562 348.722656 914.484375 345.964844 914.484375 342.578125 L 914.484375 224.820312 C 914.484375 221.433594 911.726562 218.675781 908.339844 218.675781 Z M 908.339844 218.675781 " clip-rule="nonzero"/></clipPath></defs><g clip-path="url(#d313e747be)"><path fill="#ffffff" d="M 0 0.140625 L 1024 0.140625 L 1024 575.859375 L 0 575.859375 Z M 0 0.140625 " fill-opacity="1" fill-rule="nonzero"/><path fill="#ffefcd" d="M 0 0.140625 L 1024 0.140625 L 1024 575.859375 L 0 575.859375 Z M 0 0.140625 " fill-opacity="1" fill-rule="nonzero"/></g><path fill="#101011" d="M 278.484375 54.414062 C 272.285156 49.1875 260.851562 46.953125 249.351562 48.726562 C 240.851562 50.039062 234.4375 53.226562 231.75 57.472656 C 226.523438 65.726562 227.570312 82.601562 227.824219 85.804688 C 217.707031 90.273438 217.707031 91.136719 217.707031 91.769531 C 217.707031 92.046875 217.835938 92.308594 218.0625 92.488281 C 218.308594 92.683594 218.851562 92.765625 219.617188 92.765625 C 221.433594 92.765625 224.511719 92.289062 227.882812 91.628906 L 228.671875 116.25 C 228.679688 116.53125 228.855469 116.78125 229.113281 116.886719 C 229.289062 116.960938 241.949219 122.101562 260.394531 122.101562 C 267.589844 122.101562 275.667969 121.320312 284.226562 119.148438 C 284.515625 119.074219 284.730469 118.828125 284.761719 118.527344 C 284.992188 116.320312 290.292969 64.371094 278.484375 54.414062 Z M 228.902344 86.890625 C 228.910156 86.886719 228.917969 86.882812 228.925781 86.878906 C 231.796875 85.613281 234.996094 84.273438 238.109375 83.03125 C 238.476562 82.882812 238.652344 82.464844 238.507812 82.097656 C 238.359375 81.730469 237.945312 81.550781 237.578125 81.699219 C 237.558594 81.707031 236.726562 82.039062 235.4375 82.570312 C 235.152344 77.820312 236.53125 73.574219 237.789062 70.777344 C 237.816406 71.640625 237.984375 72.464844 238.417969 73.042969 C 238.835938 73.605469 239.46875 73.910156 240.199219 73.898438 C 242.011719 73.894531 243.421875 72.183594 244.375 70.476562 C 244.496094 71.613281 244.792969 72.726562 245.421875 73.355469 C 245.851562 73.78125 246.394531 73.964844 247.003906 73.894531 C 248.703125 73.691406 250.378906 71.59375 251.527344 69.796875 C 251.585938 72.027344 251.976562 74.265625 253.273438 74.632812 C 254.226562 74.859375 255.292969 74.632812 256.273438 73.992188 C 257.570312 73.148438 258.621094 71.664062 259.335938 69.699219 C 260.121094 71.894531 261.320312 73.527344 262.921875 74.570312 C 263.703125 75.078125 264.492188 75.386719 265.230469 75.574219 C 264.863281 75.773438 264.523438 76.007812 264.230469 76.285156 C 263.941406 76.558594 263.925781 77.011719 264.199219 77.296875 C 264.46875 77.585938 264.921875 77.597656 265.210938 77.328125 C 266.28125 76.324219 268.582031 75.824219 270.585938 76.730469 C 272.5 77.59375 273.503906 79.527344 273.417969 82.167969 C 273.347656 84.1875 272.722656 85.648438 271.554688 86.515625 C 269.320312 88.171875 265.761719 87.253906 265.726562 87.246094 C 265.347656 87.144531 264.953125 87.371094 264.851562 87.753906 C 264.75 88.132812 264.976562 88.527344 265.355469 88.628906 C 265.445312 88.652344 266.558594 88.941406 267.996094 88.941406 C 268.191406 88.941406 268.390625 88.933594 268.597656 88.921875 C 268.34375 91.339844 268.238281 97.992188 268.570312 110.871094 C 250.839844 118.25 239.371094 112.085938 237.472656 110.933594 L 236.511719 96.191406 C 237.511719 96.550781 239.09375 96.988281 240.867188 96.988281 C 241.863281 96.988281 242.917969 96.851562 243.960938 96.484375 C 246.246094 95.683594 248.015625 93.953125 249.214844 91.347656 C 249.378906 90.988281 249.222656 90.5625 248.863281 90.398438 C 248.503906 90.234375 248.078125 90.390625 247.914062 90.75 C 246.882812 92.988281 245.398438 94.460938 243.496094 95.128906 C 240.589844 96.152344 237.453125 95.050781 236.40625 94.613281 L 236.105469 90.023438 C 236.101562 89.960938 236.078125 89.910156 236.0625 89.855469 C 237.066406 89.621094 238.027344 89.390625 238.90625 89.175781 C 239.292969 89.082031 239.527344 88.695312 239.433594 88.3125 C 239.34375 87.929688 238.957031 87.691406 238.570312 87.785156 C 230.949219 89.636719 222.558594 91.320312 219.75 91.402344 C 221.183594 90.441406 224.679688 88.75 228.902344 86.890625 Z M 350.972656 222.996094 C 350.933594 222.996094 350.894531 222.992188 350.851562 222.984375 L 190.109375 196.394531 C 189.71875 196.328125 189.457031 195.960938 189.519531 195.570312 C 189.585938 195.179688 189.953125 194.914062 190.34375 194.980469 L 351.085938 221.574219 C 351.476562 221.636719 351.742188 222.007812 351.675781 222.394531 C 351.617188 222.746094 351.316406 222.996094 350.972656 222.996094 Z M 245.816406 83.339844 C 245.96875 83.367188 246.125 83.378906 246.277344 83.378906 C 247.195312 83.378906 248.128906 82.929688 249.058594 82.03125 C 249.34375 81.757812 249.355469 81.304688 249.078125 81.019531 C 248.804688 80.734375 248.351562 80.726562 248.066406 81 C 247.328125 81.714844 246.652344 82.027344 246.058594 81.929688 C 245.183594 81.789062 244.648438 80.785156 244.644531 80.777344 C 244.460938 80.425781 244.03125 80.289062 243.679688 80.46875 C 243.328125 80.648438 243.191406 81.082031 243.371094 81.433594 C 243.40625 81.5 244.226562 83.074219 245.816406 83.339844 Z M 264.839844 84.457031 C 264.925781 84.488281 265.011719 84.503906 265.097656 84.503906 C 265.382812 84.503906 265.65625 84.328125 265.765625 84.042969 C 266.0625 83.273438 266.417969 82.675781 266.796875 82.207031 C 266.964844 82.394531 267.679688 83.285156 267.445312 84.425781 C 267.363281 84.8125 267.613281 85.191406 268 85.273438 C 268.050781 85.28125 268.097656 85.285156 268.148438 85.285156 C 268.480469 85.285156 268.777344 85.054688 268.847656 84.714844 C 269.222656 82.910156 268.152344 81.566406 267.84375 81.226562 C 268.984375 80.457031 270.042969 80.53125 270.121094 80.539062 C 270.507812 80.578125 270.863281 80.292969 270.902344 79.898438 C 270.945312 79.507812 270.660156 79.152344 270.265625 79.113281 C 268.894531 78.972656 265.898438 79.703125 264.429688 83.53125 C 264.289062 83.902344 264.472656 84.316406 264.839844 84.457031 Z M 264.839844 84.457031 " fill-opacity="1" fill-rule="nonzero"/><path fill="#399be6" d="M 312.242188 223.773438 C 282.945312 248.6875 250.355469 212.269531 243.074219 197.929688 C 247.105469 195.464844 270.597656 173.390625 270.597656 173.390625 L 269.355469 173.492188 C 269.355469 173.492188 251.867188 156.082031 245.730469 153.058594 C 239.59375 150.035156 240.382812 154.847656 241.429688 157.851562 C 236.480469 155.363281 235.230469 157.371094 236.011719 162.058594 C 229.171875 158.234375 229.070312 164.652344 230.808594 169.46875 C 232.550781 174.289062 240.933594 188.332031 240.933594 188.332031 L 225.683594 200.050781 C 223.542969 214.363281 189.332031 236.769531 181.445312 200.765625 C 177.207031 181.429688 182.707031 161.15625 193.445312 144.671875 L 194.335938 150.871094 L 241.09375 131.449219 C 241.09375 131.449219 240.796875 126.296875 239.527344 122.398438 C 223.839844 125.148438 200.609375 138.621094 200.609375 138.621094 L 199.082031 136.945312 C 209.019531 124.753906 221.886719 115.523438 235.34375 111.730469 C 268.207031 102.46875 289.878906 118.683594 303.464844 138.324219 C 319.257812 161.152344 329.457031 209.132812 312.242188 223.773438 Z M 312.242188 223.773438 C 282.945312 248.6875 250.355469 212.269531 243.074219 197.929688 C 247.105469 195.464844 270.597656 173.390625 270.597656 173.390625 L 269.355469 173.492188 C 269.355469 173.492188 251.867188 156.082031 245.730469 153.058594 C 239.59375 150.035156 240.382812 154.847656 241.429688 157.851562 C 236.480469 155.363281 235.230469 157.371094 236.011719 162.058594 C 229.171875 158.234375 229.070312 164.652344 230.808594 169.46875 C 232.550781 174.289062 240.933594 188.332031 240.933594 188.332031 L 225.683594 200.050781 C 223.542969 214.363281 189.332031 236.769531 181.445312 200.765625 C 177.207031 181.429688 182.707031 161.15625 193.445312 144.671875 L 194.335938 150.871094 L 241.09375 131.449219 C 241.09375 131.449219 240.796875 126.296875 239.527344 122.398438 C 223.839844 125.148438 200.609375 138.621094 200.609375 138.621094 L 199.082031 136.945312 C 209.019531 124.753906 221.886719 115.523438 235.34375 111.730469 C 268.207031 102.46875 289.878906 118.683594 303.464844 138.324219 C 319.257812 161.152344 329.457031 209.132812 312.242188 223.773438 Z M 312.242188 223.773438 " fill-opacity="1" fill-rule="nonzero"/><path fill="#2e3192" d="M 209.972656 133.6875 L 212.917969 116.433594 C 213.378906 116.359375 214.050781 116.382812 214.855469 116.78125 L 212.15625 132.585938 L 213.714844 131.800781 L 217.320312 110.660156 C 217.578125 109.148438 216.734375 107.738281 215.4375 107.515625 C 214.136719 107.296875 212.871094 108.34375 212.613281 109.851562 L 208.410156 134.472656 Z M 213.492188 113.042969 C 214.609375 112.75 215.191406 113.125 215.433594 113.363281 L 215.105469 115.296875 C 214.707031 115.109375 214.054688 114.9375 213.144531 115.097656 Z M 324.074219 217.105469 C 324.425781 215.019531 327.890625 193.882812 326.984375 168.703125 C 326.632812 158.941406 323.761719 151.792969 318.453125 147.460938 C 314.46875 144.214844 309.816406 143.179688 306.371094 142.914062 C 306.222656 142.777344 305.59375 141.769531 305.457031 141.402344 C 309.160156 141.539062 314.625 142.5 319.34375 146.34375 C 324.996094 150.945312 328.046875 158.449219 328.414062 168.652344 C 329.324219 193.917969 325.855469 215.144531 325.484375 217.335938 C 325.285156 217.335938 324.132812 217.144531 324.074219 217.105469 Z M 324.074219 217.105469 " fill-opacity="1" fill-rule="nonzero"/><path fill="#fbbe28" d="M 230.035156 165.664062 C 230.285156 170.832031 239.820312 187.070312 245.476562 195.320312 C 232.597656 198.382812 213.164062 203.082031 212.710938 203.082031 C 212.363281 203.082031 207.4375 197.910156 202.683594 192.675781 C 201.714844 184.699219 199.625 168.191406 198.769531 167.390625 C 197.921875 166.597656 192.195312 166.085938 189.386719 165.878906 C 184.820312 148.441406 178.3125 123.074219 178.875 122.414062 C 179.339844 121.859375 199.488281 138.546875 200.386719 139.21875 C 201.28125 139.890625 245.875 125.773438 246.546875 126.894531 C 246.863281 127.417969 249.304688 141.925781 251.71875 157.1875 C 250.167969 155.878906 247.277344 153.59375 245.148438 152.832031 C 242.09375 151.738281 240.269531 152.632812 241.601562 157.941406 C 240.160156 156.835938 234.054688 154.5 236.6875 162.742188 C 232.792969 160.03125 229.742188 159.617188 230.035156 165.664062 Z M 230.035156 165.664062 C 230.285156 170.832031 239.820312 187.070312 245.476562 195.320312 C 232.597656 198.382812 213.164062 203.082031 212.710938 203.082031 C 212.363281 203.082031 207.4375 197.910156 202.683594 192.675781 C 201.714844 184.699219 199.625 168.191406 198.769531 167.390625 C 197.921875 166.597656 192.195312 166.085938 189.386719 165.878906 C 184.820312 148.441406 178.3125 123.074219 178.875 122.414062 C 179.339844 121.859375 199.488281 138.546875 200.386719 139.21875 C 201.28125 139.890625 245.875 125.773438 246.546875 126.894531 C 246.863281 127.417969 249.304688 141.925781 251.71875 157.1875 C 250.167969 155.878906 247.277344 153.59375 245.148438 152.832031 C 242.09375 151.738281 240.269531 152.632812 241.601562 157.941406 C 240.160156 156.835938 234.054688 154.5 236.6875 162.742188 C 232.792969 160.03125 229.742188 159.617188 230.035156 165.664062 Z M 230.035156 165.664062 " fill-opacity="1" fill-rule="nonzero"/><g clip-path="url(#f8e3537c7e)"><path fill="#ff5757" d="M 103.109375 194.765625 C 107.246094 230.9375 107.882812 231.257812 108.394531 231.511719 C 109.988281 232.3125 208.371094 245.332031 209.101562 245.332031 C 209.152344 245.332031 209.203125 245.328125 209.25 245.316406 C 209.269531 245.3125 209.289062 245.304688 209.308594 245.296875 C 209.335938 245.289062 209.363281 245.285156 209.390625 245.273438 L 237.472656 233.023438 C 237.8125 232.875 237.984375 232.492188 237.867188 232.140625 C 237.648438 231.488281 237.351562 230.59375 222.117188 228.59375 C 215.640625 227.742188 209.152344 227.058594 207.691406 226.90625 C 204.875 203.785156 200.457031 168.507812 199.539062 167.132812 C 199.242188 166.683594 198.539062 165.632812 150.664062 161.308594 C 128.003906 159.261719 102.222656 157.230469 100.082031 157.515625 C 99.617188 157.578125 99.4375 157.835938 99.371094 158.042969 C 99.042969 159.023438 103.070312 194.40625 103.109375 194.765625 Z M 100.777344 158.910156 C 100.800781 158.910156 100.824219 158.910156 100.851562 158.910156 C 104.804688 158.910156 125.902344 160.519531 149.300781 162.621094 C 176.671875 165.082031 196.1875 167.238281 198.390625 168.035156 C 199.394531 171.175781 204.789062 214.480469 208.285156 243.800781 C 199 242.613281 115.042969 231.445312 109.21875 230.261719 C 108.714844 228.507812 107.238281 218.28125 104.488281 194.226562 C 102.535156 177.101562 100.980469 162.046875 100.777344 158.910156 Z M 144.324219 200.546875 C 144.769531 202.742188 146.449219 204.257812 148.066406 203.929688 C 149.683594 203.597656 150.636719 201.542969 150.1875 199.351562 C 149.742188 197.15625 148.0625 195.640625 146.445312 195.96875 C 144.828125 196.300781 143.875 198.351562 144.324219 200.546875 Z M 146.78125 197.628906 C 147.625 197.457031 148.523438 198.355469 148.785156 199.636719 C 149.046875 200.914062 148.574219 202.097656 147.730469 202.269531 C 146.886719 202.441406 145.988281 201.539062 145.726562 200.261719 C 145.464844 198.980469 145.9375 197.800781 146.78125 197.628906 Z M 146.78125 197.628906 " fill-opacity="1" fill-rule="nonzero"/></g><path fill="#101011" d="M 145.578125 145.515625 C 136.851562 144.917969 132.109375 144.773438 131.484375 145.082031 C 131.054688 145.300781 130.964844 145.644531 130.84375 147.558594 C 130.726562 149.484375 130.660156 152.410156 130.6875 154.835938 C 130.734375 159.691406 131.0625 159.90625 131.410156 160.136719 C 132.023438 160.546875 140.34375 161.25 145.25 161.632812 C 152.046875 162.164062 155.46875 162.339844 157.226562 162.339844 C 158.929688 162.339844 159.078125 162.175781 159.222656 162.015625 C 160.0625 161.101562 159.722656 147.871094 159.316406 147.160156 C 159.101562 146.78125 158.894531 146.425781 145.578125 145.515625 Z M 132.332031 158.949219 C 131.964844 157.195312 132.09375 148.390625 132.375 146.355469 C 134.785156 146.210938 147.214844 146.972656 154.015625 147.597656 C 154.046875 149.578125 154.046875 158.730469 154.050781 160.785156 C 147.1875 160.425781 134.589844 159.410156 132.332031 158.949219 Z M 158.128906 160.90625 C 157.644531 160.929688 156.710938 160.910156 155.480469 160.855469 C 155.480469 158.960938 155.476562 150.058594 155.445312 147.734375 C 156.660156 147.859375 157.585938 147.972656 158.074219 148.070312 C 158.300781 150.058594 158.410156 158.953125 158.128906 160.90625 Z M 236.085938 111.144531 C 236.1875 111.207031 242.9375 115.261719 253.011719 115.261719 C 257.894531 115.261719 263.5625 114.308594 269.628906 111.484375 C 269.988281 111.316406 270.144531 110.890625 269.976562 110.53125 C 269.808594 110.175781 269.382812 110.019531 269.027344 110.1875 C 251.164062 118.5 236.980469 110.011719 236.839844 109.925781 C 236.5 109.71875 236.0625 109.824219 235.855469 110.160156 C 235.648438 110.496094 235.75 110.9375 236.085938 111.144531 Z M 299.144531 198.535156 C 293.804688 193.339844 287.753906 187.941406 282.601562 183.480469 C 282.71875 183.34375 282.789062 183.160156 282.773438 182.964844 C 282.761719 182.785156 281.539062 164.84375 280.875 151.421875 C 280.855469 151.027344 280.519531 150.726562 280.125 150.742188 C 279.730469 150.761719 279.425781 151.097656 279.445312 151.492188 C 280.035156 163.425781 281.066406 178.917969 281.296875 182.359375 C 275.46875 177.347656 271.046875 173.75 270.597656 173.390625 C 269.59375 172.363281 254.234375 157.097656 246.453125 152.640625 C 244.175781 151.335938 242.554688 151.113281 241.507812 151.960938 C 240.261719 152.96875 240.421875 155.195312 240.714844 156.722656 C 239.441406 156.210938 237.621094 155.757812 236.425781 156.691406 C 235.480469 157.425781 235.171875 158.777344 235.496094 160.796875 C 234.113281 159.972656 232.640625 159.855469 231.433594 160.546875 C 229.671875 161.550781 228.40625 164.484375 230.128906 169.695312 C 232.660156 177.335938 244.6875 195.574219 245.195312 196.34375 C 245.390625 196.226562 246.160156 195.605469 246.304688 195.429688 C 246.179688 195.246094 233.960938 176.703125 231.488281 169.246094 C 230.035156 164.847656 230.933594 162.480469 232.144531 161.789062 C 233.253906 161.15625 234.808594 161.703125 236.117188 163.179688 C 236.59375 163.933594 240.871094 170.703125 242.945312 172.480469 C 243.078125 172.59375 243.246094 172.652344 243.410156 172.652344 C 243.609375 172.652344 243.8125 172.566406 243.953125 172.402344 C 244.210938 172.101562 244.175781 171.648438 243.875 171.390625 C 242.007812 169.792969 237.875 163.28125 237.351562 162.449219 C 236.644531 160.039062 236.625 158.351562 237.304688 157.820312 C 238.117188 157.1875 240.105469 157.949219 241.160156 158.515625 C 241.863281 159.238281 247.519531 165.074219 248.949219 167.117188 C 249.085938 167.316406 249.308594 167.421875 249.535156 167.421875 C 249.675781 167.421875 249.820312 167.378906 249.945312 167.292969 C 250.269531 167.066406 250.347656 166.621094 250.121094 166.296875 C 248.730469 164.304688 243.800781 159.179688 242.449219 157.789062 C 241.949219 156.203125 241.609375 153.71875 242.40625 153.074219 C 242.914062 152.664062 244.128906 152.957031 245.742188 153.882812 C 253.449219 158.296875 269.277344 174.289062 269.433594 174.449219 C 269.457031 174.472656 269.480469 174.492188 269.503906 174.511719 C 269.664062 174.640625 285.878906 187.628906 298.148438 199.5625 C 298.285156 199.699219 298.464844 199.765625 298.648438 199.765625 C 298.832031 199.765625 299.019531 199.691406 299.160156 199.546875 C 299.433594 199.265625 299.429688 198.8125 299.144531 198.535156 Z M 240.371094 128.125 C 240.820312 128.03125 241.34375 127.910156 241.753906 127.765625 C 241.75 127.757812 241.753906 127.753906 241.75 127.746094 C 241.75 127.746094 241.074219 125.355469 240.175781 122.214844 C 240.070312 121.84375 239.691406 121.625 239.316406 121.71875 C 229.398438 124.171875 209.953125 132.140625 200.632812 138.195312 C 196.054688 130.308594 186.253906 122.210938 185.824219 121.859375 C 185.53125 121.617188 185.09375 121.648438 184.839844 121.933594 L 182.332031 124.730469 C 182.644531 124.996094 183.089844 125.339844 183.472656 125.605469 L 185.441406 123.40625 C 187.453125 125.125 194.757812 131.582031 198.792969 137.929688 C 199.609375 138.714844 200.234375 139.277344 200.402344 139.292969 C 200.636719 139.3125 201.140625 139.246094 202.117188 138.949219 C 211.246094 133.246094 229.421875 125.78125 238.992188 123.277344 C 239.761719 125.976562 240.328125 127.984375 240.371094 128.125 Z M 240.371094 128.125 " fill-opacity="1" fill-rule="nonzero"/><path fill="#ff5757" d="M 430.761719 202.632812 C 430.761719 202.632812 409.898438 232.367188 395.304688 240.113281 C 351.816406 258.878906 337.140625 210.910156 350.324219 162.703125 C 363.429688 114.785156 405.898438 111.363281 415.035156 110.765625 C 451.054688 108.410156 477.847656 134.171875 478.734375 138.273438 C 474.273438 135.699219 464.640625 131.316406 447.652344 128.746094 C 438.941406 127.632812 416.601562 126.847656 416.601562 126.847656 L 416.351562 134.109375 C 412.191406 134.398438 409.675781 134.667969 409.675781 134.667969 C 409.675781 134.667969 409.167969 171.605469 409.050781 180.019531 C 425.214844 192.007812 430.761719 202.632812 430.761719 202.632812 Z M 442.066406 213.601562 C 446.558594 224.699219 469.800781 242.414062 490.320312 227.824219 C 508.863281 214.644531 491.523438 163.488281 491.523438 163.488281 C 491.523438 163.488281 435.132812 196.476562 442.066406 213.601562 Z M 442.066406 213.601562 " fill-opacity="1" fill-rule="nonzero"/><path fill="#101011" d="M 450.671875 92.765625 C 450.1875 91.414062 441.597656 87.347656 434.589844 84.21875 L 434.589844 74.011719 C 437.246094 73.273438 448.183594 69.433594 448.589844 56.164062 C 448.589844 56.136719 448.589844 56.105469 448.585938 56.078125 C 448.46875 54.761719 447.621094 53.859375 446.382812 53.726562 C 445.757812 53.65625 445.027344 53.816406 444.402344 54.203125 C 444.171875 51.644531 443.289062 50.097656 441.769531 49.59375 C 439.605469 48.878906 436.851562 50.699219 435.085938 52.972656 C 431.726562 52.023438 412.550781 46.984375 398.503906 51.667969 C 383.992188 56.503906 389.402344 76.964844 390.269531 79.921875 C 388.773438 82.046875 388.449219 84.9375 389.183594 87.316406 C 390.089844 90.253906 392.753906 93.042969 397.550781 92.464844 C 397.433594 99.183594 397.566406 115.585938 397.566406 115.757812 C 397.570312 115.960938 397.65625 116.15625 397.808594 116.289062 C 398.023438 116.476562 403.234375 120.933594 417.046875 120.933594 C 431.019531 120.933594 434.371094 114.855469 434.507812 114.597656 C 434.5625 114.492188 434.589844 114.378906 434.589844 114.265625 L 434.589844 93.382812 C 436.136719 93.539062 437.957031 93.714844 439.789062 93.863281 C 443.257812 94.148438 445.574219 94.253906 447.132812 94.253906 C 450.023438 94.253906 450.3125 93.890625 450.53125 93.617188 C 450.722656 93.375 450.773438 93.054688 450.671875 92.765625 Z M 433.886719 91.882812 C 433.882812 91.882812 433.878906 91.882812 433.875 91.882812 C 432.757812 91.765625 431.636719 91.640625 430.535156 91.511719 C 430.148438 91.46875 429.789062 91.75 429.742188 92.140625 C 429.695312 92.53125 429.976562 92.886719 430.367188 92.929688 C 430.390625 92.933594 431.5 93.0625 433.164062 93.238281 L 433.164062 98 C 431.09375 98.800781 421.730469 101.871094 416.910156 94.082031 C 416.703125 93.746094 416.261719 93.644531 415.925781 93.847656 C 415.589844 94.058594 415.488281 94.496094 415.695312 94.832031 C 418.5625 99.460938 422.8125 100.6875 426.515625 100.6875 C 429.335938 100.6875 431.835938 99.976562 433.164062 99.515625 L 433.164062 114.066406 C 432.605469 114.910156 429.019531 119.507812 417.046875 119.507812 C 405.433594 119.507812 400.128906 116.21875 398.992188 115.402344 C 398.972656 112.867188 398.859375 97.203125 398.996094 91.644531 C 399 91.425781 398.90625 91.222656 398.742188 91.082031 C 398.578125 90.941406 398.355469 90.886719 398.144531 90.925781 C 394.394531 91.664062 391.554688 90.15625 390.550781 86.898438 C 389.65625 84.007812 390.601562 80.21875 393.722656 78.878906 C 395.4375 78.144531 396.871094 78.035156 397.976562 78.554688 C 399.375 79.214844 399.824219 80.710938 399.828125 80.722656 C 399.851562 80.808594 399.890625 80.886719 399.941406 80.957031 C 400.054688 81.105469 402.714844 84.636719 406.039062 83.871094 C 410.386719 82.867188 410.589844 76.300781 410.5 73.738281 C 413.121094 74.355469 420.894531 75.742188 433.164062 74.257812 L 433.164062 83.585938 C 432.3125 83.207031 431.496094 82.851562 430.734375 82.519531 C 430.375 82.363281 429.953125 82.527344 429.796875 82.890625 C 429.640625 83.25 429.804688 83.671875 430.167969 83.828125 C 431.296875 84.320312 432.441406 84.824219 433.574219 85.332031 C 433.589844 85.339844 433.605469 85.347656 433.621094 85.355469 C 440.285156 88.335938 446.667969 91.417969 448.71875 92.789062 C 446.457031 92.980469 440.25 92.546875 433.886719 91.882812 Z M 422.152344 83.390625 C 421.433594 83.140625 420.648438 83.519531 420.398438 84.238281 C 420.148438 84.957031 420.527344 85.742188 421.246094 85.992188 C 421.964844 86.242188 422.75 85.863281 423 85.144531 C 423.25 84.425781 422.871094 83.640625 422.152344 83.390625 Z M 445.84375 170.207031 C 445.140625 169.339844 443.988281 168.9375 442.339844 168.972656 C 442.414062 167.503906 442.03125 166.441406 441.195312 165.808594 C 440.03125 164.925781 438.351562 165.199219 437.277344 165.519531 C 437.203125 164.832031 436.953125 163.96875 436.242188 163.285156 C 435.160156 162.242188 433.386719 161.972656 430.972656 162.492188 C 424.675781 163.839844 408.984375 178.675781 407.914062 179.691406 C 407.210938 180.199219 397.625 187.175781 386.234375 196.597656 C 386.316406 192.03125 386.574219 178.222656 386.800781 167.484375 C 386.808594 167.089844 386.496094 166.765625 386.101562 166.757812 C 385.714844 166.769531 385.382812 167.0625 385.375 167.457031 C 385.121094 179.496094 384.828125 195.394531 384.785156 197.804688 C 379.777344 201.980469 374.488281 206.585938 369.496094 211.296875 C 369.207031 211.566406 369.195312 212.019531 369.464844 212.304688 C 369.605469 212.453125 369.792969 212.527344 369.984375 212.527344 C 370.160156 212.527344 370.335938 212.464844 370.472656 212.335938 C 387.746094 196.046875 408.582031 180.972656 408.789062 180.820312 C 408.816406 180.800781 408.839844 180.78125 408.863281 180.757812 C 409.027344 180.601562 425.28125 165.167969 431.269531 163.886719 C 433.160156 163.480469 434.53125 163.628906 435.246094 164.304688 C 435.816406 164.851562 435.886719 165.65625 435.875 166.097656 C 434.703125 166.746094 430.902344 169.066406 427.863281 173.269531 C 427.632812 173.589844 427.703125 174.035156 428.023438 174.265625 C 428.148438 174.359375 428.296875 174.402344 428.441406 174.402344 C 428.660156 174.402344 428.878906 174.300781 429.019531 174.105469 C 432.296875 169.574219 436.632812 167.300781 436.855469 167.1875 C 437.480469 166.90625 439.4375 166.269531 440.339844 166.949219 C 440.964844 167.425781 440.980469 168.53125 440.859375 169.441406 C 440.183594 170.25 436.84375 174.199219 433.882812 177.289062 C 433.609375 177.574219 433.621094 178.027344 433.90625 178.300781 C 434.042969 178.433594 434.21875 178.496094 434.398438 178.496094 C 434.585938 178.496094 434.773438 178.425781 434.914062 178.277344 C 437.816406 175.246094 441.078125 171.398438 441.894531 170.429688 C 443.320312 170.320312 444.277344 170.542969 444.738281 171.109375 C 445.304688 171.800781 445.253906 173.160156 444.589844 175.261719 C 443.523438 178.617188 433.492188 196.707031 430.007812 201.300781 C 430.097656 201.613281 430.507812 202.246094 430.761719 202.632812 C 434.210938 198.417969 444.722656 179.554688 445.949219 175.691406 C 446.519531 173.894531 447.023438 171.652344 445.84375 170.207031 Z M 445.84375 170.207031 " fill-opacity="1" fill-rule="nonzero"/><path fill="#2e3192" d="M 463.972656 132.304688 L 457.464844 106.523438 C 457.839844 106.28125 458.433594 106.042969 459.289062 106.078125 L 466 132.667969 L 467.441406 132.925781 L 459.085938 99.796875 C 458.730469 98.378906 457.449219 97.472656 456.234375 97.777344 C 455.015625 98.085938 454.3125 99.484375 454.667969 100.902344 L 462.523438 132.046875 Z M 456.660156 103.34375 C 457.523438 102.660156 458.175781 102.761719 458.476562 102.878906 L 458.9375 104.691406 C 458.515625 104.683594 457.882812 104.78125 457.148438 105.269531 Z M 456.660156 103.34375 " fill-opacity="1" fill-rule="nonzero"/><path fill="#101011" d="M 498.222656 114.140625 C 497.945312 114.011719 497.617188 114.070312 497.402344 114.292969 C 497.359375 114.335938 495.484375 116.300781 492.707031 119.472656 L 493.117188 115.300781 C 493.144531 115.019531 493.003906 114.75 492.753906 114.609375 C 492.507812 114.472656 492.203125 114.492188 491.976562 114.664062 C 491.539062 114.992188 481.492188 122.742188 478.234375 137.441406 C 474.363281 134.746094 458.058594 125.578125 416.367188 126.246094 C 416.175781 126.25 415.992188 126.328125 415.863281 126.46875 C 415.730469 126.605469 415.660156 126.789062 415.664062 126.980469 C 415.71875 128.929688 415.710938 131.230469 415.695312 132.886719 C 413.261719 133.171875 411.15625 133.535156 409.492188 133.976562 C 409.183594 134.0625 408.964844 134.339844 408.960938 134.65625 L 408.371094 180.238281 C 410.160156 178.480469 416.808594 172.027344 420.398438 169.59375 C 424.570312 166.761719 433.652344 159.285156 436.78125 166.019531 C 438.480469 165.261719 442.652344 164.902344 441.542969 170.039062 C 442.960938 169.445312 447.035156 169.957031 445.71875 172.871094 C 444.398438 175.78125 444.375 177.933594 442.21875 181.878906 C 440.214844 185.535156 434.382812 197.238281 430.457031 202.078125 C 430.847656 202.777344 430.761719 202.632812 430.761719 202.632812 L 420.636719 216.402344 C 434.292969 216.554688 450.722656 219.113281 469.992188 222.023438 C 470.027344 222.03125 470.058594 222.035156 470.09375 222.039062 C 470.109375 222.042969 470.125 222.054688 470.144531 222.058594 C 470.167969 222.058594 470.191406 222.058594 470.214844 222.058594 C 470.214844 222.058594 470.214844 222.0625 470.214844 222.0625 C 470.21875 222.0625 470.21875 222.0625 470.21875 222.0625 C 470.21875 222.0625 470.21875 222.058594 470.21875 222.058594 C 470.296875 222.058594 470.375 222.042969 470.445312 222.019531 C 470.46875 222.011719 470.488281 222 470.507812 221.992188 C 470.5625 221.96875 470.613281 221.9375 470.660156 221.898438 C 470.675781 221.886719 470.6875 221.878906 470.703125 221.867188 C 470.753906 221.816406 470.800781 221.761719 470.839844 221.699219 C 480.523438 204.53125 488.808594 194.144531 488.890625 194.039062 C 488.972656 193.9375 489.027344 193.8125 489.042969 193.679688 L 498.625 114.871094 C 498.664062 114.566406 498.5 114.273438 498.222656 114.140625 Z M 417.125 132.730469 C 417.136719 131.28125 417.140625 129.390625 417.109375 127.664062 C 447.214844 127.257812 463.890625 132.167969 471.953125 135.71875 C 457.824219 132.382812 432.144531 131.222656 417.125 132.730469 Z M 491.089844 121.34375 C 487.945312 125.023438 484.035156 129.839844 480.335938 135.058594 C 483.175781 125.53125 488.929688 119.347656 491.523438 116.941406 Z M 491.089844 121.34375 " fill-opacity="1" fill-rule="nonzero"/><path fill="#f2f2f2" d="M 444.945312 142.667969 C 443.417969 142.589844 442.136719 144.230469 442.023438 146.40625 C 441.914062 148.582031 443.019531 150.347656 444.546875 150.425781 C 446.070312 150.503906 447.355469 148.863281 447.464844 146.6875 C 447.578125 144.511719 446.46875 142.746094 444.945312 142.667969 Z M 444.617188 149 C 444.007812 148.96875 443.378906 147.882812 443.449219 146.480469 C 443.523438 145.074219 444.261719 144.0625 444.871094 144.09375 C 445.484375 144.125 446.113281 145.210938 446.039062 146.613281 C 445.96875 148.019531 445.230469 149.03125 444.617188 149 Z M 421.289062 148.703125 C 421.289062 148.703125 421.285156 148.703125 421.285156 148.703125 L 418.945312 148.625 L 419.269531 143.265625 C 419.292969 142.871094 418.992188 142.53125 418.601562 142.507812 C 418.59375 142.507812 418.589844 142.507812 418.582031 142.507812 C 418.195312 142.496094 417.867188 142.789062 417.84375 143.179688 L 417.476562 149.269531 C 417.464844 149.464844 417.53125 149.652344 417.660156 149.792969 C 417.789062 149.9375 417.96875 150.019531 418.160156 150.027344 C 418.164062 150.027344 418.164062 150.027344 418.164062 150.027344 L 421.238281 150.128906 C 421.632812 150.140625 421.960938 149.832031 421.976562 149.4375 C 421.988281 149.046875 421.679688 148.714844 421.289062 148.703125 Z M 427.621094 148.058594 L 425.277344 148.078125 L 425.320312 146.027344 L 426.945312 146.003906 C 427.335938 146 427.652344 145.675781 427.648438 145.28125 C 427.640625 144.886719 427.320312 144.574219 426.929688 144.578125 C 426.925781 144.578125 426.925781 144.578125 426.921875 144.578125 L 425.347656 144.597656 L 425.367188 143.660156 L 427.464844 143.648438 C 427.859375 143.648438 428.175781 143.328125 428.175781 142.933594 C 428.171875 142.539062 427.851562 142.21875 427.457031 142.222656 L 424.664062 142.234375 C 424.277344 142.238281 423.960938 142.546875 423.953125 142.933594 L 423.835938 148.785156 C 423.832031 148.976562 423.90625 149.164062 424.042969 149.300781 C 424.175781 149.4375 424.359375 149.511719 424.550781 149.511719 C 424.554688 149.511719 424.554688 149.511719 424.554688 149.511719 L 427.632812 149.488281 C 428.023438 149.484375 428.34375 149.160156 428.339844 148.765625 C 428.335938 148.375 428.015625 148.058594 427.621094 148.058594 Z M 432.394531 143.125 C 433.011719 143.121094 433.027344 144.316406 433.027344 144.328125 C 433.027344 144.722656 433.347656 145.039062 433.742188 145.035156 C 434.136719 145.035156 434.457031 144.714844 434.453125 144.320312 C 434.445312 143.007812 433.804688 141.6875 432.386719 141.695312 C 431.011719 141.703125 430.058594 142.773438 430.066406 144.300781 C 430.074219 145.625 431.132812 146.128906 431.902344 146.5 C 432.695312 146.878906 432.929688 147.042969 432.929688 147.417969 C 432.933594 148.058594 432.214844 148.070312 432.1875 148.070312 C 431.992188 148.070312 431.816406 148.011719 431.695312 147.910156 C 431.570312 147.804688 431.511719 147.644531 431.507812 147.421875 C 431.507812 147.03125 431.1875 146.710938 430.792969 146.714844 C 430.398438 146.714844 430.078125 147.035156 430.082031 147.429688 C 430.085938 148.0625 430.328125 148.617188 430.765625 148.992188 C 431.148438 149.320312 431.652344 149.5 432.191406 149.496094 C 433.246094 149.492188 434.363281 148.757812 434.355469 147.410156 C 434.351562 146.085938 433.292969 145.578125 432.519531 145.210938 C 431.726562 144.832031 431.496094 144.664062 431.492188 144.292969 C 431.492188 143.941406 431.574219 143.128906 432.394531 143.125 Z M 438.558594 143.351562 C 439.179688 143.375 439.136719 144.570312 439.136719 144.582031 C 439.121094 144.976562 439.429688 145.304688 439.820312 145.320312 C 440.214844 145.339844 440.546875 145.03125 440.5625 144.636719 C 440.617188 143.328125 440.035156 141.980469 438.617188 141.925781 C 437.242188 141.871094 436.242188 142.894531 436.179688 144.421875 C 436.128906 145.746094 437.164062 146.296875 437.917969 146.699219 C 438.695312 147.113281 438.917969 147.289062 438.902344 147.664062 C 438.878906 148.304688 438.160156 148.28125 438.128906 148.28125 C 437.9375 148.273438 437.761719 148.207031 437.648438 148.101562 C 437.527344 147.988281 437.472656 147.828125 437.484375 147.605469 C 437.5 147.210938 437.191406 146.882812 436.796875 146.867188 C 436.402344 146.851562 436.074219 147.15625 436.058594 147.550781 C 436.03125 148.179688 436.25 148.746094 436.671875 149.140625 C 437.035156 149.484375 437.535156 149.6875 438.074219 149.707031 C 439.125 149.75 440.277344 149.066406 440.328125 147.71875 C 440.382812 146.398438 439.347656 145.84375 438.589844 145.441406 C 437.816406 145.027344 437.59375 144.851562 437.605469 144.476562 C 437.621094 144.128906 437.742188 143.316406 438.558594 143.351562 Z M 454.476562 143.667969 C 454.101562 143.632812 453.730469 143.902344 453.683594 144.292969 L 453.191406 148.386719 L 450.839844 143.941406 C 450.695312 143.664062 450.390625 143.515625 450.082031 143.570312 C 449.777344 143.625 449.542969 143.875 449.5 144.183594 L 448.742188 150.144531 C 448.691406 150.535156 448.96875 150.894531 449.359375 150.945312 C 449.746094 151 450.109375 150.71875 450.160156 150.324219 L 450.632812 146.601562 L 452.996094 151.074219 C 453.109375 151.289062 453.320312 151.429688 453.554688 151.453125 C 453.621094 151.457031 453.691406 151.457031 453.757812 151.445312 C 454.0625 151.386719 454.300781 151.136719 454.335938 150.828125 L 455.101562 144.464844 C 455.148438 144.070312 454.867188 143.714844 454.476562 143.667969 Z M 454.476562 143.667969 " fill-opacity="1" fill-rule="nonzero"/><path fill="#43c466" d="M 900.132812 202.988281 C 881.65625 215.441406 856.804688 194.28125 856.804688 194.28125 L 859.914062 242.375 C 859.914062 242.375 789.640625 258.753906 749.21875 242.375 C 749.21875 234.9375 749.453125 229.5625 749.511719 228.335938 C 749.464844 228.503906 749.417969 228.679688 749.371094 228.847656 C 741.269531 231.21875 730.222656 231.261719 722.480469 224.058594 C 709.855469 212.308594 729.292969 170.3125 731.558594 165.085938 C 739.210938 170.0625 758.753906 173.132812 762.53125 169.726562 C 762.660156 169.617188 762.785156 169.515625 762.914062 169.410156 C 762.769531 170.101562 762.613281 170.863281 762.445312 171.675781 C 766.3125 171.09375 775.609375 169.6875 778.042969 169.199219 C 778.445312 167.332031 774.507812 120.890625 774.507812 120.890625 C 774.507812 120.890625 783.628906 117.839844 787.566406 117.0625 C 789.957031 116.570312 794.625 115.070312 803.53125 114.265625 C 813.480469 113.367188 819.214844 114.402344 823.085938 114.816406 C 823.085938 114.816406 849.136719 120.277344 869.035156 143.078125 C 872.238281 147.03125 890.25 148.378906 899.722656 143.308594 C 902.273438 147.328125 914.433594 193.351562 900.132812 202.988281 Z M 900.132812 202.988281 C 881.65625 215.441406 856.804688 194.28125 856.804688 194.28125 L 859.914062 242.375 C 859.914062 242.375 789.640625 258.753906 749.21875 242.375 C 749.21875 234.9375 749.453125 229.5625 749.511719 228.335938 C 749.464844 228.503906 749.417969 228.679688 749.371094 228.847656 C 741.269531 231.21875 730.222656 231.261719 722.480469 224.058594 C 709.855469 212.308594 729.292969 170.3125 731.558594 165.085938 C 739.210938 170.0625 758.753906 173.132812 762.53125 169.726562 C 762.660156 169.617188 762.785156 169.515625 762.914062 169.410156 C 762.769531 170.101562 762.613281 170.863281 762.445312 171.675781 C 766.3125 171.09375 775.609375 169.6875 778.042969 169.199219 C 778.445312 167.332031 774.507812 120.890625 774.507812 120.890625 C 774.507812 120.890625 783.628906 117.839844 787.566406 117.0625 C 789.957031 116.570312 794.625 115.070312 803.53125 114.265625 C 813.480469 113.367188 819.214844 114.402344 823.085938 114.816406 C 823.085938 114.816406 849.136719 120.277344 869.035156 143.078125 C 872.238281 147.03125 890.25 148.378906 899.722656 143.308594 C 902.273438 147.328125 914.433594 193.351562 900.132812 202.988281 Z M 900.132812 202.988281 " fill-opacity="1" fill-rule="nonzero"/><path fill="#f2f2f2" d="M 764.09375 169.871094 C 763.730469 169.871094 763.433594 169.574219 763.433594 169.210938 C 763.433594 168.84375 763.726562 168.546875 764.09375 168.546875 L 853.542969 168.339844 C 853.910156 168.339844 854.207031 168.632812 854.207031 169 C 854.207031 169.363281 853.910156 169.660156 853.546875 169.664062 L 764.097656 169.871094 C 764.097656 169.871094 764.097656 169.871094 764.09375 169.871094 Z M 854.578125 169.546875 C 854.699219 169.464844 865.898438 161.820312 869.785156 160.375 C 870.128906 160.25 870.304688 159.867188 870.175781 159.527344 C 870.050781 159.183594 869.667969 159.007812 869.324219 159.136719 C 865.289062 160.632812 854.320312 168.121094 853.832031 168.453125 C 853.53125 168.65625 853.453125 169.070312 853.660156 169.371094 C 853.789062 169.558594 853.996094 169.660156 854.207031 169.660156 C 854.335938 169.660156 854.464844 169.625 854.578125 169.546875 Z M 854.578125 169.546875 " fill-opacity="1" fill-rule="nonzero"/><path fill="#fbbe28" d="M 778.703125 169.28125 C 778.667969 169.546875 778.480469 169.765625 778.226562 169.835938 C 777.105469 170.15625 772.976562 170.140625 762.445312 171.675781 C 763.027344 166.71875 764 159.03125 764.210938 156.484375 L 764.234375 156.210938 C 764.726562 150.296875 764.816406 142.945312 761.089844 142.042969 C 759.167969 141.578125 757.664062 143.285156 757.234375 144.601562 C 757.144531 143.078125 755.308594 141.164062 753.207031 141.164062 C 751.351562 141.164062 749.523438 142.40625 748.800781 144.375 C 748.375 143.226562 747.605469 142.25 745.960938 141.957031 C 744.398438 141.679688 742.894531 142.457031 741.082031 145.183594 C 740.300781 146.429688 739.519531 147.925781 738.757812 149.53125 C 734.753906 157.519531 729.664062 169.457031 729.664062 169.457031 C 729.632812 168.980469 729.640625 168.570312 729.609375 168.046875 C 729.34375 163.675781 729 157.640625 728.589844 150.113281 C 727.910156 137.617188 727.203125 123.953125 727.203125 123.695312 L 727.203125 99.960938 C 727.203125 99.8125 727.253906 99.671875 727.34375 99.554688 C 727.5 99.351562 728.34375 98.335938 729.355469 98.484375 C 729.753906 98.542969 730.300781 98.804688 730.660156 99.722656 C 731.351562 101.503906 730.890625 117.578125 730.730469 122.492188 C 735.65625 121.730469 745.367188 120.4375 751.632812 119.625 C 757.585938 118.855469 763.085938 118.171875 767.117188 117.699219 C 774.496094 116.839844 774.53125 116.890625 774.832031 117.289062 C 774.933594 117.429688 775.214844 117.800781 777.074219 142.539062 C 777.511719 148.359375 778.921875 167.492188 778.703125 169.28125 Z M 778.703125 169.28125 C 778.667969 169.546875 778.480469 169.765625 778.226562 169.835938 C 777.105469 170.15625 772.976562 170.140625 762.445312 171.675781 C 763.027344 166.71875 764 159.03125 764.210938 156.484375 L 764.234375 156.210938 C 764.726562 150.296875 764.816406 142.945312 761.089844 142.042969 C 759.167969 141.578125 757.664062 143.285156 757.234375 144.601562 C 757.144531 143.078125 755.308594 141.164062 753.207031 141.164062 C 751.351562 141.164062 749.523438 142.40625 748.800781 144.375 C 748.375 143.226562 747.605469 142.25 745.960938 141.957031 C 744.398438 141.679688 742.894531 142.457031 741.082031 145.183594 C 740.300781 146.429688 739.519531 147.925781 738.757812 149.53125 C 734.753906 157.519531 729.664062 169.457031 729.664062 169.457031 C 729.632812 168.980469 729.640625 168.570312 729.609375 168.046875 C 729.34375 163.675781 729 157.640625 728.589844 150.113281 C 727.910156 137.617188 727.203125 123.953125 727.203125 123.695312 L 727.203125 99.960938 C 727.203125 99.8125 727.253906 99.671875 727.34375 99.554688 C 727.5 99.351562 728.34375 98.335938 729.355469 98.484375 C 729.753906 98.542969 730.300781 98.804688 730.660156 99.722656 C 731.351562 101.503906 730.890625 117.578125 730.730469 122.492188 C 735.65625 121.730469 745.367188 120.4375 751.632812 119.625 C 757.585938 118.855469 763.085938 118.171875 767.117188 117.699219 C 774.496094 116.839844 774.53125 116.890625 774.832031 117.289062 C 774.933594 117.429688 775.214844 117.800781 777.074219 142.539062 C 777.511719 148.359375 778.921875 167.492188 778.703125 169.28125 Z M 778.703125 169.28125 " fill-opacity="1" fill-rule="nonzero"/><path fill="#101011" d="M 831.585938 67.726562 C 831.566406 66.164062 830.890625 64.890625 829.804688 64.242188 C 831.007812 62.304688 830.507812 59.644531 829.351562 57.679688 C 828.007812 55.390625 825.953125 54.105469 823.925781 54.195312 C 823.96875 52.097656 822.007812 50.238281 819.742188 49.363281 C 817.726562 48.585938 815.355469 48.5625 813.917969 49.972656 C 813.226562 48.746094 811.773438 47.808594 809.910156 47.476562 C 807.632812 47.074219 804.898438 47.691406 803.347656 49.84375 C 802.480469 48.804688 800.855469 48.074219 798.925781 47.9375 C 796.394531 47.757812 793.339844 48.632812 791.828125 51.503906 C 790.292969 50.253906 787.804688 50.316406 786.011719 51.230469 C 784.472656 52.019531 783.152344 53.628906 783.59375 55.921875 C 782.09375 55.835938 780.6875 56.441406 779.625 57.660156 C 778.101562 59.40625 777.609375 62.074219 778.453125 64 C 779.054688 65.375 780.242188 66.253906 781.84375 66.519531 C 781.261719 68.519531 781.390625 70.160156 782.230469 71.40625 C 783.230469 72.890625 784.953125 73.363281 785.878906 73.511719 L 785.894531 74.46875 C 783.117188 74.734375 781.335938 76.675781 780.964844 79.890625 C 780.449219 84.351562 784.269531 86.257812 786.101562 86.910156 L 786.699219 117.386719 C 786.703125 117.601562 786.808594 117.800781 786.984375 117.921875 C 787.085938 117.992188 793.4375 122.214844 802.914062 122.214844 C 808.757812 122.214844 815.789062 120.609375 823.277344 115.433594 C 823.457031 115.308594 823.5625 115.105469 823.5625 114.886719 L 823.5625 87.128906 C 826.054688 86.46875 829.871094 84.304688 829.363281 79.890625 C 829.25 78.925781 829.015625 78.085938 828.671875 77.367188 C 829.410156 77.019531 830.09375 76.3125 830.460938 75.433594 C 830.730469 74.777344 831.144531 73.210938 829.855469 71.578125 C 831.066406 70.75 831.609375 69.121094 831.585938 67.726562 Z M 782.28125 80.042969 C 782.578125 77.453125 783.800781 76.03125 785.917969 75.796875 L 786.078125 85.484375 C 784.351562 84.785156 781.914062 83.222656 782.28125 80.042969 Z M 822.773438 85.953125 C 822.464844 86.011719 822.238281 86.285156 822.238281 86.601562 L 822.238281 114.539062 C 804.886719 126.335938 790.214844 118.335938 788.015625 117.003906 L 787.421875 86.667969 C 787.425781 86.65625 787.4375 86.644531 787.441406 86.632812 C 787.484375 86.484375 787.464844 86.34375 787.414062 86.210938 L 787.207031 73.675781 C 788.863281 73.820312 792.652344 73.753906 794.882812 70.570312 C 796.105469 71.839844 798.242188 72.648438 800.644531 72.699219 C 803.148438 72.75 805.359375 71.976562 806.707031 70.625 C 807.753906 72.339844 809.777344 73.679688 812.242188 74.234375 C 814.1875 74.667969 816.050781 74.519531 817.441406 73.855469 C 817.070312 78.027344 817.480469 80.234375 818.664062 80.414062 C 820.261719 80.664062 821.578125 77.609375 822.167969 75.957031 C 823.015625 75.75 824.789062 75.488281 826.1875 76.410156 C 827.222656 77.089844 827.847656 78.3125 828.046875 80.042969 C 828.589844 84.753906 823.011719 85.90625 822.773438 85.953125 Z M 730.730469 122.492188 C 732.238281 122.261719 734.199219 121.976562 736.371094 121.671875 C 745.214844 118.46875 761.230469 112.71875 767.625 110.769531 C 767.824219 112.511719 768.148438 116.105469 768.28125 117.566406 C 768.753906 117.511719 769.191406 117.460938 769.597656 117.414062 C 769.4375 115.636719 769.011719 110.925781 768.839844 109.8125 C 768.8125 109.621094 768.703125 109.457031 768.542969 109.351562 C 768.378906 109.25 768.183594 109.222656 768 109.277344 C 764.144531 110.398438 755.402344 113.449219 747.253906 116.351562 C 747.144531 114.78125 746.753906 109.273438 746.0625 101.242188 C 746.039062 100.960938 745.839844 100.726562 745.5625 100.65625 C 745.289062 100.585938 745.003906 100.699219 744.847656 100.933594 C 742.40625 104.664062 733.996094 116.554688 730.773438 121.097656 C 730.757812 121.625 730.742188 122.097656 730.730469 122.492188 Z M 744.902344 103.234375 C 745.566406 111.074219 745.910156 116.113281 745.960938 116.8125 C 740.050781 118.925781 734.621094 120.898438 731.8125 121.921875 C 734.644531 117.925781 741.636719 108.046875 744.902344 103.234375 Z M 796.28125 80.4375 C 796.535156 80.179688 796.53125 79.757812 796.273438 79.5 C 796.011719 79.246094 795.59375 79.246094 795.335938 79.507812 C 794.539062 80.316406 793.800781 80.707031 793.199219 80.636719 C 792.566406 80.5625 792.203125 79.984375 792.191406 79.964844 C 792.007812 79.652344 791.605469 79.546875 791.289062 79.726562 C 790.972656 79.910156 790.863281 80.316406 791.046875 80.632812 C 791.074219 80.679688 791.726562 81.785156 793.019531 81.949219 C 793.128906 81.964844 793.234375 81.972656 793.347656 81.972656 C 794.289062 81.972656 795.273438 81.457031 796.28125 80.4375 Z M 810.929688 79.734375 C 810.613281 79.550781 810.210938 79.652344 810.023438 79.964844 C 810.019531 79.972656 809.65625 80.5625 809.015625 80.636719 C 808.417969 80.710938 807.675781 80.316406 806.878906 79.507812 C 806.621094 79.246094 806.199219 79.246094 805.941406 79.5 C 805.679688 79.757812 805.675781 80.179688 805.933594 80.4375 C 806.9375 81.457031 807.925781 81.972656 808.867188 81.972656 C 808.976562 81.972656 809.085938 81.964844 809.195312 81.949219 C 810.488281 81.785156 811.140625 80.679688 811.167969 80.632812 C 811.347656 80.316406 811.242188 79.917969 810.929688 79.734375 Z M 809.265625 88.027344 C 807.824219 90.011719 806.398438 91.484375 805 92.449219 C 805.539062 91.101562 806.015625 89.621094 806.386719 87.992188 C 806.46875 87.636719 806.246094 87.28125 805.886719 87.199219 C 805.53125 87.117188 805.175781 87.339844 805.09375 87.699219 C 804.5625 90.03125 803.8125 92.03125 802.996094 93.710938 C 802.996094 93.710938 802.996094 93.714844 802.996094 93.714844 C 801.03125 97.761719 798.65625 99.933594 797.828125 100.222656 C 797.667969 99.667969 798.070312 97.75 798.429688 96.039062 C 798.667969 94.898438 798.941406 93.605469 799.207031 92.109375 C 800.550781 84.558594 800.398438 80.390625 800.390625 80.21875 C 800.375 79.851562 800.058594 79.558594 799.703125 79.582031 C 799.335938 79.597656 799.050781 79.90625 799.066406 80.273438 C 799.070312 80.3125 799.21875 84.484375 797.902344 91.875 C 797.863281 92.09375 797.824219 92.300781 797.785156 92.511719 C 795.59375 90.855469 794.328125 88.167969 794.316406 88.140625 C 794.164062 87.808594 793.769531 87.660156 793.4375 87.816406 C 793.105469 87.96875 792.960938 88.359375 793.113281 88.691406 C 793.179688 88.835938 794.714844 92.121094 797.511719 93.933594 C 797.378906 94.585938 797.253906 95.195312 797.132812 95.765625 C 796.46875 98.9375 796.132812 100.53125 797 101.324219 C 797.117188 101.433594 797.339844 101.578125 797.6875 101.578125 C 797.824219 101.578125 797.976562 101.554688 798.148438 101.503906 C 799.453125 101.097656 802.027344 98.679688 804.105469 94.46875 C 806.167969 93.558594 808.261719 91.664062 810.335938 88.804688 C 810.550781 88.507812 810.484375 88.09375 810.1875 87.878906 C 809.894531 87.664062 809.480469 87.730469 809.265625 88.027344 Z M 731.53125 165.152344 C 733.242188 160.421875 736.972656 150.195312 739.367188 145.476562 C 741.074219 142.105469 743.582031 140.269531 746.0625 140.5625 C 747.105469 140.6875 748.003906 141.195312 748.609375 141.945312 C 748.742188 141.84375 748.90625 141.792969 749.082031 141.8125 C 750.414062 140.308594 752.277344 139.5625 754.171875 139.878906 C 755.484375 140.097656 756.566406 140.816406 757.234375 141.835938 C 757.332031 141.804688 757.429688 141.789062 757.539062 141.804688 C 757.675781 141.824219 757.785156 141.890625 757.878906 141.980469 C 758.632812 141.257812 759.671875 140.554688 760.871094 140.691406 C 762.171875 140.839844 763.3125 141.929688 764.257812 143.9375 C 766.703125 149.125 765.335938 160.84375 764.09375 169.210938 C 759.058594 203.160156 750.234375 228.046875 750.148438 228.296875 C 750.050781 228.566406 749.796875 228.734375 749.523438 228.734375 C 749.449219 228.734375 749.375 228.722656 749.300781 228.695312 C 748.957031 228.574219 748.777344 228.195312 748.902344 227.851562 C 748.988281 227.601562 757.769531 202.832031 762.785156 169.015625 C 763.484375 164.292969 765.617188 149.925781 763.058594 144.503906 C 762.332031 142.960938 761.527344 142.097656 760.722656 142.007812 C 759.535156 141.875 758.351562 143.378906 757.90625 143.945312 C 757.894531 143.957031 757.890625 143.964844 757.878906 143.976562 C 757.535156 146.230469 756.871094 150.480469 756.566406 151.859375 C 756.496094 152.167969 756.222656 152.378906 755.921875 152.378906 C 755.871094 152.378906 755.824219 152.375 755.777344 152.363281 C 755.417969 152.285156 755.195312 151.929688 755.273438 151.574219 C 755.570312 150.238281 756.238281 145.945312 756.578125 143.722656 C 756.347656 142.390625 755.351562 141.421875 753.953125 141.1875 C 752.558594 140.953125 750.507812 141.503906 749.292969 143.808594 L 747.085938 151.078125 C 747 151.367188 746.738281 151.550781 746.453125 151.550781 C 746.390625 151.550781 746.324219 151.539062 746.261719 151.523438 C 745.910156 151.414062 745.714844 151.046875 745.820312 150.695312 L 747.988281 143.550781 C 747.707031 142.648438 746.910156 141.996094 745.90625 141.878906 C 744 141.648438 741.996094 143.21875 740.546875 146.074219 C 738.105469 150.890625 734.25 161.507812 732.605469 166.066406 Z M 896.886719 120.847656 C 896.382812 118.453125 895.050781 112.089844 889.574219 112.890625 C 887.746094 113.160156 886.644531 114.058594 885.996094 115.246094 C 885.226562 114.542969 883.871094 113.714844 881.851562 113.90625 C 880.675781 114.015625 879.722656 114.421875 879.003906 115.101562 C 878.15625 109.007812 876.199219 105.5625 874.105469 105.628906 C 871.726562 105.707031 869.164062 107.84375 868.617188 110.679688 C 868.074219 113.488281 868.652344 121.796875 868.804688 123.339844 C 867.410156 123.957031 866.40625 124.871094 866.144531 126.128906 C 865.359375 129.878906 867.324219 138.765625 868.378906 143.066406 C 868.378906 143.078125 868.375 143.085938 868.375 143.101562 C 868.382812 143.367188 869.222656 170.1875 871.28125 187.453125 C 871.320312 187.789062 871.605469 188.035156 871.9375 188.035156 C 871.964844 188.035156 871.992188 188.035156 872.015625 188.03125 C 872.378906 187.988281 872.640625 187.65625 872.597656 187.292969 C 870.546875 170.089844 869.707031 143.328125 869.699219 143.058594 C 869.699219 143.058594 869.558594 142.25 869.242188 141.214844 C 868.199219 136.664062 866.800781 129.449219 867.4375 126.398438 C 867.867188 124.347656 871.875 123.480469 875.609375 123.6875 C 879.746094 123.917969 882.871094 125.328125 883.03125 127.042969 C 883.097656 127.726562 882.910156 128.285156 882.453125 128.738281 C 880.808594 130.386719 876.203125 130.347656 874.566406 130.195312 C 874.203125 130.164062 873.878906 130.429688 873.847656 130.792969 C 873.8125 131.160156 874.078125 131.480469 874.445312 131.515625 C 874.617188 131.53125 877.363281 131.769531 879.917969 131.253906 C 880.542969 131.453125 883.652344 132.683594 884.417969 137.6875 C 884.472656 138.050781 884.808594 138.300781 885.171875 138.242188 C 885.292969 138.226562 885.398438 138.175781 885.488281 138.105469 C 885.664062 137.960938 885.761719 137.730469 885.726562 137.488281 C 885.125 133.5625 883.207031 131.625 881.777344 130.703125 C 882.402344 130.441406 882.960938 130.109375 883.390625 129.675781 C 884.050781 129.015625 884.375 128.207031 884.367188 127.269531 C 884.378906 127.261719 884.394531 127.261719 884.410156 127.25 C 884.414062 127.246094 884.421875 127.238281 884.425781 127.234375 C 885.101562 126.648438 885.652344 125.8125 886.074219 124.734375 C 886.863281 126.121094 888.210938 127.097656 889.640625 127.15625 C 890.699219 127.199219 893.273438 126.746094 894.28125 121.617188 C 894.351562 121.261719 894.121094 120.914062 893.761719 120.839844 C 893.402344 120.769531 893.054688 121.003906 892.984375 121.363281 C 892.410156 124.265625 891.210938 125.898438 889.695312 125.832031 C 888.273438 125.777344 886.902344 124.246094 886.707031 122.5 C 886.433594 120.082031 886.386719 118.105469 886.828125 116.683594 C 886.835938 116.660156 886.847656 116.640625 886.851562 116.617188 C 887.289062 115.273438 888.179688 114.433594 889.765625 114.203125 C 892.738281 113.769531 894.480469 115.835938 895.589844 121.121094 C 896.242188 124.230469 897.808594 138.367188 898.449219 144.152344 C 898.714844 144.046875 899.542969 143.476562 899.722656 143.308594 C 899.117188 137.804688 897.582031 124.15625 896.886719 120.847656 Z M 877.519531 122.554688 C 876.902344 122.460938 876.28125 122.398438 875.683594 122.367188 C 873.75 122.257812 871.761719 122.417969 870.09375 122.886719 C 869.917969 120.988281 869.445312 113.371094 869.917969 110.929688 C 870.339844 108.742188 872.296875 106.847656 874.023438 106.953125 C 876.429688 107.097656 877.492188 112.078125 877.863281 116.90625 C 877.292969 118.488281 877.324219 120.5 877.519531 122.554688 Z M 885.363281 122.414062 C 885.066406 123.871094 884.597656 125.007812 883.996094 125.765625 C 883.1875 124.257812 881.140625 123.308594 878.875 122.800781 C 878.671875 120.875 878.589844 118.980469 879.03125 117.570312 C 879.144531 117.449219 879.210938 117.285156 879.207031 117.109375 C 879.332031 116.820312 879.484375 116.554688 879.671875 116.324219 C 880.191406 115.679688 880.945312 115.324219 881.976562 115.222656 C 883.9375 115.039062 885.066406 116.113281 885.46875 116.597656 C 884.960938 118.519531 885.179688 120.78125 885.363281 122.414062 Z M 856.804688 194.945312 C 856.46875 194.945312 856.183594 194.691406 856.148438 194.351562 L 852.792969 161.664062 C 852.753906 161.300781 853.019531 160.976562 853.382812 160.9375 C 853.746094 160.894531 854.070312 161.164062 854.109375 161.53125 L 857.464844 194.214844 C 857.503906 194.578125 857.238281 194.90625 856.875 194.941406 C 856.851562 194.945312 856.828125 194.945312 856.804688 194.945312 Z M 856.804688 194.945312 " fill-opacity="1" fill-rule="nonzero"/><path fill="#fbbe28" d="M 705.726562 186.480469 C 705.726562 186.480469 694.757812 193.367188 685.316406 193.367188 C 685.097656 193.425781 684.839844 193.550781 684.546875 193.71875 C 682.59375 189.464844 677.960938 179.253906 675.878906 173.597656 C 673.199219 166.324219 669.5 147.574219 668.351562 143.617188 C 667.203125 139.664062 668.222656 136.476562 664.90625 136.347656 C 661.589844 136.21875 661.464844 155.355469 661.464844 155.355469 C 661.464844 155.355469 655.136719 153.601562 653.683594 154.078125 C 652.226562 154.554688 650.789062 159.984375 650.789062 159.984375 C 650.789062 159.984375 646.410156 160.457031 646.539062 164.921875 C 646.667969 169.386719 647.617188 174.351562 650.277344 174.238281 C 653.46875 174.105469 652.960938 168.792969 652.960938 168.792969 L 655.382812 168.988281 C 655.382812 168.988281 655.214844 183.164062 659.421875 197.195312 C 662.101562 206.121094 663.722656 210.113281 665.207031 212.460938 C 670.394531 220.199219 675.453125 224.835938 675.453125 224.835938 C 675.453125 224.835938 626.980469 229.511719 591.773438 224.152344 C 591.007812 217.011719 590.921875 150.761719 590.921875 150.761719 L 576.507812 144.511719 C 576.507812 144.511719 582.691406 130.609375 595.003906 121.679688 C 595.257812 126.527344 597.980469 132.988281 608.183594 132.648438 C 618.390625 132.308594 622.386719 126.015625 621.707031 120.996094 C 621.027344 115.980469 618.859375 109.816406 618.859375 109.816406 C 618.859375 109.816406 633.398438 116.574219 651.515625 108.667969 C 649.472656 116.574219 645.644531 126.269531 652.535156 129.332031 C 659.421875 132.394531 668.222656 133.03125 671.542969 129.585938 C 674.859375 126.144531 674.941406 122.785156 674.941406 122.785156 C 674.941406 122.785156 690.929688 137.496094 698.585938 160.96875 C 706.238281 184.4375 705.726562 186.480469 705.726562 186.480469 Z M 705.726562 186.480469 C 705.726562 186.480469 694.757812 193.367188 685.316406 193.367188 C 685.097656 193.425781 684.839844 193.550781 684.546875 193.71875 C 682.59375 189.464844 677.960938 179.253906 675.878906 173.597656 C 673.199219 166.324219 669.5 147.574219 668.351562 143.617188 C 667.203125 139.664062 668.222656 136.476562 664.90625 136.347656 C 661.589844 136.21875 661.464844 155.355469 661.464844 155.355469 C 661.464844 155.355469 655.136719 153.601562 653.683594 154.078125 C 652.226562 154.554688 650.789062 159.984375 650.789062 159.984375 C 650.789062 159.984375 646.410156 160.457031 646.539062 164.921875 C 646.667969 169.386719 647.617188 174.351562 650.277344 174.238281 C 653.46875 174.105469 652.960938 168.792969 652.960938 168.792969 L 655.382812 168.988281 C 655.382812 168.988281 655.214844 183.164062 659.421875 197.195312 C 662.101562 206.121094 663.722656 210.113281 665.207031 212.460938 C 670.394531 220.199219 675.453125 224.835938 675.453125 224.835938 C 675.453125 224.835938 626.980469 229.511719 591.773438 224.152344 C 591.007812 217.011719 590.921875 150.761719 590.921875 150.761719 L 576.507812 144.511719 C 576.507812 144.511719 582.691406 130.609375 595.003906 121.679688 C 595.257812 126.527344 597.980469 132.988281 608.183594 132.648438 C 618.390625 132.308594 622.386719 126.015625 621.707031 120.996094 C 621.027344 115.980469 618.859375 109.816406 618.859375 109.816406 C 618.859375 109.816406 633.398438 116.574219 651.515625 108.667969 C 649.472656 116.574219 645.644531 126.269531 652.535156 129.332031 C 659.421875 132.394531 668.222656 133.03125 671.542969 129.585938 C 674.859375 126.144531 674.941406 122.785156 674.941406 122.785156 C 674.941406 122.785156 690.929688 137.496094 698.585938 160.96875 C 706.238281 184.4375 705.726562 186.480469 705.726562 186.480469 Z M 705.726562 186.480469 " fill-opacity="1" fill-rule="nonzero"/><g clip-path="url(#e7cbaf7d63)"><path fill="#399be6" d="M 612.863281 201.363281 C 612.503906 201.578125 595.46875 202.386719 575.753906 203.257812 C 574.496094 201.40625 571.496094 196.917969 570.445312 194.773438 C 569.109375 192.027344 564.453125 191.835938 563.429688 195.347656 C 562.089844 194.070312 556.671875 193.113281 555.839844 197.066406 C 553.671875 195.089844 548.507812 196.8125 548.953125 203.574219 C 548.972656 203.867188 549.015625 204.136719 549.054688 204.410156 C 530.878906 205.175781 515.839844 205.785156 515.574219 205.785156 C 514.894531 205.785156 513.023438 147.105469 513.703125 146.765625 C 514.382812 146.425781 610.652344 143.195312 610.652344 143.875 C 610.652344 143.875 613.710938 200.851562 612.863281 201.363281 Z M 612.863281 201.363281 C 612.503906 201.578125 595.46875 202.386719 575.753906 203.257812 C 574.496094 201.40625 571.496094 196.917969 570.445312 194.773438 C 569.109375 192.027344 564.453125 191.835938 563.429688 195.347656 C 562.089844 194.070312 556.671875 193.113281 555.839844 197.066406 C 553.671875 195.089844 548.507812 196.8125 548.953125 203.574219 C 548.972656 203.867188 549.015625 204.136719 549.054688 204.410156 C 530.878906 205.175781 515.839844 205.785156 515.574219 205.785156 C 514.894531 205.785156 513.023438 147.105469 513.703125 146.765625 C 514.382812 146.425781 610.652344 143.195312 610.652344 143.875 C 610.652344 143.875 613.710938 200.851562 612.863281 201.363281 Z M 612.863281 201.363281 " fill-opacity="1" fill-rule="nonzero"/></g><path fill="#2e3192" d="M 545.667969 189.445312 C 545.691406 189.894531 545.34375 190.277344 544.894531 190.296875 L 533.804688 190.832031 C 533.792969 190.832031 533.785156 190.832031 533.773438 190.832031 C 533.335938 190.835938 532.972656 190.496094 532.949219 190.054688 C 532.929688 189.605469 533.277344 189.222656 533.726562 189.203125 L 538.226562 188.984375 L 536.953125 162.6875 L 534.683594 165.824219 C 534.421875 166.191406 533.910156 166.273438 533.546875 166.007812 C 533.183594 165.746094 533.101562 165.234375 533.363281 164.871094 L 536.996094 159.847656 C 537.199219 159.566406 537.554688 159.445312 537.886719 159.542969 C 538.21875 159.640625 538.453125 159.9375 538.46875 160.285156 L 539.855469 188.90625 L 544.816406 188.667969 C 545.265625 188.625 545.648438 188.996094 545.667969 189.445312 Z M 545.667969 189.445312 C 545.691406 189.894531 545.34375 190.277344 544.894531 190.296875 L 533.804688 190.832031 C 533.792969 190.832031 533.785156 190.832031 533.773438 190.832031 C 533.335938 190.835938 532.972656 190.496094 532.949219 190.054688 C 532.929688 189.605469 533.277344 189.222656 533.726562 189.203125 L 538.226562 188.984375 L 536.953125 162.6875 L 534.683594 165.824219 C 534.421875 166.191406 533.910156 166.273438 533.546875 166.007812 C 533.183594 165.746094 533.101562 165.234375 533.363281 164.871094 L 536.996094 159.847656 C 537.199219 159.566406 537.554688 159.445312 537.886719 159.542969 C 538.21875 159.640625 538.453125 159.9375 538.46875 160.285156 L 539.855469 188.90625 L 544.816406 188.667969 C 545.265625 188.625 545.648438 188.996094 545.667969 189.445312 Z M 545.667969 189.445312 " fill-opacity="1" fill-rule="nonzero"/><path fill="#b7303a" d="M 595.953125 187.90625 C 595.960938 188.355469 595.601562 188.730469 595.152344 188.738281 C 595.117188 188.738281 591.441406 188.804688 586.570312 189.011719 C 586.558594 189.011719 586.546875 189.011719 586.535156 189.011719 C 586.269531 189.011719 586.019531 188.882812 585.867188 188.667969 C 585.707031 188.4375 585.675781 188.144531 585.78125 187.890625 C 588.898438 180.285156 594.132812 164.734375 591.613281 160.285156 C 591.273438 159.683594 590.820312 159.359375 590.1875 159.265625 C 589.226562 159.117188 588.492188 159.304688 587.941406 159.835938 C 586.503906 161.230469 586.5625 164.699219 586.703125 165.917969 C 586.757812 166.363281 586.4375 166.769531 585.992188 166.820312 C 585.546875 166.875 585.140625 166.554688 585.085938 166.109375 C 585.0625 165.898438 584.492188 160.90625 586.808594 158.667969 C 587.734375 157.769531 588.953125 157.425781 590.433594 157.652344 C 591.554688 157.824219 592.453125 158.457031 593.03125 159.480469 C 596.167969 165.015625 589.746094 182.296875 587.761719 187.332031 C 592.015625 187.164062 595.089844 187.109375 595.121094 187.105469 C 595.558594 187.101562 595.945312 187.457031 595.953125 187.90625 Z M 595.953125 187.90625 C 595.960938 188.355469 595.601562 188.730469 595.152344 188.738281 C 595.117188 188.738281 591.441406 188.804688 586.570312 189.011719 C 586.558594 189.011719 586.546875 189.011719 586.535156 189.011719 C 586.269531 189.011719 586.019531 188.882812 585.867188 188.667969 C 585.707031 188.4375 585.675781 188.144531 585.78125 187.890625 C 588.898438 180.285156 594.132812 164.734375 591.613281 160.285156 C 591.273438 159.683594 590.820312 159.359375 590.1875 159.265625 C 589.226562 159.117188 588.492188 159.304688 587.941406 159.835938 C 586.503906 161.230469 586.5625 164.699219 586.703125 165.917969 C 586.757812 166.363281 586.4375 166.769531 585.992188 166.820312 C 585.546875 166.875 585.140625 166.554688 585.085938 166.109375 C 585.0625 165.898438 584.492188 160.90625 586.808594 158.667969 C 587.734375 157.769531 588.953125 157.425781 590.433594 157.652344 C 591.554688 157.824219 592.453125 158.457031 593.03125 159.480469 C 596.167969 165.015625 589.746094 182.296875 587.761719 187.332031 C 592.015625 187.164062 595.089844 187.109375 595.121094 187.105469 C 595.558594 187.101562 595.945312 187.457031 595.953125 187.90625 Z M 595.953125 187.90625 " fill-opacity="1" fill-rule="nonzero"/><g clip-path="url(#659f9f76ce)"><path fill="#101011" d="M 675.75 122.667969 C 675.40625 120.304688 674.375 119.054688 673.378906 117.84375 C 672.070312 116.253906 670.832031 114.753906 670.996094 110.398438 C 671.050781 108.890625 671.449219 107.792969 671.867188 106.628906 C 672.6875 104.355469 673.539062 102.007812 672.160156 96.726562 C 671.527344 94.296875 670.855469 93.039062 670.261719 91.929688 C 668.96875 89.503906 667.847656 87.40625 667.847656 72.097656 C 667.847656 65.152344 665.558594 59.234375 661.226562 54.988281 C 655.804688 49.671875 647.546875 47.078125 636.65625 47.300781 C 614.726562 47.742188 609.789062 57.527344 607.855469 67.046875 C 606.738281 72.527344 606.914062 79.519531 607.066406 85.6875 C 607.183594 90.339844 607.296875 94.734375 606.789062 97.371094 C 606.296875 99.929688 605.25 100.992188 604.140625 102.113281 C 602.667969 103.601562 601.140625 105.140625 600.992188 109.660156 C 600.886719 112.78125 599.410156 113.945312 597.703125 115.296875 C 595.617188 116.941406 593.253906 118.808594 594.113281 124.355469 C 594.761719 128.542969 598.550781 131.738281 604.25 132.894531 C 605.5625 133.160156 606.976562 133.304688 608.414062 133.304688 C 613.1875 133.304688 618.226562 131.714844 620.699219 127.71875 C 624.246094 121.980469 621.84375 115.726562 619.914062 110.699219 C 618.929688 108.136719 618 105.714844 618.015625 103.824219 C 618.089844 94.035156 618.640625 75.9375 618.757812 72.148438 C 621.359375 71.789062 630.113281 70 634.386719 61.882812 C 636.199219 69.414062 641.625 73.804688 650.554688 74.957031 C 650.6875 74.972656 650.820312 74.957031 650.945312 74.910156 C 650.988281 74.894531 655.054688 73.382812 657.75 74.820312 C 658.878906 75.421875 659.601562 76.453125 659.957031 77.964844 C 660.5625 80.566406 659.96875 82.824219 658.28125 84.324219 C 656.859375 85.585938 654.820312 86.140625 652.914062 85.851562 C 652.773438 85.757812 652.601562 85.710938 652.421875 85.71875 C 652.390625 85.722656 652.355469 85.726562 652.324219 85.730469 C 652.117188 85.679688 651.914062 85.617188 651.714844 85.546875 C 651.292969 85.390625 650.824219 85.613281 650.667969 86.035156 C 650.515625 86.457031 650.734375 86.925781 651.15625 87.078125 C 651.335938 87.144531 651.515625 87.199219 651.695312 87.253906 C 651.835938 89.675781 652.3125 98 652.421875 101.167969 C 652.492188 103.273438 651.863281 105.882812 650.914062 109.828125 C 650.253906 112.554688 649.4375 115.949219 648.628906 120.164062 C 648.355469 121.589844 647.714844 124.925781 649.851562 127.800781 C 651.90625 130.570312 656.054688 132.304688 662.1875 132.949219 C 666.914062 133.445312 671.054688 132.246094 673.546875 129.65625 C 675.347656 127.78125 676.128906 125.300781 675.75 122.667969 Z M 703.742188 187.597656 C 704.5625 191.902344 707.746094 211.332031 700.839844 221.886719 C 698.515625 225.433594 695.246094 227.644531 691.113281 228.457031 C 685.675781 229.527344 680.449219 228.042969 675.582031 224.039062 C 664.152344 214.640625 655.859375 191.796875 655.859375 169.726562 C 655.859375 169.410156 655.671875 169.121094 655.382812 168.988281 L 653.171875 167.964844 C 652.894531 167.835938 652.566406 167.878906 652.328125 168.066406 C 652.085938 168.253906 651.972656 168.5625 652.03125 168.863281 C 652.164062 169.539062 652.332031 171.527344 651.53125 172.648438 C 651.179688 173.136719 650.679688 173.417969 650 173.511719 C 649.519531 173.574219 649.132812 173.414062 648.769531 172.996094 C 647.105469 171.089844 647.054688 165.496094 647.664062 163.3125 C 648.324219 160.933594 650.40625 160.117188 650.789062 159.984375 C 651.351562 159.933594 655.152344 159.660156 658.050781 161.257812 C 658.175781 161.324219 658.3125 161.355469 658.445312 161.355469 C 658.730469 161.355469 659.011719 161.207031 659.160156 160.933594 C 659.375 160.542969 659.230469 160.046875 658.835938 159.828125 C 656.367188 158.46875 653.453125 158.28125 651.8125 158.304688 C 652.144531 157.527344 652.679688 156.488281 653.4375 155.644531 C 654.148438 154.855469 658.066406 155.304688 661.28125 156.222656 C 661.523438 156.292969 661.789062 156.246094 661.992188 156.09375 C 662.199219 155.941406 662.320312 155.703125 662.320312 155.445312 C 662.320312 155.398438 662.367188 150.613281 662.828125 145.898438 C 663.667969 137.277344 665.0625 137.035156 665.078125 137.035156 C 666.601562 137.035156 667.171875 140.527344 667.964844 145.359375 C 668.449219 148.328125 669.054688 152.027344 670.070312 156.148438 C 679.375 193.359375 690.242188 204.382812 690.699219 204.835938 C 691.019531 205.148438 691.535156 205.144531 691.851562 204.824219 C 692.167969 204.507812 692.164062 203.992188 691.84375 203.675781 C 691.734375 203.566406 680.816406 192.417969 671.652344 155.753906 C 670.652344 151.699219 670.054688 148.039062 669.574219 145.097656 C 668.582031 139.054688 667.988281 135.40625 665.078125 135.40625 C 663.742188 135.40625 662.097656 136.582031 661.203125 145.75 C 660.867188 149.207031 660.75 152.691406 660.710938 154.382812 C 658.292969 153.777344 653.710938 152.90625 652.226562 154.554688 C 650.957031 155.960938 650.242188 157.761719 649.96875 158.554688 C 649.035156 158.945312 646.855469 160.125 646.09375 162.875 C 645.386719 165.425781 645.398438 171.613281 647.542969 174.070312 C 648.269531 174.898438 649.191406 175.265625 650.21875 175.125 C 651.355469 174.972656 652.242188 174.453125 652.859375 173.589844 C 653.628906 172.507812 653.785156 171.09375 653.769531 170.039062 L 654.230469 170.25 C 654.355469 189.492188 661.328125 214.425781 674.546875 225.296875 C 678.695312 228.710938 683.105469 230.425781 687.699219 230.425781 C 688.929688 230.425781 690.171875 230.304688 691.429688 230.054688 C 696.007812 229.15625 699.632812 226.707031 702.203125 222.777344 C 709.871094 211.058594 705.90625 189.964844 705.242188 186.769531 C 704.742188 187.070312 704.136719 187.40625 703.742188 187.597656 Z M 591.566406 220.4375 C 589.515625 224.460938 585.589844 228.703125 578.117188 229.121094 C 560.875 230.078125 550.261719 210.898438 549.722656 202.839844 C 549.558594 200.355469 550.316406 198.28125 551.703125 197.429688 C 552.613281 196.871094 553.695312 196.898438 554.851562 197.496094 C 555.308594 199.09375 557.335938 205.683594 560.65625 208.644531 C 560.8125 208.785156 561.003906 208.851562 561.199219 208.851562 C 561.421875 208.851562 561.644531 208.761719 561.808594 208.582031 C 562.105469 208.246094 562.078125 207.730469 561.742188 207.429688 C 558.734375 204.746094 556.78125 198.308594 556.398438 196.980469 C 556.8125 195.882812 557.824219 195.140625 559.15625 194.980469 C 560.605469 194.804688 561.949219 195.375 562.617188 196.433594 C 562.867188 197.351562 564.398438 202.417969 568.265625 205.882812 C 568.421875 206.019531 568.617188 206.089844 568.808594 206.089844 C 569.035156 206.089844 569.257812 205.996094 569.417969 205.816406 C 569.71875 205.484375 569.6875 204.96875 569.351562 204.667969 C 565.9375 201.613281 564.480469 197.011719 564.207031 196.074219 C 564.527344 194.605469 565.355469 193.722656 566.5625 193.582031 C 567.820312 193.4375 569.121094 194.144531 569.59375 195.226562 C 570.871094 198.148438 578.628906 209.273438 582.363281 212.839844 C 582.6875 213.148438 583.207031 213.136719 583.515625 212.8125 C 583.828125 212.484375 583.816406 211.96875 583.488281 211.660156 C 579.730469 208.070312 572.171875 197.050781 571.085938 194.574219 C 570.328125 192.832031 568.347656 191.738281 566.378906 191.960938 C 566.191406 191.984375 566.007812 192.015625 565.832031 192.0625 L 563.671875 145.707031 C 563.652344 145.257812 563.265625 144.917969 562.820312 144.929688 C 562.371094 144.953125 562.023438 145.332031 562.042969 145.78125 L 564.238281 192.875 C 563.742188 193.289062 563.328125 193.820312 563.027344 194.46875 C 561.960938 193.597656 560.492188 193.175781 558.960938 193.359375 C 557.269531 193.566406 555.871094 194.480469 555.132812 195.820312 C 553.621094 195.183594 552.125 195.253906 550.847656 196.039062 C 548.917969 197.230469 547.886719 199.8125 548.097656 202.945312 C 548.652344 211.265625 559.375 230.789062 576.875 230.789062 C 577.316406 230.789062 577.761719 230.777344 578.210938 230.75 C 585.066406 230.363281 589.210938 226.980469 591.703125 223.28125 C 591.664062 222.292969 591.601562 221.136719 591.566406 220.4375 Z M 652.152344 210 C 652.039062 210 651.925781 209.980469 651.820312 209.929688 C 630.660156 200.496094 617.910156 180.226562 617.78125 180.019531 C 617.542969 179.636719 617.664062 179.136719 618.042969 178.898438 C 618.425781 178.660156 618.929688 178.78125 619.167969 179.160156 C 619.289062 179.359375 631.792969 199.21875 652.484375 208.441406 C 652.894531 208.625 653.078125 209.105469 652.894531 209.519531 C 652.761719 209.820312 652.460938 210 652.152344 210 Z M 624.226562 83.957031 C 623.828125 84.164062 623.667969 84.652344 623.871094 85.054688 C 623.949219 85.207031 625.75 88.691406 628.875 90.746094 C 628.691406 92.039062 628.484375 93.164062 628.308594 94.101562 C 627.820312 96.746094 627.523438 98.339844 628.792969 99.046875 C 629.042969 99.183594 629.339844 99.253906 629.664062 99.253906 C 630.144531 99.253906 630.6875 99.105469 631.230469 98.816406 C 632.296875 98.25 634.367188 96.578125 635.925781 91.816406 C 638.527344 90.972656 641.113281 88.789062 643.628906 85.289062 C 643.890625 84.921875 643.808594 84.414062 643.441406 84.148438 C 643.074219 83.886719 642.566406 83.972656 642.304688 84.335938 C 640.359375 87.046875 638.414062 88.875 636.5 89.824219 C 636.992188 87.855469 637.402344 85.476562 637.65625 82.585938 C 637.695312 82.140625 637.363281 81.742188 636.914062 81.703125 C 636.460938 81.664062 636.070312 81.996094 636.03125 82.445312 C 635.722656 85.976562 635.1875 88.683594 634.5625 90.761719 C 634.5 90.867188 634.46875 90.984375 634.457031 91.109375 C 633.179688 95.15625 631.566406 96.679688 630.726562 97.222656 C 630.070312 97.652344 629.644531 97.640625 629.585938 97.621094 C 629.367188 97.347656 629.667969 95.710938 629.914062 94.398438 C 630.136719 93.1875 630.417969 91.683594 630.636719 89.886719 C 631.273438 84.652344 631.035156 77.558594 631.023438 77.257812 C 631.007812 76.808594 630.625 76.457031 630.183594 76.472656 C 629.730469 76.488281 629.378906 76.863281 629.394531 77.316406 C 629.398438 77.382812 629.617188 83.882812 629.105469 88.90625 C 626.746094 87.058594 625.339844 84.34375 625.324219 84.316406 C 625.121094 83.914062 624.628906 83.753906 624.226562 83.957031 Z M 624.234375 77.773438 C 625.105469 77.773438 625.808594 77.070312 625.808594 76.203125 C 625.808594 75.332031 625.105469 74.628906 624.234375 74.628906 C 623.367188 74.628906 622.664062 75.332031 622.664062 76.203125 C 622.664062 77.070312 623.367188 77.773438 624.234375 77.773438 Z M 640.480469 77.519531 C 641.347656 77.519531 642.050781 76.816406 642.050781 75.945312 C 642.050781 75.078125 641.347656 74.375 640.480469 74.375 C 639.609375 74.375 638.90625 75.078125 638.90625 75.945312 C 638.90625 76.816406 639.609375 77.519531 640.480469 77.519531 Z M 651.691406 115.445312 C 651.488281 115.042969 651.003906 114.878906 650.597656 115.082031 C 635.734375 122.46875 619.46875 115.640625 619.308594 115.570312 C 618.894531 115.394531 618.414062 115.585938 618.238281 116 C 618.058594 116.410156 618.25 116.890625 618.664062 117.070312 C 619.109375 117.261719 626.070312 120.191406 635.125 120.191406 C 640.132812 120.191406 645.785156 119.292969 651.324219 116.539062 C 651.726562 116.339844 651.890625 115.851562 651.691406 115.445312 Z M 656.703125 78.609375 C 657.152344 78.65625 657.546875 78.332031 657.59375 77.882812 C 657.640625 77.4375 657.316406 77.035156 656.867188 76.988281 C 655.410156 76.839844 652.238281 77.613281 650.683594 81.660156 C 650.523438 82.082031 650.730469 82.550781 651.152344 82.714844 C 651.25 82.75 651.347656 82.769531 651.445312 82.769531 C 651.769531 82.769531 652.082031 82.570312 652.203125 82.246094 C 652.5 81.476562 652.851562 80.875 653.226562 80.394531 C 653.460938 80.675781 654.066406 81.519531 653.84375 82.609375 C 653.75 83.046875 654.035156 83.480469 654.472656 83.570312 C 654.53125 83.582031 654.585938 83.589844 654.640625 83.589844 C 655.019531 83.589844 655.359375 83.324219 655.4375 82.9375 C 655.820312 81.105469 654.800781 79.722656 654.421875 79.285156 C 655.570312 78.535156 656.621094 78.601562 656.703125 78.609375 Z M 656.703125 78.609375 " fill-opacity="1" fill-rule="nonzero"/></g><g clip-path="url(#331eaa895c)"><g clip-path="url(#749caa3ff7)"><path fill="#000000" d="M 102.222656 218.675781 L 925.203125 218.675781 L 925.203125 355.394531 L 102.222656 355.394531 Z M 102.222656 218.675781 " fill-opacity="1" fill-rule="nonzero"/></g></g><g clip-path="url(#dfe49b9f7d)"><g clip-path="url(#82f4bbde60)"><path fill="#000000" d="M 102.222656 218.675781 L 925.203125 218.675781 L 925.203125 355.394531 L 102.222656 355.394531 Z M 102.222656 218.675781 " fill-opacity="1" fill-rule="nonzero"/></g></g><g clip-path="url(#9107ba01a8)"><g clip-path="url(#4c9c4d2a9e)"><path fill="#d8f7ff" d="M 99.039062 218.675781 L 914.382812 218.675781 L 914.382812 348.722656 L 99.039062 348.722656 Z M 99.039062 218.675781 " fill-opacity="1" fill-rule="nonzero"/></g></g><g clip-path="url(#bae00e1eed)"><g clip-path="url(#812dc88e22)"><path fill="#000000" d="M 99.039062 218.675781 L 914.382812 218.675781 L 914.382812 348.722656 L 99.039062 348.722656 Z M 99.039062 218.675781 " fill-opacity="1" fill-rule="nonzero"/></g></g></svg>