<svg xmlns="http://www.w3.org/2000/svg" xmlns:xlink="http://www.w3.org/1999/xlink" width="1366" zoomAndPan="magnify" viewBox="0 0 1024.5 576" height="768" preserveAspectRatio="xMidYMid meet" version="1.0"><defs><clipPath id="1bf0a3289c"><path d="M 0 0.140625 L 1024 0.140625 L 1024 575.859375 L 0 575.859375 Z M 0 0.140625 " clip-rule="nonzero"/></clipPath><clipPath id="97dd13b0ee"><path d="M 224 48 L 369.585938 48 L 369.585938 204 L 224 204 Z M 224 48 " clip-rule="nonzero"/></clipPath><clipPath id="431de0f337"><path d="M 144.078125 145 L 268 145 L 268 224 L 144.078125 224 Z M 144.078125 145 " clip-rule="nonzero"/></clipPath><clipPath id="ff5bc0c277"><path d="M 544 47 L 686 47 L 686 210.792969 L 544 210.792969 Z M 544 47 " clip-rule="nonzero"/></clipPath><clipPath id="b9d13839ae"><path d="M 148 201 L 878.710938 201 L 878.710938 320.804688 L 148 320.804688 Z M 148 201 " clip-rule="nonzero"/></clipPath><clipPath id="873e8e65d2"><path d="M 874.378906 320.34375 L 152.453125 320.34375 C 150.191406 320.34375 148.324219 318.476562 148.324219 316.214844 L 148.324219 205.492188 C 148.324219 203.230469 150.191406 201.363281 152.453125 201.363281 L 874.324219 201.363281 C 876.585938 201.363281 878.453125 203.230469 878.453125 205.492188 L 878.453125 316.160156 C 878.507812 318.476562 876.640625 320.34375 874.378906 320.34375 Z M 874.378906 320.34375 " clip-rule="nonzero"/></clipPath><clipPath id="261fca9f91"><path d="M 146.914062 199.949219 L 880 199.949219 L 880 321.757812 L 146.914062 321.757812 Z M 146.914062 199.949219 " clip-rule="nonzero"/></clipPath><clipPath id="06f1c4f525"><path d="M 874.378906 202.609375 C 875.964844 202.609375 877.265625 203.910156 877.265625 205.492188 L 877.265625 316.214844 C 877.265625 317.796875 875.964844 319.097656 874.378906 319.097656 L 152.453125 319.097656 C 150.871094 319.097656 149.570312 317.796875 149.570312 316.214844 L 149.570312 205.492188 C 149.570312 203.910156 150.871094 202.609375 152.453125 202.609375 L 874.378906 202.609375 M 874.378906 199.949219 L 152.453125 199.949219 C 149.402344 199.949219 146.914062 202.4375 146.914062 205.492188 L 146.914062 316.214844 C 146.914062 319.269531 149.402344 321.757812 152.453125 321.757812 L 874.378906 321.757812 C 877.433594 321.757812 879.921875 319.269531 879.921875 316.214844 L 879.921875 205.492188 C 879.921875 202.4375 877.433594 199.949219 874.378906 199.949219 Z M 874.378906 199.949219 " clip-rule="nonzero"/></clipPath><clipPath id="048e15ae29"><path d="M 145.4375 201.308594 L 869.140625 201.308594 L 869.140625 314.457031 L 145.4375 314.457031 Z M 145.4375 201.308594 " clip-rule="nonzero"/></clipPath><clipPath id="bdc90435ab"><path d="M 865.113281 314.417969 L 149.554688 314.417969 C 147.320312 314.417969 145.476562 312.574219 145.476562 310.339844 L 145.476562 205.425781 C 145.476562 203.191406 147.320312 201.347656 149.554688 201.347656 L 865.058594 201.347656 C 867.292969 201.347656 869.136719 203.191406 869.136719 205.425781 L 869.136719 310.28125 C 869.191406 312.574219 867.347656 314.417969 865.113281 314.417969 Z M 865.113281 314.417969 " clip-rule="nonzero"/></clipPath><clipPath id="cbe495514f"><path d="M 144.078125 199.949219 L 870.953125 199.949219 L 870.953125 315.816406 L 144.078125 315.816406 Z M 144.078125 199.949219 " clip-rule="nonzero"/></clipPath><clipPath id="970702fece"><path d="M 865.113281 202.574219 C 866.679688 202.574219 867.964844 203.859375 867.964844 205.425781 L 867.964844 310.339844 C 867.964844 311.902344 866.679688 313.1875 865.113281 313.1875 L 149.554688 313.1875 C 147.988281 313.1875 146.703125 311.902344 146.703125 310.339844 L 146.703125 205.425781 C 146.703125 203.859375 147.988281 202.574219 149.554688 202.574219 L 865.113281 202.574219 M 865.113281 199.949219 L 149.554688 199.949219 C 146.535156 199.949219 144.078125 202.40625 144.078125 205.425781 L 144.078125 310.339844 C 144.078125 313.355469 146.535156 315.816406 149.554688 315.816406 L 865.113281 315.816406 C 868.132812 315.816406 870.589844 313.355469 870.589844 310.339844 L 870.589844 205.425781 C 870.589844 202.40625 868.132812 199.949219 865.113281 199.949219 Z M 865.113281 199.949219 " clip-rule="nonzero"/></clipPath></defs><g clip-path="url(#1bf0a3289c)"><path fill="#ffffff" d="M 0 0.140625 L 1024 0.140625 L 1024 575.859375 L 0 575.859375 Z M 0 0.140625 " fill-opacity="1" fill-rule="nonzero"/><path fill="#ffefcd" d="M 0 0.140625 L 1024 0.140625 L 1024 575.859375 L 0 575.859375 Z M 0 0.140625 " fill-opacity="1" fill-rule="nonzero"/></g><g clip-path="url(#97dd13b0ee)"><path fill="#101011" d="M 303.953125 53.605469 C 298.429688 48.949219 288.242188 46.957031 277.996094 48.539062 C 270.425781 49.707031 264.710938 52.542969 262.316406 56.328125 C 257.65625 63.683594 258.589844 78.714844 258.816406 81.570312 C 249.804688 85.554688 249.800781 86.324219 249.800781 86.882812 C 249.800781 87.132812 249.917969 87.367188 250.121094 87.527344 C 250.339844 87.699219 250.824219 87.773438 251.503906 87.773438 C 253.125 87.773438 255.867188 87.347656 258.871094 86.761719 L 259.574219 108.695312 C 259.582031 108.945312 259.734375 109.167969 259.964844 109.265625 C 260.121094 109.328125 271.402344 113.910156 287.835938 113.910156 C 294.246094 113.910156 301.441406 113.210938 309.066406 111.277344 C 309.328125 111.210938 309.515625 110.992188 309.542969 110.726562 C 309.75 108.757812 314.472656 62.472656 303.953125 53.605469 Z M 259.777344 82.535156 C 259.785156 82.535156 259.792969 82.53125 259.796875 82.527344 C 262.355469 81.402344 265.207031 80.207031 267.980469 79.097656 C 268.304688 78.96875 268.464844 78.597656 268.335938 78.269531 C 268.203125 77.941406 267.832031 77.78125 267.507812 77.914062 C 267.488281 77.921875 266.75 78.214844 265.597656 78.6875 C 265.34375 74.457031 266.574219 70.675781 267.695312 68.183594 C 267.71875 68.953125 267.871094 69.6875 268.257812 70.203125 C 268.628906 70.703125 269.191406 70.976562 269.84375 70.964844 C 271.457031 70.960938 272.710938 69.4375 273.5625 67.914062 C 273.671875 68.925781 273.933594 69.917969 274.496094 70.476562 C 274.878906 70.855469 275.363281 71.019531 275.90625 70.957031 C 277.417969 70.777344 278.914062 68.910156 279.9375 67.308594 C 279.988281 69.296875 280.335938 71.292969 281.488281 71.617188 C 282.339844 71.820312 283.289062 71.617188 284.164062 71.046875 C 285.320312 70.292969 286.253906 68.972656 286.894531 67.222656 C 287.589844 69.175781 288.660156 70.632812 290.085938 71.5625 C 290.78125 72.015625 291.484375 72.289062 292.144531 72.453125 C 291.816406 72.632812 291.511719 72.84375 291.25 73.089844 C 290.996094 73.332031 290.984375 73.734375 291.222656 73.992188 C 291.464844 74.25 291.871094 74.261719 292.125 74.019531 C 293.078125 73.125 295.128906 72.675781 296.914062 73.484375 C 298.621094 74.257812 299.515625 75.976562 299.4375 78.332031 C 299.375 80.128906 298.816406 81.429688 297.777344 82.203125 C 295.789062 83.679688 292.617188 82.863281 292.585938 82.855469 C 292.246094 82.765625 291.894531 82.964844 291.804688 83.304688 C 291.714844 83.644531 291.914062 83.996094 292.253906 84.085938 C 292.335938 84.109375 293.324219 84.367188 294.609375 84.367188 C 294.78125 84.367188 294.960938 84.359375 295.144531 84.347656 C 294.917969 86.5 294.824219 92.425781 295.121094 103.902344 C 279.320312 110.476562 269.105469 104.988281 267.414062 103.957031 L 266.554688 90.824219 C 267.449219 91.144531 268.855469 91.535156 270.4375 91.535156 C 271.324219 91.535156 272.261719 91.410156 273.195312 91.085938 C 275.230469 90.371094 276.804688 88.832031 277.875 86.507812 C 278.019531 86.191406 277.882812 85.8125 277.5625 85.664062 C 277.242188 85.515625 276.863281 85.65625 276.714844 85.976562 C 275.796875 87.96875 274.476562 89.28125 272.78125 89.878906 C 270.191406 90.789062 267.394531 89.808594 266.464844 89.421875 L 266.195312 85.328125 C 266.191406 85.273438 266.171875 85.226562 266.15625 85.179688 C 267.050781 84.96875 267.90625 84.765625 268.691406 84.574219 C 269.035156 84.492188 269.246094 84.148438 269.160156 83.804688 C 269.078125 83.464844 268.734375 83.253906 268.390625 83.335938 C 261.601562 84.984375 254.125 86.484375 251.625 86.558594 C 252.898438 85.699219 256.015625 84.195312 259.777344 82.535156 Z M 368.535156 203.800781 C 368.5 203.800781 368.464844 203.796875 368.429688 203.789062 L 225.214844 180.097656 C 224.867188 180.042969 224.632812 179.714844 224.691406 179.367188 C 224.75 179.019531 225.074219 178.78125 225.425781 178.839844 L 368.636719 202.53125 C 368.984375 202.589844 369.21875 202.917969 369.160156 203.265625 C 369.109375 203.578125 368.839844 203.800781 368.535156 203.800781 Z M 274.847656 79.375 C 274.984375 79.398438 275.121094 79.410156 275.257812 79.410156 C 276.074219 79.410156 276.90625 79.007812 277.738281 78.210938 C 277.992188 77.964844 278 77.5625 277.753906 77.308594 C 277.511719 77.054688 277.105469 77.046875 276.851562 77.292969 C 276.191406 77.925781 275.589844 78.203125 275.0625 78.121094 C 274.28125 77.992188 273.804688 77.101562 273.800781 77.089844 C 273.640625 76.78125 273.257812 76.65625 272.945312 76.816406 C 272.632812 76.976562 272.507812 77.363281 272.667969 77.675781 C 272.699219 77.734375 273.429688 79.140625 274.847656 79.375 Z M 291.796875 80.371094 C 291.871094 80.398438 291.949219 80.410156 292.023438 80.410156 C 292.28125 80.410156 292.523438 80.257812 292.621094 80.003906 C 292.882812 79.3125 293.203125 78.785156 293.539062 78.363281 C 293.6875 78.535156 294.328125 79.328125 294.117188 80.339844 C 294.046875 80.6875 294.265625 81.023438 294.613281 81.097656 C 294.65625 81.105469 294.699219 81.109375 294.742188 81.109375 C 295.039062 81.109375 295.304688 80.902344 295.367188 80.601562 C 295.699219 78.992188 294.746094 77.796875 294.472656 77.492188 C 295.488281 76.808594 296.429688 76.871094 296.5 76.878906 C 296.84375 76.914062 297.160156 76.660156 297.195312 76.308594 C 297.234375 75.960938 296.980469 75.644531 296.628906 75.609375 C 295.410156 75.480469 292.738281 76.136719 291.429688 79.546875 C 291.304688 79.875 291.46875 80.242188 291.796875 80.371094 Z M 291.796875 80.371094 " fill-opacity="1" fill-rule="nonzero"/></g><path fill="#399be6" d="M 334.027344 204.492188 C 307.925781 226.6875 278.890625 194.242188 272.402344 181.464844 C 275.996094 179.269531 296.925781 159.605469 296.925781 159.605469 L 295.820312 159.695312 C 295.820312 159.695312 280.238281 144.183594 274.773438 141.488281 C 269.304688 138.796875 270.007812 143.085938 270.941406 145.757812 C 266.53125 143.542969 265.414062 145.332031 266.113281 149.507812 C 260.019531 146.101562 259.925781 151.820312 261.476562 156.113281 C 263.027344 160.402344 270.496094 172.917969 270.496094 172.917969 L 256.910156 183.359375 C 255 196.105469 224.523438 216.070312 217.496094 183.996094 C 213.722656 166.765625 218.617188 148.707031 228.1875 134.019531 L 228.980469 139.539062 L 270.640625 122.238281 C 270.640625 122.238281 270.375 117.648438 269.242188 114.175781 C 255.265625 116.625 234.570312 128.628906 234.570312 128.628906 L 233.210938 127.136719 C 242.0625 116.273438 253.527344 108.046875 265.515625 104.667969 C 294.796875 96.417969 314.105469 110.863281 326.207031 128.359375 C 340.277344 148.703125 349.367188 191.449219 334.027344 204.492188 Z M 334.027344 204.492188 C 307.925781 226.6875 278.890625 194.242188 272.402344 181.464844 C 275.996094 179.269531 296.925781 159.605469 296.925781 159.605469 L 295.820312 159.695312 C 295.820312 159.695312 280.238281 144.183594 274.773438 141.488281 C 269.304688 138.796875 270.007812 143.085938 270.941406 145.757812 C 266.53125 143.542969 265.414062 145.332031 266.113281 149.507812 C 260.019531 146.101562 259.925781 151.820312 261.476562 156.113281 C 263.027344 160.402344 270.496094 172.917969 270.496094 172.917969 L 256.910156 183.359375 C 255 196.105469 224.523438 216.070312 217.496094 183.996094 C 213.722656 166.765625 218.617188 148.707031 228.1875 134.019531 L 228.980469 139.539062 L 270.640625 122.238281 C 270.640625 122.238281 270.375 117.648438 269.242188 114.175781 C 255.265625 116.625 234.570312 128.628906 234.570312 128.628906 L 233.210938 127.136719 C 242.0625 116.273438 253.527344 108.046875 265.515625 104.667969 C 294.796875 96.417969 314.105469 110.863281 326.207031 128.359375 C 340.277344 148.703125 349.367188 191.449219 334.027344 204.492188 Z M 334.027344 204.492188 " fill-opacity="1" fill-rule="nonzero"/><path fill="#2e3192" d="M 242.910156 124.230469 L 245.539062 108.859375 C 245.945312 108.792969 246.546875 108.816406 247.261719 109.167969 L 244.855469 123.25 L 246.246094 122.546875 L 249.460938 103.714844 C 249.691406 102.367188 248.9375 101.113281 247.78125 100.914062 C 246.625 100.71875 245.496094 101.648438 245.265625 102.996094 L 241.519531 124.933594 Z M 246.046875 105.835938 C 247.042969 105.578125 247.5625 105.910156 247.777344 106.125 L 247.484375 107.847656 C 247.132812 107.679688 246.550781 107.523438 245.738281 107.667969 Z M 344.566406 198.550781 C 344.882812 196.695312 347.96875 177.863281 347.164062 155.429688 C 346.851562 146.730469 344.292969 140.363281 339.5625 136.503906 C 336.011719 133.609375 331.867188 132.6875 328.796875 132.449219 C 328.664062 132.328125 328.105469 131.429688 327.984375 131.105469 C 331.28125 131.226562 336.152344 132.082031 340.355469 135.507812 C 345.390625 139.605469 348.109375 146.292969 348.4375 155.382812 C 349.246094 177.894531 346.160156 196.804688 345.828125 198.757812 C 345.648438 198.757812 344.621094 198.585938 344.566406 198.550781 Z M 344.566406 198.550781 " fill-opacity="1" fill-rule="nonzero"/><path fill="#fbbe28" d="M 260.789062 152.71875 C 261.011719 157.324219 269.503906 171.792969 274.542969 179.144531 C 263.070312 181.871094 245.753906 186.058594 245.351562 186.058594 C 245.042969 186.058594 240.65625 181.449219 236.417969 176.789062 C 235.558594 169.679688 233.695312 154.972656 232.929688 154.257812 C 232.175781 153.554688 227.074219 153.09375 224.570312 152.910156 C 220.503906 137.378906 214.707031 114.777344 215.203125 114.1875 C 215.621094 113.695312 233.574219 128.558594 234.371094 129.160156 C 235.167969 129.757812 274.898438 117.179688 275.496094 118.179688 C 275.777344 118.648438 277.953125 131.570312 280.105469 145.167969 C 278.722656 144 276.148438 141.96875 274.25 141.289062 C 271.53125 140.316406 269.902344 141.109375 271.089844 145.839844 C 269.808594 144.855469 264.367188 142.773438 266.714844 150.117188 C 263.246094 147.703125 260.527344 147.332031 260.789062 152.71875 Z M 260.789062 152.71875 C 261.011719 157.324219 269.503906 171.792969 274.542969 179.144531 C 263.070312 181.871094 245.753906 186.058594 245.351562 186.058594 C 245.042969 186.058594 240.65625 181.449219 236.417969 176.789062 C 235.558594 169.679688 233.695312 154.972656 232.929688 154.257812 C 232.175781 153.554688 227.074219 153.09375 224.570312 152.910156 C 220.503906 137.378906 214.707031 114.777344 215.203125 114.1875 C 215.621094 113.695312 233.574219 128.558594 234.371094 129.160156 C 235.167969 129.757812 274.898438 117.179688 275.496094 118.179688 C 275.777344 118.648438 277.953125 131.570312 280.105469 145.167969 C 278.722656 144 276.148438 141.96875 274.25 141.289062 C 271.53125 140.316406 269.902344 141.109375 271.089844 145.839844 C 269.808594 144.855469 264.367188 142.773438 266.714844 150.117188 C 263.246094 147.703125 260.527344 147.332031 260.789062 152.71875 Z M 260.789062 152.71875 " fill-opacity="1" fill-rule="nonzero"/><g clip-path="url(#431de0f337)"><path fill="#ff5757" d="M 147.703125 178.648438 C 151.390625 210.875 151.957031 211.160156 152.410156 211.386719 C 153.835938 212.097656 241.488281 223.699219 242.136719 223.699219 C 242.183594 223.699219 242.226562 223.695312 242.269531 223.6875 C 242.289062 223.683594 242.304688 223.675781 242.320312 223.667969 C 242.347656 223.660156 242.371094 223.65625 242.394531 223.644531 L 267.414062 212.730469 C 267.71875 212.601562 267.871094 212.257812 267.765625 211.945312 C 267.570312 211.363281 267.304688 210.570312 253.734375 208.789062 C 247.960938 208.03125 242.179688 207.417969 240.878906 207.28125 C 238.371094 186.683594 234.433594 155.253906 233.617188 154.03125 C 233.351562 153.628906 232.726562 152.691406 190.074219 148.839844 C 169.882812 147.015625 146.914062 145.207031 145.003906 145.460938 C 144.59375 145.515625 144.433594 145.746094 144.371094 145.929688 C 144.082031 146.804688 147.667969 178.328125 147.703125 178.648438 Z M 145.625 146.703125 C 145.648438 146.703125 145.667969 146.703125 145.691406 146.703125 C 149.214844 146.703125 168.011719 148.136719 188.855469 150.011719 C 213.242188 152.203125 230.628906 154.121094 232.59375 154.832031 C 233.488281 157.632812 238.296875 196.214844 241.410156 222.335938 C 233.136719 221.277344 158.335938 211.328125 153.148438 210.273438 C 152.695312 208.710938 151.382812 199.597656 148.933594 178.167969 C 147.191406 162.910156 145.808594 149.496094 145.625 146.703125 Z M 184.421875 183.800781 C 184.820312 185.753906 186.320312 187.105469 187.757812 186.8125 C 189.199219 186.515625 190.046875 184.6875 189.648438 182.734375 C 189.25 180.777344 187.753906 179.425781 186.3125 179.71875 C 184.871094 180.015625 184.023438 181.84375 184.421875 183.800781 Z M 186.613281 181.199219 C 187.367188 181.046875 188.164062 181.847656 188.398438 182.988281 C 188.632812 184.128906 188.207031 185.179688 187.457031 185.332031 C 186.707031 185.484375 185.90625 184.683594 185.671875 183.542969 C 185.441406 182.402344 185.863281 181.351562 186.613281 181.199219 Z M 186.613281 181.199219 " fill-opacity="1" fill-rule="nonzero"/></g><path fill="#101011" d="M 185.542969 134.769531 C 177.765625 134.234375 173.539062 134.109375 172.984375 134.382812 C 172.601562 134.578125 172.519531 134.886719 172.414062 136.589844 C 172.308594 138.308594 172.25 140.914062 172.273438 143.074219 C 172.316406 147.398438 172.609375 147.589844 172.917969 147.796875 C 173.464844 148.160156 180.878906 148.789062 185.25 149.128906 C 191.304688 149.601562 194.351562 149.757812 195.917969 149.757812 C 197.4375 149.757812 197.570312 149.613281 197.699219 149.46875 C 198.445312 148.65625 198.140625 136.867188 197.78125 136.234375 C 197.589844 135.898438 197.40625 135.578125 185.542969 134.769531 Z M 173.738281 146.738281 C 173.410156 145.175781 173.527344 137.328125 173.777344 135.519531 C 175.925781 135.390625 187 136.066406 193.054688 136.625 C 193.085938 138.386719 193.085938 146.542969 193.089844 148.375 C 186.976562 148.054688 175.75 147.148438 173.738281 146.738281 Z M 196.722656 148.484375 C 196.292969 148.503906 195.457031 148.484375 194.363281 148.4375 C 194.363281 146.746094 194.359375 138.820312 194.332031 136.746094 C 195.414062 136.855469 196.238281 136.960938 196.675781 137.046875 C 196.878906 138.816406 196.972656 146.742188 196.722656 148.484375 Z M 266.179688 104.148438 C 266.269531 104.203125 272.28125 107.816406 281.257812 107.816406 C 285.609375 107.816406 290.65625 106.964844 296.0625 104.449219 C 296.382812 104.300781 296.523438 103.921875 296.371094 103.601562 C 296.222656 103.28125 295.84375 103.144531 295.527344 103.292969 C 279.613281 110.699219 266.972656 103.136719 266.847656 103.0625 C 266.546875 102.875 266.15625 102.972656 265.972656 103.269531 C 265.785156 103.570312 265.878906 103.964844 266.179688 104.148438 Z M 322.359375 182.007812 C 317.601562 177.375 312.210938 172.566406 307.621094 168.59375 C 307.726562 168.472656 307.785156 168.308594 307.773438 168.136719 C 307.761719 167.976562 306.671875 151.988281 306.082031 140.03125 C 306.0625 139.679688 305.765625 139.410156 305.414062 139.425781 C 305.0625 139.445312 304.789062 139.742188 304.808594 140.09375 C 305.332031 150.726562 306.253906 164.53125 306.457031 167.59375 C 301.265625 163.128906 297.328125 159.921875 296.925781 159.605469 C 296.03125 158.691406 282.347656 145.089844 275.414062 141.117188 C 273.386719 139.953125 271.941406 139.753906 271.007812 140.511719 C 269.898438 141.410156 270.039062 143.394531 270.300781 144.753906 C 269.167969 144.296875 267.546875 143.894531 266.480469 144.726562 C 265.636719 145.382812 265.363281 146.585938 265.652344 148.382812 C 264.417969 147.648438 263.109375 147.546875 262.03125 148.160156 C 260.464844 149.058594 259.335938 151.667969 260.871094 156.3125 C 263.125 163.117188 273.839844 179.367188 274.292969 180.054688 C 274.46875 179.949219 275.15625 179.394531 275.28125 179.242188 C 275.171875 179.074219 264.28125 162.558594 262.082031 155.910156 C 260.785156 151.996094 261.585938 149.882812 262.664062 149.269531 C 263.652344 148.703125 265.042969 149.191406 266.207031 150.507812 C 266.628906 151.179688 270.441406 157.207031 272.289062 158.792969 C 272.40625 158.894531 272.554688 158.945312 272.703125 158.945312 C 272.882812 158.945312 273.0625 158.871094 273.1875 158.722656 C 273.417969 158.457031 273.386719 158.050781 273.117188 157.824219 C 271.453125 156.398438 267.769531 150.597656 267.304688 149.855469 C 266.675781 147.707031 266.65625 146.203125 267.261719 145.734375 C 267.988281 145.167969 269.757812 145.84375 270.699219 146.351562 C 271.324219 146.996094 276.363281 152.195312 277.636719 154.015625 C 277.761719 154.191406 277.960938 154.285156 278.160156 154.285156 C 278.285156 154.285156 278.414062 154.25 278.527344 154.171875 C 278.8125 153.96875 278.882812 153.570312 278.683594 153.285156 C 277.441406 151.511719 273.050781 146.945312 271.847656 145.703125 C 271.402344 144.292969 271.101562 142.078125 271.808594 141.503906 C 272.261719 141.136719 273.34375 141.402344 274.78125 142.222656 C 281.648438 146.160156 295.75 160.402344 295.890625 160.546875 C 295.910156 160.566406 295.929688 160.585938 295.949219 160.601562 C 296.09375 160.71875 310.542969 172.289062 321.46875 182.921875 C 321.59375 183.042969 321.753906 183.101562 321.914062 183.101562 C 322.082031 183.101562 322.246094 183.039062 322.371094 182.910156 C 322.617188 182.65625 322.613281 182.253906 322.359375 182.007812 Z M 269.996094 119.273438 C 270.394531 119.191406 270.863281 119.082031 271.226562 118.953125 C 271.226562 118.949219 271.226562 118.945312 271.226562 118.9375 C 271.226562 118.9375 270.621094 116.804688 269.824219 114.011719 C 269.726562 113.679688 269.390625 113.484375 269.054688 113.566406 C 260.222656 115.75 242.894531 122.855469 234.589844 128.25 C 230.515625 121.21875 221.78125 114.003906 221.398438 113.691406 C 221.136719 113.476562 220.746094 113.503906 220.519531 113.761719 L 218.289062 116.253906 C 218.566406 116.488281 218.964844 116.796875 219.300781 117.03125 L 221.058594 115.074219 C 222.847656 116.605469 229.355469 122.355469 232.949219 128.011719 C 233.679688 128.710938 234.238281 129.210938 234.386719 129.226562 C 234.59375 129.246094 235.042969 129.183594 235.914062 128.921875 C 244.046875 123.835938 260.242188 117.1875 268.765625 114.957031 C 269.453125 117.363281 269.957031 119.148438 269.996094 119.273438 Z M 269.996094 119.273438 " fill-opacity="1" fill-rule="nonzero"/><path fill="#ff5757" d="M 439.621094 185.65625 C 439.621094 185.65625 421.035156 212.148438 408.03125 219.050781 C 369.285156 235.769531 356.210938 193.03125 367.957031 150.082031 C 379.632812 107.390625 417.46875 104.339844 425.613281 103.808594 C 457.703125 101.710938 481.570312 124.664062 482.363281 128.316406 C 478.386719 126.023438 469.808594 122.117188 454.671875 119.832031 C 446.910156 118.835938 427.003906 118.140625 427.003906 118.140625 L 426.78125 124.605469 C 423.078125 124.867188 420.835938 125.105469 420.835938 125.105469 C 420.835938 125.105469 420.382812 158.015625 420.277344 165.507812 C 434.679688 176.191406 439.621094 185.65625 439.621094 185.65625 Z M 449.695312 195.429688 C 453.699219 205.316406 474.402344 221.101562 492.6875 208.101562 C 509.207031 196.359375 493.757812 150.78125 493.757812 150.78125 C 493.757812 150.78125 443.515625 180.171875 449.695312 195.429688 Z M 449.695312 195.429688 " fill-opacity="1" fill-rule="nonzero"/><path fill="#101011" d="M 457.359375 87.769531 C 456.929688 86.566406 449.277344 82.945312 443.03125 80.15625 L 443.03125 71.066406 C 445.398438 70.40625 455.144531 66.984375 455.503906 55.164062 C 455.507812 55.136719 455.503906 55.113281 455.503906 55.085938 C 455.394531 53.914062 454.644531 53.109375 453.539062 52.992188 C 452.980469 52.929688 452.332031 53.070312 451.773438 53.417969 C 451.570312 51.136719 450.785156 49.757812 449.429688 49.3125 C 447.5 48.671875 445.046875 50.292969 443.476562 52.320312 C 440.480469 51.472656 423.398438 46.984375 410.882812 51.15625 C 397.953125 55.46875 402.773438 73.695312 403.546875 76.328125 C 402.210938 78.222656 401.925781 80.800781 402.578125 82.917969 C 403.386719 85.535156 405.761719 88.019531 410.03125 87.503906 C 409.929688 93.492188 410.046875 108.105469 410.046875 108.257812 C 410.050781 108.4375 410.128906 108.609375 410.261719 108.730469 C 410.457031 108.898438 415.097656 112.871094 427.402344 112.871094 C 439.851562 112.871094 442.839844 107.453125 442.960938 107.222656 C 443.007812 107.128906 443.03125 107.03125 443.03125 106.925781 L 443.03125 88.324219 C 444.410156 88.464844 446.035156 88.617188 447.664062 88.75 C 450.757812 89.003906 452.820312 89.097656 454.207031 89.097656 C 456.78125 89.097656 457.039062 88.773438 457.234375 88.53125 C 457.40625 88.3125 457.453125 88.03125 457.359375 87.769531 Z M 442.40625 86.988281 C 442.402344 86.984375 442.398438 86.984375 442.398438 86.984375 C 442.394531 86.984375 442.394531 86.984375 442.394531 86.984375 C 441.398438 86.882812 440.402344 86.773438 439.417969 86.65625 C 439.074219 86.617188 438.753906 86.867188 438.714844 87.214844 C 438.671875 87.5625 438.921875 87.878906 439.273438 87.921875 C 439.292969 87.921875 440.277344 88.035156 441.761719 88.191406 L 441.761719 92.433594 C 439.917969 93.148438 431.578125 95.886719 427.28125 88.945312 C 427.09375 88.644531 426.703125 88.554688 426.40625 88.738281 C 426.105469 88.921875 426.015625 89.316406 426.199219 89.613281 C 428.753906 93.738281 432.542969 94.832031 435.839844 94.832031 C 438.351562 94.832031 440.578125 94.199219 441.761719 93.785156 L 441.761719 106.75 C 441.261719 107.503906 438.066406 111.597656 427.402344 111.597656 C 417.054688 111.597656 412.332031 108.667969 411.316406 107.9375 C 411.300781 105.679688 411.199219 91.726562 411.320312 86.773438 C 411.324219 86.582031 411.242188 86.394531 411.09375 86.273438 C 410.945312 86.148438 410.75 86.097656 410.5625 86.132812 C 407.222656 86.789062 404.691406 85.449219 403.792969 82.542969 C 403 79.96875 403.839844 76.59375 406.621094 75.398438 C 408.152344 74.746094 409.425781 74.648438 410.410156 75.113281 C 411.65625 75.699219 412.058594 77.035156 412.0625 77.042969 C 412.082031 77.117188 412.117188 77.1875 412.164062 77.25 C 412.261719 77.386719 414.632812 80.527344 417.59375 79.847656 C 421.46875 78.953125 421.648438 73.105469 421.566406 70.820312 C 423.90625 71.371094 430.832031 72.605469 441.761719 71.285156 L 441.761719 79.59375 C 441.003906 79.257812 440.277344 78.9375 439.597656 78.644531 C 439.277344 78.503906 438.902344 78.652344 438.761719 78.972656 C 438.621094 79.296875 438.769531 79.671875 439.089844 79.808594 C 440.097656 80.25 441.117188 80.699219 442.128906 81.152344 C 442.140625 81.15625 442.15625 81.164062 442.167969 81.167969 C 448.105469 83.824219 453.792969 86.574219 455.621094 87.792969 C 453.605469 87.964844 448.074219 87.578125 442.40625 86.988281 Z M 431.949219 79.417969 C 431.308594 79.199219 430.609375 79.535156 430.386719 80.175781 C 430.167969 80.816406 430.503906 81.515625 431.144531 81.738281 C 431.785156 81.960938 432.484375 81.621094 432.707031 80.980469 C 432.929688 80.339844 432.589844 79.640625 431.949219 79.417969 Z M 453.058594 156.765625 C 452.429688 155.996094 451.40625 155.636719 449.9375 155.667969 C 450.003906 154.359375 449.664062 153.414062 448.917969 152.851562 C 447.878906 152.0625 446.382812 152.304688 445.425781 152.589844 C 445.359375 151.980469 445.136719 151.207031 444.503906 150.601562 C 443.539062 149.671875 441.960938 149.433594 439.808594 149.894531 C 434.199219 151.09375 420.21875 164.3125 419.265625 165.21875 C 418.640625 165.671875 410.097656 171.886719 399.949219 180.28125 C 400.023438 176.210938 400.253906 163.910156 400.457031 154.34375 C 400.464844 153.992188 400.183594 153.703125 399.835938 153.695312 C 399.488281 153.703125 399.191406 153.964844 399.183594 154.316406 C 398.957031 165.042969 398.699219 179.207031 398.660156 181.355469 C 394.199219 185.078125 389.488281 189.179688 385.035156 193.375 C 384.78125 193.617188 384.769531 194.019531 385.011719 194.273438 C 385.136719 194.40625 385.304688 194.472656 385.472656 194.472656 C 385.628906 194.472656 385.785156 194.417969 385.910156 194.300781 C 401.296875 179.789062 419.859375 166.359375 420.046875 166.222656 C 420.070312 166.207031 420.09375 166.1875 420.113281 166.167969 C 420.257812 166.03125 434.742188 152.28125 440.074219 151.136719 C 441.757812 150.777344 442.980469 150.90625 443.617188 151.511719 C 444.125 151.996094 444.1875 152.710938 444.179688 153.105469 C 443.132812 153.6875 439.746094 155.75 437.039062 159.496094 C 436.832031 159.78125 436.898438 160.179688 437.179688 160.382812 C 437.292969 160.464844 437.425781 160.503906 437.554688 160.503906 C 437.75 160.503906 437.945312 160.414062 438.070312 160.242188 C 440.988281 156.203125 444.855469 154.179688 445.050781 154.078125 C 445.605469 153.828125 447.351562 153.257812 448.152344 153.867188 C 448.714844 154.289062 448.726562 155.273438 448.621094 156.085938 C 448.015625 156.804688 445.039062 160.324219 442.402344 163.078125 C 442.160156 163.332031 442.167969 163.734375 442.421875 163.976562 C 442.546875 164.09375 442.703125 164.15625 442.863281 164.15625 C 443.027344 164.15625 443.195312 164.089844 443.320312 163.957031 C 445.90625 161.257812 448.8125 157.832031 449.542969 156.964844 C 450.808594 156.871094 451.664062 157.066406 452.074219 157.570312 C 452.578125 158.1875 452.535156 159.398438 451.941406 161.269531 C 450.992188 164.261719 442.054688 180.378906 438.949219 184.46875 C 439.03125 184.75 439.394531 185.3125 439.621094 185.65625 C 442.695312 181.902344 452.0625 165.09375 453.152344 161.652344 C 453.660156 160.054688 454.109375 158.054688 453.058594 156.765625 Z M 453.058594 156.765625 " fill-opacity="1" fill-rule="nonzero"/><path fill="#2e3192" d="M 469.210938 123 L 463.414062 100.027344 C 463.746094 99.816406 464.277344 99.601562 465.035156 99.632812 L 471.015625 123.324219 L 472.300781 123.550781 L 464.855469 94.035156 C 464.539062 92.773438 463.398438 91.96875 462.316406 92.238281 C 461.230469 92.511719 460.605469 93.757812 460.921875 95.019531 L 467.921875 122.769531 Z M 462.699219 97.199219 C 463.464844 96.589844 464.042969 96.679688 464.316406 96.785156 L 464.722656 98.398438 C 464.351562 98.390625 463.785156 98.476562 463.132812 98.914062 Z M 462.699219 97.199219 " fill-opacity="1" fill-rule="nonzero"/><path fill="#101011" d="M 499.726562 106.816406 C 499.480469 106.699219 499.183594 106.753906 498.996094 106.949219 C 498.957031 106.992188 497.285156 108.738281 494.8125 111.566406 L 495.175781 107.851562 C 495.199219 107.601562 495.074219 107.359375 494.855469 107.234375 C 494.632812 107.109375 494.363281 107.128906 494.160156 107.28125 C 493.773438 107.574219 484.820312 114.476562 481.917969 127.574219 C 478.46875 125.175781 463.941406 117.003906 426.796875 117.601562 C 426.625 117.605469 426.464844 117.675781 426.347656 117.796875 C 426.230469 117.921875 426.164062 118.085938 426.171875 118.253906 C 426.21875 119.992188 426.214844 122.042969 426.199219 123.515625 C 424.03125 123.769531 422.15625 124.09375 420.671875 124.492188 C 420.394531 124.5625 420.203125 124.8125 420.199219 125.097656 L 419.675781 165.703125 C 421.265625 164.140625 427.191406 158.390625 430.386719 156.21875 C 434.105469 153.699219 442.199219 147.035156 444.984375 153.035156 C 446.5 152.363281 450.214844 152.039062 449.226562 156.617188 C 450.492188 156.089844 454.121094 156.542969 452.945312 159.140625 C 451.773438 161.734375 451.75 163.652344 449.828125 167.167969 C 448.046875 170.425781 442.847656 180.851562 439.351562 185.164062 C 439.699219 185.785156 439.621094 185.65625 439.621094 185.65625 L 430.601562 197.925781 C 442.769531 198.058594 457.40625 200.339844 474.574219 202.933594 C 474.605469 202.9375 474.632812 202.945312 474.664062 202.949219 C 474.679688 202.953125 474.691406 202.960938 474.707031 202.960938 C 474.730469 202.964844 474.75 202.964844 474.773438 202.964844 C 474.773438 202.964844 474.777344 202.964844 474.777344 202.964844 C 474.847656 202.964844 474.914062 202.949219 474.976562 202.929688 C 474.996094 202.921875 475.015625 202.914062 475.035156 202.90625 C 475.082031 202.882812 475.125 202.855469 475.167969 202.824219 C 475.179688 202.8125 475.195312 202.804688 475.207031 202.792969 C 475.253906 202.75 475.292969 202.699219 475.328125 202.644531 C 483.953125 187.347656 491.335938 178.09375 491.410156 178.003906 C 491.484375 177.910156 491.53125 177.796875 491.546875 177.679688 L 500.085938 107.46875 C 500.117188 107.195312 499.972656 106.933594 499.726562 106.816406 Z M 427.472656 123.378906 C 427.484375 122.089844 427.488281 120.402344 427.457031 118.863281 C 454.277344 118.503906 469.136719 122.878906 476.320312 126.039062 C 463.730469 123.066406 440.855469 122.035156 427.472656 123.378906 Z M 493.371094 113.234375 C 490.570312 116.511719 487.085938 120.804688 483.789062 125.453125 C 486.320312 116.964844 491.445312 111.457031 493.757812 109.3125 Z M 493.371094 113.234375 " fill-opacity="1" fill-rule="nonzero"/><path fill="#f2f2f2" d="M 452.257812 132.230469 C 450.898438 132.164062 449.757812 133.625 449.65625 135.5625 C 449.554688 137.5 450.542969 139.074219 451.902344 139.144531 C 453.261719 139.214844 454.40625 137.75 454.503906 135.8125 C 454.605469 133.875 453.617188 132.300781 452.257812 132.230469 Z M 451.96875 137.875 C 451.421875 137.847656 450.863281 136.878906 450.925781 135.628906 C 450.992188 134.378906 451.648438 133.472656 452.191406 133.503906 C 452.738281 133.53125 453.300781 134.496094 453.234375 135.746094 C 453.171875 137 452.511719 137.902344 451.96875 137.875 Z M 431.179688 137.609375 L 429.09375 137.539062 L 429.382812 132.765625 C 429.40625 132.414062 429.136719 132.113281 428.785156 132.089844 C 428.78125 132.089844 428.777344 132.089844 428.769531 132.089844 C 428.425781 132.078125 428.132812 132.339844 428.113281 132.6875 L 427.785156 138.113281 C 427.773438 138.285156 427.832031 138.453125 427.949219 138.582031 C 428.0625 138.707031 428.226562 138.78125 428.394531 138.789062 C 428.394531 138.789062 428.398438 138.789062 428.398438 138.789062 L 431.136719 138.878906 C 431.488281 138.890625 431.78125 138.617188 431.792969 138.265625 C 431.804688 137.914062 431.53125 137.621094 431.179688 137.609375 Z M 436.824219 137.035156 C 436.824219 137.035156 436.824219 137.035156 436.820312 137.035156 L 434.734375 137.054688 L 434.773438 135.226562 L 436.21875 135.203125 C 436.570312 135.199219 436.851562 134.910156 436.847656 134.558594 C 436.839844 134.210938 436.554688 133.929688 436.207031 133.933594 C 436.207031 133.933594 436.203125 133.933594 436.203125 133.933594 L 434.800781 133.953125 L 434.816406 133.117188 L 436.683594 133.105469 C 437.035156 133.105469 437.320312 132.820312 437.316406 132.46875 C 437.316406 132.117188 437.027344 131.832031 436.679688 131.835938 L 434.191406 131.847656 C 433.84375 131.847656 433.5625 132.125 433.558594 132.46875 L 433.449219 137.679688 C 433.449219 137.851562 433.511719 138.019531 433.632812 138.140625 C 433.753906 138.261719 433.917969 138.332031 434.089844 138.332031 L 436.832031 138.308594 C 437.183594 138.304688 437.464844 138.015625 437.464844 137.664062 C 437.460938 137.316406 437.175781 137.035156 436.824219 137.035156 Z M 441.074219 132.636719 C 441.628906 132.636719 441.640625 133.699219 441.640625 133.710938 C 441.640625 134.0625 441.925781 134.34375 442.277344 134.34375 C 442.628906 134.339844 442.914062 134.054688 442.910156 133.703125 C 442.90625 132.535156 442.332031 131.359375 441.070312 131.367188 C 439.84375 131.371094 438.996094 132.328125 439 133.6875 C 439.007812 134.867188 439.949219 135.316406 440.640625 135.644531 C 441.347656 135.984375 441.550781 136.132812 441.554688 136.464844 C 441.554688 137.035156 440.917969 137.042969 440.890625 137.042969 C 440.71875 137.046875 440.558594 136.992188 440.453125 136.902344 C 440.34375 136.808594 440.289062 136.664062 440.289062 136.46875 C 440.285156 136.117188 440 135.835938 439.648438 135.835938 C 439.296875 135.839844 439.015625 136.125 439.015625 136.476562 C 439.019531 137.039062 439.234375 137.53125 439.625 137.867188 C 439.964844 138.160156 440.417969 138.320312 440.898438 138.316406 C 441.835938 138.3125 442.832031 137.65625 442.824219 136.457031 C 442.820312 135.277344 441.875 134.828125 441.1875 134.496094 C 440.480469 134.160156 440.273438 134.011719 440.273438 133.679688 C 440.273438 133.367188 440.347656 132.640625 441.074219 132.636719 Z M 446.570312 132.839844 C 447.121094 132.863281 447.085938 133.925781 447.082031 133.9375 C 447.070312 134.289062 447.34375 134.582031 447.695312 134.597656 C 448.042969 134.609375 448.339844 134.339844 448.355469 133.988281 C 448.402344 132.820312 447.882812 131.621094 446.617188 131.570312 C 445.394531 131.519531 444.503906 132.4375 444.449219 133.792969 C 444.402344 134.972656 445.324219 135.464844 446 135.824219 C 446.6875 136.195312 446.886719 136.351562 446.875 136.683594 C 446.851562 137.253906 446.214844 137.234375 446.1875 137.234375 C 446.015625 137.226562 445.859375 137.167969 445.757812 137.074219 C 445.652344 136.972656 445.601562 136.828125 445.609375 136.632812 C 445.625 136.28125 445.351562 135.984375 445 135.972656 C 444.648438 135.957031 444.351562 136.230469 444.339844 136.582031 C 444.316406 137.144531 444.511719 137.648438 444.886719 138 C 445.210938 138.304688 445.65625 138.484375 446.136719 138.503906 C 447.074219 138.542969 448.097656 137.933594 448.144531 136.734375 C 448.191406 135.554688 447.269531 135.0625 446.597656 134.703125 C 445.90625 134.335938 445.707031 134.175781 445.722656 133.84375 C 445.734375 133.535156 445.839844 132.8125 446.570312 132.839844 Z M 460.75 133.125 C 460.414062 133.089844 460.085938 133.332031 460.042969 133.679688 L 459.605469 137.328125 L 457.511719 133.363281 C 457.382812 133.121094 457.109375 132.988281 456.835938 133.035156 C 456.5625 133.085938 456.351562 133.308594 456.316406 133.582031 L 455.640625 138.894531 C 455.597656 139.242188 455.84375 139.5625 456.191406 139.605469 C 456.535156 139.652344 456.859375 139.402344 456.902344 139.054688 L 457.324219 135.738281 L 459.433594 139.722656 C 459.53125 139.914062 459.722656 140.039062 459.929688 140.058594 C 459.988281 140.0625 460.050781 140.0625 460.109375 140.050781 C 460.382812 140 460.59375 139.777344 460.625 139.5 L 461.304688 133.832031 C 461.347656 133.484375 461.097656 133.167969 460.75 133.125 Z M 460.75 133.125 " fill-opacity="1" fill-rule="nonzero"/><path fill="#43c466" d="M 857.800781 185.976562 C 841.339844 197.066406 819.199219 178.21875 819.199219 178.21875 L 821.972656 221.066406 C 821.972656 221.066406 759.359375 235.65625 723.34375 221.066406 C 723.34375 214.4375 723.554688 209.648438 723.609375 208.558594 C 723.566406 208.707031 723.523438 208.863281 723.484375 209.011719 C 716.265625 211.125 706.421875 211.164062 699.527344 204.746094 C 688.277344 194.277344 705.59375 156.863281 707.613281 152.207031 C 714.433594 156.636719 731.84375 159.375 735.207031 156.339844 C 735.320312 156.242188 735.4375 156.152344 735.550781 156.058594 C 735.421875 156.675781 735.28125 157.355469 735.132812 158.078125 C 738.578125 157.558594 746.859375 156.304688 749.027344 155.871094 C 749.386719 154.207031 745.878906 112.828125 745.878906 112.828125 C 745.878906 112.828125 754.003906 110.113281 757.511719 109.421875 C 759.644531 108.980469 763.800781 107.644531 771.734375 106.925781 C 780.601562 106.125 785.710938 107.050781 789.15625 107.417969 C 789.15625 107.417969 812.367188 112.28125 830.097656 132.597656 C 832.949219 136.121094 848.996094 137.320312 857.4375 132.800781 C 859.710938 136.386719 870.546875 177.386719 857.800781 185.976562 Z M 857.800781 185.976562 C 841.339844 197.066406 819.199219 178.21875 819.199219 178.21875 L 821.972656 221.066406 C 821.972656 221.066406 759.359375 235.65625 723.34375 221.066406 C 723.34375 214.4375 723.554688 209.648438 723.609375 208.558594 C 723.566406 208.707031 723.523438 208.863281 723.484375 209.011719 C 716.265625 211.125 706.421875 211.164062 699.527344 204.746094 C 688.277344 194.277344 705.59375 156.863281 707.613281 152.207031 C 714.433594 156.636719 731.84375 159.375 735.207031 156.339844 C 735.320312 156.242188 735.4375 156.152344 735.550781 156.058594 C 735.421875 156.675781 735.28125 157.355469 735.132812 158.078125 C 738.578125 157.558594 746.859375 156.304688 749.027344 155.871094 C 749.386719 154.207031 745.878906 112.828125 745.878906 112.828125 C 745.878906 112.828125 754.003906 110.113281 757.511719 109.421875 C 759.644531 108.980469 763.800781 107.644531 771.734375 106.925781 C 780.601562 106.125 785.710938 107.050781 789.15625 107.417969 C 789.15625 107.417969 812.367188 112.28125 830.097656 132.597656 C 832.949219 136.121094 848.996094 137.320312 857.4375 132.800781 C 859.710938 136.386719 870.546875 177.386719 857.800781 185.976562 Z M 857.800781 185.976562 " fill-opacity="1" fill-rule="nonzero"/><path fill="#f2f2f2" d="M 736.601562 156.46875 C 736.277344 156.46875 736.011719 156.207031 736.011719 155.878906 C 736.011719 155.554688 736.273438 155.289062 736.601562 155.289062 L 816.292969 155.101562 C 816.292969 155.101562 816.292969 155.101562 816.296875 155.101562 C 816.621094 155.101562 816.882812 155.367188 816.886719 155.691406 C 816.886719 156.015625 816.621094 156.28125 816.296875 156.28125 Z M 817.21875 156.179688 C 817.324219 156.109375 827.304688 149.292969 830.765625 148.007812 C 831.070312 147.894531 831.226562 147.554688 831.113281 147.25 C 831 146.945312 830.660156 146.789062 830.355469 146.902344 C 826.757812 148.238281 816.984375 154.910156 816.554688 155.203125 C 816.285156 155.386719 816.214844 155.753906 816.398438 156.023438 C 816.511719 156.191406 816.695312 156.28125 816.886719 156.28125 C 817 156.28125 817.117188 156.25 817.21875 156.179688 Z M 817.21875 156.179688 " fill-opacity="1" fill-rule="nonzero"/><path fill="#fbbe28" d="M 749.613281 155.941406 C 749.585938 156.179688 749.417969 156.375 749.191406 156.4375 C 748.191406 156.722656 744.515625 156.710938 735.132812 158.078125 C 735.648438 153.660156 736.519531 146.8125 736.703125 144.542969 L 736.726562 144.296875 C 737.164062 139.027344 737.242188 132.480469 733.921875 131.675781 C 732.210938 131.261719 730.871094 132.785156 730.488281 133.953125 C 730.410156 132.597656 728.769531 130.890625 726.902344 130.890625 C 725.246094 130.890625 723.621094 132 722.976562 133.753906 C 722.597656 132.730469 721.910156 131.859375 720.441406 131.601562 C 719.050781 131.351562 717.710938 132.046875 716.097656 134.476562 C 715.402344 135.582031 714.707031 136.914062 714.027344 138.347656 C 710.457031 145.464844 705.925781 156.097656 705.925781 156.097656 C 705.898438 155.675781 705.90625 155.308594 705.875 154.84375 C 705.640625 150.949219 705.335938 145.570312 704.96875 138.863281 C 704.359375 127.730469 703.730469 115.558594 703.730469 115.332031 L 703.730469 94.183594 C 703.730469 94.050781 703.777344 93.925781 703.855469 93.820312 C 704 93.640625 704.746094 92.738281 705.648438 92.867188 C 706.003906 92.917969 706.492188 93.152344 706.8125 93.96875 C 707.429688 95.558594 707.015625 109.878906 706.875 114.257812 C 711.261719 113.578125 719.917969 112.425781 725.496094 111.703125 C 730.800781 111.015625 735.703125 110.40625 739.296875 109.988281 C 745.867188 109.222656 745.898438 109.265625 746.164062 109.621094 C 746.257812 109.746094 746.507812 110.078125 748.164062 132.117188 C 748.554688 137.304688 749.8125 154.351562 749.613281 155.941406 Z M 749.613281 155.941406 C 749.585938 156.179688 749.417969 156.375 749.191406 156.4375 C 748.191406 156.722656 744.515625 156.710938 735.132812 158.078125 C 735.648438 153.660156 736.519531 146.8125 736.703125 144.542969 L 736.726562 144.296875 C 737.164062 139.027344 737.242188 132.480469 733.921875 131.675781 C 732.210938 131.261719 730.871094 132.785156 730.488281 133.953125 C 730.410156 132.597656 728.769531 130.890625 726.902344 130.890625 C 725.246094 130.890625 723.621094 132 722.976562 133.753906 C 722.597656 132.730469 721.910156 131.859375 720.441406 131.601562 C 719.050781 131.351562 717.710938 132.046875 716.097656 134.476562 C 715.402344 135.582031 714.707031 136.914062 714.027344 138.347656 C 710.457031 145.464844 705.925781 156.097656 705.925781 156.097656 C 705.898438 155.675781 705.90625 155.308594 705.875 154.84375 C 705.640625 150.949219 705.335938 145.570312 704.96875 138.863281 C 704.359375 127.730469 703.730469 115.558594 703.730469 115.332031 L 703.730469 94.183594 C 703.730469 94.050781 703.777344 93.925781 703.855469 93.820312 C 704 93.640625 704.746094 92.738281 705.648438 92.867188 C 706.003906 92.917969 706.492188 93.152344 706.8125 93.96875 C 707.429688 95.558594 707.015625 109.878906 706.875 114.257812 C 711.261719 113.578125 719.917969 112.425781 725.496094 111.703125 C 730.800781 111.015625 735.703125 110.40625 739.296875 109.988281 C 745.867188 109.222656 745.898438 109.265625 746.164062 109.621094 C 746.257812 109.746094 746.507812 110.078125 748.164062 132.117188 C 748.554688 137.304688 749.8125 154.351562 749.613281 155.941406 Z M 749.613281 155.941406 " fill-opacity="1" fill-rule="nonzero"/><path fill="#101011" d="M 796.734375 65.464844 C 796.714844 64.074219 796.113281 62.9375 795.144531 62.363281 C 796.214844 60.632812 795.769531 58.265625 794.742188 56.515625 C 793.542969 54.476562 791.714844 53.328125 789.90625 53.410156 C 789.945312 51.539062 788.195312 49.882812 786.179688 49.105469 C 784.382812 48.410156 782.269531 48.390625 780.988281 49.648438 C 780.375 48.554688 779.082031 47.71875 777.421875 47.421875 C 775.390625 47.0625 772.953125 47.613281 771.574219 49.53125 C 770.800781 48.605469 769.351562 47.953125 767.632812 47.832031 C 765.378906 47.675781 762.65625 48.453125 761.308594 51.011719 C 759.941406 49.898438 757.722656 49.953125 756.128906 50.769531 C 754.757812 51.46875 753.582031 52.902344 753.972656 54.949219 C 752.636719 54.871094 751.382812 55.410156 750.4375 56.496094 C 749.082031 58.050781 748.644531 60.425781 749.394531 62.140625 C 749.929688 63.371094 750.988281 64.152344 752.414062 64.390625 C 751.894531 66.171875 752.007812 67.632812 752.757812 68.742188 C 753.648438 70.066406 755.183594 70.484375 756.007812 70.617188 L 756.023438 71.472656 C 753.550781 71.707031 751.960938 73.4375 751.628906 76.304688 C 751.171875 80.273438 754.578125 81.972656 756.207031 82.554688 L 756.738281 109.707031 C 756.742188 109.898438 756.835938 110.078125 756.996094 110.183594 C 757.085938 110.246094 762.742188 114.011719 771.1875 114.011719 C 776.390625 114.011719 782.65625 112.578125 789.328125 107.964844 C 789.488281 107.855469 789.582031 107.675781 789.582031 107.480469 L 789.582031 82.75 C 791.804688 82.164062 795.203125 80.234375 794.75 76.304688 C 794.652344 75.441406 794.441406 74.695312 794.132812 74.054688 C 794.792969 73.742188 795.402344 73.113281 795.730469 72.328125 C 795.96875 71.746094 796.339844 70.351562 795.1875 68.894531 C 796.265625 68.15625 796.75 66.707031 796.734375 65.464844 Z M 752.800781 76.4375 C 753.070312 74.132812 754.160156 72.863281 756.042969 72.65625 L 756.1875 81.285156 C 754.648438 80.660156 752.476562 79.269531 752.800781 76.4375 Z M 788.878906 81.703125 C 788.605469 81.757812 788.402344 82 788.402344 82.28125 L 788.402344 107.171875 C 772.945312 117.683594 759.871094 110.554688 757.914062 109.367188 L 757.382812 82.339844 C 757.390625 82.328125 757.398438 82.320312 757.402344 82.308594 C 757.441406 82.179688 757.421875 82.050781 757.378906 81.933594 L 757.191406 70.765625 C 758.667969 70.894531 762.042969 70.835938 764.03125 67.996094 C 765.121094 69.128906 767.023438 69.851562 769.164062 69.894531 C 771.394531 69.941406 773.367188 69.253906 774.566406 68.046875 C 775.5 69.574219 777.304688 70.769531 779.496094 71.261719 C 781.230469 71.648438 782.890625 71.515625 784.128906 70.925781 C 783.800781 74.640625 784.164062 76.605469 785.21875 76.769531 C 786.644531 76.992188 787.816406 74.269531 788.339844 72.796875 C 789.09375 72.613281 790.675781 72.378906 791.921875 73.199219 C 792.84375 73.804688 793.402344 74.894531 793.578125 76.4375 C 794.0625 80.632812 789.09375 81.660156 788.878906 81.703125 Z M 706.875 114.257812 C 708.21875 114.050781 709.96875 113.796875 711.902344 113.527344 C 719.78125 110.671875 734.046875 105.546875 739.746094 103.8125 C 739.925781 105.363281 740.214844 108.566406 740.328125 109.867188 C 740.75 109.820312 741.140625 109.773438 741.503906 109.734375 C 741.359375 108.148438 740.980469 103.953125 740.828125 102.957031 C 740.800781 102.789062 740.707031 102.640625 740.5625 102.550781 C 740.417969 102.460938 740.242188 102.433594 740.078125 102.480469 C 736.644531 103.480469 728.855469 106.199219 721.597656 108.785156 C 721.5 107.386719 721.152344 102.480469 720.535156 95.324219 C 720.511719 95.074219 720.335938 94.863281 720.089844 94.800781 C 719.847656 94.742188 719.589844 94.839844 719.453125 95.050781 C 717.277344 98.375 709.785156 108.964844 706.914062 113.011719 C 706.898438 113.484375 706.886719 113.90625 706.875 114.257812 Z M 719.503906 97.101562 C 720.09375 104.085938 720.402344 108.574219 720.441406 109.199219 C 715.179688 111.078125 710.339844 112.835938 707.839844 113.746094 C 710.363281 110.1875 716.59375 101.386719 719.503906 97.101562 Z M 765.273438 76.789062 C 765.503906 76.558594 765.5 76.183594 765.269531 75.953125 C 765.039062 75.726562 764.664062 75.730469 764.433594 75.960938 C 763.722656 76.683594 763.066406 77.03125 762.53125 76.96875 C 761.96875 76.902344 761.644531 76.386719 761.632812 76.367188 C 761.46875 76.089844 761.109375 75.996094 760.828125 76.15625 C 760.546875 76.320312 760.449219 76.679688 760.613281 76.964844 C 760.636719 77.003906 761.21875 77.988281 762.371094 78.136719 C 762.46875 78.148438 762.5625 78.15625 762.660156 78.15625 C 763.503906 78.15625 764.378906 77.695312 765.273438 76.789062 Z M 778.328125 76.164062 C 778.046875 75.996094 777.6875 76.089844 777.519531 76.367188 C 777.515625 76.375 777.191406 76.898438 776.621094 76.96875 C 776.089844 77.03125 775.429688 76.683594 774.71875 75.960938 C 774.488281 75.730469 774.113281 75.726562 773.882812 75.953125 C 773.652344 76.183594 773.648438 76.558594 773.878906 76.789062 C 774.773438 77.695312 775.648438 78.15625 776.492188 78.15625 C 776.589844 78.15625 776.6875 78.148438 776.78125 78.136719 C 777.933594 77.988281 778.515625 77.003906 778.539062 76.964844 C 778.699219 76.683594 778.605469 76.328125 778.328125 76.164062 Z M 776.84375 83.550781 C 775.5625 85.320312 774.289062 86.632812 773.046875 87.492188 C 773.523438 86.292969 773.949219 84.96875 774.28125 83.519531 C 774.351562 83.203125 774.15625 82.886719 773.835938 82.8125 C 773.519531 82.738281 773.203125 82.941406 773.128906 83.257812 C 772.652344 85.335938 771.988281 87.117188 771.261719 88.617188 C 771.257812 88.617188 771.257812 88.617188 771.257812 88.617188 C 769.507812 92.222656 767.394531 94.160156 766.65625 94.414062 C 766.511719 93.921875 766.871094 92.210938 767.191406 90.6875 C 767.402344 89.671875 767.644531 88.519531 767.882812 87.1875 C 769.082031 80.460938 768.945312 76.746094 768.9375 76.59375 C 768.925781 76.265625 768.644531 76.003906 768.324219 76.027344 C 768 76.039062 767.746094 76.316406 767.757812 76.640625 C 767.761719 76.679688 767.894531 80.394531 766.722656 86.980469 C 766.6875 87.175781 766.652344 87.359375 766.617188 87.546875 C 764.664062 86.070312 763.539062 83.675781 763.527344 83.648438 C 763.390625 83.355469 763.039062 83.226562 762.742188 83.363281 C 762.449219 83.496094 762.316406 83.847656 762.453125 84.144531 C 762.511719 84.269531 763.882812 87.195312 766.371094 88.8125 C 766.257812 89.394531 766.140625 89.9375 766.035156 90.445312 C 765.441406 93.269531 765.144531 94.691406 765.917969 95.398438 C 766.023438 95.492188 766.222656 95.625 766.53125 95.625 C 766.652344 95.625 766.785156 95.605469 766.9375 95.554688 C 768.101562 95.195312 770.394531 93.042969 772.246094 89.289062 C 774.085938 88.480469 775.953125 86.789062 777.800781 84.242188 C 777.992188 83.980469 777.933594 83.609375 777.667969 83.417969 C 777.40625 83.226562 777.035156 83.285156 776.84375 83.550781 Z M 707.589844 152.265625 C 709.113281 148.046875 712.4375 138.9375 714.570312 134.734375 C 716.09375 131.730469 718.324219 130.09375 720.535156 130.355469 C 721.464844 130.46875 722.261719 130.917969 722.804688 131.589844 C 722.921875 131.496094 723.070312 131.453125 723.226562 131.46875 C 724.410156 130.132812 726.074219 129.464844 727.757812 129.75 C 728.929688 129.945312 729.894531 130.582031 730.488281 131.492188 C 730.574219 131.460938 730.664062 131.449219 730.757812 131.460938 C 730.878906 131.480469 730.980469 131.542969 731.0625 131.617188 C 731.734375 130.976562 732.660156 130.351562 733.730469 130.472656 C 734.886719 130.601562 735.902344 131.574219 736.746094 133.363281 C 738.925781 137.984375 737.707031 148.425781 736.601562 155.878906 C 732.113281 186.128906 724.253906 208.300781 724.175781 208.519531 C 724.089844 208.761719 723.859375 208.914062 723.617188 208.914062 C 723.554688 208.914062 723.484375 208.902344 723.421875 208.878906 C 723.113281 208.769531 722.953125 208.429688 723.0625 208.125 C 723.140625 207.90625 730.964844 185.832031 735.433594 155.707031 C 736.058594 151.5 737.957031 138.699219 735.679688 133.867188 C 735.03125 132.492188 734.3125 131.722656 733.597656 131.644531 C 732.539062 131.527344 731.484375 132.867188 731.085938 133.371094 C 731.078125 133.382812 731.070312 133.386719 731.0625 133.398438 C 730.757812 135.40625 730.167969 139.195312 729.894531 140.421875 C 729.832031 140.699219 729.589844 140.886719 729.316406 140.886719 C 729.273438 140.886719 729.234375 140.878906 729.1875 140.871094 C 728.871094 140.800781 728.671875 140.484375 728.742188 140.167969 C 729.007812 138.976562 729.601562 135.152344 729.902344 133.171875 C 729.699219 131.984375 728.8125 131.121094 727.566406 130.914062 C 726.320312 130.703125 724.496094 131.195312 723.414062 133.25 L 721.449219 139.726562 C 721.371094 139.980469 721.136719 140.144531 720.882812 140.144531 C 720.828125 140.144531 720.769531 140.136719 720.710938 140.121094 C 720.398438 140.027344 720.222656 139.695312 720.320312 139.386719 L 722.25 133.019531 C 722 132.214844 721.289062 131.636719 720.394531 131.527344 C 718.695312 131.324219 716.910156 132.722656 715.621094 135.265625 C 713.445312 139.558594 710.011719 149.019531 708.546875 153.078125 Z M 854.910156 112.792969 C 854.464844 110.660156 853.273438 104.992188 848.394531 105.703125 C 846.765625 105.941406 845.785156 106.742188 845.207031 107.800781 C 844.523438 107.175781 843.3125 106.4375 841.515625 106.605469 C 840.46875 106.707031 839.617188 107.066406 838.980469 107.671875 C 838.222656 102.242188 836.480469 99.171875 834.613281 99.234375 C 832.496094 99.300781 830.210938 101.207031 829.722656 103.730469 C 829.238281 106.234375 829.757812 113.636719 829.890625 115.011719 C 828.648438 115.5625 827.753906 116.375 827.519531 117.496094 C 826.820312 120.835938 828.570312 128.757812 829.511719 132.585938 C 829.511719 132.597656 829.507812 132.605469 829.507812 132.617188 C 829.515625 132.855469 830.261719 156.75 832.097656 172.132812 C 832.132812 172.429688 832.386719 172.652344 832.683594 172.652344 C 832.707031 172.652344 832.730469 172.648438 832.753906 172.648438 C 833.078125 172.609375 833.308594 172.316406 833.269531 171.992188 C 831.441406 156.664062 830.695312 132.820312 830.6875 132.582031 C 830.6875 132.582031 830.5625 131.859375 830.28125 130.9375 C 829.351562 126.882812 828.105469 120.457031 828.675781 117.738281 C 829.054688 115.910156 832.625 115.136719 835.953125 115.320312 C 839.640625 115.527344 842.421875 116.785156 842.566406 118.3125 C 842.625 118.921875 842.457031 119.417969 842.050781 119.824219 C 840.585938 121.292969 836.484375 121.257812 835.023438 121.121094 C 834.699219 121.089844 834.414062 121.328125 834.382812 121.652344 C 834.351562 121.980469 834.589844 122.265625 834.914062 122.296875 C 835.070312 122.3125 837.515625 122.523438 839.792969 122.066406 C 840.351562 122.242188 843.121094 123.339844 843.800781 127.796875 C 843.851562 128.117188 844.152344 128.339844 844.472656 128.289062 C 844.578125 128.273438 844.675781 128.230469 844.753906 128.167969 C 844.910156 128.039062 845 127.832031 844.96875 127.617188 C 844.433594 124.117188 842.722656 122.394531 841.449219 121.574219 C 842.003906 121.339844 842.5 121.042969 842.886719 120.65625 C 843.472656 120.070312 843.765625 119.347656 843.757812 118.515625 C 843.769531 118.507812 843.78125 118.503906 843.792969 118.496094 C 843.796875 118.492188 843.804688 118.488281 843.808594 118.480469 C 844.410156 117.960938 844.902344 117.214844 845.277344 116.253906 C 845.980469 117.488281 847.183594 118.359375 848.453125 118.414062 C 849.398438 118.453125 851.691406 118.046875 852.589844 113.480469 C 852.652344 113.160156 852.445312 112.847656 852.125 112.785156 C 851.804688 112.722656 851.496094 112.929688 851.433594 113.25 C 850.921875 115.839844 849.855469 117.289062 848.503906 117.234375 C 847.234375 117.183594 846.015625 115.820312 845.839844 114.261719 C 845.597656 112.109375 845.554688 110.351562 845.949219 109.082031 C 845.953125 109.0625 845.964844 109.042969 845.96875 109.023438 C 846.359375 107.828125 847.152344 107.078125 848.566406 106.871094 C 851.214844 106.484375 852.769531 108.328125 853.757812 113.035156 C 854.335938 115.804688 855.730469 128.398438 856.300781 133.554688 C 856.539062 133.460938 857.277344 132.953125 857.4375 132.800781 C 856.898438 127.902344 855.53125 115.738281 854.910156 112.792969 Z M 837.652344 114.3125 C 837.105469 114.230469 836.554688 114.171875 836.019531 114.144531 C 834.296875 114.046875 832.523438 114.191406 831.039062 114.605469 C 830.882812 112.917969 830.460938 106.128906 830.882812 103.957031 C 831.257812 102.007812 833.003906 100.320312 834.539062 100.410156 C 836.683594 100.539062 837.628906 104.980469 837.960938 109.28125 C 837.453125 110.691406 837.480469 112.484375 837.652344 114.3125 Z M 844.644531 114.1875 C 844.378906 115.484375 843.960938 116.5 843.425781 117.171875 C 842.703125 115.828125 840.882812 114.984375 838.863281 114.535156 C 838.679688 112.816406 838.609375 111.128906 839.003906 109.871094 C 839.101562 109.761719 839.160156 109.617188 839.15625 109.460938 C 839.269531 109.203125 839.40625 108.964844 839.570312 108.761719 C 840.035156 108.1875 840.707031 107.871094 841.625 107.78125 C 843.375 107.617188 844.378906 108.574219 844.738281 109.007812 C 844.285156 110.71875 844.480469 112.734375 844.644531 114.1875 Z M 819.199219 178.808594 C 818.902344 178.808594 818.644531 178.582031 818.613281 178.277344 L 815.625 149.15625 C 815.589844 148.832031 815.828125 148.542969 816.152344 148.511719 C 816.476562 148.472656 816.765625 148.710938 816.796875 149.035156 L 819.789062 178.15625 C 819.820312 178.480469 819.585938 178.773438 819.261719 178.804688 C 819.242188 178.808594 819.21875 178.808594 819.199219 178.808594 Z M 819.199219 178.808594 " fill-opacity="1" fill-rule="nonzero"/><path fill="#fbbe28" d="M 684.601562 171.265625 C 684.601562 171.265625 674.824219 177.402344 666.414062 177.402344 C 666.222656 177.457031 665.988281 177.566406 665.730469 177.71875 C 663.988281 173.925781 659.863281 164.828125 658.003906 159.789062 C 655.617188 153.308594 652.324219 136.601562 651.300781 133.078125 C 650.277344 129.554688 651.1875 126.714844 648.230469 126.601562 C 645.277344 126.488281 645.164062 143.535156 645.164062 143.535156 C 645.164062 143.535156 639.527344 141.976562 638.230469 142.398438 C 636.933594 142.824219 635.652344 147.660156 635.652344 147.660156 C 635.652344 147.660156 631.753906 148.082031 631.867188 152.058594 C 631.980469 156.039062 632.828125 160.457031 635.195312 160.359375 C 638.039062 160.242188 637.585938 155.507812 637.585938 155.507812 L 639.746094 155.679688 C 639.746094 155.679688 639.59375 168.3125 643.34375 180.8125 C 645.730469 188.765625 647.175781 192.324219 648.496094 194.414062 C 653.117188 201.308594 657.625 205.4375 657.625 205.4375 C 657.625 205.4375 614.4375 209.605469 583.070312 204.832031 C 582.390625 198.46875 582.3125 139.445312 582.3125 139.445312 L 569.472656 133.875 C 569.472656 133.875 574.984375 121.488281 585.949219 113.53125 C 586.179688 117.851562 588.601562 123.609375 597.695312 123.304688 C 606.785156 123.003906 610.347656 117.394531 609.742188 112.925781 C 609.136719 108.457031 607.203125 102.960938 607.203125 102.960938 C 607.203125 102.960938 620.160156 108.984375 636.296875 101.9375 C 634.480469 108.984375 631.070312 117.625 637.207031 120.351562 C 643.34375 123.078125 651.1875 123.648438 654.140625 120.578125 C 657.097656 117.507812 657.171875 114.515625 657.171875 114.515625 C 657.171875 114.515625 671.417969 127.625 678.234375 148.535156 C 685.054688 169.449219 684.601562 171.265625 684.601562 171.265625 Z M 684.601562 171.265625 C 684.601562 171.265625 674.824219 177.402344 666.414062 177.402344 C 666.222656 177.457031 665.988281 177.566406 665.730469 177.71875 C 663.988281 173.925781 659.863281 164.828125 658.003906 159.789062 C 655.617188 153.308594 652.324219 136.601562 651.300781 133.078125 C 650.277344 129.554688 651.1875 126.714844 648.230469 126.601562 C 645.277344 126.488281 645.164062 143.535156 645.164062 143.535156 C 645.164062 143.535156 639.527344 141.976562 638.230469 142.398438 C 636.933594 142.824219 635.652344 147.660156 635.652344 147.660156 C 635.652344 147.660156 631.753906 148.082031 631.867188 152.058594 C 631.980469 156.039062 632.828125 160.457031 635.195312 160.359375 C 638.039062 160.242188 637.585938 155.507812 637.585938 155.507812 L 639.746094 155.679688 C 639.746094 155.679688 639.59375 168.3125 643.34375 180.8125 C 645.730469 188.765625 647.175781 192.324219 648.496094 194.414062 C 653.117188 201.308594 657.625 205.4375 657.625 205.4375 C 657.625 205.4375 614.4375 209.605469 583.070312 204.832031 C 582.390625 198.46875 582.3125 139.445312 582.3125 139.445312 L 569.472656 133.875 C 569.472656 133.875 574.984375 121.488281 585.949219 113.53125 C 586.179688 117.851562 588.601562 123.609375 597.695312 123.304688 C 606.785156 123.003906 610.347656 117.394531 609.742188 112.925781 C 609.136719 108.457031 607.203125 102.960938 607.203125 102.960938 C 607.203125 102.960938 620.160156 108.984375 636.296875 101.9375 C 634.480469 108.984375 631.070312 117.625 637.207031 120.351562 C 643.34375 123.078125 651.1875 123.648438 654.140625 120.578125 C 657.097656 117.507812 657.171875 114.515625 657.171875 114.515625 C 657.171875 114.515625 671.417969 127.625 678.234375 148.535156 C 685.054688 169.449219 684.601562 171.265625 684.601562 171.265625 Z M 684.601562 171.265625 " fill-opacity="1" fill-rule="nonzero"/><path fill="#399be6" d="M 601.863281 184.527344 C 601.542969 184.714844 586.367188 185.4375 568.800781 186.214844 C 567.679688 184.566406 565.007812 180.566406 564.074219 178.652344 C 562.878906 176.210938 558.730469 176.039062 557.820312 179.164062 C 556.628906 178.027344 551.796875 177.175781 551.058594 180.699219 C 549.128906 178.9375 544.523438 180.472656 544.921875 186.496094 C 544.941406 186.757812 544.976562 186.996094 545.011719 187.238281 C 528.820312 187.925781 515.421875 188.464844 515.183594 188.464844 C 514.578125 188.464844 512.910156 136.1875 513.515625 135.882812 C 514.125 135.578125 599.890625 132.699219 599.890625 133.308594 C 599.890625 133.308594 602.621094 184.070312 601.863281 184.527344 Z M 601.863281 184.527344 C 601.542969 184.714844 586.367188 185.4375 568.800781 186.214844 C 567.679688 184.566406 565.007812 180.566406 564.074219 178.652344 C 562.878906 176.210938 558.730469 176.039062 557.820312 179.164062 C 556.628906 178.027344 551.796875 177.175781 551.058594 180.699219 C 549.128906 178.9375 544.523438 180.472656 544.921875 186.496094 C 544.941406 186.757812 544.976562 186.996094 545.011719 187.238281 C 528.820312 187.925781 515.421875 188.464844 515.183594 188.464844 C 514.578125 188.464844 512.910156 136.1875 513.515625 135.882812 C 514.125 135.578125 599.890625 132.699219 599.890625 133.308594 C 599.890625 133.308594 602.621094 184.070312 601.863281 184.527344 Z M 601.863281 184.527344 " fill-opacity="1" fill-rule="nonzero"/><path fill="#2e3192" d="M 541.996094 173.90625 C 542.015625 174.308594 541.707031 174.648438 541.308594 174.667969 L 531.425781 175.140625 C 531.417969 175.144531 531.410156 175.144531 531.398438 175.144531 C 531.011719 175.148438 530.683594 174.84375 530.664062 174.453125 C 530.644531 174.050781 530.957031 173.710938 531.355469 173.691406 L 535.367188 173.5 L 534.234375 150.066406 L 532.210938 152.863281 C 531.976562 153.191406 531.523438 153.261719 531.195312 153.027344 C 530.871094 152.792969 530.796875 152.339844 531.035156 152.015625 L 534.269531 147.539062 C 534.449219 147.285156 534.769531 147.179688 535.0625 147.265625 C 535.359375 147.355469 535.566406 147.621094 535.582031 147.929688 L 536.816406 173.429688 L 541.238281 173.214844 C 541.636719 173.179688 541.980469 173.507812 541.996094 173.90625 Z M 541.996094 173.90625 C 542.015625 174.308594 541.707031 174.648438 541.308594 174.667969 L 531.425781 175.140625 C 531.417969 175.144531 531.410156 175.144531 531.398438 175.144531 C 531.011719 175.148438 530.683594 174.84375 530.664062 174.453125 C 530.644531 174.050781 530.957031 173.710938 531.355469 173.691406 L 535.367188 173.5 L 534.234375 150.066406 L 532.210938 152.863281 C 531.976562 153.191406 531.523438 153.261719 531.195312 153.027344 C 530.871094 152.792969 530.796875 152.339844 531.035156 152.015625 L 534.269531 147.539062 C 534.449219 147.285156 534.769531 147.179688 535.0625 147.265625 C 535.359375 147.355469 535.566406 147.621094 535.582031 147.929688 L 536.816406 173.429688 L 541.238281 173.214844 C 541.636719 173.179688 541.980469 173.507812 541.996094 173.90625 Z M 541.996094 173.90625 " fill-opacity="1" fill-rule="nonzero"/><path fill="#b7303a" d="M 586.796875 172.539062 C 586.804688 172.9375 586.484375 173.269531 586.082031 173.277344 C 586.050781 173.277344 582.777344 173.339844 578.4375 173.523438 C 578.425781 173.523438 578.414062 173.523438 578.40625 173.523438 C 578.167969 173.523438 577.949219 173.410156 577.8125 173.214844 C 577.667969 173.011719 577.640625 172.75 577.734375 172.519531 C 580.511719 165.75 585.175781 151.890625 582.929688 147.925781 C 582.628906 147.394531 582.226562 147.105469 581.660156 147.019531 C 580.804688 146.886719 580.148438 147.054688 579.660156 147.527344 C 578.378906 148.769531 578.429688 151.859375 578.558594 152.945312 C 578.605469 153.34375 578.320312 153.703125 577.921875 153.753906 C 577.527344 153.796875 577.164062 153.515625 577.113281 153.117188 C 577.09375 152.929688 576.585938 148.484375 578.648438 146.484375 C 579.476562 145.6875 580.5625 145.382812 581.878906 145.582031 C 582.878906 145.734375 583.679688 146.296875 584.195312 147.210938 C 586.988281 152.144531 581.265625 167.539062 579.496094 172.027344 C 583.289062 171.875 586.027344 171.824219 586.058594 171.824219 C 586.445312 171.820312 586.789062 172.136719 586.796875 172.539062 Z M 586.796875 172.539062 C 586.804688 172.9375 586.484375 173.269531 586.082031 173.277344 C 586.050781 173.277344 582.777344 173.339844 578.4375 173.523438 C 578.425781 173.523438 578.414062 173.523438 578.40625 173.523438 C 578.167969 173.523438 577.949219 173.410156 577.8125 173.214844 C 577.667969 173.011719 577.640625 172.75 577.734375 172.519531 C 580.511719 165.75 585.175781 151.890625 582.929688 147.925781 C 582.628906 147.394531 582.226562 147.105469 581.660156 147.019531 C 580.804688 146.886719 580.148438 147.054688 579.660156 147.527344 C 578.378906 148.769531 578.429688 151.859375 578.558594 152.945312 C 578.605469 153.34375 578.320312 153.703125 577.921875 153.753906 C 577.527344 153.796875 577.164062 153.515625 577.113281 153.117188 C 577.09375 152.929688 576.585938 148.484375 578.648438 146.484375 C 579.476562 145.6875 580.5625 145.382812 581.878906 145.582031 C 582.878906 145.734375 583.679688 146.296875 584.195312 147.210938 C 586.988281 152.144531 581.265625 167.539062 579.496094 172.027344 C 583.289062 171.875 586.027344 171.824219 586.058594 171.824219 C 586.445312 171.820312 586.789062 172.136719 586.796875 172.539062 Z M 586.796875 172.539062 " fill-opacity="1" fill-rule="nonzero"/><g clip-path="url(#ff5bc0c277)"><path fill="#101011" d="M 657.890625 114.414062 C 657.585938 112.308594 656.667969 111.195312 655.777344 110.117188 C 654.613281 108.699219 653.511719 107.363281 653.65625 103.480469 C 653.703125 102.136719 654.058594 101.160156 654.433594 100.125 C 655.164062 98.097656 655.917969 96.007812 654.691406 91.300781 C 654.128906 89.136719 653.53125 88.015625 653.003906 87.027344 C 651.847656 84.867188 650.851562 83 650.851562 69.359375 C 650.851562 63.167969 648.8125 57.898438 644.953125 54.117188 C 640.121094 49.378906 632.761719 47.070312 623.0625 47.265625 C 603.523438 47.65625 599.125 56.378906 597.398438 64.859375 C 596.40625 69.742188 596.5625 75.96875 596.699219 81.46875 C 596.804688 85.609375 596.902344 89.523438 596.449219 91.875 C 596.015625 94.15625 595.078125 95.101562 594.089844 96.101562 C 592.777344 97.425781 591.421875 98.796875 591.285156 102.824219 C 591.195312 105.605469 589.878906 106.644531 588.355469 107.847656 C 586.5 109.3125 584.394531 110.972656 585.15625 115.914062 C 585.734375 119.648438 589.109375 122.492188 594.191406 123.523438 C 595.359375 123.761719 596.617188 123.890625 597.898438 123.890625 C 602.152344 123.890625 606.644531 122.472656 608.84375 118.914062 C 612.007812 113.800781 609.863281 108.226562 608.144531 103.75 C 607.265625 101.464844 606.4375 99.308594 606.453125 97.625 C 606.519531 88.902344 607.007812 72.777344 607.113281 69.402344 C 609.429688 69.085938 617.234375 67.492188 621.039062 60.257812 C 622.652344 66.964844 627.488281 70.878906 635.441406 71.90625 C 635.5625 71.921875 635.683594 71.90625 635.792969 71.863281 C 635.828125 71.847656 639.453125 70.503906 641.851562 71.785156 C 642.863281 72.320312 643.503906 73.238281 643.820312 74.585938 C 644.363281 76.902344 643.832031 78.914062 642.328125 80.25 C 641.0625 81.375 639.246094 81.867188 637.546875 81.613281 C 637.421875 81.53125 637.269531 81.488281 637.109375 81.496094 C 637.078125 81.496094 637.046875 81.5 637.019531 81.507812 C 636.835938 81.460938 636.65625 81.40625 636.476562 81.339844 C 636.101562 81.203125 635.683594 81.398438 635.546875 81.773438 C 635.410156 82.152344 635.605469 82.570312 635.980469 82.707031 C 636.140625 82.761719 636.300781 82.816406 636.460938 82.859375 C 636.585938 85.019531 637.011719 92.433594 637.105469 95.257812 C 637.171875 97.132812 636.609375 99.457031 635.761719 102.976562 C 635.175781 105.40625 634.449219 108.429688 633.730469 112.183594 C 633.484375 113.453125 632.914062 116.425781 634.816406 118.988281 C 636.648438 121.457031 640.34375 122.996094 645.804688 123.574219 C 650.019531 124.015625 653.710938 122.949219 655.925781 120.640625 C 657.53125 118.972656 658.230469 116.757812 657.890625 114.414062 Z M 682.832031 172.261719 C 683.5625 176.097656 686.398438 193.40625 680.242188 202.808594 C 678.175781 205.96875 675.257812 207.941406 671.578125 208.664062 C 666.734375 209.621094 662.078125 208.292969 657.742188 204.726562 C 647.558594 196.355469 640.167969 176.003906 640.167969 156.339844 C 640.167969 156.058594 640.003906 155.800781 639.746094 155.679688 L 637.777344 154.773438 C 637.53125 154.65625 637.238281 154.691406 637.023438 154.859375 C 636.808594 155.027344 636.707031 155.304688 636.761719 155.570312 C 636.878906 156.171875 637.027344 157.945312 636.3125 158.941406 C 636 159.378906 635.554688 159.628906 634.949219 159.710938 C 634.519531 159.769531 634.175781 159.625 633.855469 159.253906 C 632.371094 157.554688 632.328125 152.574219 632.867188 150.625 C 633.457031 148.507812 635.308594 147.777344 635.652344 147.660156 C 636.152344 147.613281 639.539062 147.371094 642.125 148.792969 C 642.234375 148.855469 642.355469 148.882812 642.472656 148.882812 C 642.730469 148.882812 642.976562 148.746094 643.109375 148.507812 C 643.300781 148.15625 643.175781 147.714844 642.824219 147.519531 C 640.625 146.3125 638.027344 146.144531 636.566406 146.164062 C 636.859375 145.472656 637.335938 144.542969 638.011719 143.792969 C 638.648438 143.089844 642.136719 143.492188 645 144.308594 C 645.21875 144.371094 645.453125 144.328125 645.636719 144.191406 C 645.816406 144.058594 645.925781 143.84375 645.925781 143.617188 C 645.925781 143.574219 645.96875 139.3125 646.378906 135.113281 C 647.128906 127.429688 648.371094 127.214844 648.382812 127.214844 C 649.742188 127.214844 650.25 130.324219 650.953125 134.632812 C 651.386719 137.277344 651.925781 140.570312 652.832031 144.242188 C 661.121094 177.398438 670.800781 187.21875 671.210938 187.617188 C 671.496094 187.898438 671.953125 187.894531 672.234375 187.613281 C 672.515625 187.328125 672.515625 186.867188 672.230469 186.585938 C 672.132812 186.488281 662.40625 176.558594 654.238281 143.890625 C 653.347656 140.277344 652.816406 137.015625 652.386719 134.394531 C 651.507812 129.011719 650.976562 125.761719 648.382812 125.761719 C 647.195312 125.761719 645.726562 126.808594 644.933594 134.980469 C 644.632812 138.058594 644.527344 141.164062 644.492188 142.667969 C 642.339844 142.128906 638.253906 141.355469 636.933594 142.824219 C 635.804688 144.078125 635.164062 145.679688 634.921875 146.386719 C 634.089844 146.734375 632.148438 147.785156 631.46875 150.234375 C 630.839844 152.507812 630.847656 158.019531 632.761719 160.207031 C 633.40625 160.949219 634.230469 161.277344 635.144531 161.152344 C 636.15625 161.011719 636.949219 160.550781 637.496094 159.78125 C 638.183594 158.820312 638.324219 157.558594 638.308594 156.617188 L 638.71875 156.804688 C 638.828125 173.949219 645.042969 196.164062 656.820312 205.847656 C 660.515625 208.890625 664.445312 210.421875 668.535156 210.421875 C 669.632812 210.421875 670.742188 210.308594 671.859375 210.089844 C 675.9375 209.285156 679.167969 207.105469 681.460938 203.605469 C 688.289062 193.164062 684.757812 174.371094 684.167969 171.523438 C 683.71875 171.789062 683.183594 172.089844 682.832031 172.261719 Z M 582.890625 201.519531 C 581.0625 205.105469 577.566406 208.882812 570.90625 209.257812 C 555.546875 210.109375 546.089844 193.023438 545.609375 185.839844 C 545.460938 183.628906 546.136719 181.78125 547.375 181.019531 C 548.183594 180.523438 549.148438 180.546875 550.179688 181.082031 C 550.582031 182.503906 552.390625 188.375 555.351562 191.015625 C 555.488281 191.136719 555.660156 191.199219 555.832031 191.199219 C 556.03125 191.199219 556.230469 191.117188 556.375 190.957031 C 556.640625 190.65625 556.617188 190.199219 556.316406 189.929688 C 553.636719 187.539062 551.894531 181.804688 551.558594 180.621094 C 551.925781 179.644531 552.828125 178.980469 554.015625 178.839844 C 555.304688 178.683594 556.5 179.191406 557.097656 180.132812 C 557.320312 180.953125 558.683594 185.46875 562.128906 188.550781 C 562.269531 188.675781 562.441406 188.738281 562.613281 188.738281 C 562.8125 188.738281 563.011719 188.65625 563.15625 188.496094 C 563.421875 188.195312 563.398438 187.738281 563.097656 187.46875 C 560.058594 184.75 558.757812 180.648438 558.515625 179.8125 C 558.800781 178.507812 559.539062 177.71875 560.613281 177.59375 C 561.734375 177.464844 562.890625 178.09375 563.3125 179.058594 C 564.453125 181.660156 571.363281 191.574219 574.691406 194.75 C 574.980469 195.027344 575.441406 195.015625 575.71875 194.726562 C 575.992188 194.433594 575.984375 193.976562 575.691406 193.699219 C 572.34375 190.5 565.609375 180.683594 564.644531 178.476562 C 563.964844 176.925781 562.203125 175.953125 560.445312 176.152344 C 560.28125 176.171875 560.117188 176.199219 559.960938 176.238281 L 558.035156 134.941406 C 558.019531 134.539062 557.675781 134.238281 557.277344 134.25 C 556.875 134.265625 556.566406 134.605469 556.585938 135.007812 L 558.539062 176.964844 C 558.097656 177.332031 557.730469 177.808594 557.464844 178.382812 C 556.511719 177.605469 555.203125 177.234375 553.839844 177.398438 C 552.332031 177.578125 551.085938 178.394531 550.429688 179.589844 C 549.082031 179.023438 547.75 179.085938 546.613281 179.785156 C 544.890625 180.84375 543.972656 183.144531 544.160156 185.9375 C 544.65625 193.347656 554.207031 210.742188 569.800781 210.742188 C 570.191406 210.742188 570.589844 210.730469 570.988281 210.707031 C 577.097656 210.363281 580.789062 207.347656 583.011719 204.050781 C 582.972656 203.175781 582.921875 202.140625 582.890625 201.519531 Z M 636.867188 192.222656 C 636.765625 192.222656 636.667969 192.203125 636.570312 192.160156 C 617.71875 183.753906 606.359375 165.695312 606.246094 165.511719 C 606.035156 165.171875 606.140625 164.722656 606.480469 164.511719 C 606.820312 164.300781 607.269531 164.40625 607.480469 164.746094 C 607.589844 164.921875 618.726562 182.613281 637.160156 190.832031 C 637.527344 190.996094 637.691406 191.425781 637.53125 191.792969 C 637.410156 192.0625 637.144531 192.222656 636.867188 192.222656 Z M 611.988281 79.925781 C 611.632812 80.109375 611.488281 80.542969 611.671875 80.902344 C 611.738281 81.039062 613.34375 84.140625 616.128906 85.972656 C 615.964844 87.125 615.78125 88.125 615.625 88.960938 C 615.1875 91.316406 614.925781 92.738281 616.054688 93.367188 C 616.277344 93.492188 616.542969 93.550781 616.832031 93.550781 C 617.261719 93.550781 617.742188 93.421875 618.226562 93.164062 C 619.175781 92.660156 621.023438 91.167969 622.410156 86.925781 C 624.726562 86.175781 627.03125 84.230469 629.273438 81.109375 C 629.507812 80.785156 629.433594 80.332031 629.105469 80.097656 C 628.78125 79.863281 628.328125 79.9375 628.09375 80.261719 C 626.359375 82.675781 624.625 84.304688 622.921875 85.152344 C 623.363281 83.398438 623.726562 81.277344 623.953125 78.703125 C 623.988281 78.304688 623.691406 77.953125 623.292969 77.917969 C 622.886719 77.882812 622.539062 78.179688 622.503906 78.578125 C 622.230469 81.726562 621.75 84.136719 621.195312 85.988281 C 621.140625 86.082031 621.113281 86.1875 621.101562 86.296875 C 619.964844 89.902344 618.527344 91.257812 617.78125 91.742188 C 617.191406 92.125 616.8125 92.113281 616.761719 92.101562 C 616.566406 91.851562 616.835938 90.398438 617.054688 89.226562 C 617.253906 88.148438 617.503906 86.808594 617.699219 85.207031 C 618.265625 80.542969 618.054688 74.222656 618.042969 73.957031 C 618.03125 73.554688 617.6875 73.242188 617.292969 73.253906 C 616.890625 73.269531 616.578125 73.605469 616.59375 74.007812 C 616.59375 74.066406 616.789062 79.855469 616.332031 84.335938 C 614.230469 82.6875 612.980469 80.269531 612.964844 80.242188 C 612.78125 79.886719 612.347656 79.746094 611.988281 79.925781 Z M 611.996094 74.417969 C 612.769531 74.417969 613.398438 73.789062 613.398438 73.015625 C 613.398438 72.242188 612.769531 71.613281 611.996094 71.613281 C 611.222656 71.613281 610.59375 72.242188 610.59375 73.015625 C 610.59375 73.789062 611.222656 74.417969 611.996094 74.417969 Z M 626.46875 74.191406 C 627.242188 74.191406 627.867188 73.5625 627.867188 72.789062 C 627.867188 72.011719 627.242188 71.386719 626.46875 71.386719 C 625.691406 71.386719 625.066406 72.011719 625.066406 72.789062 C 625.066406 73.5625 625.691406 74.191406 626.46875 74.191406 Z M 636.457031 107.980469 C 636.277344 107.621094 635.84375 107.476562 635.480469 107.652344 C 622.242188 114.238281 607.75 108.152344 607.605469 108.089844 C 607.234375 107.933594 606.808594 108.101562 606.648438 108.472656 C 606.492188 108.839844 606.660156 109.265625 607.03125 109.425781 C 607.425781 109.597656 613.628906 112.207031 621.695312 112.207031 C 626.160156 112.207031 631.195312 111.40625 636.128906 108.953125 C 636.488281 108.773438 636.632812 108.339844 636.457031 107.980469 Z M 640.921875 75.160156 C 641.324219 75.199219 641.671875 74.910156 641.714844 74.515625 C 641.757812 74.117188 641.46875 73.757812 641.070312 73.714844 C 639.769531 73.582031 636.941406 74.273438 635.558594 77.878906 C 635.414062 78.253906 635.601562 78.671875 635.976562 78.816406 C 636.0625 78.851562 636.148438 78.867188 636.234375 78.867188 C 636.527344 78.867188 636.804688 78.6875 636.914062 78.398438 C 637.175781 77.714844 637.492188 77.179688 637.824219 76.75 C 638.03125 77 638.574219 77.753906 638.371094 78.722656 C 638.289062 79.113281 638.542969 79.5 638.9375 79.582031 C 638.984375 79.589844 639.035156 79.597656 639.082031 79.597656 C 639.421875 79.597656 639.722656 79.359375 639.792969 79.019531 C 640.132812 77.382812 639.226562 76.152344 638.886719 75.761719 C 639.914062 75.09375 640.851562 75.15625 640.921875 75.160156 Z M 640.921875 75.160156 " fill-opacity="1" fill-rule="nonzero"/></g><g clip-path="url(#b9d13839ae)"><g clip-path="url(#873e8e65d2)"><path fill="#000000" d="M 146.914062 199.949219 L 880.136719 199.949219 L 880.136719 321.757812 L 146.914062 321.757812 Z M 146.914062 199.949219 " fill-opacity="1" fill-rule="nonzero"/></g></g><g clip-path="url(#261fca9f91)"><g clip-path="url(#06f1c4f525)"><path fill="#000000" d="M 146.914062 199.949219 L 880.136719 199.949219 L 880.136719 321.757812 L 146.914062 321.757812 Z M 146.914062 199.949219 " fill-opacity="1" fill-rule="nonzero"/></g></g><g clip-path="url(#048e15ae29)"><g clip-path="url(#bdc90435ab)"><path fill="#ffffff" d="M 144.078125 199.949219 L 870.5 199.949219 L 870.5 315.816406 L 144.078125 315.816406 Z M 144.078125 199.949219 " fill-opacity="1" fill-rule="nonzero"/></g></g><g clip-path="url(#cbe495514f)"><g clip-path="url(#970702fece)"><path fill="#000000" d="M 144.078125 199.949219 L 870.5 199.949219 L 870.5 315.816406 L 144.078125 315.816406 Z M 144.078125 199.949219 " fill-opacity="1" fill-rule="nonzero"/></g></g></svg>