<svg xmlns="http://www.w3.org/2000/svg" xmlns:xlink="http://www.w3.org/1999/xlink" width="1366" zoomAndPan="magnify" viewBox="0 0 1024.5 576" height="768" preserveAspectRatio="xMidYMid meet" version="1.0"><defs><g/><clipPath id="080c3bd0c5"><path d="M 0 0.140625 L 1024 0.140625 L 1024 575.859375 L 0 575.859375 Z M 0 0.140625 " clip-rule="nonzero"/></clipPath><clipPath id="36fcaa1cf7"><path d="M 167 82 L 343.320312 82 L 343.320312 273 L 167 273 Z M 167 82 " clip-rule="nonzero"/></clipPath><clipPath id="f2a481b750"><path d="M 74 261.242188 L 965 261.242188 L 965 493.535156 L 74 493.535156 Z M 74 261.242188 " clip-rule="nonzero"/></clipPath><clipPath id="399a9e6b83"><path d="M 959.667969 493.300781 L 79.167969 493.300781 C 76.410156 493.300781 74.132812 491.023438 74.132812 488.265625 L 74.132812 266.625 C 74.132812 263.863281 76.410156 261.589844 79.167969 261.589844 L 959.597656 261.589844 C 962.359375 261.589844 964.636719 263.863281 964.636719 266.625 L 964.636719 488.195312 C 964.703125 491.023438 962.425781 493.300781 959.667969 493.300781 Z M 959.667969 493.300781 " clip-rule="nonzero"/></clipPath><clipPath id="49c95d5eba"><path d="M 72.410156 259.863281 L 966.429688 259.863281 L 966.429688 495 L 72.410156 495 Z M 72.410156 259.863281 " clip-rule="nonzero"/></clipPath><clipPath id="7cd143e259"><path d="M 959.667969 263.105469 C 961.601562 263.105469 963.1875 264.691406 963.1875 266.625 L 963.1875 488.265625 C 963.1875 490.195312 961.601562 491.785156 959.667969 491.785156 L 79.167969 491.785156 C 77.238281 491.785156 75.652344 490.195312 75.652344 488.265625 L 75.652344 266.625 C 75.652344 264.691406 77.238281 263.105469 79.167969 263.105469 L 959.667969 263.105469 M 959.667969 259.863281 L 79.167969 259.863281 C 75.445312 259.863281 72.410156 262.898438 72.410156 266.625 L 72.410156 488.265625 C 72.410156 491.992188 75.445312 495.023438 79.167969 495.023438 L 959.667969 495.023438 C 963.394531 495.023438 966.429688 491.992188 966.429688 488.265625 L 966.429688 266.625 C 966.429688 262.898438 963.394531 259.863281 959.667969 259.863281 Z M 959.667969 259.863281 " clip-rule="nonzero"/></clipPath><clipPath id="b9b8808bcd"><path d="M 59.617188 251.359375 L 953.414062 251.359375 L 953.414062 482.550781 L 59.617188 482.550781 Z M 59.617188 251.359375 " clip-rule="nonzero"/></clipPath><clipPath id="5642893bce"><path d="M 948.289062 482.203125 L 65 482.203125 C 62.242188 482.203125 59.964844 479.925781 59.964844 477.167969 L 59.964844 256.742188 C 59.964844 253.984375 62.242188 251.707031 65 251.707031 L 948.21875 251.707031 C 950.976562 251.707031 953.253906 253.984375 953.253906 256.742188 L 953.253906 477.097656 C 953.324219 479.925781 951.046875 482.203125 948.289062 482.203125 Z M 948.289062 482.203125 " clip-rule="nonzero"/></clipPath><clipPath id="613334642c"><path d="M 58.238281 249.984375 L 955 249.984375 L 955 483.925781 L 58.238281 483.925781 Z M 58.238281 249.984375 " clip-rule="nonzero"/></clipPath><clipPath id="e455544823"><path d="M 948.289062 253.226562 C 950.21875 253.226562 951.804688 254.8125 951.804688 256.742188 L 951.804688 477.167969 C 951.804688 479.097656 950.21875 480.683594 948.289062 480.683594 L 65 480.683594 C 63.066406 480.683594 61.480469 479.097656 61.480469 477.167969 L 61.480469 256.742188 C 61.480469 254.8125 63.066406 253.226562 65 253.226562 L 948.289062 253.226562 M 948.289062 249.984375 L 65 249.984375 C 61.273438 249.984375 58.238281 253.019531 58.238281 256.742188 L 58.238281 477.167969 C 58.238281 480.890625 61.273438 483.925781 65 483.925781 L 948.289062 483.925781 C 952.011719 483.925781 955.046875 480.890625 955.046875 477.167969 L 955.046875 256.742188 C 955.046875 253.019531 952.011719 249.984375 948.289062 249.984375 Z M 948.289062 249.984375 " clip-rule="nonzero"/></clipPath></defs><g clip-path="url(#080c3bd0c5)"><path fill="#ffffff" d="M 0 0.140625 L 1024 0.140625 L 1024 575.859375 L 0 575.859375 Z M 0 0.140625 " fill-opacity="1" fill-rule="nonzero"/><path fill="#ffefcd" d="M 0 0.140625 L 1024 0.140625 L 1024 575.859375 L 0 575.859375 Z M 0 0.140625 " fill-opacity="1" fill-rule="nonzero"/></g><g clip-path="url(#36fcaa1cf7)"><path fill="#101011" d="M 263.953125 89.050781 C 257.214844 83.371094 244.789062 80.945312 232.289062 82.871094 C 223.058594 84.296875 216.085938 87.757812 213.164062 92.371094 C 207.484375 101.34375 208.625 119.679688 208.898438 123.160156 C 197.90625 128.019531 197.902344 128.957031 197.902344 129.640625 C 197.902344 129.945312 198.046875 130.230469 198.292969 130.425781 C 198.558594 130.636719 199.148438 130.726562 199.980469 130.726562 C 201.957031 130.726562 205.300781 130.207031 208.964844 129.492188 L 209.820312 156.246094 C 209.832031 156.550781 210.019531 156.820312 210.300781 156.9375 C 210.488281 157.015625 224.246094 162.605469 244.292969 162.605469 C 252.109375 162.605469 260.886719 161.753906 270.1875 159.394531 C 270.503906 159.3125 270.738281 159.046875 270.769531 158.722656 C 271.023438 156.324219 276.78125 99.867188 263.953125 89.050781 Z M 210.070312 124.339844 C 210.078125 124.335938 210.085938 124.332031 210.097656 124.328125 C 213.214844 122.953125 216.695312 121.496094 220.074219 120.144531 C 220.472656 119.984375 220.667969 119.535156 220.507812 119.132812 C 220.347656 118.734375 219.894531 118.539062 219.496094 118.699219 C 219.476562 118.710938 218.574219 119.070312 217.171875 119.644531 C 216.859375 114.484375 218.359375 109.871094 219.730469 106.832031 C 219.757812 107.769531 219.941406 108.667969 220.410156 109.296875 C 220.867188 109.902344 221.554688 110.238281 222.347656 110.222656 C 224.316406 110.21875 225.847656 108.359375 226.882812 106.503906 C 227.015625 107.738281 227.335938 108.949219 228.023438 109.632812 C 228.488281 110.09375 229.082031 110.292969 229.742188 110.21875 C 231.585938 109.996094 233.410156 107.71875 234.65625 105.765625 C 234.71875 108.191406 235.144531 110.625 236.550781 111.019531 C 237.589844 111.265625 238.75 111.019531 239.816406 110.324219 C 241.222656 109.40625 242.363281 107.792969 243.144531 105.660156 C 243.996094 108.046875 245.300781 109.820312 247.039062 110.953125 C 247.886719 111.503906 248.746094 111.839844 249.546875 112.042969 C 249.148438 112.257812 248.777344 112.515625 248.460938 112.816406 C 248.144531 113.113281 248.132812 113.605469 248.425781 113.917969 C 248.71875 114.230469 249.214844 114.246094 249.523438 113.949219 C 250.6875 112.859375 253.191406 112.3125 255.367188 113.300781 C 257.445312 114.238281 258.539062 116.339844 258.441406 119.210938 C 258.367188 121.402344 257.6875 122.992188 256.417969 123.933594 C 253.992188 125.734375 250.125 124.738281 250.085938 124.726562 C 249.675781 124.617188 249.246094 124.863281 249.132812 125.277344 C 249.023438 125.691406 249.269531 126.117188 249.683594 126.230469 C 249.78125 126.253906 250.988281 126.570312 252.554688 126.570312 C 252.765625 126.570312 252.984375 126.5625 253.203125 126.550781 C 252.933594 129.175781 252.816406 136.402344 253.179688 150.398438 C 233.910156 158.417969 221.449219 151.722656 219.386719 150.464844 L 218.335938 134.449219 C 219.425781 134.839844 221.144531 135.3125 223.070312 135.3125 C 224.152344 135.3125 225.300781 135.164062 226.433594 134.765625 C 228.917969 133.894531 230.839844 132.015625 232.144531 129.183594 C 232.320312 128.792969 232.152344 128.332031 231.761719 128.152344 C 231.371094 127.972656 230.910156 128.144531 230.730469 128.535156 C 229.609375 130.964844 227.996094 132.566406 225.929688 133.292969 C 222.769531 134.40625 219.363281 133.207031 218.226562 132.734375 L 217.898438 127.746094 C 217.894531 127.679688 217.867188 127.621094 217.851562 127.5625 C 218.941406 127.308594 219.984375 127.058594 220.945312 126.824219 C 221.359375 126.722656 221.617188 126.304688 221.515625 125.886719 C 221.414062 125.46875 220.996094 125.210938 220.578125 125.3125 C 212.292969 127.324219 203.179688 129.15625 200.125 129.242188 C 201.683594 128.199219 205.484375 126.359375 210.070312 124.339844 Z M 342.71875 272.242188 C 342.675781 272.242188 342.632812 272.238281 342.589844 272.230469 L 167.917969 243.335938 C 167.492188 243.265625 167.207031 242.863281 167.277344 242.441406 C 167.347656 242.015625 167.742188 241.726562 168.171875 241.800781 L 342.84375 270.695312 C 343.269531 270.765625 343.554688 271.167969 343.484375 271.589844 C 343.421875 271.972656 343.09375 272.242188 342.71875 272.242188 Z M 228.449219 120.484375 C 228.617188 120.511719 228.785156 120.527344 228.953125 120.527344 C 229.949219 120.527344 230.964844 120.035156 231.976562 119.0625 C 232.285156 118.765625 232.292969 118.273438 231.996094 117.964844 C 231.699219 117.652344 231.207031 117.644531 230.898438 117.941406 C 230.089844 118.714844 229.359375 119.054688 228.714844 118.953125 C 227.761719 118.796875 227.179688 117.707031 227.175781 117.699219 C 226.976562 117.316406 226.511719 117.167969 226.128906 117.363281 C 225.75 117.558594 225.597656 118.027344 225.792969 118.410156 C 225.828125 118.480469 226.722656 120.195312 228.449219 120.484375 Z M 249.125 121.695312 C 249.214844 121.730469 249.308594 121.746094 249.402344 121.746094 C 249.714844 121.746094 250.007812 121.558594 250.128906 121.25 C 250.449219 120.410156 250.839844 119.761719 251.25 119.25 C 251.433594 119.457031 252.210938 120.425781 251.953125 121.660156 C 251.867188 122.082031 252.136719 122.496094 252.558594 122.582031 C 252.609375 122.59375 252.664062 122.597656 252.714844 122.597656 C 253.078125 122.597656 253.402344 122.34375 253.476562 121.980469 C 253.882812 120.015625 252.71875 118.558594 252.386719 118.1875 C 253.625 117.351562 254.777344 117.429688 254.859375 117.4375 C 255.28125 117.480469 255.667969 117.171875 255.710938 116.746094 C 255.753906 116.316406 255.445312 115.933594 255.019531 115.890625 C 253.53125 115.734375 250.273438 116.53125 248.675781 120.691406 C 248.523438 121.09375 248.722656 121.542969 249.125 121.695312 Z M 249.125 121.695312 " fill-opacity="1" fill-rule="nonzero"/></g><path fill="#399be6" d="M 300.632812 273.085938 C 268.796875 300.160156 233.382812 260.585938 225.46875 245.003906 C 229.851562 242.324219 255.378906 218.339844 255.378906 218.339844 L 254.03125 218.449219 C 254.03125 218.449219 235.027344 199.527344 228.359375 196.242188 C 221.691406 192.957031 222.546875 198.1875 223.683594 201.449219 C 218.308594 198.746094 216.949219 200.929688 217.796875 206.023438 C 210.367188 201.867188 210.25 208.84375 212.144531 214.078125 C 214.035156 219.3125 223.144531 234.574219 223.144531 234.574219 L 206.570312 247.308594 C 204.246094 262.859375 167.070312 287.210938 158.5 248.085938 C 153.894531 227.074219 159.871094 205.042969 171.539062 187.132812 L 172.507812 193.867188 L 223.320312 172.761719 C 223.320312 172.761719 222.996094 167.164062 221.613281 162.925781 C 204.570312 165.914062 179.324219 180.554688 179.324219 180.554688 L 177.667969 178.734375 C 188.464844 165.488281 202.449219 155.457031 217.070312 151.335938 C 252.785156 141.269531 276.332031 158.886719 291.09375 180.230469 C 308.257812 205.039062 319.339844 257.179688 300.632812 273.085938 Z M 300.632812 273.085938 C 268.796875 300.160156 233.382812 260.585938 225.46875 245.003906 C 229.851562 242.324219 255.378906 218.339844 255.378906 218.339844 L 254.03125 218.449219 C 254.03125 218.449219 235.027344 199.527344 228.359375 196.242188 C 221.691406 192.957031 222.546875 198.1875 223.683594 201.449219 C 218.308594 198.746094 216.949219 200.929688 217.796875 206.023438 C 210.367188 201.867188 210.25 208.84375 212.144531 214.078125 C 214.035156 219.3125 223.144531 234.574219 223.144531 234.574219 L 206.570312 247.308594 C 204.246094 262.859375 167.070312 287.210938 158.5 248.085938 C 153.894531 227.074219 159.871094 205.042969 171.539062 187.132812 L 172.507812 193.867188 L 223.320312 172.761719 C 223.320312 172.761719 222.996094 167.164062 221.613281 162.925781 C 204.570312 165.914062 179.324219 180.554688 179.324219 180.554688 L 177.667969 178.734375 C 188.464844 165.488281 202.449219 155.457031 217.070312 151.335938 C 252.785156 141.269531 276.332031 158.886719 291.09375 180.230469 C 308.257812 205.039062 319.339844 257.179688 300.632812 273.085938 Z M 300.632812 273.085938 " fill-opacity="1" fill-rule="nonzero"/><path fill="#2e3192" d="M 189.5 175.195312 L 192.703125 156.445312 C 193.203125 156.367188 193.933594 156.390625 194.808594 156.820312 L 191.871094 173.996094 L 193.566406 173.140625 L 197.484375 150.171875 C 197.765625 148.527344 196.847656 146.996094 195.4375 146.753906 C 194.027344 146.515625 192.648438 147.652344 192.367188 149.292969 L 187.804688 176.050781 Z M 193.324219 152.757812 C 194.539062 152.445312 195.171875 152.847656 195.433594 153.109375 L 195.078125 155.210938 C 194.644531 155.007812 193.9375 154.816406 192.949219 154.992188 Z M 313.488281 265.839844 C 313.875 263.578125 317.636719 240.605469 316.652344 213.246094 C 316.273438 202.632812 313.152344 194.867188 307.382812 190.164062 C 303.054688 186.632812 297.996094 185.507812 294.253906 185.21875 C 294.09375 185.070312 293.40625 183.972656 293.257812 183.578125 C 297.285156 183.726562 303.222656 184.769531 308.351562 188.945312 C 314.492188 193.945312 317.808594 202.101562 318.207031 213.191406 C 319.195312 240.644531 315.429688 263.710938 315.023438 266.09375 C 314.808594 266.09375 313.554688 265.882812 313.488281 265.839844 Z M 313.488281 265.839844 " fill-opacity="1" fill-rule="nonzero"/><path fill="#fbbe28" d="M 211.300781 209.941406 C 211.574219 215.558594 221.933594 233.203125 228.082031 242.167969 C 214.085938 245.496094 192.96875 250.601562 192.476562 250.601562 C 192.097656 250.601562 186.746094 244.980469 181.578125 239.296875 C 180.527344 230.628906 178.257812 212.6875 177.328125 211.816406 C 176.40625 210.957031 170.183594 210.398438 167.128906 210.171875 C 162.167969 191.226562 155.097656 163.660156 155.707031 162.941406 C 156.214844 162.339844 178.109375 180.472656 179.082031 181.203125 C 180.054688 181.933594 228.515625 166.59375 229.246094 167.8125 C 229.585938 168.382812 232.242188 184.144531 234.863281 200.730469 C 233.179688 199.308594 230.039062 196.828125 227.722656 195.996094 C 224.40625 194.808594 222.421875 195.78125 223.871094 201.550781 C 222.304688 200.351562 215.667969 197.808594 218.53125 206.765625 C 214.300781 203.820312 210.984375 203.371094 211.300781 209.941406 Z M 211.300781 209.941406 C 211.574219 215.558594 221.933594 233.203125 228.082031 242.167969 C 214.085938 245.496094 192.96875 250.601562 192.476562 250.601562 C 192.097656 250.601562 186.746094 244.980469 181.578125 239.296875 C 180.527344 230.628906 178.257812 212.6875 177.328125 211.816406 C 176.40625 210.957031 170.183594 210.398438 167.128906 210.171875 C 162.167969 191.226562 155.097656 163.660156 155.707031 162.941406 C 156.214844 162.339844 178.109375 180.472656 179.082031 181.203125 C 180.054688 181.933594 228.515625 166.59375 229.246094 167.8125 C 229.585938 168.382812 232.242188 184.144531 234.863281 200.730469 C 233.179688 199.308594 230.039062 196.828125 227.722656 195.996094 C 224.40625 194.808594 222.421875 195.78125 223.871094 201.550781 C 222.304688 200.351562 215.667969 197.808594 218.53125 206.765625 C 214.300781 203.820312 210.984375 203.371094 211.300781 209.941406 Z M 211.300781 209.941406 " fill-opacity="1" fill-rule="nonzero"/><path fill="#ff5757" d="M 73.375 241.5625 C 77.871094 280.875 78.5625 281.21875 79.117188 281.496094 C 80.851562 282.363281 187.761719 296.515625 188.554688 296.515625 C 188.609375 296.515625 188.664062 296.507812 188.714844 296.496094 C 188.738281 296.492188 188.757812 296.484375 188.78125 296.476562 C 188.808594 296.46875 188.839844 296.460938 188.867188 296.449219 L 219.386719 283.136719 C 219.753906 282.976562 219.941406 282.5625 219.8125 282.179688 C 219.578125 281.46875 219.253906 280.5 202.699219 278.324219 C 195.660156 277.402344 188.605469 276.65625 187.019531 276.492188 C 183.960938 251.367188 179.160156 213.03125 178.164062 211.539062 C 177.839844 211.050781 177.074219 209.90625 125.054688 205.207031 C 100.429688 202.984375 72.410156 200.777344 70.085938 201.089844 C 69.582031 201.15625 69.386719 201.4375 69.3125 201.660156 C 68.957031 202.726562 73.332031 241.175781 73.375 241.5625 Z M 70.84375 202.605469 C 70.867188 202.605469 70.894531 202.605469 70.921875 202.605469 C 75.21875 202.605469 98.144531 204.351562 123.570312 206.636719 C 153.3125 209.308594 174.519531 211.652344 176.914062 212.519531 C 178.003906 215.933594 183.867188 262.988281 187.667969 294.847656 C 177.578125 293.5625 86.34375 281.425781 80.015625 280.136719 C 79.464844 278.234375 77.859375 267.117188 74.875 240.980469 C 72.75 222.371094 71.0625 206.011719 70.84375 202.605469 Z M 118.160156 247.847656 C 118.648438 250.230469 120.472656 251.878906 122.230469 251.523438 C 123.988281 251.164062 125.023438 248.929688 124.535156 246.546875 C 124.046875 244.164062 122.222656 242.515625 120.464844 242.875 C 118.707031 243.230469 117.675781 245.464844 118.160156 247.847656 Z M 120.832031 244.675781 C 121.75 244.488281 122.726562 245.46875 123.011719 246.859375 C 123.292969 248.246094 122.78125 249.53125 121.863281 249.71875 C 120.945312 249.90625 119.96875 248.925781 119.6875 247.535156 C 119.402344 246.148438 119.917969 244.863281 120.832031 244.675781 Z M 120.832031 244.675781 " fill-opacity="1" fill-rule="nonzero"/><path fill="#101011" d="M 119.527344 188.042969 C 110.039062 187.394531 104.886719 187.242188 104.210938 187.578125 C 103.742188 187.8125 103.644531 188.1875 103.515625 190.265625 C 103.386719 192.363281 103.316406 195.539062 103.34375 198.175781 C 103.398438 203.449219 103.75 203.6875 104.128906 203.9375 C 104.792969 204.382812 113.839844 205.148438 119.167969 205.5625 C 126.554688 206.140625 130.273438 206.328125 132.183594 206.328125 C 134.035156 206.328125 134.195312 206.152344 134.355469 205.976562 C 135.261719 204.984375 134.894531 190.605469 134.453125 189.835938 C 134.21875 189.421875 133.996094 189.035156 119.527344 188.042969 Z M 105.128906 202.644531 C 104.730469 200.738281 104.871094 191.167969 105.179688 188.960938 C 107.796875 188.800781 121.304688 189.628906 128.691406 190.308594 C 128.726562 192.460938 128.730469 202.410156 128.730469 204.640625 C 121.273438 204.25 107.585938 203.144531 105.128906 202.644531 Z M 133.164062 204.773438 C 132.636719 204.796875 131.621094 204.773438 130.285156 204.714844 C 130.285156 202.65625 130.28125 192.984375 130.25 190.457031 C 131.566406 190.59375 132.574219 190.71875 133.105469 190.824219 C 133.351562 192.984375 133.46875 202.648438 133.164062 204.773438 Z M 217.878906 150.699219 C 217.988281 150.765625 225.320312 155.171875 236.269531 155.171875 C 241.578125 155.171875 247.734375 154.136719 254.328125 151.066406 C 254.71875 150.882812 254.886719 150.421875 254.707031 150.03125 C 254.523438 149.640625 254.058594 149.472656 253.671875 149.65625 C 234.261719 158.691406 218.847656 149.46875 218.695312 149.375 C 218.328125 149.148438 217.851562 149.261719 217.625 149.628906 C 217.398438 149.992188 217.511719 150.472656 217.878906 150.699219 Z M 286.402344 245.664062 C 280.597656 240.015625 274.023438 234.148438 268.421875 229.304688 C 268.550781 229.152344 268.625 228.957031 268.609375 228.742188 C 268.597656 228.546875 267.269531 209.050781 266.546875 194.464844 C 266.527344 194.035156 266.160156 193.707031 265.730469 193.726562 C 265.304688 193.75 264.972656 194.113281 264.992188 194.542969 C 265.636719 207.511719 266.753906 224.34375 267.007812 228.082031 C 260.671875 222.636719 255.867188 218.726562 255.378906 218.339844 C 254.289062 217.222656 237.597656 200.632812 229.144531 195.789062 C 226.667969 194.371094 224.90625 194.128906 223.765625 195.050781 C 222.417969 196.144531 222.585938 198.566406 222.90625 200.226562 C 221.523438 199.667969 219.546875 199.175781 218.246094 200.191406 C 217.21875 200.992188 216.882812 202.460938 217.234375 204.652344 C 215.730469 203.757812 214.132812 203.628906 212.820312 204.378906 C 210.90625 205.472656 209.53125 208.660156 211.40625 214.320312 C 214.152344 222.625 227.222656 242.445312 227.777344 243.28125 C 227.988281 243.152344 228.824219 242.476562 228.980469 242.289062 C 228.84375 242.085938 215.566406 221.9375 212.882812 213.832031 C 211.300781 209.054688 212.277344 206.484375 213.59375 205.730469 C 214.796875 205.042969 216.492188 205.636719 217.914062 207.242188 C 218.425781 208.0625 223.078125 215.414062 225.328125 217.347656 C 225.476562 217.472656 225.65625 217.535156 225.835938 217.535156 C 226.054688 217.535156 226.273438 217.441406 226.425781 217.261719 C 226.707031 216.9375 226.667969 216.445312 226.339844 216.164062 C 224.3125 214.425781 219.820312 207.351562 219.25 206.449219 C 218.480469 203.828125 218.460938 201.996094 219.199219 201.417969 C 220.085938 200.730469 222.242188 201.554688 223.394531 202.175781 C 224.152344 202.957031 230.300781 209.300781 231.855469 211.519531 C 232.003906 211.738281 232.246094 211.851562 232.492188 211.851562 C 232.648438 211.851562 232.800781 211.804688 232.9375 211.710938 C 233.289062 211.464844 233.375 210.980469 233.128906 210.628906 C 231.617188 208.464844 226.257812 202.894531 224.792969 201.382812 C 224.25 199.664062 223.878906 196.960938 224.746094 196.261719 C 225.296875 195.816406 226.617188 196.136719 228.371094 197.140625 C 236.746094 201.9375 253.945312 219.3125 254.117188 219.488281 C 254.140625 219.511719 254.164062 219.535156 254.191406 219.554688 C 254.367188 219.695312 271.988281 233.808594 285.316406 246.777344 C 285.46875 246.925781 285.664062 246.996094 285.859375 246.996094 C 286.0625 246.996094 286.265625 246.917969 286.417969 246.761719 C 286.714844 246.453125 286.710938 245.960938 286.402344 245.664062 Z M 222.53125 169.148438 C 223.023438 169.046875 223.589844 168.914062 224.035156 168.757812 C 224.035156 168.75 224.035156 168.746094 224.035156 168.738281 C 224.035156 168.738281 223.296875 166.136719 222.320312 162.726562 C 222.207031 162.324219 221.792969 162.085938 221.386719 162.1875 C 210.613281 164.851562 189.476562 173.511719 179.351562 180.09375 C 174.378906 171.519531 163.726562 162.722656 163.261719 162.339844 C 162.9375 162.074219 162.464844 162.113281 162.1875 162.421875 L 159.464844 165.460938 C 159.804688 165.75 160.289062 166.125 160.703125 166.414062 L 162.84375 164.023438 C 165.027344 165.890625 172.964844 172.902344 177.351562 179.800781 C 178.242188 180.65625 178.917969 181.269531 179.101562 181.285156 C 179.355469 181.308594 179.902344 181.234375 180.964844 180.914062 C 190.882812 174.714844 210.636719 166.601562 221.035156 163.882812 C 221.871094 166.816406 222.488281 168.996094 222.53125 169.148438 Z M 222.53125 169.148438 " fill-opacity="1" fill-rule="nonzero"/><path fill="#ff5757" d="M 429.414062 250.109375 C 429.414062 250.109375 406.746094 282.417969 390.886719 290.832031 C 343.628906 311.222656 327.683594 259.101562 342.011719 206.71875 C 356.253906 154.652344 402.394531 150.929688 412.328125 150.28125 C 451.464844 147.722656 480.578125 175.71875 481.542969 180.171875 C 476.695312 177.375 466.230469 172.613281 447.769531 169.824219 C 438.300781 168.609375 414.027344 167.757812 414.027344 167.757812 L 413.753906 175.644531 C 409.234375 175.964844 406.5 176.253906 406.5 176.253906 C 406.5 176.253906 405.949219 216.390625 405.824219 225.535156 C 423.386719 238.5625 429.414062 250.109375 429.414062 250.109375 Z M 441.699219 262.027344 C 446.582031 274.082031 471.832031 293.335938 494.132812 277.480469 C 514.28125 263.160156 495.4375 207.570312 495.4375 207.570312 C 495.4375 207.570312 434.164062 243.417969 441.699219 262.027344 Z M 441.699219 262.027344 " fill-opacity="1" fill-rule="nonzero"/><path fill="#101011" d="M 451.046875 130.722656 C 450.523438 129.253906 441.191406 124.835938 433.574219 121.4375 L 433.574219 110.347656 C 436.460938 109.542969 448.347656 105.367188 448.785156 90.953125 C 448.789062 90.921875 448.785156 90.890625 448.785156 90.859375 C 448.652344 89.429688 447.734375 88.449219 446.386719 88.300781 C 445.710938 88.226562 444.914062 88.398438 444.238281 88.820312 C 443.988281 86.042969 443.027344 84.359375 441.378906 83.8125 C 439.023438 83.035156 436.03125 85.015625 434.117188 87.484375 C 430.464844 86.449219 409.625 80.976562 394.363281 86.066406 C 378.59375 91.324219 384.472656 113.554688 385.414062 116.765625 C 383.789062 119.078125 383.4375 122.21875 384.238281 124.804688 C 385.222656 127.996094 388.117188 131.027344 393.328125 130.398438 C 393.199219 137.699219 393.34375 155.519531 393.347656 155.707031 C 393.347656 155.929688 393.445312 156.136719 393.609375 156.285156 C 393.84375 156.488281 399.503906 161.332031 414.511719 161.332031 C 429.695312 161.332031 433.339844 154.726562 433.484375 154.445312 C 433.546875 154.332031 433.574219 154.210938 433.574219 154.085938 L 433.574219 131.394531 C 435.257812 131.566406 437.234375 131.753906 439.226562 131.917969 C 442.996094 132.226562 445.511719 132.339844 447.203125 132.339844 C 450.34375 132.339844 450.660156 131.945312 450.894531 131.648438 C 451.105469 131.382812 451.160156 131.039062 451.046875 130.722656 Z M 432.8125 129.765625 C 432.808594 129.765625 432.804688 129.761719 432.800781 129.761719 C 432.796875 129.761719 432.796875 129.761719 432.796875 129.761719 C 431.582031 129.636719 430.367188 129.503906 429.167969 129.363281 C 428.746094 129.316406 428.355469 129.617188 428.308594 130.042969 C 428.257812 130.46875 428.5625 130.855469 428.988281 130.902344 C 429.011719 130.90625 430.214844 131.046875 432.023438 131.234375 L 432.023438 136.410156 C 429.773438 137.28125 419.601562 140.617188 414.363281 132.152344 C 414.136719 131.789062 413.660156 131.675781 413.296875 131.902344 C 412.929688 132.125 412.820312 132.605469 413.042969 132.96875 C 416.160156 138 420.777344 139.332031 424.804688 139.332031 C 427.867188 139.332031 430.582031 138.5625 432.023438 138.058594 L 432.023438 153.867188 C 431.417969 154.789062 427.519531 159.78125 414.511719 159.78125 C 401.890625 159.78125 396.128906 156.207031 394.894531 155.320312 C 394.871094 152.566406 394.75 135.542969 394.898438 129.503906 C 394.902344 129.269531 394.800781 129.042969 394.621094 128.894531 C 394.441406 128.742188 394.203125 128.679688 393.972656 128.726562 C 389.898438 129.527344 386.8125 127.886719 385.71875 124.347656 C 384.75 121.207031 385.773438 117.085938 389.167969 115.632812 C 391.03125 114.832031 392.585938 114.714844 393.789062 115.28125 C 395.308594 116 395.800781 117.625 395.804688 117.640625 C 395.828125 117.730469 395.871094 117.816406 395.925781 117.890625 C 396.046875 118.054688 398.9375 121.890625 402.550781 121.058594 C 407.277344 119.964844 407.496094 112.832031 407.394531 110.046875 C 410.246094 110.71875 418.691406 112.222656 432.023438 110.613281 L 432.023438 120.746094 C 431.101562 120.339844 430.210938 119.949219 429.386719 119.589844 C 428.996094 119.417969 428.539062 119.601562 428.367188 119.992188 C 428.195312 120.386719 428.375 120.839844 428.769531 121.011719 C 429.996094 121.546875 431.238281 122.09375 432.472656 122.648438 C 432.488281 122.65625 432.503906 122.664062 432.523438 122.667969 C 439.761719 125.910156 446.699219 129.261719 448.929688 130.75 C 446.472656 130.957031 439.722656 130.488281 432.8125 129.765625 Z M 420.058594 120.535156 C 419.277344 120.265625 418.425781 120.679688 418.152344 121.457031 C 417.882812 122.238281 418.296875 123.09375 419.078125 123.363281 C 419.859375 123.636719 420.710938 123.222656 420.980469 122.441406 C 421.253906 121.660156 420.839844 120.808594 420.058594 120.535156 Z M 445.804688 214.871094 C 445.039062 213.929688 443.789062 213.492188 441.996094 213.53125 C 442.078125 211.933594 441.660156 210.78125 440.753906 210.09375 C 439.484375 209.136719 437.660156 209.429688 436.496094 209.777344 C 436.414062 209.035156 436.140625 208.09375 435.371094 207.351562 C 434.191406 206.21875 432.265625 205.925781 429.644531 206.488281 C 422.804688 207.953125 405.75 224.078125 404.589844 225.179688 C 403.824219 225.734375 393.40625 233.3125 381.03125 243.550781 C 381.121094 238.585938 381.398438 223.585938 381.648438 211.914062 C 381.65625 211.488281 381.316406 211.132812 380.886719 211.125 C 380.464844 211.136719 380.105469 211.453125 380.097656 211.882812 C 379.820312 224.964844 379.503906 242.242188 379.457031 244.859375 C 374.015625 249.398438 368.269531 254.402344 362.839844 259.519531 C 362.53125 259.816406 362.515625 260.304688 362.808594 260.617188 C 362.960938 260.777344 363.167969 260.859375 363.375 260.859375 C 363.5625 260.859375 363.753906 260.789062 363.90625 260.648438 C 382.671875 242.953125 405.3125 226.570312 405.539062 226.40625 C 405.570312 226.382812 405.59375 226.363281 405.621094 226.339844 C 405.796875 226.167969 423.460938 209.398438 429.96875 208.003906 C 432.019531 207.566406 433.511719 207.722656 434.289062 208.460938 C 434.910156 209.050781 434.984375 209.925781 434.972656 210.40625 C 433.699219 211.113281 429.566406 213.632812 426.265625 218.203125 C 426.015625 218.546875 426.089844 219.03125 426.4375 219.285156 C 426.578125 219.382812 426.734375 219.429688 426.890625 219.429688 C 427.132812 219.429688 427.371094 219.320312 427.519531 219.109375 C 431.082031 214.183594 435.796875 211.714844 436.039062 211.59375 C 436.714844 211.289062 438.84375 210.59375 439.820312 211.332031 C 440.503906 211.851562 440.519531 213.050781 440.390625 214.042969 C 439.652344 214.917969 436.023438 219.210938 432.804688 222.570312 C 432.511719 222.878906 432.519531 223.371094 432.832031 223.667969 C 432.980469 223.808594 433.171875 223.882812 433.367188 223.882812 C 433.570312 223.882812 433.773438 223.800781 433.925781 223.640625 C 437.078125 220.347656 440.625 216.167969 441.511719 215.113281 C 443.058594 214.996094 444.101562 215.238281 444.601562 215.851562 C 445.21875 216.605469 445.164062 218.082031 444.441406 220.363281 C 443.28125 224.011719 432.378906 243.671875 428.597656 248.660156 C 428.691406 249 429.136719 249.6875 429.414062 250.109375 C 433.164062 245.527344 444.585938 225.03125 445.917969 220.832031 C 446.539062 218.882812 447.082031 216.441406 445.804688 214.871094 Z M 445.804688 214.871094 " fill-opacity="1" fill-rule="nonzero"/><path fill="#2e3192" d="M 465.503906 173.6875 L 458.433594 145.671875 C 458.835938 145.410156 459.484375 145.152344 460.410156 145.191406 L 467.707031 174.082031 L 469.273438 174.363281 L 460.191406 138.363281 C 459.804688 136.820312 458.417969 135.839844 457.09375 136.171875 C 455.769531 136.503906 455.007812 138.023438 455.390625 139.5625 L 463.929688 173.40625 Z M 457.558594 142.21875 C 458.496094 141.476562 459.203125 141.585938 459.53125 141.714844 L 460.03125 143.679688 C 459.574219 143.671875 458.882812 143.777344 458.089844 144.308594 Z M 457.558594 142.21875 " fill-opacity="1" fill-rule="nonzero"/><path fill="#101011" d="M 502.71875 153.949219 C 502.417969 153.808594 502.058594 153.875 501.828125 154.113281 C 501.78125 154.164062 499.742188 156.296875 496.726562 159.746094 L 497.171875 155.210938 C 497.203125 154.90625 497.046875 154.609375 496.777344 154.460938 C 496.507812 154.308594 496.175781 154.332031 495.933594 154.519531 C 495.457031 154.875 484.539062 163.292969 481 179.265625 C 476.792969 176.34375 459.074219 166.375 413.773438 167.105469 C 413.566406 167.109375 413.367188 167.195312 413.222656 167.34375 C 413.082031 167.492188 413.003906 167.695312 413.007812 167.902344 C 413.066406 170.019531 413.0625 172.519531 413.042969 174.316406 C 410.398438 174.628906 408.109375 175.023438 406.300781 175.507812 C 405.964844 175.59375 405.730469 175.898438 405.726562 176.246094 L 405.085938 225.773438 C 407.027344 223.863281 414.253906 216.851562 418.152344 214.207031 C 422.683594 211.128906 432.558594 203.003906 435.957031 210.320312 C 437.804688 209.5 442.335938 209.109375 441.128906 214.691406 C 442.671875 214.042969 447.097656 214.601562 445.664062 217.765625 C 444.234375 220.929688 444.210938 223.269531 441.863281 227.554688 C 439.6875 231.527344 433.351562 244.246094 429.082031 249.507812 C 429.507812 250.261719 429.414062 250.109375 429.414062 250.109375 L 418.410156 265.070312 C 433.253906 265.234375 451.105469 268.015625 472.042969 271.179688 C 472.082031 271.183594 472.117188 271.191406 472.152344 271.195312 C 472.171875 271.199219 472.1875 271.210938 472.207031 271.214844 C 472.234375 271.214844 472.261719 271.21875 472.285156 271.21875 C 472.285156 271.21875 472.289062 271.21875 472.289062 271.21875 C 472.289062 271.21875 472.289062 271.21875 472.292969 271.21875 C 472.375 271.21875 472.457031 271.199219 472.535156 271.171875 C 472.558594 271.164062 472.582031 271.152344 472.605469 271.144531 C 472.664062 271.117188 472.71875 271.082031 472.769531 271.042969 C 472.785156 271.03125 472.800781 271.019531 472.816406 271.003906 C 472.871094 270.953125 472.921875 270.894531 472.960938 270.824219 C 483.484375 252.171875 492.488281 240.882812 492.578125 240.769531 C 492.667969 240.65625 492.726562 240.523438 492.742188 240.378906 L 503.15625 154.746094 C 503.199219 154.414062 503.023438 154.09375 502.71875 153.949219 Z M 414.597656 174.148438 C 414.609375 172.578125 414.617188 170.523438 414.578125 168.644531 C 447.292969 168.203125 465.414062 173.539062 474.171875 177.394531 C 458.820312 173.769531 430.917969 172.511719 414.597656 174.148438 Z M 494.96875 161.777344 C 491.550781 165.773438 487.300781 171.011719 483.285156 176.679688 C 486.371094 166.328125 492.621094 159.609375 495.4375 156.992188 Z M 494.96875 161.777344 " fill-opacity="1" fill-rule="nonzero"/><path fill="#f2f2f2" d="M 444.828125 184.949219 C 443.167969 184.863281 441.773438 186.648438 441.652344 189.011719 C 441.53125 191.375 442.734375 193.292969 444.394531 193.378906 C 446.050781 193.464844 447.445312 191.679688 447.566406 189.316406 C 447.6875 186.953125 446.484375 185.035156 444.828125 184.949219 Z M 444.472656 191.828125 C 443.808594 191.796875 443.125 190.617188 443.203125 189.089844 C 443.28125 187.566406 444.082031 186.464844 444.746094 186.496094 C 445.410156 186.53125 446.097656 187.710938 446.015625 189.234375 C 445.9375 190.761719 445.136719 191.863281 444.472656 191.828125 Z M 419.121094 191.503906 C 419.121094 191.503906 419.117188 191.503906 419.117188 191.503906 L 416.574219 191.421875 L 416.929688 185.597656 C 416.953125 185.167969 416.628906 184.800781 416.199219 184.777344 C 416.195312 184.777344 416.1875 184.773438 416.179688 184.773438 C 415.761719 184.757812 415.40625 185.082031 415.378906 185.503906 L 414.976562 192.125 C 414.964844 192.332031 415.039062 192.539062 415.179688 192.691406 C 415.320312 192.847656 415.515625 192.9375 415.722656 192.945312 C 415.722656 192.945312 415.726562 192.945312 415.726562 192.945312 L 419.066406 193.054688 C 419.496094 193.070312 419.851562 192.734375 419.867188 192.304688 C 419.882812 191.878906 419.546875 191.519531 419.121094 191.503906 Z M 426.003906 190.804688 C 426.003906 190.804688 426 190.804688 426 190.804688 L 423.457031 190.828125 L 423.5 188.597656 L 425.265625 188.574219 C 425.695312 188.566406 426.035156 188.214844 426.03125 187.785156 C 426.023438 187.359375 425.675781 187.019531 425.25 187.023438 C 425.25 187.023438 425.246094 187.023438 425.242188 187.023438 L 423.53125 187.046875 L 423.554688 186.027344 L 425.832031 186.015625 C 426.261719 186.011719 426.605469 185.664062 426.605469 185.234375 C 426.601562 184.808594 426.253906 184.460938 425.824219 184.464844 L 422.789062 184.480469 C 422.371094 184.480469 422.027344 184.816406 422.019531 185.238281 L 421.886719 191.59375 C 421.882812 191.804688 421.964844 192.007812 422.113281 192.15625 C 422.257812 192.304688 422.460938 192.386719 422.667969 192.386719 C 422.667969 192.386719 422.667969 192.386719 422.671875 192.386719 L 426.011719 192.355469 C 426.441406 192.355469 426.785156 192.003906 426.78125 191.574219 C 426.777344 191.148438 426.429688 190.804688 426.003906 190.804688 Z M 431.1875 185.441406 C 431.859375 185.441406 431.875 186.738281 431.875 186.75 C 431.878906 187.179688 432.226562 187.523438 432.65625 187.523438 C 433.082031 187.519531 433.429688 187.171875 433.425781 186.742188 C 433.417969 185.320312 432.722656 183.882812 431.179688 183.890625 C 429.6875 183.898438 428.652344 185.0625 428.660156 186.722656 C 428.667969 188.160156 429.816406 188.710938 430.65625 189.109375 C 431.519531 189.523438 431.769531 189.703125 431.769531 190.109375 C 431.773438 190.804688 430.996094 190.816406 430.960938 190.816406 C 430.753906 190.816406 430.558594 190.757812 430.429688 190.644531 C 430.296875 190.527344 430.226562 190.355469 430.226562 190.117188 C 430.226562 189.6875 429.875 189.34375 429.449219 189.34375 C 429.019531 189.347656 428.671875 189.695312 428.675781 190.125 C 428.679688 190.808594 428.945312 191.414062 429.421875 191.820312 C 429.832031 192.175781 430.382812 192.371094 430.96875 192.367188 C 432.117188 192.363281 433.328125 191.566406 433.320312 190.101562 C 433.316406 188.660156 432.164062 188.113281 431.324219 187.710938 C 430.464844 187.300781 430.210938 187.117188 430.210938 186.714844 C 430.207031 186.332031 430.300781 185.449219 431.1875 185.441406 Z M 437.886719 185.6875 C 438.558594 185.714844 438.515625 187.015625 438.515625 187.027344 C 438.5 187.453125 438.832031 187.816406 439.261719 187.832031 C 439.6875 187.847656 440.046875 187.515625 440.066406 187.089844 C 440.121094 185.664062 439.488281 184.199219 437.949219 184.140625 C 436.457031 184.082031 435.371094 185.195312 435.304688 186.855469 C 435.246094 188.292969 436.371094 188.890625 437.191406 189.328125 C 438.035156 189.78125 438.277344 189.972656 438.261719 190.375 C 438.234375 191.074219 437.453125 191.050781 437.421875 191.046875 C 437.210938 191.039062 437.023438 190.96875 436.898438 190.851562 C 436.769531 190.730469 436.707031 190.554688 436.71875 190.316406 C 436.734375 189.886719 436.402344 189.527344 435.972656 189.507812 C 435.546875 189.492188 435.1875 189.824219 435.167969 190.253906 C 435.140625 190.9375 435.378906 191.550781 435.835938 191.984375 C 436.234375 192.355469 436.773438 192.574219 437.359375 192.597656 C 438.503906 192.644531 439.753906 191.902344 439.8125 190.4375 C 439.867188 189 438.742188 188.398438 437.921875 187.960938 C 437.082031 187.511719 436.835938 187.320312 436.855469 186.914062 C 436.867188 186.535156 437 185.652344 437.886719 185.6875 Z M 455.183594 186.035156 C 454.773438 185.996094 454.371094 186.289062 454.320312 186.714844 L 453.789062 191.164062 L 451.234375 186.328125 C 451.074219 186.03125 450.742188 185.867188 450.410156 185.929688 C 450.078125 185.988281 449.820312 186.257812 449.777344 186.59375 L 448.953125 193.074219 C 448.898438 193.5 449.199219 193.886719 449.625 193.941406 C 450.042969 194 450.4375 193.695312 450.492188 193.269531 L 451.007812 189.222656 L 453.574219 194.082031 C 453.699219 194.316406 453.929688 194.46875 454.183594 194.492188 C 454.253906 194.5 454.328125 194.496094 454.402344 194.484375 C 454.734375 194.421875 454.992188 194.152344 455.03125 193.8125 L 455.859375 186.898438 C 455.910156 186.472656 455.609375 186.085938 455.183594 186.035156 Z M 455.183594 186.035156 " fill-opacity="1" fill-rule="nonzero"/><path fill="#43c466" d="M 939.453125 250.496094 C 919.375 264.027344 892.371094 241.035156 892.371094 241.035156 L 895.75 293.296875 C 895.75 293.296875 819.386719 311.09375 775.460938 293.296875 C 775.460938 285.210938 775.714844 279.371094 775.78125 278.039062 C 775.730469 278.222656 775.679688 278.414062 775.628906 278.59375 C 766.824219 281.167969 754.820312 281.21875 746.410156 273.390625 C 732.6875 260.621094 753.808594 214.988281 756.273438 209.308594 C 764.589844 214.714844 785.824219 218.050781 789.929688 214.347656 C 790.066406 214.234375 790.207031 214.121094 790.34375 214.007812 C 790.1875 214.761719 790.015625 215.589844 789.835938 216.46875 C 794.039062 215.839844 804.140625 214.308594 806.785156 213.777344 C 807.222656 211.75 802.941406 161.28125 802.941406 161.28125 C 802.941406 161.28125 812.855469 157.96875 817.132812 157.125 C 819.730469 156.589844 824.800781 154.957031 834.480469 154.082031 C 845.292969 153.109375 851.523438 154.234375 855.730469 154.683594 C 855.730469 154.683594 884.035156 160.617188 905.664062 185.394531 C 909.140625 189.691406 928.714844 191.152344 939.007812 185.644531 C 941.78125 190.011719 954.996094 240.023438 939.453125 250.496094 Z M 939.453125 250.496094 C 919.375 264.027344 892.371094 241.035156 892.371094 241.035156 L 895.75 293.296875 C 895.75 293.296875 819.386719 311.09375 775.460938 293.296875 C 775.460938 285.210938 775.714844 279.371094 775.78125 278.039062 C 775.730469 278.222656 775.679688 278.414062 775.628906 278.59375 C 766.824219 281.167969 754.820312 281.21875 746.410156 273.390625 C 732.6875 260.621094 753.808594 214.988281 756.273438 209.308594 C 764.589844 214.714844 785.824219 218.050781 789.929688 214.347656 C 790.066406 214.234375 790.207031 214.121094 790.34375 214.007812 C 790.1875 214.761719 790.015625 215.589844 789.835938 216.46875 C 794.039062 215.839844 804.140625 214.308594 806.785156 213.777344 C 807.222656 211.75 802.941406 161.28125 802.941406 161.28125 C 802.941406 161.28125 812.855469 157.96875 817.132812 157.125 C 819.730469 156.589844 824.800781 154.957031 834.480469 154.082031 C 845.292969 153.109375 851.523438 154.234375 855.730469 154.683594 C 855.730469 154.683594 884.035156 160.617188 905.664062 185.394531 C 909.140625 189.691406 928.714844 191.152344 939.007812 185.644531 C 941.78125 190.011719 954.996094 240.023438 939.453125 250.496094 Z M 939.453125 250.496094 " fill-opacity="1" fill-rule="nonzero"/><path fill="#f2f2f2" d="M 791.628906 214.507812 C 791.230469 214.507812 790.910156 214.1875 790.910156 213.789062 C 790.90625 213.394531 791.230469 213.070312 791.625 213.070312 L 888.828125 212.84375 C 889.226562 212.84375 889.546875 213.164062 889.546875 213.5625 C 889.546875 213.957031 889.226562 214.28125 888.828125 214.28125 Z M 889.953125 214.15625 C 890.082031 214.066406 902.253906 205.757812 906.476562 204.191406 C 906.851562 204.054688 907.039062 203.636719 906.902344 203.265625 C 906.761719 202.894531 906.347656 202.703125 905.976562 202.84375 C 901.589844 204.46875 889.667969 212.605469 889.140625 212.964844 C 888.8125 213.191406 888.730469 213.636719 888.953125 213.964844 C 889.09375 214.171875 889.316406 214.28125 889.546875 214.28125 C 889.6875 214.28125 889.828125 214.238281 889.953125 214.15625 Z M 889.953125 214.15625 " fill-opacity="1" fill-rule="nonzero"/><path fill="#fbbe28" d="M 807.5 213.867188 C 807.464844 214.15625 807.261719 214.390625 806.980469 214.472656 C 805.761719 214.816406 801.277344 214.800781 789.835938 216.46875 C 790.46875 211.085938 791.527344 202.730469 791.753906 199.960938 L 791.777344 199.664062 C 792.3125 193.238281 792.410156 185.25 788.363281 184.269531 C 786.273438 183.761719 784.640625 185.621094 784.171875 187.046875 C 784.078125 185.394531 782.078125 183.3125 779.796875 183.3125 C 777.777344 183.3125 775.792969 184.664062 775.007812 186.804688 C 774.546875 185.554688 773.710938 184.496094 771.921875 184.175781 C 770.222656 183.875 768.589844 184.71875 766.621094 187.683594 C 765.773438 189.035156 764.921875 190.660156 764.09375 192.40625 C 759.742188 201.089844 754.210938 214.054688 754.210938 214.054688 C 754.179688 213.542969 754.1875 213.09375 754.152344 212.527344 C 753.863281 207.773438 753.492188 201.21875 753.046875 193.039062 C 752.304688 179.457031 751.539062 164.609375 751.539062 164.332031 L 751.539062 138.539062 C 751.539062 138.378906 751.589844 138.226562 751.691406 138.097656 C 751.863281 137.875 752.777344 136.777344 753.875 136.9375 C 754.308594 137 754.90625 137.285156 755.292969 138.28125 C 756.046875 140.214844 755.542969 157.683594 755.371094 163.027344 C 760.722656 162.199219 771.277344 160.789062 778.085938 159.910156 C 784.554688 159.070312 790.53125 158.328125 794.914062 157.816406 C 802.929688 156.882812 802.96875 156.9375 803.292969 157.367188 C 803.40625 157.519531 803.710938 157.925781 805.730469 184.804688 C 806.207031 191.132812 807.738281 211.925781 807.5 213.867188 Z M 807.5 213.867188 C 807.464844 214.15625 807.261719 214.390625 806.980469 214.472656 C 805.761719 214.816406 801.277344 214.800781 789.835938 216.46875 C 790.46875 211.085938 791.527344 202.730469 791.753906 199.960938 L 791.777344 199.664062 C 792.3125 193.238281 792.410156 185.25 788.363281 184.269531 C 786.273438 183.761719 784.640625 185.621094 784.171875 187.046875 C 784.078125 185.394531 782.078125 183.3125 779.796875 183.3125 C 777.777344 183.3125 775.792969 184.664062 775.007812 186.804688 C 774.546875 185.554688 773.710938 184.496094 771.921875 184.175781 C 770.222656 183.875 768.589844 184.71875 766.621094 187.683594 C 765.773438 189.035156 764.921875 190.660156 764.09375 192.40625 C 759.742188 201.089844 754.210938 214.054688 754.210938 214.054688 C 754.179688 213.542969 754.1875 213.09375 754.152344 212.527344 C 753.863281 207.773438 753.492188 201.21875 753.046875 193.039062 C 752.304688 179.457031 751.539062 164.609375 751.539062 164.332031 L 751.539062 138.539062 C 751.539062 138.378906 751.589844 138.226562 751.691406 138.097656 C 751.863281 137.875 752.777344 136.777344 753.875 136.9375 C 754.308594 137 754.90625 137.285156 755.292969 138.28125 C 756.046875 140.214844 755.542969 157.683594 755.371094 163.027344 C 760.722656 162.199219 771.277344 160.789062 778.085938 159.910156 C 784.554688 159.070312 790.53125 158.328125 794.914062 157.816406 C 802.929688 156.882812 802.96875 156.9375 803.292969 157.367188 C 803.40625 157.519531 803.710938 157.925781 805.730469 184.804688 C 806.207031 191.132812 807.738281 211.925781 807.5 213.867188 Z M 807.5 213.867188 " fill-opacity="1" fill-rule="nonzero"/><path fill="#101011" d="M 864.96875 103.515625 C 864.945312 101.816406 864.210938 100.429688 863.03125 99.726562 C 864.335938 97.621094 863.792969 94.730469 862.539062 92.597656 C 861.078125 90.109375 858.847656 88.710938 856.640625 88.808594 C 856.691406 86.53125 854.558594 84.511719 852.097656 83.558594 C 849.90625 82.710938 847.328125 82.691406 845.765625 84.21875 C 845.019531 82.886719 843.4375 81.867188 841.414062 81.507812 C 838.9375 81.070312 835.964844 81.738281 834.28125 84.078125 C 833.339844 82.953125 831.574219 82.15625 829.476562 82.007812 C 826.726562 81.8125 823.40625 82.761719 821.761719 85.882812 C 820.097656 84.527344 817.390625 84.59375 815.445312 85.589844 C 813.773438 86.445312 812.335938 88.191406 812.816406 90.6875 C 811.1875 90.59375 809.65625 91.246094 808.5 92.574219 C 806.851562 94.472656 806.316406 97.371094 807.230469 99.460938 C 807.882812 100.960938 809.175781 101.910156 810.914062 102.199219 C 810.28125 104.375 810.421875 106.15625 811.332031 107.511719 C 812.421875 109.125 814.292969 109.636719 815.296875 109.800781 L 815.316406 110.839844 C 812.300781 111.128906 810.359375 113.238281 809.957031 116.734375 C 809.398438 121.578125 813.550781 123.648438 815.542969 124.355469 L 816.1875 157.476562 C 816.191406 157.707031 816.308594 157.925781 816.503906 158.054688 C 816.613281 158.132812 823.511719 162.722656 833.808594 162.722656 C 840.160156 162.722656 847.800781 160.976562 855.9375 155.351562 C 856.132812 155.21875 856.25 154.996094 856.25 154.757812 L 856.25 124.597656 C 858.957031 123.878906 863.105469 121.53125 862.550781 116.734375 C 862.429688 115.683594 862.171875 114.769531 861.800781 113.988281 C 862.601562 113.613281 863.347656 112.84375 863.742188 111.886719 C 864.039062 111.175781 864.488281 109.472656 863.085938 107.695312 C 864.402344 106.796875 864.992188 105.027344 864.96875 103.515625 Z M 811.386719 116.898438 C 811.710938 114.082031 813.042969 112.539062 815.339844 112.28125 L 815.515625 122.808594 C 813.640625 122.046875 810.988281 120.351562 811.386719 116.898438 Z M 855.390625 123.316406 C 855.054688 123.382812 854.808594 123.679688 854.808594 124.023438 L 854.808594 154.378906 C 835.953125 167.203125 820.007812 158.507812 817.621094 157.0625 L 816.976562 124.097656 C 816.980469 124.082031 816.992188 124.070312 816.996094 124.054688 C 817.042969 123.898438 817.023438 123.742188 816.96875 123.597656 L 816.742188 109.976562 C 818.539062 110.136719 822.660156 110.0625 825.085938 106.601562 C 826.414062 107.980469 828.730469 108.863281 831.34375 108.917969 C 834.066406 108.972656 836.46875 108.132812 837.933594 106.664062 C 839.070312 108.527344 841.269531 109.984375 843.945312 110.582031 C 846.0625 111.054688 848.085938 110.890625 849.597656 110.175781 C 849.195312 114.707031 849.640625 117.101562 850.925781 117.300781 C 852.664062 117.570312 854.089844 114.25 854.734375 112.453125 C 855.652344 112.230469 857.578125 111.945312 859.101562 112.945312 C 860.222656 113.6875 860.902344 115.015625 861.121094 116.898438 C 861.710938 122.015625 855.648438 123.265625 855.390625 123.316406 Z M 755.371094 163.027344 C 757.011719 162.773438 759.144531 162.464844 761.503906 162.132812 C 771.113281 158.648438 788.511719 152.402344 795.464844 150.285156 C 795.679688 152.179688 796.03125 156.082031 796.175781 157.671875 C 796.6875 157.613281 797.164062 157.558594 797.605469 157.507812 C 797.433594 155.574219 796.96875 150.457031 796.78125 149.242188 C 796.75 149.039062 796.632812 148.859375 796.457031 148.746094 C 796.285156 148.636719 796.070312 148.605469 795.871094 148.664062 C 791.679688 149.882812 782.183594 153.195312 773.328125 156.351562 C 773.210938 154.644531 772.78125 148.660156 772.03125 139.933594 C 772.003906 139.625 771.789062 139.371094 771.492188 139.296875 C 771.191406 139.21875 770.882812 139.34375 770.714844 139.597656 C 768.058594 143.652344 758.921875 156.570312 755.417969 161.507812 C 755.402344 162.078125 755.386719 162.59375 755.371094 163.027344 Z M 770.773438 142.097656 C 771.492188 150.617188 771.867188 156.089844 771.921875 156.851562 C 765.5 159.148438 759.597656 161.289062 756.546875 162.402344 C 759.625 158.0625 767.222656 147.328125 770.773438 142.097656 Z M 826.601562 117.324219 C 826.878906 117.042969 826.875 116.585938 826.59375 116.308594 C 826.3125 116.027344 825.855469 116.03125 825.574219 116.316406 C 824.707031 117.195312 823.90625 117.621094 823.253906 117.542969 C 822.566406 117.460938 822.171875 116.832031 822.160156 116.8125 C 821.957031 116.472656 821.519531 116.355469 821.179688 116.554688 C 820.835938 116.753906 820.714844 117.191406 820.914062 117.539062 C 820.945312 117.589844 821.652344 118.789062 823.058594 118.96875 C 823.175781 118.984375 823.292969 118.992188 823.414062 118.992188 C 824.4375 118.992188 825.507812 118.433594 826.601562 117.324219 Z M 842.519531 116.5625 C 842.179688 116.359375 841.738281 116.472656 841.535156 116.8125 C 841.53125 116.816406 841.136719 117.460938 840.441406 117.542969 C 839.789062 117.621094 838.984375 117.195312 838.117188 116.316406 C 837.839844 116.03125 837.382812 116.027344 837.101562 116.308594 C 836.816406 116.585938 836.8125 117.042969 837.09375 117.324219 C 838.183594 118.433594 839.253906 118.992188 840.28125 118.992188 C 840.398438 118.992188 840.519531 118.984375 840.636719 118.96875 C 842.039062 118.789062 842.75 117.589844 842.777344 117.539062 C 842.976562 117.195312 842.859375 116.761719 842.519531 116.5625 Z M 840.710938 125.574219 C 839.148438 127.730469 837.597656 129.332031 836.078125 130.378906 C 836.660156 128.914062 837.179688 127.304688 837.582031 125.535156 C 837.671875 125.148438 837.429688 124.761719 837.042969 124.675781 C 836.65625 124.582031 836.269531 124.828125 836.179688 125.214844 C 835.601562 127.75 834.789062 129.921875 833.898438 131.75 C 833.898438 131.75 833.898438 131.75 833.898438 131.753906 C 831.761719 136.152344 829.183594 138.511719 828.285156 138.824219 C 828.109375 138.21875 828.546875 136.136719 828.9375 134.277344 C 829.195312 133.039062 829.492188 131.632812 829.78125 130.007812 C 831.242188 121.800781 831.078125 117.273438 831.066406 117.085938 C 831.050781 116.6875 830.710938 116.367188 830.320312 116.398438 C 829.921875 116.414062 829.613281 116.746094 829.628906 117.144531 C 829.632812 117.191406 829.792969 121.722656 828.363281 129.753906 C 828.320312 129.992188 828.28125 130.214844 828.238281 130.445312 C 825.855469 128.644531 824.480469 125.726562 824.464844 125.695312 C 824.300781 125.332031 823.875 125.175781 823.511719 125.339844 C 823.152344 125.507812 822.992188 125.933594 823.160156 126.296875 C 823.230469 126.449219 824.902344 130.019531 827.9375 131.992188 C 827.796875 132.699219 827.660156 133.363281 827.527344 133.980469 C 826.804688 137.429688 826.441406 139.15625 827.386719 140.023438 C 827.511719 140.140625 827.753906 140.296875 828.132812 140.296875 C 828.277344 140.296875 828.441406 140.273438 828.628906 140.214844 C 830.046875 139.773438 832.847656 137.148438 835.105469 132.574219 C 837.347656 131.585938 839.625 129.523438 841.875 126.417969 C 842.109375 126.09375 842.039062 125.644531 841.714844 125.414062 C 841.394531 125.179688 840.945312 125.25 840.710938 125.574219 Z M 756.242188 209.382812 C 758.101562 204.238281 762.15625 193.128906 764.757812 188 C 766.613281 184.335938 769.335938 182.339844 772.03125 182.660156 C 773.164062 182.796875 774.140625 183.347656 774.800781 184.164062 C 774.945312 184.050781 775.125 184 775.3125 184.019531 C 776.761719 182.386719 778.785156 181.574219 780.84375 181.917969 C 782.269531 182.15625 783.449219 182.9375 784.171875 184.042969 C 784.277344 184.007812 784.386719 183.992188 784.503906 184.007812 C 784.648438 184.03125 784.769531 184.105469 784.875 184.199219 C 785.691406 183.414062 786.820312 182.652344 788.125 182.800781 C 789.539062 182.960938 790.777344 184.148438 791.804688 186.328125 C 794.460938 191.964844 792.976562 204.699219 791.628906 213.789062 C 786.15625 250.683594 776.566406 277.726562 776.472656 277.996094 C 776.367188 278.289062 776.089844 278.472656 775.792969 278.472656 C 775.714844 278.472656 775.632812 278.460938 775.550781 278.429688 C 775.175781 278.296875 774.980469 277.886719 775.117188 277.511719 C 775.210938 277.242188 784.753906 250.324219 790.203125 213.578125 C 790.964844 208.449219 793.28125 192.835938 790.503906 186.941406 C 789.710938 185.265625 788.835938 184.328125 787.964844 184.230469 C 786.671875 184.085938 785.386719 185.71875 784.902344 186.335938 C 784.890625 186.351562 784.882812 186.359375 784.875 186.371094 C 784.5 188.816406 783.777344 193.4375 783.445312 194.9375 C 783.371094 195.273438 783.074219 195.5 782.742188 195.5 C 782.691406 195.5 782.640625 195.496094 782.585938 195.484375 C 782.199219 195.398438 781.953125 195.011719 782.042969 194.625 C 782.363281 193.171875 783.089844 188.511719 783.460938 186.09375 C 783.210938 184.644531 782.128906 183.59375 780.605469 183.339844 C 779.089844 183.085938 776.863281 183.683594 775.542969 186.1875 L 773.144531 194.089844 C 773.050781 194.398438 772.765625 194.601562 772.457031 194.601562 C 772.386719 194.601562 772.316406 194.589844 772.246094 194.570312 C 771.867188 194.453125 771.652344 194.050781 771.769531 193.671875 L 774.121094 185.90625 C 773.820312 184.925781 772.953125 184.21875 771.859375 184.089844 C 769.789062 183.839844 767.613281 185.546875 766.039062 188.648438 C 763.386719 193.882812 759.195312 205.421875 757.410156 210.375 Z M 935.925781 161.238281 C 935.378906 158.636719 933.929688 151.722656 927.976562 152.589844 C 925.992188 152.882812 924.796875 153.859375 924.09375 155.148438 C 923.257812 154.386719 921.78125 153.484375 919.589844 153.695312 C 918.3125 153.816406 917.273438 154.253906 916.496094 154.992188 C 915.574219 148.367188 913.445312 144.625 911.171875 144.699219 C 908.585938 144.785156 905.800781 147.105469 905.207031 150.1875 C 904.617188 153.238281 905.246094 162.269531 905.410156 163.945312 C 903.894531 164.617188 902.804688 165.605469 902.519531 166.972656 C 901.664062 171.050781 903.800781 180.707031 904.949219 185.378906 C 904.949219 185.394531 904.941406 185.402344 904.945312 185.417969 C 904.953125 185.710938 905.863281 214.855469 908.101562 233.613281 C 908.144531 233.976562 908.457031 234.246094 908.816406 234.246094 C 908.84375 234.246094 908.871094 234.246094 908.902344 234.242188 C 909.296875 234.195312 909.578125 233.835938 909.53125 233.441406 C 907.300781 214.746094 906.390625 185.664062 906.382812 185.375 C 906.382812 185.375 906.230469 184.492188 905.886719 183.367188 C 904.75 178.425781 903.234375 170.585938 903.925781 167.269531 C 904.394531 165.039062 908.746094 164.097656 912.804688 164.324219 C 917.300781 164.574219 920.695312 166.105469 920.871094 167.96875 C 920.941406 168.714844 920.738281 169.316406 920.242188 169.8125 C 918.453125 171.605469 913.449219 171.5625 911.671875 171.394531 C 911.277344 171.359375 910.925781 171.648438 910.886719 172.046875 C 910.851562 172.441406 911.140625 172.792969 911.539062 172.828125 C 911.726562 172.847656 914.710938 173.105469 917.488281 172.546875 C 918.167969 172.761719 921.546875 174.101562 922.375 179.539062 C 922.4375 179.929688 922.804688 180.199219 923.195312 180.140625 C 923.324219 180.121094 923.441406 180.066406 923.539062 179.988281 C 923.730469 179.835938 923.839844 179.582031 923.796875 179.320312 C 923.148438 175.050781 921.0625 172.945312 919.507812 171.949219 C 920.183594 171.660156 920.792969 171.300781 921.261719 170.828125 C 921.976562 170.113281 922.332031 169.234375 922.320312 168.21875 C 922.335938 168.207031 922.351562 168.203125 922.367188 168.195312 C 922.371094 168.1875 922.378906 168.183594 922.386719 168.175781 C 923.121094 167.539062 923.71875 166.628906 924.175781 165.457031 C 925.035156 166.964844 926.5 168.027344 928.050781 168.09375 C 929.203125 168.140625 932 167.648438 933.097656 162.074219 C 933.171875 161.683594 932.917969 161.308594 932.527344 161.230469 C 932.140625 161.152344 931.761719 161.40625 931.683594 161.796875 C 931.0625 164.953125 929.761719 166.722656 928.109375 166.65625 C 926.5625 166.589844 925.078125 164.933594 924.863281 163.03125 C 924.566406 160.402344 924.515625 158.257812 924.996094 156.710938 C 925.003906 156.6875 925.015625 156.664062 925.019531 156.640625 C 925.496094 155.179688 926.464844 154.269531 928.1875 154.015625 C 931.417969 153.542969 933.3125 155.792969 934.519531 161.535156 C 935.226562 164.910156 936.925781 180.273438 937.621094 186.5625 C 937.910156 186.449219 938.8125 185.828125 939.007812 185.644531 C 938.347656 179.664062 936.679688 164.832031 935.925781 161.238281 Z M 914.878906 163.089844 C 914.207031 162.992188 913.535156 162.921875 912.882812 162.886719 C 910.785156 162.769531 908.621094 162.941406 906.8125 163.449219 C 906.621094 161.390625 906.105469 153.113281 906.621094 150.460938 C 907.078125 148.082031 909.207031 146.023438 911.082031 146.136719 C 913.695312 146.292969 914.847656 151.710938 915.253906 156.953125 C 914.632812 158.675781 914.667969 160.859375 914.878906 163.089844 Z M 923.402344 162.941406 C 923.082031 164.519531 922.574219 165.757812 921.917969 166.582031 C 921.039062 164.941406 918.816406 163.910156 916.351562 163.359375 C 916.132812 161.265625 916.046875 159.210938 916.523438 157.675781 C 916.644531 157.542969 916.71875 157.367188 916.710938 157.171875 C 916.847656 156.859375 917.015625 156.570312 917.21875 156.320312 C 917.78125 155.621094 918.601562 155.234375 919.722656 155.125 C 921.855469 154.925781 923.082031 156.09375 923.519531 156.621094 C 922.964844 158.707031 923.207031 161.164062 923.402344 162.941406 Z M 892.371094 241.753906 C 892.007812 241.753906 891.695312 241.480469 891.65625 241.109375 L 888.007812 205.589844 C 887.96875 205.195312 888.257812 204.84375 888.652344 204.800781 C 889.050781 204.753906 889.398438 205.046875 889.441406 205.445312 L 893.085938 240.960938 C 893.128906 241.355469 892.839844 241.710938 892.445312 241.75 C 892.421875 241.753906 892.394531 241.753906 892.371094 241.753906 Z M 892.371094 241.753906 " fill-opacity="1" fill-rule="nonzero"/><path fill="#fbbe28" d="M 728.207031 232.5625 C 728.207031 232.5625 716.285156 240.046875 706.027344 240.046875 C 705.789062 240.109375 705.503906 240.246094 705.191406 240.429688 C 703.066406 235.804688 698.035156 224.710938 695.769531 218.5625 C 692.859375 210.660156 688.839844 190.285156 687.589844 185.988281 C 686.34375 181.6875 687.453125 178.222656 683.847656 178.085938 C 680.242188 177.945312 680.105469 198.738281 680.105469 198.738281 C 680.105469 198.738281 673.230469 196.835938 671.648438 197.351562 C 670.066406 197.871094 668.507812 203.769531 668.507812 203.769531 C 668.507812 203.769531 663.75 204.285156 663.886719 209.136719 C 664.027344 213.988281 665.058594 219.378906 667.949219 219.261719 C 671.417969 219.117188 670.863281 213.339844 670.863281 213.339844 L 673.5 213.554688 C 673.5 213.554688 673.3125 228.957031 677.886719 244.207031 C 680.796875 253.902344 682.5625 258.242188 684.171875 260.792969 C 689.808594 269.203125 695.308594 274.238281 695.308594 274.238281 C 695.308594 274.238281 642.632812 279.320312 604.375 273.5 C 603.542969 265.738281 603.449219 193.75 603.449219 193.75 L 587.785156 186.957031 C 587.785156 186.957031 594.507812 171.847656 607.886719 162.144531 C 608.164062 167.410156 611.121094 174.433594 622.210938 174.066406 C 633.300781 173.695312 637.644531 166.859375 636.902344 161.40625 C 636.164062 155.953125 633.808594 149.253906 633.808594 149.253906 C 633.808594 149.253906 649.609375 156.601562 669.292969 148.003906 C 667.074219 156.601562 662.917969 167.132812 670.402344 170.460938 C 677.886719 173.789062 687.453125 174.480469 691.054688 170.738281 C 694.660156 166.996094 694.753906 163.347656 694.753906 163.347656 C 694.753906 163.347656 712.125 179.332031 720.441406 204.839844 C 728.761719 230.34375 728.207031 232.5625 728.207031 232.5625 Z M 728.207031 232.5625 C 728.207031 232.5625 716.285156 240.046875 706.027344 240.046875 C 705.789062 240.109375 705.503906 240.246094 705.191406 240.429688 C 703.066406 235.804688 698.035156 224.710938 695.769531 218.5625 C 692.859375 210.660156 688.839844 190.285156 687.589844 185.988281 C 686.34375 181.6875 687.453125 178.222656 683.847656 178.085938 C 680.242188 177.945312 680.105469 198.738281 680.105469 198.738281 C 680.105469 198.738281 673.230469 196.835938 671.648438 197.351562 C 670.066406 197.871094 668.507812 203.769531 668.507812 203.769531 C 668.507812 203.769531 663.75 204.285156 663.886719 209.136719 C 664.027344 213.988281 665.058594 219.378906 667.949219 219.261719 C 671.417969 219.117188 670.863281 213.339844 670.863281 213.339844 L 673.5 213.554688 C 673.5 213.554688 673.3125 228.957031 677.886719 244.207031 C 680.796875 253.902344 682.5625 258.242188 684.171875 260.792969 C 689.808594 269.203125 695.308594 274.238281 695.308594 274.238281 C 695.308594 274.238281 642.632812 279.320312 604.375 273.5 C 603.542969 265.738281 603.449219 193.75 603.449219 193.75 L 587.785156 186.957031 C 587.785156 186.957031 594.507812 171.847656 607.886719 162.144531 C 608.164062 167.410156 611.121094 174.433594 622.210938 174.066406 C 633.300781 173.695312 637.644531 166.859375 636.902344 161.40625 C 636.164062 155.953125 633.808594 149.253906 633.808594 149.253906 C 633.808594 149.253906 649.609375 156.601562 669.292969 148.003906 C 667.074219 156.601562 662.917969 167.132812 670.402344 170.460938 C 677.886719 173.789062 687.453125 174.480469 691.054688 170.738281 C 694.660156 166.996094 694.753906 163.347656 694.753906 163.347656 C 694.753906 163.347656 712.125 179.332031 720.441406 204.839844 C 728.761719 230.34375 728.207031 232.5625 728.207031 232.5625 Z M 728.207031 232.5625 " fill-opacity="1" fill-rule="nonzero"/><path fill="#399be6" d="M 627.292969 248.734375 C 626.90625 248.964844 608.394531 249.847656 586.96875 250.792969 C 585.601562 248.78125 582.339844 243.902344 581.203125 241.570312 C 579.746094 238.589844 574.6875 238.382812 573.578125 242.195312 C 572.121094 240.808594 566.230469 239.769531 565.332031 244.066406 C 562.972656 241.917969 557.359375 243.789062 557.84375 251.136719 C 557.867188 251.457031 557.914062 251.75 557.957031 252.042969 C 538.207031 252.878906 521.867188 253.539062 521.574219 253.539062 C 520.835938 253.539062 518.800781 189.773438 519.539062 189.40625 C 520.28125 189.035156 624.890625 185.523438 624.890625 186.261719 C 624.890625 186.261719 628.214844 248.179688 627.292969 248.734375 Z M 627.292969 248.734375 C 626.90625 248.964844 608.394531 249.847656 586.96875 250.792969 C 585.601562 248.78125 582.339844 243.902344 581.203125 241.570312 C 579.746094 238.589844 574.6875 238.382812 573.578125 242.195312 C 572.121094 240.808594 566.230469 239.769531 565.332031 244.066406 C 562.972656 241.917969 557.359375 243.789062 557.84375 251.136719 C 557.867188 251.457031 557.914062 251.75 557.957031 252.042969 C 538.207031 252.878906 521.867188 253.539062 521.574219 253.539062 C 520.835938 253.539062 518.800781 189.773438 519.539062 189.40625 C 520.28125 189.035156 624.890625 185.523438 624.890625 186.261719 C 624.890625 186.261719 628.214844 248.179688 627.292969 248.734375 Z M 627.292969 248.734375 " fill-opacity="1" fill-rule="nonzero"/><path fill="#2e3192" d="M 554.277344 235.78125 C 554.300781 236.269531 553.925781 236.6875 553.4375 236.710938 L 541.382812 237.289062 C 541.371094 237.289062 541.363281 237.289062 541.351562 237.289062 C 540.878906 237.296875 540.480469 236.925781 540.457031 236.445312 C 540.433594 235.957031 540.808594 235.542969 541.296875 235.519531 L 546.191406 235.285156 L 544.808594 206.707031 L 542.339844 210.117188 C 542.054688 210.515625 541.5 210.601562 541.105469 210.316406 C 540.707031 210.03125 540.617188 209.476562 540.90625 209.078125 L 544.851562 203.621094 C 545.070312 203.316406 545.460938 203.183594 545.820312 203.289062 C 546.183594 203.398438 546.4375 203.71875 546.453125 204.097656 L 547.960938 235.199219 L 553.351562 234.941406 C 553.839844 234.894531 554.253906 235.292969 554.277344 235.78125 Z M 554.277344 235.78125 C 554.300781 236.269531 553.925781 236.6875 553.4375 236.710938 L 541.382812 237.289062 C 541.371094 237.289062 541.363281 237.289062 541.351562 237.289062 C 540.878906 237.296875 540.480469 236.925781 540.457031 236.445312 C 540.433594 235.957031 540.808594 235.542969 541.296875 235.519531 L 546.191406 235.285156 L 544.808594 206.707031 L 542.339844 210.117188 C 542.054688 210.515625 541.5 210.601562 541.105469 210.316406 C 540.707031 210.03125 540.617188 209.476562 540.90625 209.078125 L 544.851562 203.621094 C 545.070312 203.316406 545.460938 203.183594 545.820312 203.289062 C 546.183594 203.398438 546.4375 203.71875 546.453125 204.097656 L 547.960938 235.199219 L 553.351562 234.941406 C 553.839844 234.894531 554.253906 235.292969 554.277344 235.78125 Z M 554.277344 235.78125 " fill-opacity="1" fill-rule="nonzero"/><path fill="#b7303a" d="M 608.917969 234.113281 C 608.925781 234.601562 608.535156 235.003906 608.046875 235.015625 C 608.007812 235.015625 604.019531 235.089844 598.722656 235.3125 C 598.707031 235.3125 598.695312 235.3125 598.683594 235.3125 C 598.394531 235.3125 598.125 235.175781 597.957031 234.9375 C 597.785156 234.691406 597.75 234.371094 597.863281 234.09375 C 601.253906 225.832031 606.941406 208.929688 604.203125 204.09375 C 603.835938 203.445312 603.34375 203.09375 602.652344 202.988281 C 601.609375 202.828125 600.808594 203.03125 600.214844 203.609375 C 598.648438 205.121094 598.710938 208.890625 598.867188 210.214844 C 598.925781 210.703125 598.578125 211.140625 598.09375 211.199219 C 597.609375 211.257812 597.167969 210.910156 597.109375 210.425781 C 597.082031 210.195312 596.464844 204.773438 598.980469 202.335938 C 599.988281 201.363281 601.3125 200.992188 602.921875 201.238281 C 604.136719 201.421875 605.113281 202.109375 605.746094 203.222656 C 609.148438 209.238281 602.175781 228.015625 600.015625 233.488281 C 604.640625 233.304688 607.980469 233.242188 608.015625 233.242188 C 608.492188 233.238281 608.910156 233.625 608.917969 234.113281 Z M 608.917969 234.113281 C 608.925781 234.601562 608.535156 235.003906 608.046875 235.015625 C 608.007812 235.015625 604.019531 235.089844 598.722656 235.3125 C 598.707031 235.3125 598.695312 235.3125 598.683594 235.3125 C 598.394531 235.3125 598.125 235.175781 597.957031 234.9375 C 597.785156 234.691406 597.75 234.371094 597.863281 234.09375 C 601.253906 225.832031 606.941406 208.929688 604.203125 204.09375 C 603.835938 203.445312 603.34375 203.09375 602.652344 202.988281 C 601.609375 202.828125 600.808594 203.03125 600.214844 203.609375 C 598.648438 205.121094 598.710938 208.890625 598.867188 210.214844 C 598.925781 210.703125 598.578125 211.140625 598.09375 211.199219 C 597.609375 211.257812 597.167969 210.910156 597.109375 210.425781 C 597.082031 210.195312 596.464844 204.773438 598.980469 202.335938 C 599.988281 201.363281 601.3125 200.992188 602.921875 201.238281 C 604.136719 201.421875 605.113281 202.109375 605.746094 203.222656 C 609.148438 209.238281 602.175781 228.015625 600.015625 233.488281 C 604.640625 233.304688 607.980469 233.242188 608.015625 233.242188 C 608.492188 233.238281 608.910156 233.625 608.917969 234.113281 Z M 608.917969 234.113281 " fill-opacity="1" fill-rule="nonzero"/><path fill="#101011" d="M 695.628906 163.21875 C 695.257812 160.652344 694.136719 159.292969 693.054688 157.976562 C 691.632812 156.25 690.289062 154.621094 690.460938 149.886719 C 690.523438 148.246094 690.953125 147.054688 691.410156 145.789062 C 692.304688 143.320312 693.226562 140.769531 691.730469 135.027344 C 691.039062 132.390625 690.308594 131.023438 689.667969 129.816406 C 688.257812 127.179688 687.042969 124.90625 687.042969 108.269531 C 687.042969 100.71875 684.554688 94.289062 679.847656 89.675781 C 673.953125 83.898438 664.980469 81.082031 653.148438 81.324219 C 629.320312 81.800781 623.957031 92.4375 621.851562 102.777344 C 620.636719 108.734375 620.828125 116.332031 620.996094 123.035156 C 621.125 128.089844 621.242188 132.863281 620.691406 135.734375 C 620.160156 138.511719 619.019531 139.664062 617.8125 140.882812 C 616.214844 142.5 614.558594 144.175781 614.394531 149.085938 C 614.28125 152.476562 612.675781 153.742188 610.820312 155.210938 C 608.554688 156.996094 605.988281 159.023438 606.917969 165.050781 C 607.621094 169.605469 611.742188 173.074219 617.9375 174.332031 C 619.359375 174.621094 620.898438 174.777344 622.457031 174.777344 C 627.644531 174.777344 633.125 173.050781 635.808594 168.710938 C 639.664062 162.472656 637.054688 155.675781 634.957031 150.214844 C 633.886719 147.429688 632.875 144.800781 632.890625 142.746094 C 632.972656 132.105469 633.570312 112.4375 633.699219 108.324219 C 636.523438 107.933594 646.039062 105.988281 650.683594 97.167969 C 652.652344 105.351562 658.546875 110.125 668.25 111.375 C 668.394531 111.390625 668.542969 111.375 668.675781 111.324219 C 668.722656 111.304688 673.140625 109.664062 676.066406 111.226562 C 677.300781 111.882812 678.085938 113 678.46875 114.644531 C 679.128906 117.472656 678.480469 119.925781 676.648438 121.554688 C 675.105469 122.921875 672.886719 123.527344 670.816406 123.210938 C 670.664062 123.113281 670.476562 123.058594 670.28125 123.070312 C 670.246094 123.074219 670.207031 123.078125 670.171875 123.082031 C 669.949219 123.027344 669.726562 122.960938 669.511719 122.882812 C 669.050781 122.714844 668.542969 122.953125 668.375 123.410156 C 668.210938 123.871094 668.445312 124.378906 668.90625 124.546875 C 669.101562 124.617188 669.292969 124.679688 669.492188 124.734375 C 669.644531 127.371094 670.164062 136.414062 670.28125 139.855469 C 670.355469 142.144531 669.671875 144.980469 668.640625 149.269531 C 667.925781 152.234375 667.035156 155.921875 666.160156 160.5 C 665.863281 162.046875 665.167969 165.675781 667.484375 168.800781 C 669.71875 171.808594 674.226562 173.691406 680.890625 174.390625 C 686.027344 174.933594 690.527344 173.628906 693.234375 170.816406 C 695.191406 168.777344 696.042969 166.082031 695.628906 163.21875 Z M 726.046875 233.777344 C 726.9375 238.453125 730.398438 259.566406 722.890625 271.035156 C 720.371094 274.890625 716.8125 277.292969 712.324219 278.175781 C 706.417969 279.339844 700.738281 277.722656 695.449219 273.375 C 683.027344 263.160156 674.015625 238.339844 674.015625 214.355469 C 674.015625 214.011719 673.8125 213.699219 673.5 213.550781 L 671.097656 212.445312 C 670.796875 212.304688 670.4375 212.347656 670.179688 212.550781 C 669.917969 212.757812 669.792969 213.09375 669.855469 213.417969 C 670 214.152344 670.179688 216.3125 669.3125 217.53125 C 668.929688 218.0625 668.386719 218.367188 667.648438 218.46875 C 667.125 218.539062 666.707031 218.363281 666.3125 217.910156 C 664.503906 215.839844 664.449219 209.761719 665.109375 207.386719 C 665.828125 204.804688 668.089844 203.914062 668.503906 203.769531 C 669.113281 203.714844 673.246094 203.417969 676.398438 205.152344 C 676.535156 205.226562 676.679688 205.261719 676.824219 205.261719 C 677.136719 205.261719 677.441406 205.097656 677.601562 204.804688 C 677.835938 204.375 677.679688 203.835938 677.253906 203.601562 C 674.570312 202.125 671.402344 201.921875 669.621094 201.941406 C 669.980469 201.101562 670.558594 199.96875 671.382812 199.054688 C 672.15625 198.195312 676.414062 198.6875 679.910156 199.683594 C 680.171875 199.757812 680.460938 199.707031 680.679688 199.539062 C 680.902344 199.375 681.035156 199.117188 681.039062 198.839844 C 681.039062 198.789062 681.089844 193.589844 681.589844 188.464844 C 682.503906 179.09375 684.019531 178.832031 684.03125 178.832031 C 685.691406 178.832031 686.308594 182.625 687.167969 187.878906 C 687.699219 191.105469 688.355469 195.121094 689.457031 199.601562 C 699.566406 240.039062 711.375 252.015625 711.875 252.507812 C 712.222656 252.847656 712.78125 252.84375 713.125 252.496094 C 713.46875 252.148438 713.464844 251.589844 713.117188 251.246094 C 713 251.128906 701.136719 239.015625 691.175781 199.175781 C 690.089844 194.765625 689.441406 190.789062 688.917969 187.59375 C 687.84375 181.023438 687.195312 177.0625 684.03125 177.0625 C 682.582031 177.0625 680.792969 178.339844 679.824219 188.304688 C 679.460938 192.058594 679.332031 195.847656 679.285156 197.683594 C 676.660156 197.023438 671.679688 196.078125 670.066406 197.871094 C 668.691406 199.398438 667.910156 201.355469 667.613281 202.21875 C 666.601562 202.640625 664.234375 203.921875 663.402344 206.910156 C 662.632812 209.683594 662.648438 216.40625 664.980469 219.074219 C 665.765625 219.976562 666.769531 220.375 667.886719 220.222656 C 669.121094 220.054688 670.085938 219.496094 670.757812 218.554688 C 671.59375 217.378906 671.761719 215.84375 671.746094 214.695312 L 672.246094 214.925781 C 672.378906 235.832031 679.957031 262.929688 694.324219 274.742188 C 698.832031 278.449219 703.625 280.316406 708.613281 280.316406 C 709.949219 280.316406 711.304688 280.183594 712.667969 279.914062 C 717.640625 278.933594 721.582031 276.273438 724.375 272.003906 C 732.707031 259.269531 728.398438 236.347656 727.679688 232.875 C 727.132812 233.199219 726.476562 233.566406 726.046875 233.777344 Z M 604.152344 269.460938 C 601.925781 273.835938 597.660156 278.441406 589.539062 278.898438 C 570.800781 279.9375 559.265625 259.097656 558.683594 250.335938 C 558.503906 247.640625 559.328125 245.386719 560.835938 244.457031 C 561.824219 243.851562 563 243.882812 564.253906 244.53125 C 564.75 246.269531 566.957031 253.425781 570.5625 256.648438 C 570.730469 256.800781 570.941406 256.875 571.152344 256.875 C 571.394531 256.875 571.636719 256.773438 571.8125 256.578125 C 572.140625 256.210938 572.109375 255.652344 571.742188 255.328125 C 568.476562 252.410156 566.351562 245.414062 565.9375 243.96875 C 566.386719 242.78125 567.484375 241.972656 568.933594 241.796875 C 570.507812 241.609375 571.96875 242.226562 572.691406 243.378906 C 572.964844 244.375 574.628906 249.882812 578.832031 253.644531 C 579.003906 253.796875 579.210938 253.871094 579.421875 253.871094 C 579.667969 253.871094 579.910156 253.769531 580.082031 253.574219 C 580.410156 253.210938 580.378906 252.648438 580.015625 252.324219 C 576.304688 249.003906 574.71875 244.003906 574.421875 242.984375 C 574.769531 241.390625 575.671875 240.429688 576.980469 240.277344 C 578.347656 240.121094 579.761719 240.890625 580.277344 242.066406 C 581.664062 245.238281 590.09375 257.328125 594.152344 261.203125 C 594.503906 261.539062 595.066406 261.527344 595.40625 261.175781 C 595.742188 260.820312 595.730469 260.257812 595.375 259.921875 C 591.289062 256.023438 583.074219 244.046875 581.898438 241.355469 C 581.070312 239.464844 578.917969 238.277344 576.78125 238.519531 C 576.578125 238.542969 576.378906 238.578125 576.1875 238.625 L 573.839844 188.253906 C 573.816406 187.765625 573.398438 187.398438 572.914062 187.414062 C 572.425781 187.433594 572.046875 187.847656 572.070312 188.335938 L 574.453125 239.511719 C 573.914062 239.960938 573.46875 240.539062 573.140625 241.242188 C 571.980469 240.292969 570.386719 239.839844 568.722656 240.039062 C 566.882812 240.261719 565.363281 241.253906 564.5625 242.710938 C 562.917969 242.019531 561.292969 242.097656 559.90625 242.949219 C 557.808594 244.242188 556.6875 247.046875 556.914062 250.457031 C 557.519531 259.496094 569.171875 280.707031 588.1875 280.707031 C 588.667969 280.707031 589.152344 280.695312 589.636719 280.667969 C 597.089844 280.25 601.59375 276.570312 604.300781 272.550781 C 604.257812 271.476562 604.191406 270.21875 604.152344 269.460938 Z M 669.984375 258.121094 C 669.867188 258.121094 669.742188 258.097656 669.625 258.042969 C 646.632812 247.792969 632.777344 225.765625 632.640625 225.542969 C 632.382812 225.128906 632.507812 224.582031 632.925781 224.324219 C 633.339844 224.066406 633.886719 224.195312 634.144531 224.609375 C 634.277344 224.824219 647.863281 246.402344 670.347656 256.425781 C 670.792969 256.625 670.996094 257.148438 670.796875 257.597656 C 670.648438 257.925781 670.324219 258.121094 669.984375 258.121094 Z M 639.644531 121.15625 C 639.207031 121.378906 639.035156 121.910156 639.257812 122.347656 C 639.339844 122.511719 641.296875 126.296875 644.695312 128.53125 C 644.492188 129.933594 644.269531 131.160156 644.078125 132.175781 C 643.546875 135.050781 643.222656 136.785156 644.605469 137.550781 C 644.875 137.703125 645.199219 137.777344 645.550781 137.777344 C 646.074219 137.777344 646.664062 137.617188 647.253906 137.300781 C 648.410156 136.6875 650.660156 134.867188 652.355469 129.691406 C 655.179688 128.777344 657.992188 126.40625 660.726562 122.601562 C 661.011719 122.203125 660.921875 121.648438 660.523438 121.363281 C 660.125 121.078125 659.570312 121.167969 659.285156 121.566406 C 657.171875 124.511719 655.058594 126.496094 652.976562 127.53125 C 653.515625 125.390625 653.960938 122.804688 654.234375 119.667969 C 654.277344 119.179688 653.917969 118.75 653.429688 118.707031 C 652.9375 118.664062 652.511719 119.023438 652.46875 119.511719 C 652.132812 123.351562 651.550781 126.292969 650.871094 128.550781 C 650.804688 128.664062 650.769531 128.792969 650.757812 128.925781 C 649.371094 133.324219 647.617188 134.976562 646.707031 135.570312 C 645.988281 136.035156 645.527344 136.023438 645.464844 136.003906 C 645.226562 135.703125 645.554688 133.925781 645.820312 132.5 C 646.066406 131.1875 646.371094 129.554688 646.609375 127.597656 C 647.300781 121.910156 647.039062 114.199219 647.027344 113.875 C 647.011719 113.386719 646.59375 113.007812 646.113281 113.019531 C 645.625 113.039062 645.242188 113.449219 645.257812 113.9375 C 645.261719 114.011719 645.5 121.070312 644.941406 126.535156 C 642.378906 124.523438 640.851562 121.578125 640.835938 121.542969 C 640.613281 121.109375 640.078125 120.9375 639.644531 121.15625 Z M 639.652344 114.4375 C 640.597656 114.4375 641.363281 113.671875 641.363281 112.726562 C 641.363281 111.785156 640.597656 111.019531 639.652344 111.019531 C 638.707031 111.019531 637.941406 111.785156 637.941406 112.726562 C 637.941406 113.671875 638.707031 114.4375 639.652344 114.4375 Z M 657.304688 114.160156 C 658.246094 114.160156 659.011719 113.394531 659.011719 112.449219 C 659.011719 111.507812 658.246094 110.742188 657.304688 110.742188 C 656.359375 110.742188 655.59375 111.507812 655.59375 112.449219 C 655.59375 113.394531 656.359375 114.160156 657.304688 114.160156 Z M 669.484375 155.375 C 669.269531 154.9375 668.738281 154.757812 668.296875 154.976562 C 652.148438 163.003906 634.472656 155.585938 634.296875 155.507812 C 633.847656 155.316406 633.324219 155.523438 633.132812 155.972656 C 632.9375 156.421875 633.148438 156.941406 633.59375 157.136719 C 634.078125 157.34375 641.644531 160.527344 651.484375 160.527344 C 656.929688 160.527344 663.066406 159.554688 669.085938 156.5625 C 669.523438 156.34375 669.703125 155.8125 669.484375 155.375 Z M 674.933594 115.34375 C 675.421875 115.394531 675.847656 115.039062 675.898438 114.554688 C 675.953125 114.070312 675.597656 113.632812 675.113281 113.582031 C 673.523438 113.417969 670.078125 114.261719 668.390625 118.660156 C 668.214844 119.117188 668.445312 119.628906 668.898438 119.804688 C 669.003906 119.84375 669.113281 119.863281 669.21875 119.863281 C 669.574219 119.863281 669.910156 119.648438 670.042969 119.292969 C 670.363281 118.460938 670.75 117.804688 671.15625 117.285156 C 671.410156 117.585938 672.070312 118.507812 671.824219 119.6875 C 671.722656 120.167969 672.03125 120.636719 672.511719 120.734375 C 672.570312 120.75 672.632812 120.753906 672.691406 120.753906 C 673.101562 120.753906 673.472656 120.464844 673.558594 120.050781 C 673.972656 118.054688 672.863281 116.554688 672.453125 116.078125 C 673.703125 115.265625 674.84375 115.335938 674.933594 115.34375 Z M 674.933594 115.34375 " fill-opacity="1" fill-rule="nonzero"/><g clip-path="url(#f2a481b750)"><g clip-path="url(#399a9e6b83)"><path fill="#000000" d="M 72.410156 259.863281 L 966.429688 259.863281 L 966.429688 494.914062 L 72.410156 494.914062 Z M 72.410156 259.863281 " fill-opacity="1" fill-rule="nonzero"/></g></g><g clip-path="url(#49c95d5eba)"><g clip-path="url(#7cd143e259)"><path fill="#000000" d="M 72.410156 259.863281 L 966.429688 259.863281 L 966.429688 494.914062 L 72.410156 494.914062 Z M 72.410156 259.863281 " fill-opacity="1" fill-rule="nonzero"/></g></g><g clip-path="url(#b9b8808bcd)"><g clip-path="url(#5642893bce)"><path fill="#ffffff" d="M 58.238281 249.984375 L 954.789062 249.984375 L 954.789062 483.925781 L 58.238281 483.925781 Z M 58.238281 249.984375 " fill-opacity="1" fill-rule="nonzero"/></g></g><g clip-path="url(#613334642c)"><g clip-path="url(#e455544823)"><path fill="#000000" d="M 58.238281 249.984375 L 954.789062 249.984375 L 954.789062 483.925781 L 58.238281 483.925781 Z M 58.238281 249.984375 " fill-opacity="1" fill-rule="nonzero"/></g></g><g fill="#101011" fill-opacity="1"><g transform="translate(262.036948, 379.551856)"><g><path d="M 24.941406 1.699219 C 39.078125 1.699219 49.476562 -4.078125 49.476562 -15.632812 C 49.476562 -24.875 43.972656 -29.5625 31.195312 -31.195312 L 25.28125 -31.941406 C 21.203125 -32.484375 19.4375 -33.4375 19.4375 -35.136719 C 19.4375 -37.105469 21.339844 -38.398438 24.261719 -38.398438 C 27.59375 -38.398438 30.175781 -36.425781 30.652344 -32.960938 L 46.144531 -36.222656 C 45.058594 -45.125 36.085938 -50.632812 24.671875 -50.632812 C 11.960938 -50.632812 2.242188 -44.445312 2.242188 -33.980469 C 2.242188 -25.078125 7.746094 -20.386719 20.59375 -18.351562 L 26.371094 -17.535156 C 30.652344 -16.855469 32.484375 -15.835938 32.484375 -14.066406 C 32.484375 -11.894531 29.902344 -10.535156 25.894531 -10.535156 C 21.40625 -10.535156 18.144531 -12.84375 17.332031 -16.992188 L 1.632812 -14 C 2.71875 -2.921875 12.027344 1.699219 24.941406 1.699219 Z M 24.941406 1.699219 "/></g></g></g><g fill="#101011" fill-opacity="1"><g transform="translate(312.190726, 379.551856)"><g><path d="M 22.425781 1.359375 C 26.640625 1.359375 31.535156 0.273438 35.476562 -1.632812 L 33.4375 -12.914062 C 30.785156 -11.417969 29.359375 -10.875 26.640625 -10.875 C 24.195312 -10.875 21.816406 -12.707031 21.816406 -16.515625 L 21.816406 -23.785156 L 34.050781 -23.785156 L 34.050781 -35.339844 L 21.816406 -35.339844 L 21.816406 -47.574219 L 6.183594 -44.175781 L 6.183594 -35.339844 L 0.746094 -35.339844 L 0.746094 -23.785156 L 6.183594 -23.785156 L 6.183594 -13.796875 C 6.183594 -4.28125 12.234375 1.359375 22.425781 1.359375 Z M 22.425781 1.359375 "/></g></g></g><g fill="#101011" fill-opacity="1"><g transform="translate(349.024532, 379.551856)"><g><path d="M 12.234375 0.679688 C 17.332031 0.679688 21.679688 -2.445312 23.785156 -7.679688 L 23.855469 -7.679688 L 26.503906 0 L 39.417969 0 L 39.417969 -35.339844 L 23.785156 -35.339844 L 23.785156 -16.3125 C 23.785156 -13.726562 22.496094 -12.234375 20.386719 -12.234375 C 18.691406 -12.234375 17.671875 -13.386719 17.671875 -15.359375 L 17.671875 -35.339844 L 2.039062 -35.339844 L 2.039062 -9.515625 C 2.039062 -3.125 5.84375 0.679688 12.234375 0.679688 Z M 12.234375 0.679688 "/></g></g></g><g fill="#101011" fill-opacity="1"><g transform="translate(390.479553, 379.551856)"><g><path d="M 14.613281 0.679688 C 19.777344 0.679688 23.582031 -1.972656 25.484375 -7.476562 L 25.554688 -7.476562 L 28.203125 0 L 41.117188 0 L 41.117188 -50.972656 L 25.484375 -50.972656 L 25.484375 -27.660156 L 25.417969 -27.660156 C 23.445312 -33.300781 19.640625 -36.019531 14.613281 -36.019531 C 6.457031 -36.019531 1.019531 -29.085938 1.019531 -17.671875 C 1.019531 -6.253906 6.457031 0.679688 14.613281 0.679688 Z M 21.40625 -12.234375 C 18.621094 -12.234375 16.652344 -14.542969 16.652344 -17.671875 C 16.652344 -20.796875 18.621094 -23.105469 21.40625 -23.105469 C 24.195312 -23.105469 26.164062 -20.796875 26.164062 -17.671875 C 26.164062 -14.542969 24.195312 -12.234375 21.40625 -12.234375 Z M 21.40625 -12.234375 "/></g></g></g><g fill="#101011" fill-opacity="1"><g transform="translate(433.633546, 379.551856)"><g><path d="M 23.785156 1.359375 C 30.992188 1.359375 37.652344 -1.085938 40.914062 -4.824219 L 33.640625 -12.234375 C 31.398438 -10.332031 27.796875 -9.175781 24.535156 -9.175781 C 20.457031 -9.175781 17.535156 -10.738281 17.125 -13.59375 L 39.554688 -13.59375 C 40.097656 -15.085938 40.4375 -17.398438 40.4375 -19.503906 C 40.4375 -29.902344 32.824219 -36.699219 21.136719 -36.699219 C 8.902344 -36.699219 0.953125 -29.15625 1.019531 -17.671875 C 1.019531 -6.183594 10.195312 1.359375 23.785156 1.359375 Z M 16.921875 -21.066406 C 17.125 -24.332031 18.824219 -26.503906 21.136719 -26.503906 C 23.378906 -26.503906 24.804688 -24.332031 24.804688 -21.066406 Z M 16.921875 -21.066406 "/></g></g></g><g fill="#101011" fill-opacity="1"><g transform="translate(475.56426, 379.551856)"><g><path d="M 29.222656 -36.019531 C 24.125 -36.019531 19.777344 -32.894531 17.671875 -27.660156 L 17.601562 -27.660156 L 14.953125 -35.339844 L 2.039062 -35.339844 L 2.039062 0 L 17.671875 0 L 17.671875 -19.03125 C 17.671875 -21.613281 18.960938 -23.105469 21.066406 -23.105469 C 22.765625 -23.105469 23.785156 -21.953125 23.785156 -19.980469 L 23.785156 0 L 39.417969 0 L 39.417969 -25.824219 C 39.417969 -32.214844 35.613281 -36.019531 29.222656 -36.019531 Z M 29.222656 -36.019531 "/></g></g></g><g fill="#101011" fill-opacity="1"><g transform="translate(517.019292, 379.551856)"><g><path d="M 22.425781 1.359375 C 26.640625 1.359375 31.535156 0.273438 35.476562 -1.632812 L 33.4375 -12.914062 C 30.785156 -11.417969 29.359375 -10.875 26.640625 -10.875 C 24.195312 -10.875 21.816406 -12.707031 21.816406 -16.515625 L 21.816406 -23.785156 L 34.050781 -23.785156 L 34.050781 -35.339844 L 21.816406 -35.339844 L 21.816406 -47.574219 L 6.183594 -44.175781 L 6.183594 -35.339844 L 0.746094 -35.339844 L 0.746094 -23.785156 L 6.183594 -23.785156 L 6.183594 -13.796875 C 6.183594 -4.28125 12.234375 1.359375 22.425781 1.359375 Z M 22.425781 1.359375 "/></g></g></g><g fill="#101011" fill-opacity="1"><g transform="translate(553.853098, 379.551856)"><g/></g></g><g fill="#101011" fill-opacity="1"><g transform="translate(565.406152, 379.551856)"><g><path d="M 3.398438 0 L 31.941406 0 C 43.765625 0 50.292969 -4.824219 50.292969 -13.523438 C 50.292969 -19.707031 46.894531 -23.71875 40.777344 -24.738281 L 40.777344 -24.875 C 46.484375 -26.234375 49.613281 -29.972656 49.613281 -35.40625 C 49.613281 -44.105469 42.882812 -48.933594 30.785156 -48.933594 L 3.398438 -48.933594 Z M 21.066406 -29.5625 L 21.066406 -36.699219 L 27.863281 -36.699219 C 30.515625 -36.699219 31.941406 -35.476562 31.941406 -33.300781 C 31.941406 -30.921875 30.515625 -29.5625 27.863281 -29.5625 Z M 21.066406 -12.234375 L 21.066406 -19.707031 L 28.542969 -19.707031 C 31.195312 -19.707031 32.621094 -18.28125 32.621094 -15.632812 C 32.621094 -13.457031 31.195312 -12.234375 28.542969 -12.234375 Z M 21.066406 -12.234375 "/></g></g></g><g fill="#101011" fill-opacity="1"><g transform="translate(617.055023, 379.551856)"><g><path d="M 2.039062 0 L 17.671875 0 L 17.671875 -50.972656 L 2.039062 -50.972656 Z M 2.039062 0 "/></g></g></g><g fill="#101011" fill-opacity="1"><g transform="translate(636.763139, 379.551856)"><g><path d="M 21.40625 1.359375 C 33.710938 1.359375 41.796875 -6.183594 41.796875 -17.671875 C 41.796875 -29.15625 33.710938 -36.699219 21.40625 -36.699219 C 9.105469 -36.699219 1.019531 -29.15625 1.019531 -17.671875 C 1.019531 -6.183594 9.105469 1.359375 21.40625 1.359375 Z M 21.40625 -11.214844 C 18.214844 -11.214844 16.3125 -13.59375 16.3125 -17.671875 C 16.3125 -21.746094 18.214844 -24.125 21.40625 -24.125 C 24.601562 -24.125 26.503906 -21.746094 26.503906 -17.671875 C 26.503906 -13.59375 24.601562 -11.214844 21.40625 -11.214844 Z M 21.40625 -11.214844 "/></g></g></g><g fill="#101011" fill-opacity="1"><g transform="translate(679.57734, 379.551856)"><g><path d="M 17.671875 15.632812 C 32.011719 15.632812 41.050781 8.019531 41.050781 -4.078125 L 41.050781 -35.339844 L 28.136719 -35.339844 L 25.484375 -27.59375 L 25.417969 -27.59375 C 23.71875 -32.757812 19.097656 -36.019531 13.726562 -36.019531 C 5.914062 -36.019531 0.953125 -29.222656 0.953125 -18.351562 C 0.953125 -7.476562 6.117188 -0.679688 14.40625 -0.679688 C 19.164062 -0.679688 23.378906 -2.921875 25.351562 -6.457031 L 25.417969 -6.457031 L 25.417969 -4.757812 C 25.417969 0.0664062 21.816406 3.058594 16.039062 3.058594 C 11.960938 3.058594 7.203125 1.765625 3.738281 -0.273438 L 0.613281 11.894531 C 4.894531 14.203125 11.484375 15.632812 17.671875 15.632812 Z M 21.339844 -12.914062 C 18.417969 -12.914062 16.582031 -15.019531 16.582031 -18.351562 C 16.582031 -21.679688 18.417969 -23.785156 21.339844 -23.785156 C 24.261719 -23.785156 26.097656 -21.679688 26.097656 -18.351562 C 26.097656 -15.019531 24.261719 -12.914062 21.339844 -12.914062 Z M 21.339844 -12.914062 "/></g></g></g><g fill="#101011" fill-opacity="1"><g transform="translate(722.663366, 379.551856)"><g><path d="M 18.960938 1.019531 C 30.652344 1.019531 38.261719 -3.464844 38.261719 -11.351562 C 38.261719 -17.804688 34.253906 -21.203125 24.804688 -22.632812 L 20.117188 -23.3125 C 16.582031 -23.855469 15.085938 -24.535156 15.085938 -25.554688 C 15.085938 -26.84375 16.855469 -27.523438 18.960938 -27.523438 C 21.542969 -27.523438 23.445312 -26.4375 23.582031 -23.992188 L 36.292969 -25.214844 C 35.882812 -31.941406 28.816406 -36.359375 19.574219 -36.359375 C 9.175781 -36.359375 2.3125 -32.078125 2.3125 -23.855469 C 2.3125 -17.535156 5.84375 -14.476562 14.066406 -13.523438 L 18.960938 -12.980469 C 22.972656 -12.503906 24.671875 -11.6875 24.671875 -10.261719 C 24.671875 -8.972656 22.5625 -8.15625 20.183594 -8.15625 C 16.992188 -8.15625 14.40625 -9.582031 14.136719 -12.234375 L 1.019531 -11.28125 C 1.425781 -2.992188 8.765625 1.019531 18.960938 1.019531 Z M 18.960938 1.019531 "/></g></g></g></svg>