<svg xmlns="http://www.w3.org/2000/svg" xmlns:xlink="http://www.w3.org/1999/xlink" width="1280" zoomAndPan="magnify" viewBox="0 0 960 599.999999" height="800" preserveAspectRatio="xMidYMid meet" version="1.0"><defs><clipPath id="b363570607"><path d="M 484 368.847656 L 589 368.847656 L 589 414 L 484 414 Z M 484 368.847656 " clip-rule="nonzero"/></clipPath><clipPath id="94b3c3049d"><path d="M 487 376 L 678.40625 376 L 678.40625 600 L 487 600 Z M 487 376 " clip-rule="nonzero"/></clipPath><clipPath id="a86d497bd2"><path d="M 276 390.746094 L 461 390.746094 L 461 600 L 276 600 Z M 276 390.746094 " clip-rule="nonzero"/></clipPath><clipPath id="b79b877cfe"><path d="M 298 395 L 465.535156 395 L 465.535156 600 L 298 600 Z M 298 395 " clip-rule="nonzero"/></clipPath><clipPath id="4e035825dd"><path d="M 0 170 L 103 170 L 103 497.382812 L 0 497.382812 Z M 0 170 " clip-rule="nonzero"/></clipPath><clipPath id="63af086598"><path d="M 857 170 L 960 170 L 960 497.382812 L 857 497.382812 Z M 857 170 " clip-rule="nonzero"/></clipPath><clipPath id="9b2c3a5dad"><path d="M 343.441406 534 L 602 534 L 602 600 L 343.441406 600 Z M 343.441406 534 " clip-rule="nonzero"/></clipPath></defs><rect x="-96" width="1152" fill="#ffffff" y="-60" height="719.999999" fill-opacity="1"/><rect x="-96" width="1152" fill="#fff6a4" y="-60" height="719.999999" fill-opacity="1"/><path fill="#bfaea0" d="M 533.4375 383.015625 C 532.890625 383.015625 532.367188 383.035156 531.875 383.074219 L 529.019531 383.167969 C 520.730469 384.210938 514.722656 386.203125 510.988281 389.140625 L 508.691406 390.75 L 487.859375 409.75 C 484.242188 415.203125 480.867188 424.386719 477.734375 437.300781 C 475.832031 443.933594 475.359375 451.929688 476.316406 461.28125 L 485.839844 533.46875 C 485.816406 538.78125 485.570312 543.992188 485.101562 549.097656 L 485.097656 549.097656 C 480.335938 561.183594 474.941406 576.339844 468.914062 594.578125 C 467.523438 601.21875 466.679688 607.714844 466.390625 614.0625 C 465.804688 626.761719 467.417969 638.878906 471.230469 650.417969 L 474.5 658.960938 C 476.957031 664.585938 479.960938 670.066406 483.515625 675.398438 C 484 675.839844 484.5 676.257812 485.023438 676.648438 L 485.019531 676.648438 C 484.578125 678.355469 484.34375 679.882812 484.3125 681.234375 L 484.53125 683.691406 C 484.859375 685.171875 485.550781 686.34375 486.609375 687.199219 C 487.664062 688.058594 489.085938 688.601562 490.875 688.835938 C 495.589844 688.925781 499.394531 688.96875 502.289062 688.96875 C 506.9375 688.96875 509.234375 688.855469 509.183594 688.625 L 509.1875 688.625 C 511.921875 689.144531 514.210938 689.464844 516.054688 689.582031 C 516.097656 689.589844 516.148438 689.589844 516.207031 689.589844 C 516.789062 689.589844 518.207031 689.320312 520.46875 688.773438 C 522.207031 689.105469 523.417969 689.269531 524.09375 689.269531 C 524.179688 689.269531 524.261719 689.265625 524.332031 689.261719 L 532.132812 687.429688 L 538.378906 682.808594 C 539.472656 685.777344 540.679688 687.523438 542 688.039062 C 544.167969 688.472656 546.246094 688.6875 548.234375 688.6875 C 550.75 688.6875 553.125 688.34375 555.355469 687.648438 L 559.246094 688.992188 C 560.273438 688.976562 561.238281 688.96875 562.148438 688.96875 C 568.535156 688.96875 572.117188 689.378906 572.890625 690.203125 C 573.207031 690.226562 573.515625 690.242188 573.816406 690.242188 C 576.804688 690.242188 578.980469 688.980469 580.34375 686.460938 C 581.480469 687.519531 583.046875 688.339844 585.050781 688.929688 C 586.308594 689.5 589.484375 689.867188 594.585938 690.03125 L 597.453125 689.96875 C 598.851562 689.597656 600.605469 689.320312 602.710938 689.136719 C 603.160156 689.105469 603.601562 689.089844 604.03125 689.089844 C 604.832031 689.089844 605.601562 689.140625 606.339844 689.242188 L 611.613281 687.5 C 612.5625 687.59375 613.441406 687.640625 614.246094 687.640625 C 616.089844 687.640625 617.554688 687.398438 618.640625 686.910156 C 619.8125 686.261719 620.914062 685.640625 621.941406 685.050781 L 621.945312 685.050781 C 623.613281 685.800781 625.308594 686.5625 627.035156 687.34375 C 629.613281 688.542969 636.992188 689.355469 649.167969 689.792969 C 657.992188 687.898438 662.957031 685.628906 664.058594 682.972656 C 664.417969 677.273438 665.4375 670.566406 667.117188 662.851562 C 666.519531 657.835938 667.0625 648.699219 668.738281 635.4375 C 668.390625 622.925781 666.773438 608.761719 663.886719 592.945312 C 657.902344 573.832031 653.210938 555.226562 649.808594 537.121094 C 647.332031 529.351562 644.707031 522.636719 641.941406 516.976562 C 639.945312 512.136719 636.265625 506.699219 630.894531 500.664062 C 622.269531 494.460938 612.039062 488.085938 600.207031 481.546875 L 600.203125 481.546875 C 600.210938 478.316406 599.980469 474.191406 599.515625 469.179688 C 595.855469 450.097656 594.007812 435.25 593.980469 424.632812 C 592.871094 419.828125 591.210938 415.972656 589.007812 413.0625 L 587.789062 411.335938 L 566.902344 392.828125 L 565.179688 391.78125 C 550.679688 385.9375 540.097656 383.015625 533.4375 383.015625 Z M 533.4375 383.015625 " fill-opacity="1" fill-rule="nonzero"/><g clip-path="url(#b363570607)"><path fill="#80665c" d="M 489.039062 368.8125 L 488.617188 368.832031 C 487.199219 369.027344 486.199219 369.628906 485.617188 370.644531 C 484.984375 371.34375 484.515625 372.660156 484.214844 374.589844 L 484.160156 375.277344 L 484.660156 399.636719 C 484.757812 400.910156 484.90625 402.109375 485.105469 403.230469 C 485.699219 405.898438 486.121094 407.40625 486.367188 407.753906 C 487.703125 410.8125 488.988281 412.375 490.222656 412.449219 C 490.394531 412.441406 490.570312 412.414062 490.753906 412.359375 L 495.292969 410.328125 C 496.507812 409.109375 498.191406 407.96875 500.34375 406.90625 L 502.660156 404.960938 C 506.652344 402.542969 508.914062 401.335938 509.441406 401.335938 C 509.5 401.335938 509.539062 401.351562 509.554688 401.382812 L 510.878906 399.96875 C 510.867188 400.003906 510.875 400.019531 510.90625 400.019531 C 511.054688 400.019531 511.734375 399.605469 512.949219 398.78125 L 516.9375 395.984375 L 517.472656 395.523438 C 518.90625 394.25 520.332031 392.691406 521.742188 390.84375 L 514.316406 386.054688 C 511.113281 382.804688 508.8125 380.542969 507.410156 379.277344 C 507.257812 379.011719 505.945312 378.027344 503.480469 376.324219 C 498.496094 373.042969 495.460938 371.101562 494.375 370.496094 C 492.457031 369.4375 490.675781 368.878906 489.039062 368.8125 Z M 581.441406 371.027344 C 581.335938 371.027344 581.226562 371.03125 581.121094 371.035156 L 580.179688 371.078125 C 580.148438 371.078125 580.113281 371.074219 580.078125 371.074219 C 578.574219 371.074219 575.800781 371.957031 571.765625 373.714844 L 570.300781 374.425781 C 567.8125 375.996094 565.542969 377.503906 563.492188 378.949219 C 559.394531 381.835938 556.175781 384.476562 553.839844 386.871094 L 552.253906 388.617188 C 551.304688 389.75 550.578125 390.820312 550.070312 391.832031 L 552.71875 394.601562 C 552.800781 395.410156 554.304688 397.425781 557.230469 400.648438 L 559.238281 401.457031 L 561.5 403.507812 L 567.683594 406.546875 L 572.023438 409.820312 L 577.648438 411.613281 C 578.425781 411.355469 579.078125 411.226562 579.605469 411.226562 C 579.800781 411.226562 579.980469 411.242188 580.140625 411.277344 C 580.871094 411.945312 581.636719 412.28125 582.441406 412.28125 C 582.589844 412.28125 582.742188 412.269531 582.894531 412.246094 L 582.898438 412.246094 C 582.863281 412.453125 583.320312 412.765625 584.261719 413.183594 C 584.296875 407.417969 584.445312 403.542969 584.707031 401.546875 C 584.78125 400.621094 584.980469 399.398438 585.304688 397.875 C 585.464844 396.984375 586.210938 393.65625 587.546875 387.886719 L 587.980469 385.410156 C 588.355469 383.511719 588.429688 381.480469 588.210938 379.316406 C 587.953125 376.769531 587.257812 374.785156 586.128906 373.359375 C 584.882812 371.804688 583.320312 371.027344 581.441406 371.027344 Z M 581.441406 371.027344 " fill-opacity="1" fill-rule="nonzero"/></g><g clip-path="url(#94b3c3049d)"><path fill="#aa856c" d="M 577.839844 378.929688 L 576.9375 379.011719 C 574.503906 379.363281 571.847656 380.75 568.96875 383.171875 C 565.773438 386.042969 563.789062 387.914062 563.011719 388.785156 C 559.492188 392.550781 557.246094 395.378906 556.28125 397.277344 L 558.566406 397.367188 C 559.035156 397.117188 559.40625 396.992188 559.679688 396.992188 C 559.785156 396.992188 559.875 397.007812 559.949219 397.046875 C 560.070312 397.144531 560.140625 397.3125 560.160156 397.546875 C 559.878906 398.300781 559.738281 398.722656 559.75 398.8125 C 559.714844 399.03125 559.734375 399.171875 559.8125 399.234375 C 560.683594 399.007812 561.203125 398.890625 561.363281 398.878906 C 561.445312 398.867188 561.511719 398.859375 561.566406 398.859375 C 561.6875 398.859375 561.742188 398.890625 561.734375 398.949219 C 561.808594 399.078125 561.582031 399.601562 561.050781 400.519531 C 561.03125 400.777344 561.113281 400.949219 561.304688 401.039062 C 561.3125 401.046875 561.328125 401.050781 561.351562 401.050781 C 561.582031 401.050781 562.652344 400.601562 564.554688 399.699219 C 564.851562 399.59375 565.058594 399.542969 565.171875 399.542969 C 565.207031 399.542969 565.234375 399.546875 565.25 399.558594 L 562.738281 402.023438 C 562.476562 402.289062 562.421875 402.453125 562.574219 402.507812 C 566.328125 400.273438 569.164062 398.988281 571.082031 398.648438 L 571.085938 398.652344 C 569.644531 399.429688 568.207031 400.328125 566.769531 401.34375 C 566.097656 401.855469 565.816406 402.214844 565.917969 402.429688 C 565.925781 402.476562 565.984375 402.5 566.089844 402.5 C 566.234375 402.5 566.464844 402.457031 566.785156 402.375 C 568.046875 402.011719 569.613281 401.488281 571.476562 400.804688 C 571.804688 400.726562 572.050781 400.6875 572.214844 400.6875 C 572.308594 400.6875 572.375 400.703125 572.414062 400.726562 C 570.300781 402.417969 569.25 403.519531 569.273438 404.027344 C 569.292969 404.234375 569.402344 404.339844 569.601562 404.339844 C 569.617188 404.339844 569.636719 404.339844 569.65625 404.335938 L 572.859375 403.699219 C 572.976562 403.742188 573.019531 403.90625 572.988281 404.183594 C 572.644531 404.941406 572.472656 405.390625 572.476562 405.53125 C 572.460938 405.90625 572.550781 406.097656 572.738281 406.101562 C 572.746094 406.109375 572.761719 406.113281 572.777344 406.113281 C 572.953125 406.113281 573.601562 405.785156 574.730469 405.125 C 574.894531 405.074219 575.03125 405.046875 575.132812 405.046875 C 575.230469 405.046875 575.296875 405.070312 575.339844 405.117188 C 575.449219 405.160156 575.460938 405.429688 575.375 405.925781 C 574.835938 407.96875 574.554688 409.226562 574.523438 409.699219 C 574.519531 410.105469 574.609375 410.308594 574.792969 410.308594 C 574.800781 410.308594 574.804688 410.308594 574.808594 410.308594 L 575.054688 410.203125 L 576.777344 406.78125 L 579.644531 400.59375 L 580.78125 397.828125 C 582.167969 394.28125 583.035156 391.3125 583.378906 388.925781 C 583.78125 386.0625 583.625 384.039062 582.914062 382.855469 C 581.371094 380.441406 579.679688 379.132812 577.839844 378.929688 Z M 489.09375 376.628906 L 488.734375 376.882812 C 487.851562 377.640625 487.542969 379.824219 487.800781 383.429688 C 487.847656 384.511719 488.664062 389.203125 490.242188 397.515625 C 490.859375 401.867188 491.25 405.507812 491.410156 408.429688 C 491.621094 409.75 491.777344 410.484375 491.886719 410.632812 C 491.917969 410.65625 491.945312 410.667969 491.972656 410.667969 C 492.066406 410.667969 492.144531 410.519531 492.199219 410.21875 C 492.316406 408.558594 492.394531 407.726562 492.441406 407.726562 C 492.445312 407.726562 492.449219 407.734375 492.453125 407.75 L 494.28125 408.832031 C 494.3125 408.839844 494.339844 408.839844 494.367188 408.839844 C 494.574219 408.839844 494.746094 408.695312 494.882812 408.40625 C 495.050781 407.492188 494.929688 405.910156 494.519531 403.65625 L 494.519531 403.660156 C 495.957031 405.523438 497 406.457031 497.640625 406.457031 C 497.707031 406.457031 497.769531 406.449219 497.824219 406.429688 C 497.902344 406.296875 497.910156 406.035156 497.851562 405.640625 L 496.835938 401.800781 L 499.75 403.714844 C 499.863281 403.765625 499.957031 403.792969 500.035156 403.792969 C 500.089844 403.792969 500.136719 403.78125 500.171875 403.753906 L 499.597656 400.539062 C 499.601562 400.046875 499.777344 399.75 500.121094 399.65625 L 500.722656 399.84375 C 502.210938 400.722656 503.410156 401.378906 504.320312 401.816406 C 504.472656 401.882812 504.582031 401.917969 504.648438 401.917969 C 504.683594 401.910156 504.6875 401.886719 504.660156 401.84375 C 504.808594 401.820312 504.917969 401.761719 504.992188 401.671875 C 505.070312 401.621094 505.105469 401.453125 505.101562 401.171875 L 504.535156 397.160156 C 504.523438 396.890625 504.621094 396.65625 504.824219 396.453125 C 504.839844 396.433594 504.863281 396.425781 504.894531 396.425781 C 505.222656 396.425781 506.492188 397.335938 508.699219 399.152344 C 508.730469 399.15625 508.753906 399.160156 508.78125 399.160156 C 508.902344 399.160156 508.972656 399.105469 508.992188 399 C 508.523438 397.703125 508.300781 396.980469 508.316406 396.832031 C 508.261719 396.480469 508.308594 396.304688 508.453125 396.304688 C 508.488281 396.289062 508.535156 396.277344 508.585938 396.277344 C 509 396.277344 509.878906 396.808594 511.214844 397.867188 L 513.527344 397.5625 C 512.605469 395.535156 510.433594 392.375 507.019531 388.074219 C 506.234375 387.054688 504.550781 385.347656 501.964844 382.953125 C 500.335938 381.617188 498.582031 380.460938 496.707031 379.476562 C 495.769531 378.988281 494.800781 378.542969 493.800781 378.140625 C 491.25 377.210938 489.679688 376.707031 489.09375 376.628906 Z M 536.25 399.449219 L 536.136719 399.460938 C 535.828125 399.53125 535.464844 399.882812 535.042969 400.511719 L 534.039062 402.359375 L 532.734375 403.105469 C 532.714844 403.085938 532.683594 403.074219 532.640625 403.074219 C 532.347656 403.074219 531.488281 403.570312 530.066406 404.5625 C 529.984375 404.585938 529.867188 404.597656 529.71875 404.597656 C 529.457031 404.597656 529.097656 404.5625 528.636719 404.496094 C 527.453125 405.714844 526.757812 406.324219 526.554688 406.324219 C 526.535156 406.324219 526.519531 406.316406 526.511719 406.304688 C 526.484375 406.3125 526.460938 406.316406 526.4375 406.316406 C 526.3125 406.316406 526.1875 406.234375 526.058594 406.070312 C 525.558594 404.582031 525.242188 403.835938 525.109375 403.835938 C 525.097656 403.835938 525.085938 403.84375 525.074219 403.859375 L 523.753906 407.144531 C 523.515625 407.664062 523.359375 407.921875 523.28125 407.921875 C 523.246094 407.941406 523.210938 407.949219 523.179688 407.949219 C 522.847656 407.949219 522.429688 407.171875 521.933594 405.625 C 521.867188 405.539062 521.792969 405.496094 521.714844 405.496094 C 521.664062 405.496094 521.617188 405.511719 521.5625 405.542969 C 519.464844 410.058594 518.109375 412.601562 517.496094 413.167969 C 517.238281 413.359375 517.046875 413.457031 516.921875 413.457031 C 516.90625 413.457031 516.890625 413.453125 516.875 413.453125 C 516.25 413.121094 515.78125 412.957031 515.46875 412.957031 C 515.363281 412.957031 515.273438 412.976562 515.207031 413.015625 L 513.410156 415.035156 C 511.945312 415.394531 510.460938 416.453125 508.960938 418.210938 L 506.351562 418.789062 L 503.734375 420.929688 C 502.160156 421.011719 501.132812 421.191406 500.652344 421.476562 L 496.652344 426.140625 L 496.121094 428.855469 L 494.308594 428.710938 L 494.402344 431.078125 C 494.035156 431.9375 493.90625 432.484375 494.011719 432.722656 C 494.542969 434.167969 496.5 437.957031 499.878906 444.09375 C 499.871094 444.253906 499.800781 444.335938 499.671875 444.335938 C 499.324219 444.335938 498.527344 443.726562 497.28125 442.503906 C 498.964844 444.414062 500.152344 445.839844 500.847656 446.777344 C 500.964844 447.015625 500.667969 447.210938 499.953125 447.355469 C 499.886719 447.503906 499.90625 447.648438 500.007812 447.785156 C 502.105469 449.570312 503.152344 450.566406 503.152344 450.769531 C 503.136719 451.046875 503.027344 451.222656 502.832031 451.285156 C 501.25 451.46875 500.457031 451.78125 500.453125 452.222656 C 501.746094 453.503906 502.75 454.144531 503.460938 454.144531 C 503.554688 454.144531 503.640625 454.132812 503.726562 454.113281 C 504.777344 450.441406 506.007812 447.886719 507.421875 446.449219 C 508.160156 445.609375 509.429688 444.65625 511.222656 443.582031 C 513.09375 442.300781 515.40625 441.210938 518.167969 440.308594 L 521.023438 438.234375 C 522.707031 436.914062 524.382812 434.902344 526.050781 432.199219 C 527.140625 430.359375 528.15625 428.417969 529.105469 426.367188 C 529.667969 425.476562 530.929688 422.164062 532.898438 416.433594 C 534.007812 412.875 534.957031 409.078125 535.746094 405.042969 C 536.261719 408.703125 536.953125 416.277344 537.832031 427.765625 C 538.746094 432.515625 539.726562 435.910156 540.765625 437.949219 C 541.027344 438.714844 541.648438 439.335938 542.632812 439.8125 C 548.445312 440.933594 552.410156 442.445312 554.53125 444.351562 C 555.9375 445.421875 557.378906 446.785156 558.855469 448.441406 L 563.082031 454.855469 C 565.78125 454.523438 567.636719 453.523438 568.648438 451.851562 C 568.691406 451.550781 568.449219 451.398438 567.917969 451.398438 C 567.757812 451.398438 567.574219 451.410156 567.367188 451.4375 L 568.007812 449.488281 C 568.007812 449.4375 567.988281 449.394531 567.953125 449.355469 C 567.886719 449.222656 567.582031 449.15625 567.035156 449.15625 C 566.757812 449.15625 566.417969 449.171875 566.015625 449.207031 C 565.855469 449.117188 565.796875 448.929688 565.832031 448.652344 C 565.996094 447.917969 566.308594 447.152344 566.761719 446.359375 C 568.199219 445.023438 569.496094 443.390625 570.65625 441.453125 C 570.804688 441.242188 570.726562 441.027344 570.425781 440.808594 L 571.589844 438.402344 C 571.695312 437.460938 571.292969 436.988281 570.386719 436.988281 C 570.339844 436.988281 570.289062 436.988281 570.238281 436.992188 C 571.144531 435.71875 571.765625 434.671875 572.105469 433.855469 C 572.257812 433.515625 572.328125 433.054688 572.3125 432.460938 C 573.214844 430.976562 573.613281 429.960938 573.507812 429.410156 C 573.503906 428.980469 573.152344 428.621094 572.460938 428.339844 C 572.265625 426.800781 572.105469 425.96875 571.980469 425.84375 L 571.828125 425.660156 L 569.878906 424.902344 C 569.226562 423.78125 568.710938 423.125 568.335938 422.9375 C 568.199219 422.847656 567.355469 422.679688 565.804688 422.429688 L 564.261719 421 C 564.074219 420.855469 563.195312 420.632812 561.625 420.332031 C 560.832031 419.5625 560.332031 419.132812 560.121094 419.046875 L 556.726562 418.640625 C 555.535156 417.332031 554.527344 416.679688 553.695312 416.679688 C 553.617188 416.679688 553.535156 416.6875 553.457031 416.699219 C 552.9375 415.53125 552.308594 414.789062 551.574219 414.472656 L 550.609375 412.246094 C 550.566406 412.203125 550.488281 412.179688 550.378906 412.179688 C 550.042969 412.179688 549.414062 412.375 548.484375 412.769531 C 548.46875 412.773438 548.453125 412.777344 548.4375 412.777344 C 548.308594 412.777344 548.097656 412.636719 547.808594 412.359375 C 547.550781 412.121094 547.109375 410.699219 546.496094 408.101562 C 546.277344 407.914062 545.882812 407.738281 545.308594 407.574219 L 544.574219 406.011719 C 544.519531 405.972656 544.429688 405.949219 544.300781 405.949219 C 544.085938 405.949219 543.765625 406.011719 543.335938 406.128906 C 542.824219 404.933594 542.484375 404.265625 542.304688 404.132812 L 540.4375 404.417969 C 540.21875 404.316406 539.808594 403.792969 539.203125 402.855469 L 537.835938 402.4375 C 537.65625 402.242188 537.183594 401.253906 536.417969 399.480469 Z M 601.253906 492.441406 L 600.792969 492.488281 C 599.441406 493 598.457031 493.96875 597.832031 495.40625 C 596.867188 497.121094 596.183594 499.382812 595.777344 502.191406 C 595.671875 502.90625 595.582031 503.664062 595.503906 504.464844 C 595.183594 509.203125 594.96875 512.230469 594.859375 513.550781 C 593.855469 524.59375 593.273438 531.367188 593.101562 533.875 C 592.820312 537.746094 592.617188 543.082031 592.484375 549.878906 L 598.988281 535.304688 C 599.914062 533.734375 600.492188 532.664062 600.71875 532.09375 C 601.777344 529.714844 602.429688 528.15625 602.683594 527.421875 C 603.863281 524.230469 604.59375 522.1875 604.871094 521.289062 C 605.5625 518.855469 606.070312 516.621094 606.402344 514.585938 C 606.566406 513.570312 606.6875 512.601562 606.761719 511.6875 L 606.84375 510.347656 C 606.875 509.480469 606.859375 508.664062 606.800781 507.898438 C 606.726562 506.191406 606.613281 504.625 606.464844 503.199219 L 606.210938 501.164062 C 606.019531 499.878906 605.796875 498.738281 605.53125 497.734375 C 605.003906 495.730469 604.328125 494.289062 603.503906 493.414062 C 602.886719 492.84375 602.136719 492.519531 601.253906 492.441406 Z M 493.125 569.351562 C 493.117188 569.351562 493.105469 569.355469 493.097656 569.355469 L 492.988281 569.394531 C 492.535156 570.046875 492.328125 571.773438 492.367188 574.582031 C 492.316406 575.53125 492.570312 578.058594 493.128906 582.164062 L 494.113281 588.75 C 494.828125 592.027344 495.902344 596.378906 497.335938 601.804688 C 498.238281 606.007812 499.109375 610.644531 499.941406 615.710938 C 500.066406 616.472656 500.410156 620.105469 500.972656 626.605469 L 502.351562 637.386719 C 502.554688 639.566406 502.65625 641.695312 502.664062 643.769531 L 501.5625 668.5 C 502.953125 661.71875 503.84375 655.292969 504.242188 649.222656 C 504.46875 644.8125 504.585938 642 504.589844 640.785156 C 504.632812 638.8125 504.652344 636.929688 504.640625 635.136719 C 504.613281 631.546875 504.476562 628.308594 504.21875 625.421875 C 504.046875 623.234375 503.847656 621.375 503.625 619.851562 C 503.003906 615.960938 502.390625 612.546875 501.773438 609.605469 L 501.222656 606.890625 L 495.453125 581.945312 C 495.066406 579.984375 494.433594 575.953125 493.566406 569.847656 C 493.375 569.519531 493.230469 569.351562 493.125 569.351562 Z M 538.492188 596.824219 C 538.476562 596.824219 538.464844 596.828125 538.449219 596.832031 L 538.382812 596.835938 C 538.007812 597.03125 537.777344 597.308594 537.6875 597.667969 C 537.363281 599.023438 536.992188 601.050781 536.578125 603.746094 C 536.394531 605.121094 536.257812 606.902344 536.171875 609.089844 C 536.128906 610.179688 536.101562 611.375 536.082031 612.671875 L 536.066406 614.691406 C 536.054688 617.273438 536.074219 619.746094 536.121094 622.109375 C 536.132812 623.121094 536.214844 626.199219 536.375 631.34375 C 536.417969 632.882812 536.472656 635.425781 536.539062 638.96875 L 536.601562 640.972656 L 538.089844 676.320312 C 538.101562 676.058594 538.191406 675.257812 538.359375 673.914062 L 539.429688 665.644531 C 539.941406 661.011719 540.234375 658.027344 540.308594 656.6875 C 540.824219 650.617188 541.074219 645.183594 541.066406 640.386719 C 541.066406 638.613281 541.042969 636.605469 541 634.363281 L 540.925781 630.824219 C 540.863281 628.34375 540.78125 625.632812 540.679688 622.6875 C 540.5625 619.105469 540.460938 616.554688 540.371094 615.039062 C 540.273438 613.066406 540.171875 611.222656 540.0625 609.5 C 540.015625 608.484375 539.84375 606.191406 539.546875 602.617188 C 539.425781 601.277344 539.296875 600.0625 539.164062 598.972656 L 538.960938 597.4375 C 538.796875 597.027344 538.640625 596.824219 538.492188 596.824219 Z M 596.53125 586.34375 L 595.375 588.355469 C 592.28125 593.972656 589.121094 601.644531 585.890625 611.371094 C 583.148438 620.515625 580.898438 629.464844 579.148438 638.214844 C 578.097656 644.675781 577.105469 651.527344 576.164062 658.769531 C 575.867188 661.414062 575.621094 665.679688 575.425781 671.574219 C 575.445312 672.867188 575.519531 674.097656 575.652344 675.265625 L 575.894531 676.96875 C 576.082031 678.074219 576.328125 679.117188 576.632812 680.097656 C 577.238281 682.054688 578.074219 683.761719 579.140625 685.214844 L 577.625 664.738281 C 577.867188 663.558594 578.199219 660.867188 578.625 656.675781 C 580.34375 647.5 581.519531 640.582031 582.148438 635.925781 C 585.71875 619.71875 587.847656 610.652344 588.539062 608.726562 C 589.183594 606.578125 589.65625 605.082031 589.960938 604.234375 Z M 801.550781 639.371094 C 801.46875 639.371094 801.390625 639.371094 801.316406 639.378906 L 801.023438 639.394531 C 800.0625 639.484375 797.648438 639.9375 793.777344 640.75 L 787.8125 640.765625 L 775.371094 644.875 L 768.367188 645.253906 L 762.855469 646.894531 C 761.628906 646.84375 760.589844 646.816406 759.734375 646.816406 C 759.175781 646.816406 758.695312 646.828125 758.292969 646.851562 L 751.8125 647.75 C 751.214844 647.695312 750.5625 647.667969 749.847656 647.667969 C 747.441406 647.667969 744.371094 647.984375 740.636719 648.621094 C 740.539062 648.632812 740.429688 648.640625 740.316406 648.640625 C 739.15625 648.640625 737.308594 647.949219 734.777344 646.570312 C 734.195312 646.609375 733.539062 646.628906 732.816406 646.628906 C 730.425781 646.628906 727.273438 646.417969 723.351562 645.992188 C 717.800781 646.589844 714.40625 646.890625 713.171875 646.890625 C 713.035156 646.890625 712.925781 646.886719 712.839844 646.878906 C 704.09375 645.71875 699.601562 644.929688 699.367188 644.519531 C 697.808594 644.546875 696.53125 644.5625 695.539062 644.5625 C 694.1875 644.5625 693.359375 644.535156 693.054688 644.484375 L 686.402344 642.972656 C 678.835938 643.957031 672.546875 645.058594 667.53125 646.28125 C 666.835938 653.820312 666.699219 659.34375 667.117188 662.851562 C 665.4375 670.566406 664.417969 677.273438 664.058594 682.972656 C 663.542969 684.210938 662.191406 685.367188 659.996094 686.4375 C 662.519531 686.636719 666.890625 686.925781 673.105469 687.308594 L 682.066406 687.820312 C 692.238281 687.960938 699.035156 688.136719 702.460938 688.339844 C 707.351562 688.5625 711.804688 688.855469 715.824219 689.214844 C 726.167969 689.519531 734.0625 689.6875 739.503906 689.722656 L 750.023438 689.667969 C 754.195312 689.449219 758.0625 689.121094 761.625 688.683594 L 763.671875 688.628906 C 768.429688 688.5 773.625 688.433594 779.257812 688.433594 C 782.628906 688.433594 786.152344 688.457031 789.832031 688.503906 L 797.300781 687.867188 C 801.8125 687.929688 806.375 688.152344 810.988281 688.546875 C 811.527344 688.5 812.933594 688.476562 815.214844 688.476562 C 817.566406 688.476562 820.839844 688.5 825.039062 688.550781 C 828.101562 688.425781 830.480469 687.480469 832.183594 685.71875 C 833.703125 680.152344 834.351562 677.230469 834.136719 676.960938 C 830.070312 669.632812 828.605469 664.765625 829.753906 662.359375 C 827.609375 659.546875 826.566406 658.066406 826.617188 657.929688 C 826.789062 653.859375 826.628906 651.289062 826.128906 650.214844 C 826.160156 649.976562 824.453125 648.128906 821.003906 644.671875 C 817.808594 643.511719 814.992188 642.292969 812.566406 641.011719 L 807.085938 641.070312 C 804.5 639.9375 802.652344 639.371094 801.550781 639.371094 Z M 801.550781 639.371094 " fill-opacity="1" fill-rule="nonzero"/></g><path fill="#73cedb" d="M 513.097656 425.136719 C 511.152344 425.136719 509.671875 425.480469 508.664062 426.164062 C 508.367188 426.398438 508.191406 426.527344 508.128906 426.546875 C 508.023438 426.644531 507.945312 426.789062 507.894531 426.984375 C 507.789062 427.367188 507.789062 427.941406 507.894531 428.707031 C 508.320312 431.429688 509.023438 433.433594 510.007812 434.726562 C 511.398438 436.171875 513.007812 436.921875 514.832031 436.972656 C 515.757812 436.9375 516.527344 436.789062 517.144531 436.53125 C 517.746094 436.214844 518.289062 435.859375 518.773438 435.46875 L 519.453125 434.859375 C 520.726562 433.589844 521.464844 432 521.671875 430.097656 L 519.003906 427.386719 C 518.691406 427.140625 518.355469 426.910156 517.996094 426.699219 C 516.347656 425.820312 514.753906 425.296875 513.214844 425.136719 Z M 552.703125 425.71875 L 552.582031 425.71875 C 551.046875 425.878906 549.453125 426.398438 547.800781 427.28125 C 547.445312 427.492188 547.109375 427.71875 546.796875 427.96875 L 544.128906 430.679688 C 544.335938 432.582031 545.074219 434.167969 546.347656 435.441406 L 547.027344 436.050781 C 547.511719 436.4375 548.054688 436.792969 548.65625 437.113281 C 549.269531 437.371094 550.042969 437.515625 550.96875 437.550781 C 552.789062 437.5 554.398438 436.753906 555.792969 435.308594 C 556.773438 434.015625 557.476562 432.007812 557.90625 429.285156 C 558.011719 428.523438 558.011719 427.949219 557.90625 427.5625 C 557.851562 427.371094 557.773438 427.226562 557.667969 427.128906 C 557.609375 427.105469 557.433594 426.976562 557.136719 426.742188 C 556.125 426.058594 554.648438 425.71875 552.703125 425.71875 Z M 552.703125 425.71875 " fill-opacity="1" fill-rule="nonzero"/><path fill="#80665c" d="M 513.722656 423.089844 C 512.667969 423.089844 511.59375 423.222656 510.5 423.480469 C 509.984375 423.585938 509.457031 423.707031 508.917969 423.839844 L 504.605469 425.164062 C 504.101562 425.3125 503.601562 425.425781 503.105469 425.511719 C 502.394531 425.636719 501.671875 425.699219 500.945312 425.699219 C 500.601562 425.699219 500.257812 425.683594 499.910156 425.65625 L 499.90625 425.65625 C 501.339844 426.269531 502.730469 426.636719 504.074219 426.769531 C 504.445312 426.804688 504.808594 426.824219 505.171875 426.824219 C 505.203125 426.824219 505.230469 426.824219 505.261719 426.824219 C 505.699219 426.820312 506.308594 426.738281 507.089844 426.570312 C 509.417969 425.921875 510.773438 425.570312 511.15625 425.511719 C 511.804688 425.410156 512.351562 425.339844 512.792969 425.292969 L 512.796875 425.292969 C 512.765625 425.339844 512.742188 425.386719 512.726562 425.421875 C 512.558594 425.808594 512.441406 426.132812 512.371094 426.394531 C 512.335938 426.539062 512.304688 426.683594 512.28125 426.828125 C 512.234375 427.183594 512.214844 427.398438 512.226562 427.46875 C 512.226562 428.003906 512.269531 428.429688 512.34375 428.734375 C 512.417969 429.117188 512.527344 429.539062 512.671875 429.992188 C 513.128906 431.074219 513.402344 431.6875 513.496094 431.832031 C 513.65625 432.136719 513.765625 432.292969 513.828125 432.296875 C 513.859375 432.320312 513.894531 432.332031 513.933594 432.335938 C 513.945312 432.335938 513.953125 432.335938 513.964844 432.335938 C 514.058594 432.335938 514.179688 432.296875 514.328125 432.210938 C 514.464844 432.15625 514.882812 431.828125 515.578125 431.230469 C 515.894531 430.945312 516.191406 430.636719 516.460938 430.304688 C 516.539062 430.226562 516.730469 429.960938 517.035156 429.507812 L 517.324219 429 C 517.5 428.664062 517.644531 428.347656 517.761719 428.046875 C 517.859375 427.804688 517.933594 427.570312 517.992188 427.351562 L 517.996094 427.351562 C 518.636719 427.859375 519.34375 428.457031 520.105469 429.148438 L 523.835938 433.878906 C 521.964844 429.324219 520.679688 426.695312 519.972656 425.992188 C 519.300781 425.128906 518.492188 424.449219 517.542969 423.949219 C 516.828125 423.546875 515.972656 423.28125 514.972656 423.15625 L 514.761719 423.132812 C 514.417969 423.105469 514.070312 423.089844 513.722656 423.089844 Z M 551.773438 424.308594 L 551.558594 424.3125 C 550.554688 424.339844 549.675781 424.519531 548.925781 424.851562 C 547.933594 425.257812 547.058594 425.855469 546.308594 426.648438 C 545.539062 427.277344 544.003906 429.773438 541.699219 434.125 L 545.871094 429.777344 C 546.699219 429.164062 547.457031 428.636719 548.144531 428.191406 L 548.148438 428.195312 C 548.183594 428.421875 548.238281 428.660156 548.308594 428.910156 C 548.398438 429.222656 548.511719 429.550781 548.65625 429.898438 L 548.890625 430.433594 C 549.152344 430.914062 549.316406 431.199219 549.386719 431.28125 C 549.625 431.640625 549.886719 431.976562 550.175781 432.289062 C 550.808594 432.953125 551.191406 433.316406 551.324219 433.386719 C 551.476562 433.496094 551.605469 433.546875 551.703125 433.546875 C 551.742188 433.546875 551.78125 433.539062 551.8125 433.519531 C 551.875 433.519531 552 433.378906 552.191406 433.089844 C 552.296875 432.957031 552.628906 432.371094 553.1875 431.339844 C 553.375 430.902344 553.523438 430.496094 553.636719 430.121094 C 553.742188 429.820312 553.820312 429.40625 553.875 428.871094 C 553.890625 428.800781 553.894531 428.585938 553.886719 428.226562 C 553.875 428.082031 553.859375 427.933594 553.835938 427.785156 C 553.792969 427.519531 553.707031 427.1875 553.578125 426.785156 C 553.5625 426.746094 553.542969 426.699219 553.519531 426.648438 L 553.519531 426.652344 C 553.960938 426.738281 554.496094 426.863281 555.132812 427.023438 C 555.507812 427.121094 556.820312 427.605469 559.074219 428.476562 C 559.835938 428.714844 560.433594 428.859375 560.867188 428.902344 C 561.257812 428.945312 561.65625 428.964844 562.054688 428.964844 C 563.410156 428.964844 564.828125 428.730469 566.3125 428.261719 C 565.222656 428.242188 564.167969 428.089844 563.144531 427.808594 C 562.660156 427.675781 562.171875 427.511719 561.6875 427.316406 L 557.523438 425.582031 C 556.996094 425.394531 556.484375 425.222656 555.980469 425.066406 C 554.566406 424.582031 553.164062 424.332031 551.773438 424.308594 Z M 525.589844 448.589844 C 525.214844 448.589844 524.820312 448.753906 524.414062 449.074219 C 524.300781 449.164062 524.214844 449.289062 524.152344 449.441406 C 524.0625 449.734375 524.023438 449.976562 524.039062 450.171875 L 523.402344 449.757812 L 524.152344 450.722656 C 525.058594 452.832031 526.019531 454.589844 527.035156 455.996094 C 527.609375 456.804688 528.203125 457.511719 528.804688 458.113281 L 529.398438 459.242188 L 529.628906 459.511719 C 529.980469 459.941406 530.308594 460.238281 530.613281 460.402344 L 530.609375 460.40625 C 530.597656 461.183594 530.570312 461.574219 530.53125 461.574219 C 530.414062 461.96875 530.039062 462.363281 529.40625 462.765625 C 528.925781 463.058594 527.042969 463.75 523.753906 464.84375 C 523 465.0625 521.875 465.273438 520.378906 465.472656 C 520.144531 465.539062 520.105469 465.671875 520.257812 465.875 C 520.746094 466.175781 521.441406 466.34375 522.34375 466.375 C 522.445312 466.378906 522.550781 466.378906 522.65625 466.378906 C 523.496094 466.378906 524.421875 466.292969 525.429688 466.117188 C 526.347656 465.914062 527.359375 465.542969 528.472656 465.011719 C 529.089844 464.714844 529.496094 464.503906 529.6875 464.382812 C 529.902344 464.273438 530.296875 463.976562 530.882812 463.488281 C 530.976562 463.421875 531.0625 463.386719 531.136719 463.386719 L 531.136719 463.390625 L 533.542969 464.949219 C 534.039062 465.203125 534.78125 465.457031 535.765625 465.714844 C 536.574219 465.914062 537.472656 466.066406 538.464844 466.167969 C 538.957031 466.21875 539.476562 466.257812 540.019531 466.28125 C 540.558594 466.308594 541.125 466.320312 541.710938 466.320312 C 541.75 466.320312 541.785156 466.324219 541.816406 466.324219 C 541.90625 466.324219 541.941406 466.316406 541.917969 466.300781 C 541.640625 466.023438 539.914062 465.242188 536.742188 463.960938 C 534.785156 463.019531 533.679688 462.464844 533.433594 462.304688 C 532.925781 461.992188 532.527344 461.679688 532.242188 461.359375 C 531.890625 460.933594 531.703125 460.667969 531.675781 460.5625 L 531.589844 460.34375 L 531.585938 460.347656 C 531.769531 460.230469 531.976562 460.0625 532.207031 459.847656 C 532.910156 458.5 533.855469 457.054688 535.046875 455.511719 C 535.6875 454.738281 536.660156 453.828125 537.960938 452.785156 C 538.734375 451.996094 539.195312 451.5 539.332031 451.292969 C 539.640625 450.960938 539.738281 450.585938 539.632812 450.171875 C 539.289062 449.535156 538.675781 449.152344 537.789062 449.011719 C 536.492188 449.179688 534.832031 449.316406 532.804688 449.425781 C 531.476562 449.175781 530.679688 449.046875 530.414062 449.042969 L 528.316406 449.113281 C 527.675781 448.964844 527.003906 448.820312 526.308594 448.675781 C 526.035156 448.625 525.871094 448.597656 525.804688 448.597656 C 525.789062 448.597656 525.78125 448.601562 525.777344 448.601562 L 525.769531 448.601562 C 525.710938 448.59375 525.652344 448.589844 525.589844 448.589844 Z M 525.589844 448.589844 " fill-opacity="1" fill-rule="nonzero"/><g clip-path="url(#a86d497bd2)"><path fill="#ffffff" d="M 340.40625 390.792969 L 339.988281 390.808594 C 339.925781 390.808594 339.867188 390.804688 339.808594 390.804688 C 336.753906 390.804688 334.066406 394.148438 331.742188 400.835938 C 331.199219 403.585938 331.128906 405.867188 331.527344 407.679688 C 332.042969 411.5625 333.363281 417.871094 335.488281 426.613281 L 333.917969 444.121094 C 333.804688 445.152344 333.449219 446.523438 332.851562 448.226562 C 329.632812 453.859375 326.941406 460.066406 324.785156 466.84375 L 320.457031 497.917969 C 320.78125 507.28125 320.863281 513.875 320.710938 517.699219 C 321.300781 521.558594 321.867188 527.71875 322.40625 536.183594 L 322.402344 536.183594 C 316.074219 544.453125 311.453125 552.289062 308.53125 559.6875 C 307.183594 562.875 305.820312 566.867188 304.445312 571.667969 C 301.03125 587.308594 298.859375 596.316406 297.925781 598.691406 C 295.832031 604.558594 291.390625 613.609375 284.597656 625.847656 C 283.703125 627.960938 282.589844 632.578125 281.261719 639.707031 C 277.609375 647.242188 275.996094 651.265625 276.421875 651.777344 C 276.4375 654.289062 276.660156 658.074219 277.089844 663.132812 C 279.734375 667.300781 283.785156 676.859375 289.246094 691.804688 C 289.949219 693.976562 290.6875 696.863281 291.464844 700.46875 C 292.359375 710.875 293.328125 716.796875 294.371094 718.238281 C 295.464844 721.347656 299.359375 725.394531 306.042969 730.375 C 306.660156 730.644531 307.265625 730.78125 307.855469 730.78125 C 308.929688 730.78125 309.964844 730.328125 310.953125 729.429688 L 310.957031 729.429688 C 311.492188 730.425781 312.15625 731.367188 312.941406 732.257812 C 314.640625 733.296875 317.183594 733.816406 320.570312 733.816406 C 321.019531 733.816406 321.484375 733.804688 321.964844 733.789062 L 329.578125 737.257812 C 334.019531 740.757812 337.683594 743.375 340.570312 745.109375 C 343.066406 746.339844 345.335938 746.957031 347.382812 746.957031 C 347.792969 746.957031 348.191406 746.929688 348.582031 746.882812 C 348.683594 746.914062 348.808594 746.933594 348.957031 746.933594 C 350.402344 746.933594 354.113281 745.359375 360.097656 742.214844 C 361.476562 740.574219 363.511719 738.984375 366.203125 737.449219 C 366.558594 736.949219 366.789062 736.355469 366.894531 735.671875 L 366.933594 732.785156 L 366.929688 732.789062 C 372.191406 731.351562 380.589844 729.957031 392.125 728.609375 C 400.851562 737.3125 406.601562 741.660156 409.382812 741.660156 C 409.648438 741.660156 409.882812 741.621094 410.09375 741.542969 L 431.621094 734.28125 C 433.6875 731.554688 437.875 729.058594 444.1875 726.792969 L 448.417969 720.613281 C 448.675781 717.820312 449.671875 713.914062 451.402344 708.894531 L 449.347656 697.964844 C 449.28125 695.796875 449.414062 694.085938 449.742188 692.832031 C 450.152344 690.523438 450.828125 688.671875 451.769531 687.277344 L 458.90625 676.144531 C 459.839844 673.808594 460.359375 670.601562 460.460938 666.523438 C 459.722656 656 459.480469 647.226562 459.734375 640.203125 L 459.210938 637.472656 C 458.765625 635.582031 458.125 633.550781 457.296875 631.371094 L 443.003906 594.957031 C 438.304688 571.792969 435.171875 557.34375 433.597656 551.609375 L 433.59375 551.609375 L 436.332031 536.300781 C 436.871094 531.964844 436.722656 526.136719 435.882812 518.8125 L 437.96875 508.261719 C 436.417969 501.179688 435.933594 496.703125 436.519531 494.828125 C 435.617188 491.429688 435.132812 489.316406 435.066406 488.484375 C 435.382812 483.042969 435.371094 479.351562 435.03125 477.410156 L 430.96875 457.59375 L 429.878906 436.261719 C 431.007812 425.207031 431.671875 417.832031 431.871094 414.136719 C 432.007812 412.726562 431.9375 410.839844 431.652344 408.480469 C 431.398438 405.867188 430.875 404.023438 430.082031 402.953125 C 428.804688 401.445312 427.160156 400.691406 425.15625 400.691406 C 425.132812 400.691406 425.113281 400.691406 425.089844 400.691406 L 424.539062 400.707031 C 422.863281 400.746094 420.488281 401.515625 417.417969 403.015625 C 415.824219 403.648438 411.265625 407.570312 403.75 414.78125 C 402.609375 415.707031 401.148438 416.457031 399.367188 417.027344 L 384.761719 415.195312 L 380.933594 415.441406 C 375.570312 415.84375 370.917969 416.464844 366.984375 417.296875 L 366.984375 417.300781 L 354.78125 405.558594 C 353.277344 404.023438 350.039062 399.773438 345.066406 392.808594 C 343.875 391.625 342.324219 390.953125 340.40625 390.792969 Z M 340.40625 390.792969 " fill-opacity="1" fill-rule="nonzero"/></g><path fill="#ffaa2d" d="M 369.503906 453.066406 C 369.628906 456.039062 367.941406 458.335938 364.449219 459.953125 C 363.347656 460.445312 362.011719 460.484375 360.4375 460.066406 C 358.996094 459.605469 357.941406 458.902344 357.273438 457.949219 C 356.34375 456.765625 355.875 455.296875 355.859375 453.542969 C 356.136719 451.304688 356.320312 450.253906 356.410156 450.390625 C 356.546875 450.105469 356.625 449.960938 356.652344 449.953125 L 357.847656 448.71875 C 358.589844 448.226562 359.128906 447.984375 359.457031 447.984375 C 361.226562 447.875 362.257812 447.886719 362.558594 448.019531 C 364.917969 448.308594 366.496094 449.058594 367.292969 450.265625 Z M 369.503906 453.066406 " fill-opacity="1" fill-rule="nonzero"/><path fill="#73cedb" d="M 391.171875 455.015625 C 391.050781 457.988281 392.734375 460.285156 396.226562 461.898438 C 397.328125 462.394531 398.667969 462.433594 400.238281 462.015625 C 401.679688 461.554688 402.738281 460.847656 403.40625 459.898438 C 404.332031 458.714844 404.800781 457.242188 404.816406 455.492188 C 404.539062 453.25 404.355469 452.199219 404.265625 452.335938 C 404.128906 452.054688 404.050781 451.910156 404.023438 451.898438 L 402.828125 450.664062 C 402.085938 450.175781 401.546875 449.929688 401.21875 449.929688 C 399.449219 449.820312 398.417969 449.832031 398.117188 449.96875 C 395.757812 450.257812 394.179688 451.003906 393.382812 452.210938 Z M 391.171875 455.015625 " fill-opacity="1" fill-rule="nonzero"/><path fill="#80665c" d="M 361.246094 447.011719 C 359.761719 447.066406 358.574219 447.476562 357.6875 448.246094 C 356.203125 449.453125 355.363281 450.726562 355.171875 452.0625 C 355.472656 451.800781 356.238281 450.894531 357.46875 449.34375 C 357.664062 449.121094 357.945312 448.90625 358.316406 448.699219 C 358.476562 448.578125 359.023438 448.460938 359.953125 448.351562 L 361.261719 448.257812 C 361.269531 448.253906 361.289062 448.253906 361.3125 448.253906 C 361.417969 448.253906 361.683594 448.292969 362.097656 448.375 C 362.746094 448.53125 363.578125 448.839844 364.597656 449.304688 C 365.519531 449.785156 366.273438 450.285156 366.863281 450.808594 C 367.320312 451.246094 367.570312 451.511719 367.617188 451.605469 L 370.972656 456.1875 L 370.617188 454.710938 L 370.136719 453.359375 L 369.527344 452.128906 L 368.789062 451.019531 L 367.917969 450.035156 L 366.921875 449.167969 L 365.796875 448.425781 L 364.542969 447.804688 L 362.945312 447.242188 C 362.582031 447.132812 362.085938 447.054688 361.457031 447.015625 Z M 362.488281 449.648438 L 362.210938 449.847656 C 361.910156 450.058594 361.574219 450.359375 361.195312 450.753906 C 361.027344 450.929688 360.878906 451.175781 360.757812 451.496094 C 360.539062 452.039062 360.40625 452.554688 360.355469 453.042969 C 360.339844 453.207031 360.332031 453.367188 360.335938 453.523438 L 360.4375 454.199219 L 360.589844 454.816406 L 360.785156 455.382812 L 361.023438 455.890625 L 361.308594 456.339844 L 361.640625 456.738281 L 362.015625 457.078125 L 362.4375 457.359375 L 362.9375 457.601562 C 362.972656 457.617188 363.011719 457.625 363.054688 457.625 C 363.085938 457.625 363.121094 457.621094 363.15625 457.613281 C 363.339844 457.542969 363.453125 457.480469 363.503906 457.429688 C 363.617188 457.367188 363.863281 457.105469 364.242188 456.636719 C 364.398438 456.386719 364.585938 456.011719 364.808594 455.507812 C 365.144531 454.726562 365.339844 454.210938 365.386719 453.953125 C 365.476562 453.566406 365.496094 453.226562 365.457031 452.933594 C 365.40625 452.445312 365.246094 451.902344 364.980469 451.3125 C 364.898438 451.164062 364.8125 451.023438 364.726562 450.898438 C 364.640625 450.769531 364.550781 450.652344 364.460938 450.542969 L 364.324219 450.394531 C 364.140625 450.199219 363.949219 450.050781 363.753906 449.945312 Z M 399.238281 448.921875 L 399.027344 448.925781 C 398.398438 448.964844 397.902344 449.039062 397.542969 449.152344 L 395.941406 449.714844 L 394.6875 450.335938 L 393.5625 451.078125 L 392.566406 451.941406 L 391.695312 452.929688 L 390.957031 454.039062 L 390.347656 455.269531 L 389.867188 456.621094 L 389.511719 458.09375 L 392.867188 453.515625 C 392.914062 453.421875 393.164062 453.15625 393.621094 452.714844 C 394.210938 452.195312 394.964844 451.695312 395.890625 451.214844 C 396.90625 450.75 397.738281 450.4375 398.386719 450.285156 C 398.804688 450.203125 399.066406 450.160156 399.175781 450.160156 C 399.199219 450.160156 399.214844 450.164062 399.222656 450.167969 L 400.53125 450.257812 C 401.460938 450.371094 402.007812 450.488281 402.167969 450.609375 C 402.539062 450.816406 402.820312 451.03125 403.015625 451.25 C 404.246094 452.800781 405.011719 453.707031 405.3125 453.96875 C 405.121094 452.632812 404.28125 451.363281 402.800781 450.152344 C 401.910156 449.382812 400.722656 448.972656 399.238281 448.921875 Z M 397.960938 451.40625 L 397.6875 451.605469 C 397.386719 451.8125 397.050781 452.117188 396.671875 452.511719 C 396.5 452.6875 396.355469 452.933594 396.234375 453.253906 C 396.015625 453.796875 395.878906 454.3125 395.832031 454.800781 C 395.816406 454.964844 395.808594 455.121094 395.808594 455.277344 L 395.914062 455.957031 L 396.0625 456.574219 L 396.257812 457.140625 L 396.5 457.648438 L 396.785156 458.097656 L 397.117188 458.496094 L 397.492188 458.835938 L 397.914062 459.117188 L 398.414062 459.359375 C 398.449219 459.375 398.488281 459.382812 398.53125 459.382812 C 398.5625 459.382812 398.59375 459.378906 398.632812 459.371094 C 398.8125 459.300781 398.929688 459.238281 398.976562 459.1875 C 399.09375 459.125 399.339844 458.863281 399.71875 458.394531 C 399.875 458.144531 400.0625 457.769531 400.28125 457.265625 C 400.621094 456.484375 400.816406 455.96875 400.863281 455.710938 C 400.949219 455.324219 400.972656 454.980469 400.929688 454.691406 C 400.878906 454.203125 400.722656 453.660156 400.457031 453.070312 C 400.375 452.921875 400.289062 452.78125 400.203125 452.652344 C 400.117188 452.527344 400.027344 452.410156 399.9375 452.300781 L 399.800781 452.148438 C 399.617188 451.957031 399.425781 451.808594 399.230469 451.703125 Z M 383.445312 473.71875 L 383.300781 473.722656 C 382.902344 473.742188 382.390625 473.832031 381.761719 474 C 381.515625 474.070312 381.277344 474.21875 381.042969 474.449219 C 380.839844 474.632812 380.695312 474.855469 380.609375 475.105469 C 380.574219 475.230469 380.550781 475.355469 380.546875 475.488281 C 380.546875 475.6875 380.546875 475.902344 380.542969 476.128906 C 380.539062 476.242188 380.53125 476.304688 380.523438 476.320312 L 381.8125 474.910156 C 381.859375 474.863281 381.910156 474.820312 381.960938 474.78125 C 382.054688 474.714844 382.121094 474.671875 382.164062 474.648438 C 382.621094 474.457031 382.953125 474.304688 383.160156 474.195312 C 383.277344 474.136719 383.382812 474.066406 383.484375 473.984375 C 383.535156 473.933594 383.558594 473.882812 383.546875 473.832031 C 383.542969 473.808594 383.53125 473.78125 383.511719 473.757812 L 383.472656 473.71875 Z M 374.007812 473.707031 L 375.707031 475.160156 C 375.90625 475.304688 376.125 475.523438 376.367188 475.8125 C 376.429688 475.894531 376.53125 476.109375 376.671875 476.453125 C 376.6875 476.472656 376.707031 476.480469 376.726562 476.480469 C 376.746094 476.480469 376.769531 476.46875 376.792969 476.441406 C 376.917969 476.148438 376.945312 475.820312 376.878906 475.46875 C 376.851562 475.304688 376.777344 475.066406 376.652344 474.753906 C 376.582031 474.601562 376.507812 474.484375 376.429688 474.410156 C 376.304688 474.277344 376.085938 474.171875 375.78125 474.085938 C 375.621094 474.039062 375.164062 473.949219 374.410156 473.8125 C 374.285156 473.789062 374.152344 473.753906 374.011719 473.707031 Z M 378.480469 480.203125 L 378.296875 481.171875 C 377.96875 482.855469 377.640625 484.125 377.3125 484.988281 C 377.113281 485.246094 376.910156 485.472656 376.710938 485.660156 C 376.398438 486.007812 375.496094 486.78125 374.003906 487.988281 C 373.863281 488.144531 373.289062 488.503906 372.28125 489.066406 C 372.101562 489.195312 371.414062 489.46875 370.21875 489.890625 C 369.726562 490.046875 369.203125 490.1875 368.660156 490.304688 L 361.296875 491.28125 C 362.664062 491.726562 364.105469 491.949219 365.617188 491.949219 C 366.171875 491.949219 366.738281 491.917969 367.316406 491.859375 L 368.144531 491.734375 C 368.695312 491.636719 369.25 491.507812 369.800781 491.339844 C 370.902344 491.011719 372.003906 490.550781 373.105469 489.960938 C 373.921875 489.492188 374.65625 488.992188 375.308594 488.464844 C 375.960938 487.933594 376.53125 487.371094 377.015625 486.777344 L 377.679688 485.867188 C 378.109375 485.203125 378.445312 484.503906 378.683594 483.769531 L 378.6875 483.769531 C 379.019531 484.097656 379.476562 484.816406 380.066406 485.925781 C 380.613281 486.5 381.082031 486.933594 381.46875 487.230469 C 381.964844 487.625 382.65625 488.101562 383.535156 488.664062 L 384.582031 489.582031 C 384.644531 489.625 384.714844 489.667969 384.78125 489.703125 C 385.503906 490.085938 386.445312 490.390625 387.609375 490.625 C 388.347656 490.761719 389.132812 490.84375 389.960938 490.871094 C 390.222656 490.878906 390.460938 490.882812 390.683594 490.882812 C 391.539062 490.882812 392.113281 490.832031 392.417969 490.734375 C 392.980469 490.609375 393.472656 490.402344 393.890625 490.121094 C 394.355469 489.757812 394.644531 489.492188 394.75 489.328125 L 394.746094 489.328125 C 394.574219 489.523438 393.972656 489.742188 392.941406 489.984375 C 392.027344 490.046875 391.316406 490.074219 390.804688 490.074219 C 390.578125 490.074219 390.394531 490.070312 390.25 490.058594 C 389.144531 489.839844 388.214844 489.609375 387.460938 489.367188 C 387.066406 489.242188 386.695312 489.109375 386.347656 488.96875 L 385.847656 488.753906 C 385.527344 488.605469 385.230469 488.453125 384.957031 488.289062 C 382.976562 487.15625 381.601562 486.144531 380.835938 485.25 C 380.378906 484.730469 379.960938 484.0625 379.574219 483.238281 C 379.421875 482.902344 379.222656 482.1875 378.980469 481.082031 C 378.910156 480.835938 378.742188 480.542969 378.480469 480.203125 Z M 378.480469 480.203125 " fill-opacity="1" fill-rule="nonzero"/><g clip-path="url(#b79b877cfe)"><path fill="#d48e66" d="M 339.925781 395.53125 C 339.917969 395.53125 339.910156 395.53125 339.902344 395.53125 L 339.867188 395.535156 L 337.019531 395.871094 C 336.789062 395.929688 336.5625 396.089844 336.332031 396.351562 C 335.558594 397.601562 335.183594 399.132812 335.210938 400.9375 C 335.261719 404.304688 335.707031 408.285156 336.550781 412.878906 C 336.828125 414.339844 337.832031 418.6875 339.566406 425.925781 C 339.882812 427.3125 340.210938 428.359375 340.546875 429.066406 L 350.253906 428.289062 C 350.347656 426.738281 350.34375 425.828125 350.234375 425.566406 C 350.242188 425.453125 350.390625 425.25 350.691406 424.953125 C 350.722656 424.09375 350.871094 423.5 351.125 423.171875 C 351.148438 423.007812 351.050781 422.507812 350.824219 421.675781 C 351.054688 420.945312 351.164062 420.539062 351.140625 420.457031 C 351.183594 420.371094 351.03125 419.742188 350.6875 418.574219 L 349.714844 417.546875 C 349.703125 416.9375 349.542969 416.34375 349.238281 415.769531 C 349.191406 415.601562 349.324219 415.3125 349.640625 414.894531 L 349.234375 413.488281 L 349.496094 412.683594 L 348.179688 411.367188 C 348.117188 411.238281 348.089844 411.136719 348.101562 411.058594 C 348.273438 410.550781 348.332031 410.214844 348.277344 410.058594 L 347.132812 408.917969 C 347.089844 408.839844 347.058594 408.730469 347.035156 408.589844 C 347.09375 407.957031 347.082031 407.570312 347.011719 407.429688 C 347.066406 407.371094 346.671875 406.914062 345.832031 406.0625 C 345.796875 405.992188 345.785156 405.890625 345.792969 405.765625 C 345.96875 405.144531 346.035156 404.796875 345.988281 404.726562 L 344.386719 403.636719 C 344.316406 403.5625 344.410156 403.308594 344.671875 402.882812 C 344.671875 402.78125 344.65625 402.714844 344.628906 402.683594 L 343.1875 401.972656 C 343.136719 401.925781 343.246094 401.757812 343.511719 401.457031 C 343.539062 401.382812 343.539062 401.316406 343.511719 401.261719 C 343.472656 401.160156 343.078125 400.945312 342.324219 400.617188 C 342.242188 400.539062 342.234375 400.339844 342.296875 400.023438 C 341.082031 399.894531 340.457031 399.792969 340.421875 399.710938 L 340.277344 399.527344 C 340.300781 399.417969 340.46875 399.210938 340.78125 398.90625 C 340.804688 398.851562 340.785156 398.796875 340.722656 398.730469 L 339.328125 398.449219 L 339.238281 398.347656 C 339.289062 398.042969 339.265625 397.863281 339.167969 397.8125 C 338.660156 397.796875 338.382812 397.738281 338.335938 397.636719 C 338.269531 397.539062 338.289062 397.425781 338.398438 397.289062 C 339.351562 396.46875 339.882812 395.96875 339.992188 395.796875 C 340.15625 395.621094 340.132812 395.53125 339.925781 395.53125 Z M 426.867188 402.660156 L 426.898438 402.738281 C 426.980469 402.964844 426.976562 403.160156 426.894531 403.324219 C 426.679688 403.605469 426.460938 403.765625 426.230469 403.796875 L 422.757812 403.808594 C 422.730469 403.890625 422.769531 403.972656 422.882812 404.066406 C 423.222656 404.371094 423.78125 404.800781 424.558594 405.355469 C 424.648438 405.453125 424.6875 405.554688 424.667969 405.664062 C 424.679688 405.710938 424.535156 405.738281 424.230469 405.738281 C 423.828125 405.738281 423.152344 405.695312 422.199219 405.609375 L 422.195312 405.609375 C 422.148438 405.703125 422.386719 406.15625 422.910156 406.964844 L 421.828125 407.269531 C 421.804688 407.375 421.8125 407.476562 421.851562 407.570312 C 422.214844 408.195312 422.378906 408.546875 422.34375 408.621094 C 422.3125 408.753906 422.253906 408.859375 422.171875 408.929688 C 421.570312 409.09375 421.261719 409.230469 421.253906 409.335938 C 421.210938 409.5625 421.257812 410.011719 421.398438 410.679688 C 421.394531 410.910156 421.355469 411.085938 421.277344 411.203125 C 421.191406 411.351562 420.984375 411.515625 420.65625 411.683594 L 417.710938 412.59375 C 417.582031 412.785156 417.519531 412.984375 417.523438 413.195312 C 417.859375 414.855469 417.894531 415.703125 417.632812 415.742188 C 417.457031 415.945312 417.285156 416.066406 417.105469 416.109375 L 415.089844 416.5 C 415.070312 416.53125 415.050781 416.5625 415.03125 416.597656 C 414.960938 416.765625 414.921875 416.914062 414.921875 417.050781 L 414.960938 418.53125 L 413.765625 419.113281 C 413.65625 419.15625 413.632812 419.597656 413.707031 420.441406 C 413.359375 421.199219 413.257812 421.636719 413.398438 421.75 L 412.542969 422.144531 L 413.179688 423.746094 C 412.339844 423.746094 411.902344 423.832031 411.871094 424.007812 C 411.84375 424.15625 411.890625 424.359375 412.003906 424.617188 L 412.777344 426.1875 C 412.75 426.269531 412.601562 426.3125 412.339844 426.3125 C 412.214844 426.3125 412.066406 426.300781 411.894531 426.285156 C 411.777344 426.308594 411.738281 426.480469 411.773438 426.808594 C 412.136719 427.628906 412.519531 428.765625 412.917969 430.226562 C 413.160156 431.023438 413.816406 431.875 414.882812 432.785156 L 416.226562 433.804688 C 418.125 434.953125 419.886719 436.109375 421.515625 437.269531 C 421.914062 436.640625 422.296875 435.980469 422.660156 435.289062 C 423.394531 433.90625 424.054688 432.402344 424.652344 430.769531 C 425.367188 428.679688 425.777344 427.386719 425.882812 426.890625 C 426.847656 423.003906 427.457031 419.800781 427.703125 417.28125 C 428.078125 413.765625 428.277344 411.550781 428.292969 410.628906 C 428.367188 409.167969 428.371094 407.917969 428.300781 406.882812 C 428.234375 405.027344 427.757812 403.621094 426.871094 402.660156 Z M 381.550781 470.476562 C 381.484375 470.476562 381.414062 470.480469 381.347656 470.484375 L 381.207031 470.488281 C 380.789062 470.507812 379.691406 470.632812 377.917969 470.867188 C 377.898438 470.867188 377.875 470.867188 377.847656 470.867188 C 377.601562 470.867188 377 470.808594 376.039062 470.691406 C 376.003906 470.691406 375.964844 470.691406 375.929688 470.691406 C 375.589844 470.691406 375.199219 470.734375 374.753906 470.820312 C 374.269531 470.882812 373.742188 471.054688 373.160156 471.335938 C 372.941406 471.40625 372.695312 471.703125 372.429688 472.234375 C 372.210938 472.929688 372.40625 473.722656 373.007812 474.617188 C 373.355469 475.09375 373.882812 475.675781 374.589844 476.367188 C 375.023438 476.757812 375.636719 477.261719 376.421875 477.886719 C 376.71875 478.164062 376.929688 478.390625 377.0625 478.570312 C 377.324219 478.945312 377.53125 479.316406 377.683594 479.683594 C 377.851562 480.136719 377.933594 480.40625 377.933594 480.492188 C 377.96875 480.671875 377.988281 480.847656 377.996094 481.023438 L 379.765625 478.75 C 381.652344 476.984375 383.121094 475.53125 384.171875 474.398438 C 384.851562 473.558594 385.171875 473.046875 385.136719 472.867188 L 385.164062 472.636719 C 385.164062 472.492188 385.128906 472.355469 385.058594 472.230469 C 384.640625 471.765625 384.222656 471.394531 383.800781 471.117188 L 383.472656 470.925781 C 383.25 470.808594 383.023438 470.71875 382.789062 470.648438 C 382.382812 470.535156 381.96875 470.476562 381.550781 470.476562 Z M 413.355469 482.933594 L 413.316406 482.9375 C 411.703125 483.140625 409.425781 484.371094 406.484375 486.632812 C 402.996094 489.175781 399.15625 492.472656 394.964844 496.515625 C 393.714844 497.476562 392.441406 498.363281 391.140625 499.171875 C 387.917969 501.210938 384.46875 502.414062 380.78125 502.773438 C 379.96875 502.816406 379.171875 502.835938 378.390625 502.835938 C 373.351562 502.835938 368.976562 501.980469 365.257812 500.273438 C 359.597656 496.886719 355.207031 492.898438 352.085938 488.308594 C 351.96875 488.183594 351.78125 488.121094 351.523438 488.121094 C 351.289062 488.121094 350.996094 488.171875 350.648438 488.273438 C 350.558594 488.265625 350.476562 488.214844 350.40625 488.117188 L 350.402344 488.117188 C 353.359375 493.078125 357.757812 497.457031 363.605469 501.261719 C 367.386719 503.425781 372.324219 504.519531 378.417969 504.535156 C 384 504.515625 389.011719 503.023438 393.457031 500.058594 C 394.75 499.265625 395.710938 498.609375 396.347656 498.089844 C 401.839844 493.152344 405.355469 490.15625 406.890625 489.097656 L 410.769531 486.289062 L 414.386719 484.121094 C 414.734375 483.78125 414.816406 483.476562 414.636719 483.210938 C 414.203125 483.03125 413.777344 482.941406 413.355469 482.933594 Z M 429.941406 584.765625 L 429.882812 584.769531 C 429.765625 584.777344 429.675781 584.808594 429.609375 584.863281 C 429.542969 584.929688 429.511719 584.992188 429.519531 585.042969 C 429.332031 585.1875 429.152344 585.347656 428.984375 585.519531 C 428.65625 585.871094 428.476562 586.136719 428.4375 586.316406 L 428.402344 586.476562 L 428.269531 588.082031 L 427.875 591.523438 C 427.84375 591.8125 427.777344 592.167969 427.671875 592.597656 C 427.550781 593.160156 427.363281 593.859375 427.121094 594.691406 L 425.058594 601.109375 C 424.90625 601.566406 424.800781 601.972656 424.738281 602.324219 L 424.617188 604.023438 C 424.589844 604.445312 424.578125 604.804688 424.578125 605.097656 C 424.582031 605.691406 424.628906 606.148438 424.714844 606.464844 C 424.878906 607.277344 425.355469 607.738281 426.136719 607.847656 L 426.511719 607.773438 C 426.480469 607.738281 426.476562 607.667969 426.503906 607.566406 L 426.785156 606.78125 L 426.84375 606.53125 C 426.867188 606.460938 426.894531 606.058594 426.921875 605.320312 C 426.933594 605.164062 426.953125 605.007812 426.972656 604.851562 C 426.988281 604.671875 427.074219 604.28125 427.230469 603.6875 C 427.230469 603.621094 427.332031 603.378906 427.539062 602.949219 L 430.203125 595.210938 C 430.472656 594.410156 430.804688 593.042969 431.1875 591.109375 C 431.5 588.835938 431.574219 587.21875 431.410156 586.257812 C 431.191406 585.339844 430.703125 584.84375 429.941406 584.765625 Z M 322.664062 551.3125 L 322.570312 551.640625 C 320.257812 560.3125 319.027344 567.148438 318.871094 572.152344 C 318.792969 574.1875 318.792969 576.269531 318.875 578.394531 L 320.105469 592.765625 C 320.230469 594.28125 320.296875 595.464844 320.308594 596.324219 C 320.3125 597.445312 320.285156 598.40625 320.226562 599.207031 C 319.6875 604.640625 319.316406 608.9375 319.121094 612.101562 C 318.980469 615.472656 318.988281 618.390625 319.144531 620.851562 C 320.683594 639.375 321.636719 649.253906 322 650.484375 C 324.691406 664.113281 327.402344 679.808594 330.136719 697.566406 C 330.660156 700.097656 331.320312 701.363281 332.121094 701.363281 C 332.316406 701.363281 332.519531 701.289062 332.730469 701.140625 C 332.765625 701.03125 332.773438 700.898438 332.753906 700.746094 C 332.96875 700.085938 333.105469 699.523438 333.167969 699.058594 C 333.269531 698.476562 333.300781 697.832031 333.269531 697.121094 C 333.1875 696.238281 332.761719 693.484375 331.996094 688.863281 C 331.65625 686.894531 331.066406 683.90625 330.21875 679.894531 L 323.628906 648.832031 C 322.902344 642.726562 322 633.355469 320.921875 620.71875 C 320.777344 618.394531 320.78125 615.515625 320.929688 612.078125 C 320.902344 611.652344 321.292969 607.367188 322.097656 599.222656 C 322.171875 598.257812 322.207031 597.28125 322.203125 596.300781 C 322.222656 595.816406 322.105469 594.148438 321.863281 591.289062 L 320.660156 578.753906 C 320.53125 576.953125 320.5 574.664062 320.566406 571.878906 C 320.613281 570.089844 320.820312 568.054688 321.1875 565.765625 C 321.242188 565.148438 321.953125 561.226562 323.320312 553.992188 C 323.394531 553.675781 323.382812 553.25 323.285156 552.714844 C 322.769531 552.269531 322.5625 551.800781 322.667969 551.3125 Z M 425.945312 617.214844 C 425.925781 617.214844 425.90625 617.214844 425.882812 617.21875 L 425.769531 617.222656 L 424.457031 617.457031 C 425.246094 620.351562 425.921875 624.875 426.480469 631.027344 C 426.78125 638.011719 426.941406 642.710938 426.957031 645.128906 C 427 648.410156 426.949219 651.503906 426.804688 654.414062 C 426.640625 658.402344 426.410156 661.328125 426.117188 663.191406 L 425.15625 669.0625 L 421.261719 691.511719 C 421.035156 692.863281 420.816406 694.535156 420.605469 696.53125 C 420.449219 698.023438 420.476562 699.1875 420.6875 700.019531 C 420.996094 701.167969 421.445312 701.761719 422.027344 701.808594 C 422.21875 701.789062 422.34375 701.726562 422.398438 701.617188 L 423.421875 699.953125 C 423.851562 699.132812 424.070312 698.503906 424.078125 698.070312 C 424.523438 693.308594 424.859375 690.179688 425.09375 688.683594 C 425.117188 688.261719 426.078125 681.625 427.980469 668.773438 L 428.5625 664.519531 C 429.207031 658.675781 429.570312 654.617188 429.648438 652.347656 C 429.957031 643.925781 429.890625 637.839844 429.449219 634.082031 L 428.324219 625.417969 C 428.128906 624.074219 427.914062 622.863281 427.683594 621.789062 C 427.347656 620.203125 426.976562 618.886719 426.570312 617.84375 C 426.445312 617.421875 426.238281 617.214844 425.945312 617.214844 Z M 300.28125 697.472656 L 300.148438 697.480469 C 299.996094 697.484375 299.628906 697.574219 299.050781 697.75 C 298.980469 697.765625 298.914062 697.773438 298.851562 697.773438 C 298.839844 697.773438 298.832031 697.773438 298.820312 697.773438 C 298.652344 697.773438 298.515625 697.6875 298.40625 697.515625 L 298.402344 697.515625 L 298.519531 697.792969 C 299.761719 700.265625 301.46875 702.675781 303.652344 705.03125 C 307.179688 708.6875 310.234375 710.671875 312.8125 710.980469 C 312.847656 710.984375 312.886719 710.988281 312.921875 710.988281 C 313.226562 710.988281 313.515625 710.863281 313.78125 710.621094 C 313.890625 710.394531 313.921875 710.253906 313.875 710.195312 C 313.851562 710.09375 313.800781 709.996094 313.71875 709.898438 C 313.636719 709.800781 313.523438 709.710938 313.378906 709.625 C 312.699219 708.839844 311.980469 708.113281 311.222656 707.449219 C 310.945312 707.207031 310.65625 706.972656 310.355469 706.742188 C 309.28125 706 308.535156 705.457031 308.109375 705.121094 C 307.117188 704.332031 306.429688 703.75 306.050781 703.378906 C 304.28125 701.6875 302.667969 699.855469 301.203125 697.882812 C 300.96875 697.621094 300.664062 697.484375 300.28125 697.472656 Z M 377.933594 635.601562 C 377.808594 635.601562 377.679688 635.617188 377.550781 635.648438 L 377.339844 635.652344 C 377.261719 635.640625 377.183594 635.632812 377.105469 635.632812 C 376.363281 635.632812 375.597656 636.246094 374.8125 637.46875 C 372.234375 642.894531 370.183594 647.695312 368.667969 651.875 C 366.691406 657.722656 365.304688 664.222656 364.511719 671.375 C 363.582031 680.320312 363.402344 690.066406 363.972656 700.617188 C 364.394531 707.359375 364.84375 711.78125 365.324219 713.878906 C 365.589844 715.175781 365.851562 716.097656 366.097656 716.640625 C 366.136719 716.777344 366.277344 716.933594 366.519531 717.105469 L 367.292969 717.246094 C 367.351562 717.277344 367.394531 717.339844 367.425781 717.4375 C 366.777344 709.148438 366.394531 699.679688 366.277344 689.03125 C 366.230469 683.140625 366.472656 678.199219 367.007812 674.203125 C 368 666.367188 369.183594 660.144531 370.566406 655.535156 C 371.898438 651.109375 374.230469 645.453125 377.558594 638.554688 C 378.847656 640.664062 380.425781 644.847656 382.289062 651.101562 C 383.902344 656.628906 385.121094 662.003906 385.949219 667.230469 C 386.539062 670.90625 387 675.417969 387.332031 680.769531 C 387.527344 684.15625 387.652344 686.882812 387.703125 688.945312 L 388.003906 702.929688 C 388.089844 705.453125 388.289062 707.761719 388.601562 709.863281 C 388.910156 711.390625 389.28125 712.15625 389.714844 712.15625 C 389.835938 712.15625 389.957031 712.101562 390.085938 711.988281 C 390.25 711.671875 390.34375 711.367188 390.367188 711.082031 L 391.152344 705.597656 C 391.460938 702.71875 391.589844 700.558594 391.539062 699.125 C 391.507812 695.027344 391.320312 690.375 390.984375 685.164062 C 390.480469 677.421875 389.609375 670.261719 388.378906 663.675781 C 386.742188 655.414062 384.707031 648.117188 382.269531 641.785156 C 380.800781 637.660156 379.359375 635.601562 377.933594 635.601562 Z M 573.214844 657.996094 C 573.074219 657.996094 572.933594 658 572.789062 658.011719 L 572.332031 658.023438 C 567.140625 658.5 558.753906 661.246094 547.167969 666.257812 L 533.820312 668.164062 L 516.164062 673.542969 C 513.953125 673.820312 512.117188 673.957031 510.652344 673.957031 C 510.152344 673.957031 509.699219 673.941406 509.285156 673.910156 C 499.097656 671.671875 490.117188 670.554688 482.347656 670.554688 C 481.4375 670.554688 480.542969 670.570312 479.667969 670.601562 C 470.699219 670.996094 464.128906 671.527344 459.957031 672.195312 C 459.703125 673.710938 459.355469 675.027344 458.90625 676.144531 L 451.769531 687.277344 C 450.828125 688.671875 450.152344 690.523438 449.742188 692.832031 C 449.414062 694.085938 449.28125 695.796875 449.347656 697.964844 L 451.402344 708.894531 C 450.703125 710.921875 450.125 712.769531 449.664062 714.433594 C 449.761719 714.441406 449.859375 714.449219 449.960938 714.457031 C 453.40625 713.617188 455.804688 713.195312 457.152344 713.195312 C 457.332031 713.195312 457.492188 713.203125 457.636719 713.21875 C 467.59375 715.875 477.792969 717.734375 488.230469 718.792969 L 498.457031 719.585938 C 501.460938 719.550781 504.203125 719.53125 506.679688 719.53125 C 511.808594 719.53125 515.800781 719.609375 518.660156 719.765625 C 532.835938 721.398438 540.816406 722.21875 542.605469 722.21875 C 542.792969 722.21875 542.910156 722.207031 542.964844 722.191406 C 546.070312 722.03125 549.425781 721.761719 553.03125 721.382812 L 588.261719 717.09375 C 589.796875 716.675781 591.605469 715.371094 593.6875 713.175781 C 594.539062 708.707031 596.867188 704.539062 600.671875 700.679688 C 601.601562 700.394531 600.300781 697.707031 596.769531 692.621094 C 596.484375 691.835938 596.914062 691.300781 598.066406 691.011719 C 597.246094 690.59375 595.824219 686.386719 593.8125 678.394531 C 593.039062 677.332031 592.375 676.636719 591.820312 676.308594 L 576.359375 666.078125 C 575.605469 665.46875 575.523438 663.335938 576.105469 659.667969 C 575.511719 658.554688 574.546875 657.996094 573.214844 657.996094 Z M 573.214844 657.996094 " fill-opacity="1" fill-rule="nonzero"/></g><g clip-path="url(#4e035825dd)"><path fill="#efe271" d="M 100.816406 328.058594 L 79.679688 291.449219 L 90.824219 291.449219 C 99.703125 291.449219 105.253906 281.835938 100.816406 274.144531 L 44.488281 176.582031 C 40.046875 168.890625 28.945312 168.890625 24.503906 176.582031 L -31.824219 274.144531 C -36.265625 281.835938 -30.714844 291.449219 -21.832031 291.449219 L -10.6875 291.449219 L -31.824219 328.058594 C -36.265625 335.75 -30.714844 345.367188 -21.832031 345.367188 L -12.898438 345.367188 L -31.824219 378.152344 C -36.265625 385.84375 -30.714844 395.457031 -21.832031 395.457031 L 25.421875 395.457031 L 25.421875 493.097656 C 25.421875 495.617188 27.484375 497.675781 30 497.675781 L 38.988281 497.675781 C 41.507812 497.675781 43.566406 495.617188 43.566406 493.097656 L 43.566406 395.457031 L 90.824219 395.457031 C 99.703125 395.457031 105.253906 385.84375 100.816406 378.152344 L 81.886719 345.367188 L 90.824219 345.367188 C 99.703125 345.367188 105.253906 335.753906 100.816406 328.0625 Z M 100.816406 328.058594 " fill-opacity="1" fill-rule="nonzero"/></g><g clip-path="url(#63af086598)"><path fill="#efe271" d="M 991.820312 328.058594 L 970.683594 291.449219 L 981.832031 291.449219 C 990.710938 291.449219 996.261719 281.835938 991.820312 274.144531 L 935.492188 176.582031 C 931.054688 168.890625 919.949219 168.890625 915.511719 176.582031 L 859.183594 274.144531 C 854.742188 281.835938 860.292969 291.449219 869.171875 291.449219 L 880.320312 291.449219 L 859.183594 328.058594 C 854.742188 335.75 860.292969 345.367188 869.171875 345.367188 L 878.109375 345.367188 L 859.183594 378.152344 C 854.742188 385.84375 860.292969 395.457031 869.171875 395.457031 L 916.429688 395.457031 L 916.429688 493.097656 C 916.429688 495.617188 918.488281 497.675781 921.007812 497.675781 L 929.996094 497.675781 C 932.515625 497.675781 934.574219 495.617188 934.574219 493.097656 L 934.574219 395.457031 L 981.832031 395.457031 C 990.710938 395.457031 996.261719 385.84375 991.820312 378.152344 L 972.894531 345.367188 L 981.832031 345.367188 C 990.710938 345.367188 996.261719 335.753906 991.820312 328.0625 Z M 991.820312 328.058594 " fill-opacity="1" fill-rule="nonzero"/></g><path fill="#d48e66" d="M 97.4375 445.007812 L 150.171875 442.078125 C 150.171875 442.078125 141.988281 425.03125 143.335938 403.011719 C 144.800781 379.085938 157.011719 364.925781 157.011719 364.925781 C 157.011719 364.925781 146.269531 316.09375 162.871094 310.234375 C 179.472656 304.375 198.027344 336.601562 198.027344 336.601562 C 198.027344 336.601562 232.699219 331.230469 252.230469 337.089844 C 252.230469 337.089844 274.179688 307.414062 284.460938 311.699219 C 296.179688 316.582031 294.714844 345.878906 290.808594 359.0625 C 290.808594 359.0625 304.480469 380.0625 301.550781 415.707031 C 298.738281 449.898438 282.019531 469.421875 282.019531 469.421875 C 282.019531 469.421875 291.785156 503.605469 285.925781 549.503906 C 280.066406 595.40625 272.25 640.332031 269.324219 651.074219 C 266.390625 661.816406 232.4375 662.769531 231.722656 652.050781 C 230.257812 630.078125 232.210938 591.011719 232.210938 591.011719 L 220.003906 593.453125 C 220.003906 593.453125 215.609375 644.238281 214.632812 654.003906 C 213.65625 663.769531 178.496094 662.792969 176.542969 654.980469 C 174.589844 647.167969 170.683594 597.359375 170.683594 597.359375 L 100.367188 597.359375 C 100.367188 597.359375 100.367188 653.027344 99.390625 659.863281 C 98.414062 666.699219 65.207031 673.535156 62.277344 665.722656 C 59.347656 657.910156 54.464844 633.492188 54.464844 633.492188 C 54.464844 633.492188 42.746094 655.957031 40.792969 659.863281 C 38.839844 663.769531 3.679688 662.792969 4.65625 648.144531 C 5.632812 633.492188 22.234375 570.988281 19.304688 561.222656 C 16.375 551.460938 2.703125 511.417969 15.398438 486.027344 C 15.398438 486.027344 -26.050781 465.144531 -8.039062 417.664062 C 2.703125 389.339844 39.328125 374.203125 69.113281 385.433594 C 100.34375 397.210938 110.132812 423.523438 97.4375 445.007812 Z M 97.4375 445.007812 " fill-opacity="1" fill-rule="nonzero"/><path fill="#fff4e7" d="M -2.371094 470.570312 C -10.835938 459.445312 -17.300781 442.078125 -8.039062 417.664062 C 2.703125 389.339844 39.328125 374.203125 69.113281 385.433594 C 72.136719 386.574219 74.898438 387.886719 77.515625 389.28125 C 79.199219 392.941406 79.710938 397.097656 76.4375 400.570312 C 70.949219 406.402344 55.441406 402.523438 55.441406 402.523438 C 55.441406 402.523438 63.253906 408.871094 61.300781 413.269531 C 59.347656 417.664062 54.464844 422.058594 27.121094 417.664062 C 0.8125 413.433594 -11.472656 450.769531 -2.371094 470.570312 Z M 231.226562 623.703125 C 231.109375 633.605469 231.183594 643.980469 231.722656 652.050781 C 232.4375 662.769531 266.390625 661.816406 269.320312 651.074219 C 270.609375 646.351562 272.839844 635.027344 275.433594 619.921875 C 270.269531 623.183594 263.691406 625.960938 255.648438 626.660156 C 243.015625 627.757812 235.421875 625.683594 231.226562 623.703125 Z M 173.328125 628.085938 C 174.445312 639.96875 175.683594 651.542969 176.542969 654.980469 C 178.496094 662.792969 213.652344 663.769531 214.628906 654.003906 C 215.042969 649.882812 216.0625 638.464844 217.105469 626.636719 C 213.472656 628.074219 207.832031 629.679688 199.003906 631.054688 C 188.84375 632.632812 179.96875 630.65625 173.328125 628.085938 Z M 55.5625 638.8125 C 57.175781 646.445312 60.210938 660.207031 62.277344 665.722656 C 65.207031 673.535156 98.414062 666.699219 99.390625 659.863281 C 99.851562 656.628906 100.09375 642.441406 100.222656 628.402344 C 83.46875 644.289062 61.566406 640.308594 55.5625 638.8125 Z M 8.207031 627.632812 C 6.34375 636.648438 4.921875 644.167969 4.65625 648.144531 C 3.679688 662.792969 38.839844 663.769531 40.792969 659.863281 C 42.15625 657.136719 48.269531 645.382812 51.84375 638.523438 C 33.09375 639.996094 17.207031 632.933594 8.207031 627.632812 Z M 287.765625 523.296875 C 288.226562 491.191406 282.015625 469.421875 282.015625 469.421875 C 282.015625 469.421875 298.738281 449.902344 301.550781 415.710938 C 301.859375 411.949219 301.949219 408.386719 301.921875 404.960938 C 296.746094 400.453125 288.179688 397.773438 276.085938 398.019531 C 252.160156 398.507812 245.882812 415.21875 221.464844 415.21875 C 197.050781 415.21875 182.890625 397.152344 163.847656 398.128906 C 155.496094 398.558594 148.464844 402.738281 143.195312 407.300781 C 143.039062 427.207031 150.171875 442.078125 150.171875 442.078125 C 150.171875 442.078125 157.007812 444.03125 163.355469 462.097656 C 169.707031 480.164062 174.589844 535.34375 220 593.453125 L 232.207031 591.011719 C 266.859375 569.585938 284.042969 546.878906 287.765625 523.296875 Z M 210.367188 371.449219 L 210.253906 371.246094 C 208.195312 367.539062 203.527344 366.199219 199.820312 368.257812 L 197.980469 369.277344 C 194.273438 371.332031 192.9375 376.003906 194.992188 379.707031 L 195.105469 379.914062 C 197.160156 383.621094 201.832031 384.957031 205.539062 382.902344 L 207.378906 381.882812 C 211.085938 379.828125 212.421875 375.15625 210.367188 371.449219 Z M 238.285156 380.644531 L 240.164062 381.585938 C 243.953125 383.484375 248.566406 381.949219 250.460938 378.160156 L 250.566406 377.953125 C 252.464844 374.164062 250.929688 369.550781 247.140625 367.65625 L 245.257812 366.714844 C 241.46875 364.816406 236.859375 366.351562 234.960938 370.140625 L 234.859375 370.347656 C 232.960938 374.136719 234.492188 378.75 238.285156 380.644531 Z M 238.285156 380.644531 " fill-opacity="1" fill-rule="nonzero"/><path fill="#e1ab9b" d="M 71.5 481.519531 C 70.335938 481.519531 69.167969 481.3125 68.003906 480.863281 C 63.828125 479.238281 61.515625 476.402344 60.375 473.257812 C 58.980469 473.765625 57.5 473.996094 55.972656 473.910156 C 50.796875 473.621094 44.496094 469.441406 42.324219 458.570312 C 41.507812 454.496094 40.125 451.792969 38.621094 451.332031 C 36.484375 450.683594 32.398438 453.316406 30.238281 455.457031 C 28.515625 457.167969 25.722656 457.171875 24 455.449219 C 22.28125 453.726562 22.273438 450.941406 23.992188 449.21875 C 24.890625 448.3125 33.027344 440.425781 41.164062 442.878906 C 46.125 444.375 49.429688 449.070312 50.980469 456.835938 C 52.085938 462.363281 54.59375 464.988281 56.460938 465.09375 C 58.007812 465.234375 59.523438 463.613281 60.410156 461.066406 C 60.457031 460.925781 60.503906 460.785156 60.550781 460.648438 C 61.34375 458.371094 63.816406 457.144531 66.113281 457.910156 C 68.40625 458.671875 69.660156 461.132812 68.929688 463.4375 C 68.894531 463.535156 68.867188 463.628906 68.832031 463.722656 C 68.4375 464.996094 66.851562 470.941406 71.203125 472.632812 C 73.851562 473.617188 81.773438 465.183594 87.246094 455.527344 C 88.449219 453.40625 91.148438 452.660156 93.261719 453.863281 C 95.382812 455.0625 96.128906 457.75 94.933594 459.875 C 91.855469 465.3125 81.820312 481.519531 71.5 481.519531 Z M 48.945312 618.480469 C 51.171875 617.484375 52.164062 614.871094 51.167969 612.644531 L 38.472656 584.320312 C 37.472656 582.097656 34.859375 581.105469 32.636719 582.101562 C 30.414062 583.097656 29.417969 585.710938 30.414062 587.933594 L 43.113281 616.257812 C 43.847656 617.898438 45.457031 618.867188 47.140625 618.867188 C 47.746094 618.867188 48.359375 618.742188 48.945312 618.480469 Z M 170.808594 355.734375 L 186.425781 345.363281 C 187.757812 344.476562 188.265625 342.75 187.570312 341.308594 C 185.882812 337.820312 181.613281 331.292969 171.375 324.472656 C 169.066406 322.933594 165.921875 324.03125 165.042969 326.664062 C 163.363281 331.664062 161.960938 340.6875 165.894531 353.921875 C 166.515625 356.015625 168.988281 356.945312 170.808594 355.734375 Z M 265.226562 343.683594 L 278.949219 352.230469 C 280.722656 353.335938 283.042969 352.414062 283.585938 350.394531 C 284.882812 345.554688 286.519531 336.839844 284.898438 327.527344 C 284.4375 324.867188 281.515625 323.476562 279.101562 324.6875 C 275.699219 326.394531 270.644531 330.316406 264.355469 339.230469 C 263.320312 340.695312 263.703125 342.734375 265.226562 343.683594 Z M 238.847656 435.625 L 238.847656 428.140625 L 229.027344 419.308594 L 218.59375 428.140625 L 218.59375 435.625 C 218.59375 441.21875 223.128906 445.753906 228.71875 445.753906 C 234.3125 445.753906 238.847656 441.21875 238.847656 435.625 Z M 238.847656 435.625 " fill-opacity="1" fill-rule="nonzero"/><path fill="#80665c" d="M 200.207031 397.984375 C 200.574219 401.28125 198.199219 404.25 194.90625 404.617188 C 191.609375 404.988281 188.640625 402.613281 188.273438 399.316406 C 187.902344 396.023438 190.277344 393.054688 193.570312 392.683594 C 196.867188 392.316406 199.835938 394.691406 200.207031 397.984375 Z M 255.890625 388.3125 C 252.597656 388.683594 250.222656 391.652344 250.589844 394.949219 C 250.960938 398.242188 253.929688 400.617188 257.226562 400.246094 C 260.519531 399.878906 262.894531 396.910156 262.527344 393.613281 C 262.15625 390.320312 259.1875 387.945312 255.890625 388.3125 Z M 228.058594 403.9375 C 224.214844 404.304688 221.394531 407.714844 221.761719 411.5625 C 222.125 415.40625 225.539062 418.226562 229.382812 417.863281 C 233.226562 417.496094 236.046875 414.085938 235.683594 410.238281 C 235.316406 406.394531 231.902344 403.574219 228.058594 403.9375 Z M 228.058594 403.9375 " fill-opacity="1" fill-rule="nonzero"/><path fill="#80665c" d="M 672.175781 368.027344 L 667.957031 351.847656 C 667.957031 351.847656 654.589844 355.011719 653.535156 347.625 C 652.480469 340.238281 689.765625 322.296875 698.914062 323.351562 C 708.058594 324.410156 710.871094 350.792969 710.871094 350.792969 Z M 803.480469 379.382812 L 810.71875 364.304688 C 810.71875 364.304688 823.234375 369.96875 825.679688 362.917969 C 828.128906 355.871094 794.960938 331.128906 785.78125 330.417969 C 776.601562 329.703125 768.792969 355.0625 768.792969 355.0625 Z M 803.480469 379.382812 " fill-opacity="1" fill-rule="nonzero"/><path fill="#d48e66" d="M 673.9375 477.078125 C 673.9375 477.078125 655.996094 463.710938 654.238281 440.140625 C 652.480469 416.574219 657.050781 372.25 684.839844 354.308594 C 712.632812 336.367188 766.453125 338.128906 789.671875 360.640625 C 812.886719 383.15625 814.292969 406.371094 814.292969 406.371094 C 814.292969 406.371094 821.679688 407.074219 826.957031 415.167969 C 832.234375 423.257812 830.828125 427.832031 830.828125 427.832031 C 830.828125 427.832031 841.730469 426.773438 848.769531 433.808594 C 855.804688 440.847656 854.398438 448.585938 854.398438 448.585938 C 854.398438 448.585938 905.402344 453.511719 927.917969 511.199219 C 950.429688 568.890625 916.660156 605.476562 891.332031 622.359375 C 866.003906 639.246094 856.15625 637.839844 847.714844 638.542969 C 839.269531 639.246094 832.585938 627.285156 831.53125 622.007812 L 788.261719 624.121094 C 788.261719 624.121094 785.097656 630.453125 782.28125 635.375 C 779.46875 640.300781 743.234375 641.707031 741.828125 631.859375 C 740.421875 622.007812 742.179688 607.234375 742.179688 607.234375 L 730.925781 599.144531 C 730.925781 599.144531 732.332031 623.417969 732.332031 630.453125 C 732.332031 637.488281 703.488281 648.394531 691.878906 631.15625 C 680.269531 613.917969 666.199219 533.714844 673.9375 477.078125 Z M 673.9375 477.078125 " fill-opacity="1" fill-rule="nonzero"/><path fill="#fff4e7" d="M 686.683594 452.5625 C 684.46875 442.277344 690.0625 407.890625 712.074219 400.90625 C 713.988281 400.296875 716.242188 399.914062 718.65625 399.742188 C 719.535156 396.617188 720.210938 391.875 718.609375 386.671875 C 715.796875 377.527344 714.390625 366.621094 720.019531 359.9375 C 725.648438 353.253906 735.65625 352.785156 740.421875 363.105469 C 744.640625 372.25 738.660156 380.691406 734.792969 387.730469 C 732.519531 391.863281 732.433594 397.207031 732.746094 400.914062 C 735.601562 401.597656 738.21875 402.546875 740.292969 403.738281 C 758.824219 414.417969 759.121094 449.777344 754.902344 459.410156 C 750.6875 469.046875 738.789062 471.875 728.332031 465.730469 C 725.183594 463.878906 722.597656 461.382812 720.53125 458.59375 C 717.953125 460.917969 714.925781 462.851562 711.46875 464.039062 C 700 467.980469 688.902344 462.84375 686.683594 452.5625 Z M 814.644531 485.167969 C 828.011719 468.988281 831.882812 444.011719 830.828125 427.832031 C 830.734375 426.421875 830.746094 425.175781 830.742188 423.90625 C 830.351562 421.777344 829.367188 418.859375 826.957031 415.167969 C 822.714844 408.65625 817.164062 406.953125 815.132812 406.527344 C 817.417969 425.863281 816.515625 454.203125 802.335938 467.230469 C 785.097656 483.058594 741.828125 504.164062 674.640625 476.023438 C 673.394531 475.5 672.246094 475.054688 671.066406 474.582031 C 672.796875 476.226562 673.9375 477.078125 673.9375 477.078125 C 672.761719 485.675781 672.097656 494.820312 671.84375 504.199219 C 681.5 513.082031 695.414062 528.195312 696.097656 542.15625 C 696.75 555.414062 685.726562 566.796875 677.117188 578.699219 C 681.113281 603.523438 686.734375 623.519531 691.878906 631.15625 C 703.488281 648.390625 732.332031 637.488281 732.332031 630.453125 C 732.332031 623.417969 730.925781 599.144531 730.925781 599.144531 L 742.183594 607.234375 C 742.183594 607.234375 740.421875 622.007812 741.828125 631.859375 C 743.238281 641.710938 779.46875 640.300781 782.285156 635.378906 C 785.097656 630.453125 788.261719 624.121094 788.261719 624.121094 C 794.242188 610.402344 797.410156 601.253906 796.707031 581.90625 C 796.003906 562.558594 772.433594 557.636719 773.136719 541.101562 C 773.839844 524.570312 796.3125 507.363281 814.644531 485.167969 Z M 814.644531 485.167969 " fill-opacity="1" fill-rule="nonzero"/><path fill="#80665c" d="M 697.597656 399.335938 C 697.597656 403.082031 694.5625 406.113281 690.820312 406.113281 C 687.078125 406.113281 684.042969 403.078125 684.042969 399.335938 C 684.042969 395.59375 687.078125 392.558594 690.820312 392.558594 C 694.566406 392.558594 697.597656 395.59375 697.597656 399.335938 Z M 763.753906 399.40625 C 760.007812 399.402344 756.976562 402.4375 756.972656 406.183594 C 756.972656 409.925781 760.007812 412.960938 763.75 412.960938 C 767.496094 412.960938 770.527344 409.925781 770.53125 406.183594 C 770.53125 402.441406 767.496094 399.40625 763.753906 399.40625 Z M 724.023438 403.730469 C 719.664062 403.660156 716.070312 407.132812 716 411.492188 C 715.925781 415.851562 719.402344 419.445312 723.761719 419.515625 C 728.121094 419.589844 731.710938 416.113281 731.785156 411.753906 C 731.855469 407.394531 728.378906 403.800781 724.023438 403.730469 Z M 724.023438 403.730469 " fill-opacity="1" fill-rule="nonzero"/><path fill="#e1ab9b" d="M 828.71875 516.886719 C 827.464844 516.886719 826.214844 516.421875 825.246094 515.480469 C 823.269531 513.566406 823.222656 510.410156 825.140625 508.433594 C 845.585938 487.351562 844.222656 468.136719 844.152344 467.328125 C 843.925781 464.597656 845.941406 462.179688 848.667969 461.933594 C 851.46875 461.679688 853.8125 463.671875 854.078125 466.398438 C 854.175781 467.382812 856.140625 490.785156 832.292969 515.375 C 831.316406 516.382812 830.015625 516.886719 828.71875 516.886719 Z M 839.027344 602.144531 C 839.132812 602.007812 849.425781 588.515625 869.46875 575.148438 C 871.761719 573.617188 872.378906 570.523438 870.851562 568.238281 C 869.328125 565.945312 866.222656 565.328125 863.941406 566.855469 C 842.378906 581.234375 831.515625 595.554688 831.0625 596.152344 C 829.414062 598.351562 829.855469 601.472656 832.054688 603.125 C 832.949219 603.796875 834.003906 604.125 835.042969 604.125 C 836.554688 604.125 838.050781 603.441406 839.027344 602.144531 Z M 770.957031 510.820312 C 773.46875 509.691406 774.589844 506.742188 773.460938 504.234375 C 772.332031 501.722656 769.371094 500.605469 766.871094 501.730469 C 735.023438 516.03125 703.132812 501.226562 702.816406 501.078125 C 700.332031 499.890625 697.359375 500.949219 696.175781 503.425781 C 694.996094 505.910156 696.039062 508.878906 698.519531 510.066406 C 699.5 510.535156 715.433594 517.996094 736.714844 517.996094 C 747.210938 517.996094 759.011719 516.183594 770.957031 510.820312 Z M 770.957031 510.820312 " fill-opacity="1" fill-rule="nonzero"/><path fill="#06473d" d="M 164.703125 753.839844 C 143.6875 760.445312 122.25 765.085938 100.382812 767.757812 C 15.195312 778.25 -104.507812 765.371094 -149.0625 680.351562 C -160.773438 657.996094 -164.828125 629.363281 -151.109375 608.175781 C -138.414062 588.570312 -113.226562 579.980469 -89.90625 581.214844 C -66.582031 582.445312 -44.5625 591.902344 -23.363281 601.703125 C -40.511719 574.488281 -49.246094 538.378906 -33.304688 510.445312 C -14.121094 476.847656 33.765625 469.515625 69.636719 484.003906 C 105.511719 498.496094 132.09375 528.933594 157.261719 558.304688 C 174.945312 536.027344 196.007812 511.882812 224.386719 509.902344 C 242.457031 508.644531 260.894531 517.757812 270.863281 532.878906 C 280.835938 548 281.960938 568.539062 273.6875 584.652344 C 277.550781 577.125 310.886719 582.414062 316.816406 585.527344 C 333.746094 594.390625 333.566406 617.871094 324.445312 633.347656 C 289.097656 693.363281 230 733.234375 164.703125 753.839844 Z M 164.703125 753.839844 " fill-opacity="1" fill-rule="nonzero"/><path fill="#06473d" d="M 795.292969 753.839844 C 816.308594 760.445312 837.75 765.085938 859.613281 767.757812 C 944.804688 778.25 1064.507812 765.371094 1109.058594 680.351562 C 1120.773438 657.996094 1124.824219 629.363281 1111.109375 608.175781 C 1098.414062 588.570312 1073.226562 579.980469 1049.902344 581.214844 C 1026.578125 582.445312 1004.5625 591.902344 983.359375 601.703125 C 1000.511719 574.488281 1009.246094 538.378906 993.300781 510.445312 C 974.121094 476.847656 926.234375 469.515625 890.359375 484.003906 C 854.488281 498.496094 827.90625 528.933594 802.738281 558.304688 C 785.050781 536.027344 763.988281 511.882812 735.609375 509.902344 C 717.539062 508.644531 699.105469 517.757812 689.132812 532.878906 C 679.160156 548 678.039062 568.539062 686.308594 584.652344 C 682.449219 577.125 649.109375 582.414062 643.183594 585.527344 C 626.253906 594.390625 626.433594 617.871094 635.550781 633.347656 C 670.898438 693.363281 730 733.234375 795.292969 753.839844 Z M 795.292969 753.839844 " fill-opacity="1" fill-rule="nonzero"/><g clip-path="url(#9b2c3a5dad)"><path fill="#06473d" d="M 353.171875 645.808594 C 347.496094 630.644531 344.109375 615.128906 343.859375 600.109375 C 343.46875 576.097656 355.371094 551.945312 379.449219 544.691406 C 409.664062 535.59375 441.984375 555.957031 460.808594 578.242188 C 466.738281 571.09375 473.261719 564.441406 480.085938 558.144531 C 485.851562 552.820312 491.257812 547.375 498.132812 543.410156 C 529.03125 525.589844 567.875 537.242188 588.148438 565.425781 C 590.539062 568.742188 592.625 572.246094 594.402344 575.929688 C 616.523438 621.867188 582.363281 673.808594 550.460938 705.5 C 523.019531 732.761719 479.527344 765.59375 439.511719 745.648438 C 398.746094 725.335938 368.980469 688.027344 353.171875 645.808594 Z M 353.171875 645.808594 " fill-opacity="1" fill-rule="nonzero"/></g></svg>